<?xml version="1.0" encoding="UTF-8"?><svg id="Layer_2" xmlns="http://www.w3.org/2000/svg" viewBox="0 0 72 72"><defs><style>.cls-1{fill:#241f20;}</style></defs><g id="Layer_1-2"><g id="Icon_40"><path class="cls-1" d="M15.47,44.03h0c-.68,0-1.14,0-1.48-.02h0s-.09.01-.09.01c-3.91-.02-7.28-1.45-10.02-4.24-4.48-4.57-5.17-11.97-1.59-17.22,2.15-3.14,5.13-5.12,8.86-5.88.28-2.54,1.04-4.94,2.27-7.15,1.91-3.43,4.61-6.02,8.03-7.72C23.94.59,26.47-.03,28.98,0c6.4.06,11.51,2.71,15.19,7.89,1.65-.79,3.36-1.21,5.1-1.26,2.18-.06,4.22.39,6.08,1.35,3.74,1.92,6.16,4.98,7.18,9.11,2.17.73,4.02,1.89,5.51,3.44,3.2,3.33,4.46,7.31,3.75,11.84-.88,5.62-5.03,10.05-10.57,11.3-.96.22-1.92-.39-2.13-1.35-.22-.96.39-1.92,1.35-2.13,4.11-.93,7.18-4.22,7.84-8.38.54-3.41-.38-6.29-2.8-8.81-1.2-1.25-2.67-2.12-4.49-2.66-1.23-.37-1.66-1.23-1.79-1.89-.71-3.39-2.5-5.77-5.47-7.3-1.32-.68-2.78-1-4.35-.96-1.52.04-2.96.47-4.4,1.3-1.3.75-2.37.49-3.18-.76l-.03-.04c-3.07-4.75-7.26-7.08-12.82-7.13-1.94-.02-3.93.47-5.91,1.44-2.8,1.39-4.92,3.43-6.5,6.25-1.08,1.94-1.72,4.07-1.89,6.34v.2c-.07.92-.36,2.01-2.04,2.25-.06,0-.13.02-.21.03-3.09.5-5.43,1.97-7.16,4.49-2.59,3.81-2.07,9.39,1.19,12.71,2.08,2.11,4.53,3.15,7.49,3.17.05,0,.11,0,.18,0h0c.06,0,.32,0,1.38,0,.99,0,1.78.8,1.78,1.78,0,.98-.8,1.78-1.78,1.78Z"/><path class="cls-1" d="M37.46,51.71c-9.77,0-17.72-7.89-17.73-17.59-.03-4.72,1.79-9.16,5.13-12.51,3.35-3.36,7.79-5.21,12.5-5.18,9.69.04,17.62,7.9,17.67,17.52.02,4.75-1.8,9.21-5.13,12.56-3.29,3.31-7.83,5.2-12.44,5.21h0ZM37.29,19.99c-3.72,0-7.24,1.47-9.9,4.13-2.67,2.67-4.12,6.21-4.09,9.97h0c0,7.75,6.36,14.05,14.16,14.05h0c3.67,0,7.29-1.52,9.91-4.15,2.66-2.67,4.11-6.23,4.09-10.02-.04-7.67-6.37-13.94-14.12-13.97-.02,0-.04,0-.06,0Z"/><path class="cls-1" d="M63.81,72c-.78,0-1.55-.34-2.08-.99l-16.75-20.73c-.93-1.15-.75-2.83.4-3.76,1.15-.93,2.83-.75,3.76.4l16.75,20.73c.93,1.15.75,2.83-.4,3.76-.49.4-1.09.59-1.68.59Z"/><path class="cls-1" d="M45.91,33.63c-.59,0-1.07-.48-1.07-1.06-.02-3.33-2.77-6.05-6.13-6.06-.59,0-1.07-.48-1.07-1.07,0-.59.48-1.07,1.07-1.07h0c4.53.02,8.24,3.7,8.26,8.19,0,.59-.47,1.07-1.06,1.08h0Z"/></g></g></svg>