<?xml version="1.0" encoding="UTF-8"?><svg id="Layer_2" xmlns="http://www.w3.org/2000/svg" viewBox="0 0 72 71.96"><g id="Layer_1-2"><g id="Icon_79"><path d="M60.36,43.68c-.98,0-1.78-.8-1.78-1.78v-24.76h-10.38c-.98,0-1.78-.8-1.78-1.78s.8-1.78,1.78-1.78h12.16c.98,0,1.78.8,1.78,1.78v26.54c0,.98-.8,1.78-1.78,1.78Z"/><path d="M11.71,42.95c-.98,0-1.78-.8-1.78-1.78V15.37c0-.98.8-1.78,1.78-1.78h12.53c.98,0,1.78.8,1.78,1.78s-.8,1.78-1.78,1.78h-10.75v24.02c0,.98-.8,1.78-1.78,1.78Z"/><path d="M46.38,56.93h-20.68c-.98,0-1.78-.8-1.78-1.78s.8-1.78,1.78-1.78h20.68c.98,0,1.78.8,1.78,1.78s-.8,1.78-1.78,1.78Z"/><path d="M1.85,47.37c-.54,0-1.08-.25-1.43-.72-.58-.79-.42-1.9.37-2.49,2.11-1.56,6.54-4.16,12.64-4.14,6.01.03,10.39,2.61,12.47,4.14.79.58.96,1.7.37,2.49-.58.79-1.7.96-2.49.37-1.73-1.28-5.37-3.42-10.36-3.45-.02,0-.05,0-.07,0-5.03,0-8.7,2.16-10.44,3.45-.32.24-.69.35-1.06.35Z"/><path d="M13.34,71.96c-.14,0-.28,0-.43,0-5.74-.11-10.02-2.47-12.07-3.87-.49-.33-.78-.88-.78-1.47v-20.71c0-.67.38-1.29.98-1.59.6-.3,1.32-.24,1.86.16,1.73,1.28,5.37,3.42,10.36,3.45.02,0,.05,0,.07,0,5.03,0,8.7-2.16,10.44-3.45.54-.4,1.26-.46,1.86-.16.6.3.98.92.98,1.59v20.71c0,.59-.29,1.14-.78,1.47-2.14,1.46-6.57,3.87-12.5,3.87ZM3.63,65.65c1.91,1.16,5.17,2.67,9.35,2.75,4.52.09,8.04-1.51,10.08-2.75v-16.55c-2.38,1.23-5.68,2.38-9.72,2.38-.03,0-.06,0-.09,0-4-.02-7.27-1.16-9.63-2.38v16.55ZM24.84,66.62h0,0Z"/><path d="M13.28,61.8s-.06,0-.09,0c-6.01-.03-10.39-2.61-12.47-4.14-.79-.58-.96-1.7-.37-2.49.58-.79,1.7-.96,2.49-.37,1.73,1.28,5.37,3.42,10.36,3.45.02,0,.05,0,.07,0,5.03,0,8.69-2.16,10.44-3.45.79-.58,1.9-.42,2.49.37.58.79.42,1.9-.37,2.49-2.1,1.55-6.5,4.14-12.55,4.14Z"/><path d="M47.23,47.37c-.54,0-1.08-.25-1.43-.72-.58-.79-.42-1.9.37-2.49,2.1-1.55,6.5-4.14,12.55-4.14.03,0,.06,0,.09,0,6.01.03,10.39,2.61,12.47,4.14.79.58.96,1.7.37,2.49-.58.79-1.7.96-2.49.37-1.73-1.28-5.37-3.42-10.36-3.45-.02,0-.05,0-.07,0-5.03,0-8.7,2.16-10.44,3.45-.32.24-.69.35-1.06.35Z"/><path d="M58.72,71.96c-.14,0-.28,0-.43,0-5.74-.11-10.02-2.47-12.07-3.87-.49-.33-.78-.88-.78-1.47v-20.71c0-.67.38-1.29.98-1.59.6-.3,1.32-.24,1.86.16,1.73,1.28,5.37,3.42,10.36,3.45.02,0,.05,0,.07,0,5.03,0,8.7-2.16,10.44-3.45.54-.4,1.26-.46,1.86-.16.6.3.98.92.98,1.59v20.71c0,.59-.29,1.14-.78,1.47-2.14,1.46-6.57,3.87-12.5,3.87ZM49.01,65.65c1.91,1.16,5.17,2.67,9.35,2.75,4.53.09,8.04-1.51,10.08-2.75v-16.55c-2.39,1.24-5.71,2.4-9.8,2.38-4-.02-7.27-1.16-9.63-2.38v16.55ZM70.22,66.62h0,0Z"/><path d="M58.65,61.8s-.06,0-.09,0c-6.01-.03-10.39-2.61-12.47-4.14-.79-.58-.96-1.7-.37-2.49.58-.79,1.7-.96,2.49-.37,1.73,1.28,5.37,3.42,10.36,3.45.02,0,.05,0,.07,0,5.03,0,8.69-2.16,10.44-3.45.79-.58,1.9-.42,2.49.37.58.79.42,1.9-.37,2.49-2.1,1.55-6.5,4.14-12.55,4.14Z"/><path d="M24.54,7.35c-.54,0-1.08-.25-1.43-.72-.58-.79-.42-1.9.37-2.49C25.59,2.59,30.01-.03,36.12,0c6.01.03,10.39,2.61,12.47,4.14.79.58.96,1.7.37,2.49-.59.79-1.7.96-2.49.37-1.73-1.28-5.37-3.42-10.36-3.45-.02,0-.05,0-.07,0-5.03,0-8.69,2.16-10.44,3.45-.32.24-.69.35-1.06.35Z"/><path d="M36.03,31.94c-.14,0-.28,0-.43,0-5.74-.11-10.02-2.47-12.07-3.87-.49-.33-.78-.88-.78-1.47V5.89c0-.67.38-1.29.98-1.59.6-.3,1.32-.24,1.86.16,1.73,1.28,5.37,3.42,10.36,3.45.02,0,.05,0,.07,0,5.03,0,8.69-2.16,10.44-3.45.54-.4,1.26-.46,1.86-.16s.98.92.98,1.59v20.71c0,.59-.29,1.14-.78,1.47-2.14,1.46-6.57,3.87-12.5,3.87ZM26.32,25.63c1.91,1.16,5.17,2.67,9.35,2.75,4.52.09,8.04-1.51,10.08-2.75V9.08c-2.39,1.24-5.72,2.4-9.8,2.38-4-.02-7.27-1.16-9.63-2.38v16.55ZM47.53,26.6h0,0Z"/><path d="M35.96,21.78s-.06,0-.09,0c-6.01-.03-10.39-2.61-12.47-4.14-.79-.58-.96-1.7-.37-2.49.58-.79,1.7-.96,2.49-.37,1.73,1.28,5.37,3.42,10.36,3.45.02,0,.05,0,.07,0,5.03,0,8.7-2.16,10.44-3.45.79-.58,1.9-.42,2.49.37.58.79.42,1.9-.37,2.49-2.1,1.55-6.5,4.14-12.55,4.14Z"/></g></g></svg>