<?xml version="1.0" encoding="UTF-8"?><svg id="Layer_2" xmlns="http://www.w3.org/2000/svg" viewBox="0 0 71.64 72"><defs><style>.cls-1{fill:#241f20;}</style></defs><g id="Layer_1-2"><g id="Icon_80"><path class="cls-1" d="M6.99,38.74c-.23,0-.46-.04-.68-.14C2.61,37.07.13,33.62,0,29.82c-.09-2.72,1.06-5.42,3.15-7.4,1.67-1.58,3.79-2.55,6.04-2.81-.08-2.64.38-7.1,3.73-10.7,4.15-4.47,10.99-5.75,17.06-3.34C34.12.61,40.96-1.31,47.12.92c5.84,2.11,9.81,7.57,10.17,13.68,3.78-.03,7.4,1.32,10.17,3.83,2.79,2.53,4.31,5.85,4.18,9.11-.16,4.11-3.05,8.16-7.35,10.32-.88.44-1.95.08-2.38-.79-.44-.88-.08-1.94.79-2.38,3.16-1.59,5.28-4.45,5.39-7.29.09-2.17-1.04-4.54-3.02-6.34-2.48-2.25-5.88-3.27-9.33-2.79-.53.07-1.07-.1-1.46-.46-.39-.37-.6-.89-.56-1.43.39-5.33-2.82-10.31-7.82-12.12-5.1-1.85-10.82,0-13.9,4.51-.5.73-1.47.98-2.26.59-4.98-2.49-10.83-1.68-14.22,1.97-3.45,3.71-2.8,8.76-2.64,9.73.09.54-.07,1.1-.45,1.5-.37.4-.91.61-1.46.56-1.97-.18-3.93.51-5.37,1.87-1.35,1.28-2.1,2.99-2.04,4.7.08,2.38,1.73,4.64,4.11,5.63.91.38,1.34,1.42.96,2.32-.28.68-.95,1.1-1.64,1.1Z"/><path class="cls-1" d="M19.28,48.03c-.27,0-.54-.09-.77-.27l-4.36-3.47c-.3-.24-.47-.59-.47-.97v-9.64h-1.77c-.47,0-.91-.27-1.12-.7s-.16-.93.13-1.31l5.84-7.54c.24-.3.6-.48.98-.48,0,0,0,0,0,0,.39,0,.75.18.98.49l5.65,7.48c.28.38.33.88.12,1.3s-.64.69-1.11.69h-2.52v6.58l2,1.7c.52.44.59,1.23.14,1.75-.45.52-1.23.59-1.75.14l-2.44-2.08c-.28-.24-.44-.58-.44-.95v-8.4c0-.69.56-1.24,1.24-1.24h1.27l-3.16-4.19-3.29,4.25h.48c.69,0,1.24.56,1.24,1.24v10.29l3.89,3.09c.54.43.63,1.21.2,1.75-.25.31-.61.47-.97.47Z"/><path class="cls-1" d="M52.27,48.31c-.37,0-.73-.16-.97-.47-.43-.54-.34-1.32.2-1.75l3.89-3.09v-10.29c0-.69.56-1.24,1.24-1.24h.48l-3.29-4.25-3.16,4.19h1.27c.69,0,1.24.56,1.24,1.24v8.4c0,.36-.16.71-.44.95l-2.44,2.08c-.52.44-1.31.38-1.75-.14-.44-.52-.38-1.31.14-1.75l2-1.7v-6.58h-2.52c-.47,0-.9-.27-1.11-.69s-.16-.93.12-1.3l5.65-7.48c.23-.31.6-.49.98-.49,0,0,0,0,0,0,.38,0,.75.18.98.48l5.84,7.54c.29.38.34.88.13,1.31s-.64.7-1.12.7h-1.77v9.64c0,.38-.17.74-.47.97l-4.36,3.47c-.23.18-.5.27-.77.27Z"/><path class="cls-1" d="M38.7,38.62s-.01,0-.02,0c-.69-.01-1.24-.58-1.22-1.26l.19-12.35c.01-.68.56-1.22,1.24-1.22,0,0,0,0,.01,0h.95s-3.97-5.45-3.97-5.45l-3.92,5.46h1.29c.32,0,.65.13.89.37s.36.56.36.89l-.19,12.35c-.01.69-.56,1.23-1.26,1.22-.69-.01-1.24-.58-1.22-1.26l.17-11.08h-2.46c-.48,0-.9-.25-1.11-.67s-.18-.92.1-1.3l5.88-8.17c.36-.55.9-.87,1.49-.87h0c.58,0,1.12.32,1.48.87l5.96,8.19c.28.38.31.88.1,1.3-.22.42-.63.68-1.12.67l-2.18-.02-.17,11.11c-.01.68-.57,1.22-1.24,1.22Z"/><path class="cls-1" d="M35.74,60.67c-.55,0-1.11-.07-1.66-.22-1.65-.44-3.02-1.5-3.87-2.97-1.76-3.05-.71-6.95,2.33-8.71,1.48-.85,3.19-1.08,4.84-.64,1.65.44,3.02,1.5,3.87,2.97.85,1.48,1.08,3.19.64,4.84-.44,1.65-1.5,3.02-2.97,3.87h0c-.98.57-2.07.86-3.18.86ZM35.72,50.4c-.66,0-1.33.17-1.94.52-1.86,1.07-2.5,3.46-1.42,5.31.52.9,1.36,1.54,2.36,1.81,1,.27,2.05.13,2.95-.39h0c.9-.52,1.54-1.36,1.81-2.36.27-1,.13-2.05-.39-2.95-.72-1.25-2.03-1.94-3.37-1.94Z"/><path class="cls-1" d="M38.96,72h-6.36c-1.08,0-1.95-.88-1.95-1.95v-3.88c-.95-.42-1.84-.94-2.66-1.58l-3.35,1.93c-.93.54-2.13.22-2.67-.72l-3.18-5.51c-.54-.93-.22-2.13.71-2.67l3.49-2.01c-.04-.43-.06-.87-.06-1.3,0-.47.07-1.12.13-1.65l-3.5-2.01c-.45-.26-.78-.68-.92-1.19-.14-.51-.07-1.03.19-1.49l3.18-5.51c.26-.45.68-.78,1.19-.91.5-.14,1.03-.07,1.48.2l3.41,1.97c.41-.35.85-.65,1.33-.91.42-.23.86-.43,1.31-.58v-3.92c0-1.08.88-1.95,1.95-1.95h6.36c1.08,0,1.95.88,1.95,1.95v3.98c.47.18.92.4,1.35.66.43.26.84.54,1.23.86l3.43-1.98c.45-.26.98-.33,1.48-.2.5.13.93.46,1.19.91l3.18,5.51c.54.93.22,2.13-.72,2.67l-3.43,1.98c.07.53.1,1.06.1,1.6,0,.48-.03.97-.08,1.44l3.37,1.95c.45.26.78.68.91,1.19.14.5.07,1.03-.2,1.48l-3.18,5.51c-.54.93-1.74,1.25-2.67.72l-3.33-1.92c-.84.64-1.75,1.16-2.72,1.57v3.8c0,1.08-.88,1.95-1.95,1.95ZM33.13,69.51h5.29v-4.13c0-.53.34-1.01.84-1.18,1.26-.43,2.42-1.1,3.44-1.98.4-.35.98-.4,1.44-.14l3.61,2.08,2.65-4.58-3.64-2.1c-.46-.26-.7-.78-.6-1.3.11-.61.17-1.24.17-1.88,0-.67-.07-1.35-.19-2.01-.1-.52.14-1.05.6-1.32l3.71-2.14-2.65-4.58-3.76,2.17c-.49.28-1.11.2-1.51-.2-.43-.44-.92-.82-1.44-1.13-.52-.31-1.08-.55-1.67-.71-.54-.15-.91-.64-.91-1.2v-4.34h-5.29v4.34c0,.59-.42,1.1-1,1.22-.56.11-1.1.31-1.6.59-.53.29-1.02.67-1.43,1.12-.39.43-1.03.53-1.54.23l-3.76-2.17-2.65,4.58,3.76,2.16c.44.25.69.76.61,1.26-.06.4-.21,1.56-.21,2.13s.05,1.17.15,1.75c.09.51-.16,1.02-.6,1.28l-3.75,2.16,2.65,4.58,3.64-2.1c.46-.27,1.05-.21,1.45.15,1,.88,2.13,1.56,3.37,2,.49.18.82.65.82,1.17v4.19Z"/></g></g></svg>