<?xml version="1.0" encoding="UTF-8"?><svg id="Layer_2" xmlns="http://www.w3.org/2000/svg" viewBox="0 0 71.98 72"><defs><style>.cls-1{fill:#241f20;}</style></defs><g id="Layer_1-2"><g id="Icon_92"><path class="cls-1" d="M47.98,11.35h-10.26c-.79,0-1.43-.64-1.43-1.43s.64-1.43,1.43-1.43h10.26c.79,0,1.43.64,1.43,1.43s-.64,1.43-1.43,1.43Z"/><path class="cls-1" d="M53.35,15.81c-3.25,0-5.89-2.64-5.89-5.89s2.64-5.89,5.89-5.89,5.89,2.64,5.89,5.89-2.64,5.89-5.89,5.89ZM53.35,6.88c-1.68,0-3.04,1.36-3.04,3.04s1.36,3.04,3.04,3.04,3.04-1.36,3.04-3.04-1.36-3.04-3.04-3.04Z"/><path class="cls-1" d="M47.98,36.03h-10.26c-.79,0-1.43-.64-1.43-1.43s.64-1.43,1.43-1.43h10.26c.79,0,1.43.64,1.43,1.43s-.64,1.43-1.43,1.43Z"/><path class="cls-1" d="M53.35,40.5c-3.25,0-5.89-2.64-5.89-5.89s2.64-5.89,5.89-5.89,5.89,2.64,5.89,5.89-2.64,5.89-5.89,5.89ZM53.35,31.56c-1.68,0-3.04,1.36-3.04,3.04s1.36,3.04,3.04,3.04,3.04-1.36,3.04-3.04-1.36-3.04-3.04-3.04Z"/><path class="cls-1" d="M60.42,23.69h-21.63c-.79,0-1.43-.64-1.43-1.43s.64-1.43,1.43-1.43h21.63c.79,0,1.43.64,1.43,1.43s-.64,1.43-1.43,1.43Z"/><path class="cls-1" d="M66.09,28.15c-3.25,0-5.89-2.64-5.89-5.89s2.64-5.89,5.89-5.89,5.89,2.64,5.89,5.89-2.64,5.89-5.89,5.89ZM66.09,19.22c-1.68,0-3.04,1.36-3.04,3.04s1.36,3.04,3.04,3.04,3.04-1.36,3.04-3.04-1.36-3.04-3.04-3.04Z"/><path class="cls-1" d="M47.98,60.71h-10.5c-.79,0-1.43-.64-1.43-1.43s.64-1.43,1.43-1.43h10.5c.79,0,1.43.64,1.43,1.43s-.64,1.43-1.43,1.43Z"/><path class="cls-1" d="M53.35,65.18c-3.25,0-5.89-2.64-5.89-5.89s2.64-5.89,5.89-5.89,5.89,2.64,5.89,5.89-2.64,5.89-5.89,5.89ZM53.35,56.24c-1.68,0-3.04,1.36-3.04,3.04s1.36,3.04,3.04,3.04,3.04-1.36,3.04-3.04-1.36-3.04-3.04-3.04Z"/><path class="cls-1" d="M60.42,48.37h-23.04c-.79,0-1.43-.64-1.43-1.43s.64-1.43,1.43-1.43h23.04c.79,0,1.43.64,1.43,1.43s-.64,1.43-1.43,1.43Z"/><path class="cls-1" d="M66.09,52.84c-3.25,0-5.89-2.64-5.89-5.89s2.64-5.89,5.89-5.89,5.89,2.64,5.89,5.89-2.64,5.89-5.89,5.89ZM66.09,43.9c-1.68,0-3.04,1.36-3.04,3.04s1.36,3.04,3.04,3.04,3.04-1.36,3.04-3.04-1.36-3.04-3.04-3.04Z"/><path class="cls-1" d="M28.53,72c-7.2,0-13.05-5.85-13.05-13.05,0-5.11,3.03-9.78,7.72-11.9.9-.41,1.95,0,2.36.89.41.9,0,1.95-.89,2.36-3.42,1.55-5.63,4.94-5.63,8.65,0,5.23,4.26,9.49,9.49,9.49,1.92,0,3.78-.58,5.37-1.66.57-.39.92-1.04.92-1.73V6.96c0-.69-.34-1.34-.92-1.73-1.59-1.09-3.44-1.66-5.37-1.66-5.23,0-9.49,4.26-9.49,9.49,0,4.47,3.19,8.38,7.59,9.29.96.2,1.58,1.14,1.38,2.11-.2.96-1.14,1.58-2.11,1.38-6.04-1.25-10.43-6.63-10.43-12.78C15.48,5.85,21.34,0,28.53,0c2.65,0,5.2.79,7.38,2.29,1.54,1.06,2.47,2.8,2.47,4.67v58.08c0,1.87-.92,3.61-2.47,4.67-2.18,1.5-4.74,2.29-7.38,2.29Z"/><path class="cls-1" d="M17.32,61.96c-.14,0-.29-.02-.43-.05-5.8-1.45-9.86-6.66-9.86-12.65,0-.58.04-1.17.12-1.73.13-.98,1.03-1.66,2.01-1.52.98.13,1.66,1.03,1.52,2.01-.06.41-.08.82-.08,1.24,0,4.36,2.94,8.14,7.16,9.19.95.24,1.54,1.21,1.3,2.16-.2.81-.93,1.35-1.73,1.35Z"/><path class="cls-1" d="M8.85,26.46c-.92,0-1.7-.7-1.77-1.63-.03-.37-.05-.74-.05-1.1,0-5.97,4.03-11.16,9.81-12.64.96-.24,1.92.33,2.17,1.29.24.95-.33,1.92-1.29,2.17-4.2,1.07-7.13,4.85-7.13,9.19,0,.26.01.52.03.8.08.98-.65,1.84-1.63,1.93-.05,0-.1,0-.15,0Z"/><path class="cls-1" d="M17.53,29.54c-.59,0-1.14-.37-1.35-.96-.23-.66-.89-3.01.42-5.34.79-1.39,1.92-2.16,2.73-2.57.71-.35,1.56-.06,1.91.65s.06,1.56-.65,1.91c-.45.22-1.08.65-1.51,1.41-.74,1.32-.31,2.73-.22,3,.26.74-.13,1.56-.87,1.82-.16.05-.31.08-.47.08Z"/><path class="cls-1" d="M8.91,49.55c-.24,0-.48-.05-.71-.15-4.98-2.17-8.19-7.35-8.19-13.19s3.19-10.97,8.13-13.16c.9-.4,1.95,0,2.35.91.4.9,0,1.95-.91,2.35-3.65,1.61-6,5.5-6,9.9s2.43,8.34,6.06,9.92c.9.39,1.31,1.44.92,2.35-.29.67-.95,1.07-1.63,1.07Z"/><path class="cls-1" d="M36.03,48.37h-4.73c-.42,0-.82-.19-1.1-.51-1.43-1.71-2.45-3.42-3.44-5.07-.87-1.45-1.69-2.82-2.77-4.2h-4.63c-.79,0-1.43-.64-1.43-1.43s.64-1.43,1.43-1.43h5.31c.42,0,.82.19,1.1.51,1.43,1.71,2.45,3.42,3.44,5.07.87,1.45,1.69,2.82,2.77,4.2h4.05c.79,0,1.43.64,1.43,1.43s-.64,1.43-1.43,1.43Z"/><path class="cls-1" d="M27.34,64.48c-.76,0-1.39-.6-1.42-1.37-.04-1.08.26-2.16.85-3.03,1.38-2.03,3.7-2.2,4.15-2.22.01,0,.03,0,.05,0h5.3c.79,0,1.43.64,1.43,1.43s-.64,1.43-1.43,1.43h-5.27c-.16,0-1.28.1-1.87.97-.34.5-.37,1.04-.36,1.32.03.79-.58,1.45-1.37,1.48-.02,0-.04,0-.06,0Z"/><path class="cls-1" d="M13.7,44.33c-.4,0-.81-.04-1.2-.11-.77-.14-1.28-.89-1.14-1.66.14-.77.89-1.28,1.66-1.14.22.04.45.06.68.06,2.03,0,3.69-1.65,3.69-3.69s-1.65-3.69-3.69-3.69c-.24,0-.49.02-.72.07-.77.15-1.52-.35-1.68-1.12-.15-.77.35-1.52,1.12-1.68.42-.08.85-.13,1.28-.13,3.61,0,6.54,2.93,6.54,6.54s-2.93,6.54-6.54,6.54Z"/></g></g></svg>