<?xml version="1.0" encoding="UTF-8"?><svg id="Layer_2" xmlns="http://www.w3.org/2000/svg" viewBox="0 0 59.29 72"><defs><style>.cls-1{fill:#241f20;}</style></defs><g id="Layer_1-2"><g id="Icon_41"><path class="cls-1" d="M29.62,27.21c-7.67,0-14.91-1.28-20.38-3.6C3.29,21.08,0,17.53,0,13.61S3.29,6.13,9.25,3.6C14.72,1.28,21.96,0,29.62,0s14.91,1.28,20.38,3.6c5.96,2.53,9.24,6.08,9.24,10s-3.28,7.47-9.24,10c-5.47,2.32-12.71,3.6-20.38,3.6ZM29.62,3.57C14.28,3.57,3.58,8.86,3.58,13.61s10.7,10.03,26.04,10.03,26.04-5.29,26.04-10.03S44.97,3.57,29.62,3.57Z"/><path class="cls-1" d="M29.62,50.19c-7.67,0-14.91-1.28-20.38-3.6C3.29,44.05,0,40.5,0,36.58h3.57c0,4.74,10.7,10.03,26.04,10.03s26.04-5.29,26.04-10.03h3.57c0,3.92-3.28,7.47-9.24,10-5.47,2.32-12.71,3.6-20.38,3.6Z"/><path class="cls-1" d="M29.62,72c-7.67,0-14.91-1.28-20.38-3.6C3.29,65.87,0,62.31,0,58.39h3.57c0,4.74,10.7,10.03,26.04,10.03s26.04-5.29,26.04-10.03h3.57c0,3.92-3.28,7.47-9.24,10-5.47,2.32-12.71,3.6-20.38,3.6Z"/><rect class="cls-1" x="0" y="14.51" width="3.57" height="44.13"/><rect class="cls-1" x="55.72" y="14.51" width="3.57" height="44.13"/></g></g></svg>