<?xml version="1.0" encoding="UTF-8"?><svg id="Layer_2" xmlns="http://www.w3.org/2000/svg" viewBox="0 0 72 72"><defs><style>.cls-1{fill:#241f20;}</style></defs><g id="Layer_1-2"><g id="Icon_53"><path class="cls-1" d="M49.64,55.11h-27.29c-3.01,0-5.46-2.45-5.46-5.46v-27.29c0-3.01,2.45-5.46,5.46-5.46h27.29c3.01,0,5.46,2.45,5.46,5.46v27.29c0,3.01-2.45,5.46-5.46,5.46ZM22.35,20.4c-1.08,0-1.95.88-1.95,1.95v27.29c0,1.08.88,1.95,1.95,1.95h27.29c1.08,0,1.95-.88,1.95-1.95v-27.29c0-1.08-.88-1.95-1.95-1.95h-27.29Z"/><path class="cls-1" d="M4.89,29.73c1.25,0,2.37-.48,3.24-1.25l3.88,2.06c.41.22.88.33,1.34.33h6.94l-.73-3.44h-5.64c-.31,0-.61-.08-.89-.22l-3.31-1.77c.02-.19.06-.39.06-.59,0-2.69-2.19-4.89-4.89-4.89S0,22.15,0,24.84s2.19,4.89,4.89,4.89ZM4.89,26.37c-.84,0-1.53-.69-1.53-1.53s.69-1.53,1.53-1.53,1.53.69,1.53,1.53-.69,1.53-1.53,1.53Z"/><path class="cls-1" d="M12,41.87l-3.88,2.06c-.86-.77-1.99-1.25-3.24-1.25-2.7,0-4.89,2.19-4.89,4.89s2.19,4.89,4.89,4.89,4.89-2.19,4.89-4.89c0-.2-.04-.39-.06-.59l3.31-1.77c.27-.15.58-.22.89-.22h5.64l.73-3.44h-6.94c-.47,0-.93.12-1.34.33ZM6.42,47.56c0,.84-.69,1.53-1.53,1.53s-1.53-.69-1.53-1.53.69-1.53,1.53-1.53,1.53.69,1.53,1.53Z"/><path class="cls-1" d="M67.11,19.96c-2.69,0-4.89,2.19-4.89,4.89,0,.2.04.39.06.59l-3.31,1.77c-.27.15-.58.22-.89.22h-5.64l-.73,3.44h6.94c.47,0,.93-.12,1.34-.33l3.88-2.06c.86.77,1.99,1.25,3.24,1.25,2.69,0,4.89-2.19,4.89-4.89s-2.19-4.89-4.89-4.89ZM65.58,24.84c0-.84.69-1.53,1.53-1.53s1.53.69,1.53,1.53-.69,1.53-1.53,1.53-1.53-.69-1.53-1.53Z"/><path class="cls-1" d="M67.11,42.67c-1.25,0-2.37.48-3.24,1.25l-3.88-2.06c-.41-.22-.88-.33-1.34-.33h-6.94l.73,3.44h5.64c.31,0,.61.08.89.22l3.31,1.77c-.02.19-.06.39-.06.59,0,2.69,2.19,4.89,4.89,4.89s4.89-2.19,4.89-4.89-2.19-4.89-4.89-4.89ZM67.11,46.03c.84,0,1.53.69,1.53,1.53s-.69,1.53-1.53,1.53-1.53-.69-1.53-1.53.69-1.53,1.53-1.53Z"/><path class="cls-1" d="M27.2,58.09c0,.31-.08.61-.22.89l-1.77,3.31c-.19-.02-.39-.06-.59-.06-2.69,0-4.89,2.19-4.89,4.89s2.19,4.89,4.89,4.89,4.89-2.19,4.89-4.89c0-1.25-.48-2.37-1.25-3.24l2.06-3.88c.22-.41.33-.88.33-1.34v-6.94l-3.44.73v5.64ZM26.15,67.11c0,.84-.69,1.53-1.53,1.53s-1.53-.69-1.53-1.53.69-1.53,1.53-1.53,1.53.69,1.53,1.53Z"/><path class="cls-1" d="M47.34,62.23c-.2,0-.39.04-.59.06l-1.77-3.31c-.15-.27-.22-.58-.22-.89v-5.64l-3.44-.73v6.94c0,.47.12.93.33,1.34l2.06,3.88c-.77.86-1.25,1.99-1.25,3.24,0,2.69,2.19,4.89,4.89,4.89s4.89-2.19,4.89-4.89-2.19-4.89-4.89-4.89ZM47.34,68.64c-.84,0-1.53-.69-1.53-1.53s.69-1.53,1.53-1.53,1.53.69,1.53,1.53-.69,1.53-1.53,1.53Z"/><path class="cls-1" d="M30.31,12l-2.06-3.88c.77-.86,1.25-1.99,1.25-3.24,0-2.69-2.19-4.89-4.89-4.89s-4.89,2.19-4.89,4.89,2.19,4.89,4.89,4.89c.2,0,.39-.04.59-.06l1.77,3.31c.15.27.22.58.22.89v5.64l3.44.73v-6.94c0-.47-.12-.93-.33-1.34ZM24.62,6.42c-.84,0-1.53-.69-1.53-1.53s.69-1.53,1.53-1.53,1.53.69,1.53,1.53-.69,1.53-1.53,1.53Z"/><path class="cls-1" d="M47.34,0c-2.7,0-4.89,2.19-4.89,4.89,0,1.25.48,2.37,1.25,3.24l-2.06,3.88c-.22.41-.33.88-.33,1.34v6.94l3.44-.73v-5.64c0-.31.08-.61.22-.89l1.77-3.31c.19.02.39.06.59.06,2.69,0,4.89-2.19,4.89-4.89s-2.19-4.89-4.89-4.89ZM45.81,4.89c0-.84.69-1.53,1.53-1.53s1.53.69,1.53,1.53-.69,1.53-1.53,1.53-1.53-.69-1.53-1.53Z"/><path class="cls-1" d="M35.39,27.58h-3.93l-6.23,16.77h4.07l1.11-3.26h5.97l1.11,3.26h4.15l-6.25-16.77h0ZM31.58,37.59l1.82-5.37,1.81,5.37h-3.63Z"/><polygon class="cls-1" points="46.76 27.58 42.77 27.58 42.77 44.34 46.76 44.34 46.76 27.58 46.76 27.58"/></g></g></svg>