<?xml version="1.0" encoding="UTF-8"?><svg id="Layer_2" xmlns="http://www.w3.org/2000/svg" viewBox="0 0 72 72"><defs><style>.cls-1{fill:#241f20;}</style></defs><g id="Layer_1-2"><rect class="cls-1" x="53.86" y="36.82" width="9.64" height="3.56"/><path class="cls-1" d="M67.47,43.19c-2.5,0-4.53-2.03-4.53-4.53s2.03-4.53,4.53-4.53,4.53,2.03,4.53,4.53-2.03,4.53-4.53,4.53ZM67.47,35.2c-1.91,0-3.46,1.55-3.46,3.46s1.55,3.46,3.46,3.46,3.46-1.55,3.46-3.46-1.55-3.46-3.46-3.46Z"/><rect class="cls-1" x="8.51" y="36.91" width="9.64" height="3.56"/><path class="cls-1" d="M15.05,24.58H2.74v-1.78c0-3.76,0-5.5,0-7.21,0-1.75,0-3.47,0-7.3h3.56c0,3.83,0,5.56,0,7.31,0,1.42,0,2.85,0,5.43h8.75v3.56Z"/><path class="cls-1" d="M4.53,9.06C2.03,9.06,0,7.03,0,4.53S2.03,0,4.53,0s4.53,2.03,4.53,4.53-2.03,4.53-4.53,4.53ZM4.53,1.07c-1.91,0-3.46,1.55-3.46,3.46s1.55,3.46,3.46,3.46,3.46-1.55,3.46-3.46-1.55-3.46-3.46-3.46Z"/><path class="cls-1" d="M69.22,24.58h-12.31v-3.56h8.75c0-2.61,0-4.04,0-5.47,0-1.73,0-3.46,0-7.26h3.56c0,3.79,0,5.52,0,7.25,0,1.73,0,3.46,0,7.26v1.78Z"/><path class="cls-1" d="M67.43,9.06c-2.5,0-4.53-2.03-4.53-4.53s2.03-4.53,4.53-4.53,4.53,2.03,4.53,4.53-2.03,4.53-4.53,4.53ZM67.43,1.07c-1.91,0-3.46,1.55-3.46,3.46s1.55,3.46,3.46,3.46,3.46-1.55,3.46-3.46-1.55-3.46-3.46-3.46Z"/><path class="cls-1" d="M69.21,63.71h-3.56c0-3.81,0-4.11,0-4.42,0-.25,0-.49,0-2.61h-23.24v-3.56h26.8v1.78c0,3.81,0,4.11,0,4.42,0,.3,0,.61,0,4.39Z"/><path class="cls-1" d="M67.43,72c-2.5,0-4.53-2.03-4.53-4.53s2.03-4.53,4.53-4.53,4.53,2.03,4.53,4.53-2.03,4.53-4.53,4.53ZM67.43,64.01c-1.91,0-3.46,1.55-3.46,3.46s1.55,3.46,3.46,3.46,3.46-1.55,3.46-3.46-1.55-3.46-3.46-3.46Z"/><path class="cls-1" d="M2.75,63.71c0-3.79,0-4.09,0-4.39,0-.3,0-.61,0-4.41v-1.78s26.1,0,26.1,0v3.56H6.3c0,2.12,0,2.37,0,2.61,0,.31,0,.61,0,4.42h-3.56Z"/><path class="cls-1" d="M4.53,72c-2.5,0-4.53-2.03-4.53-4.53s2.03-4.53,4.53-4.53,4.53,2.03,4.53,4.53-2.03,4.53-4.53,4.53ZM4.53,64.01c-1.91,0-3.46,1.55-3.46,3.46s1.55,3.46,3.46,3.46,3.46-1.55,3.46-3.46-1.55-3.46-3.46-3.46Z"/><path class="cls-1" d="M35.86,61.12c-.18,0-.36-.03-.52-.08-1-.3-11.74-7.52-16.22-16.35-3.43-6.78-4.19-13.74-4.59-17.47-.32-2.9-.42-5.85-.32-8.76.03-.88.7-1.6,1.57-1.71,3.52-.42,7.01-1.19,10.38-2.29,2.39-.78,5.37-2.21,7.14-3.06,2.13-1.02,2.57-1.23,3.44-.77,2.85,1.54,5.85,2.83,8.93,3.83,3.37,1.1,6.86,1.87,10.38,2.29.87.1,1.54.83,1.57,1.71.1,2.91,0,5.86-.32,8.76-.41,3.74-1.16,10.7-4.59,17.47-4.21,8.3-10.98,13.39-15.92,16.2h0c-.27.15-.58.23-.89.23ZM17.72,20.08c-.02,2.25.09,4.52.34,6.76.38,3.51,1.09,10.05,4.23,16.25,3.46,6.83,11.13,12.58,13.57,14.2,4.41-2.65,10.07-7.16,13.63-14.2,3.14-6.2,3.85-12.74,4.23-16.25.24-2.24.36-4.5.34-6.76-3.23-.47-6.42-1.22-9.52-2.23-3.01-.98-5.96-2.22-8.77-3.69-.28.13-.63.3-.95.45-1.86.89-4.96,2.38-7.58,3.23-3.1,1.01-6.29,1.76-9.52,2.23Z"/><path class="cls-1" d="M35.84,35.92c-3.34,0-6.06-2.72-6.06-6.06s2.72-6.06,6.06-6.06,6.06,2.72,6.06,6.06-2.72,6.06-6.06,6.06ZM35.84,27.36c-1.38,0-2.5,1.12-2.5,2.5s1.12,2.5,2.5,2.5,2.5-1.12,2.5-2.5-1.12-2.5-2.5-2.5Z"/><path class="cls-1" d="M35.84,45.21c-.98,0-1.78-.8-1.78-1.78v-8.56c0-.98.8-1.78,1.78-1.78s1.78.8,1.78,1.78v8.56c0,.98-.8,1.78-1.78,1.78Z"/><path class="cls-1" d="M4.55,43.16C2.05,43.16.02,41.12.02,38.63s2.03-4.53,4.53-4.53,4.53,2.03,4.53,4.53-2.03,4.53-4.53,4.53ZM4.55,35.16c-1.91,0-3.46,1.55-3.46,3.46s1.55,3.46,3.46,3.46,3.46-1.55,3.46-3.46-1.55-3.46-3.46-3.46Z"/></g></svg>