<?xml version="1.0" encoding="UTF-8"?><svg id="Layer_2" xmlns="http://www.w3.org/2000/svg" viewBox="0 0 72 72"><defs><style>.cls-1{fill:#241f20;}</style></defs><g id="Layer_1-2"><path class="cls-1" d="M36,35.63c-.62,0-1.24-.13-1.81-.39-2.15-.96-4.31-1.92-6.47-2.88-1.03-.46-2.06-.91-3.08-1.37-1.1-.49-2.2-.97-3.3-1.46-1.66-.74-3.32-1.48-4.98-2.22l-4.41-1.96c-1.94-.86-3.88-1.72-5.82-2.58l-3.05-1.35c-.34-.15-.69-.3-1.03-.46-.98-.44-1.66-1.25-1.96-2.33l-.07-.25.02-1.28.08-.25c.32-1.03,1.02-1.81,2.01-2.25,1.62-.71,3.23-1.43,4.84-2.15l3.85-1.71c1.33-.59,2.66-1.18,3.99-1.78,1.25-.56,2.5-1.11,3.75-1.66l2.95-1.3c1.04-.46,2.08-.92,3.12-1.39l3.22-1.44c1.42-.63,2.84-1.27,4.27-1.89.29-.12.57-.25.85-.38.58-.26,1.18-.54,1.81-.78l.33-.13,1.99.03.33.15c1.49.66,2.98,1.32,4.47,1.98,1.04.46,2.09.93,3.13,1.39l2.05.91c1.73.77,3.46,1.54,5.19,2.31l13.19,5.86c1.44.64,2.89,1.29,4.34,1.92,1.39.61,1.94,1.62,2.16,2.36l.07.24v1.23s-.05.24-.05.24c-.3,1.13-1.04,1.95-2.19,2.45-1.8.78-3.63,1.6-5.4,2.39l-1.28.57c-1.15.51-2.3,1.02-3.45,1.54-1.07.48-2.14.95-3.21,1.43-1.07.48-2.14.95-3.21,1.42l-10.32,4.58c-1.69.75-3.38,1.5-5.07,2.25-.58.26-1.19.38-1.81.38ZM3.7,17.8c.27.12.53.24.8.35l3.06,1.35c1.94.86,3.88,1.72,5.83,2.59l4.42,1.96c1.66.74,3.32,1.48,4.98,2.21,1.1.49,2.2.97,3.3,1.46,1.03.46,2.06.91,3.09,1.37,2.16.96,4.32,1.92,6.48,2.88.23.1.49.1.72,0,1.69-.75,3.38-1.51,5.07-2.26l10.32-4.58c1.07-.47,2.14-.95,3.2-1.42,1.07-.48,2.14-.95,3.2-1.43,1.15-.51,2.3-1.03,3.45-1.54l1.28-.57c1.77-.79,3.6-1.6,5.41-2.39-1.45-.63-2.89-1.27-4.33-1.92l-13.19-5.86c-1.73-.77-3.46-1.54-5.2-2.31l-2.05-.91c-1.04-.46-2.09-.93-3.13-1.39-1.38-.61-2.75-1.22-4.13-1.83h-.56c-.43.17-.86.37-1.31.57-.3.14-.6.27-.9.4-1.42.62-2.83,1.25-4.25,1.88l-3.23,1.44c-1.04.46-2.08.93-3.12,1.39l-2.95,1.31c-1.25.55-2.5,1.11-3.75,1.66-1.33.59-2.66,1.18-3.98,1.77l-3.85,1.71c-1.56.7-3.13,1.39-4.69,2.08Z"/><path class="cls-1" d="M36,54.16c-.62,0-1.24-.13-1.81-.39-2.15-.96-4.31-1.92-6.47-2.88-1.03-.46-2.06-.91-3.08-1.37-1.1-.49-2.2-.97-3.3-1.46-1.66-.74-3.32-1.48-4.98-2.22l-4.41-1.96c-1.94-.86-3.88-1.72-5.82-2.58l-3.05-1.35c-.34-.15-.69-.3-1.03-.46-.98-.44-1.66-1.25-1.96-2.33-.05-.17-.07-.34-.06-.51v-.76c.02-.17.04-.34.1-.5.32-1.03,1.02-1.81,2.01-2.25,1.62-.71,3.23-1.43,4.84-2.15l5.04-2.25c.9-.4,1.95,0,2.35.9.4.9,0,1.95-.9,2.35l-5.04,2.25c-1.56.7-3.13,1.39-4.69,2.08.27.12.53.24.8.35l3.06,1.35c1.94.86,3.88,1.72,5.83,2.59l4.42,1.96c1.66.74,3.32,1.48,4.98,2.21,1.1.49,2.2.97,3.3,1.46,1.03.46,2.06.91,3.09,1.37,2.16.96,4.32,1.92,6.48,2.88.23.1.49.1.72,0,1.69-.75,3.38-1.51,5.07-2.26l10.31-4.58c1.07-.48,2.14-.95,3.22-1.43,1.07-.48,2.14-.95,3.2-1.43,1.15-.51,2.3-1.03,3.45-1.54l1.28-.57c1.77-.79,3.6-1.6,5.41-2.39-1.45-.63-2.89-1.27-4.33-1.92l-5.12-2.28c-.9-.4-1.3-1.45-.9-2.35.4-.9,1.45-1.31,2.35-.91l5.12,2.28c1.44.64,2.89,1.29,4.34,1.92,1.39.61,1.94,1.62,2.16,2.36.05.16.07.32.07.48v.74c0,.16-.01.32-.05.48-.3,1.13-1.04,1.95-2.19,2.45-1.8.78-3.63,1.6-5.4,2.39l-1.28.57c-1.15.51-2.3,1.02-3.45,1.54-1.07.48-2.14.95-3.21,1.43-1.07.48-2.15.95-3.22,1.43l-10.3,4.57c-1.69.75-3.38,1.5-5.07,2.25-.58.26-1.19.38-1.81.38Z"/><path class="cls-1" d="M36,72c-.62,0-1.24-.13-1.81-.39-2.15-.96-4.31-1.92-6.47-2.88-1.03-.46-2.07-.92-3.1-1.37-1.1-.48-2.19-.97-3.29-1.46-1.66-.74-3.32-1.47-4.98-2.21l-4.42-1.97c-1.98-.88-3.95-1.76-5.93-2.63l-2.96-1.31c-.34-.15-.68-.3-1.01-.45-.98-.44-1.66-1.25-1.96-2.33-.05-.17-.07-.34-.06-.51v-.76c.02-.17.04-.34.1-.5.32-1.03,1.02-1.81,2.01-2.25,1.61-.71,3.21-1.42,4.81-2.13l5.07-2.26c.9-.4,1.95,0,2.35.9.4.9,0,1.95-.9,2.35l-5.08,2.26c-1.55.69-3.1,1.38-4.66,2.07.26.12.52.23.78.35l2.96,1.31c1.98.88,3.96,1.76,5.93,2.63l4.42,1.97c1.66.74,3.31,1.48,4.97,2.21,1.09.49,2.19.97,3.28,1.45,1.03.46,2.07.92,3.1,1.37,2.16.96,4.32,1.92,6.48,2.88.23.1.49.1.72,0,1.69-.75,3.38-1.51,5.07-2.26l10.34-4.59c1.06-.47,2.12-.94,3.18-1.41,1.07-.48,2.14-.95,3.21-1.43,1.15-.51,2.3-1.03,3.45-1.54l1.28-.57c1.77-.79,3.6-1.6,5.41-2.39-1.45-.63-2.89-1.27-4.33-1.92l-5.12-2.28c-.9-.4-1.3-1.45-.9-2.35.4-.9,1.45-1.31,2.35-.91l5.12,2.28c1.44.64,2.89,1.29,4.34,1.92,1.39.61,1.94,1.62,2.16,2.36.05.16.07.32.07.48v.74c0,.16-.01.32-.05.48-.3,1.13-1.04,1.95-2.19,2.45-1.8.78-3.63,1.6-5.4,2.39l-1.28.57c-1.15.51-2.3,1.02-3.44,1.53-1.07.48-2.14.95-3.21,1.43-1.06.47-2.13.94-3.19,1.41l-10.33,4.59c-1.69.75-3.38,1.5-5.07,2.25-.58.26-1.19.38-1.81.38Z"/></g></svg>