<?xml version="1.0" encoding="UTF-8"?><svg id="Layer_2" xmlns="http://www.w3.org/2000/svg" viewBox="0 0 72 60.13"><defs><style>.cls-1{fill:#241f20;}</style></defs><g id="Layer_1-2"><path class="cls-1" d="M46.74,20.31c-.99,0-1.78-.8-1.78-1.78v-6.06c0-4.91-3.99-8.9-8.9-8.9s-8.9,3.99-8.9,8.9v6.06c0,.99-.8,1.78-1.78,1.78s-1.78-.8-1.78-1.78v-6.06c0-6.87,5.59-12.47,12.47-12.47s12.47,5.59,12.47,12.47v6.06c0,.99-.8,1.78-1.78,1.78Z"/><path class="cls-1" d="M51.94,55.71h-5.28l-2.79-2.79h-15.77l-2.76,2.79h-5.55c-1.19,0-2.15-.96-2.15-2.15v-5.32l3.12-3v-5.59l.06-4.94-3.18-2.97v-5.65c0-1.19.96-2.15,2.15-2.15h32.16c1.19,0,2.15.96,2.15,2.15v5.64l-2.89,2.79v10.89l2.89,2.69v5.46c0,1.19-.96,2.15-2.15,2.15ZM48.13,52.14h2.39v-2.49l-2.89-2.69v-13.96l2.89-2.79v-2.71h-29.32v2.68l3.19,2.99-.08,6.5v7.09s-3.12,3-3.12,3v2.39h2.64l2.76-2.79h18.73l2.79,2.79Z"/><path class="cls-1" d="M29.53,37.97c-.57,0-1.13-.27-1.48-.78-.56-.81-.35-1.92.47-2.48,1.39-.95,4.29-2.51,8.15-2.32,3.08.15,5.42,1.35,6.84,2.32.81.56,1.02,1.67.46,2.48-.56.81-1.67,1.02-2.48.46-1.04-.71-2.75-1.59-5-1.7-2.82-.14-4.94,1.01-5.96,1.7-.31.21-.66.31-1,.31Z"/><path class="cls-1" d="M33.08,44.39c-.65,0-1.29-.36-1.6-.99-.44-.88-.08-1.95.8-2.39.7-.35,2.15-.92,4.06-.85,1.53.06,2.7.49,3.42.85.88.44,1.24,1.51.8,2.4-.44.88-1.51,1.24-2.4.79-.33-.16-1.01-.44-1.95-.48-1.12-.04-1.94.28-2.34.48-.26.13-.53.19-.8.19Z"/><polygon class="cls-1" points="63.16 31.1 57.66 31.1 57.66 27.53 61.68 27.53 66.85 22.35 69.38 24.87 63.16 31.1"/><path class="cls-1" d="M70.82,26.6c1.57-1.57,1.57-4.12,0-5.69-1.57-1.57-4.12-1.57-5.69,0-1.57,1.57-1.57,4.12,0,5.69,1.57,1.57,4.12,1.57,5.69,0Z"/><polygon class="cls-1" points="66.85 57.51 61.68 52.33 57.66 52.33 57.66 48.76 63.16 48.76 69.38 54.99 66.85 57.51"/><path class="cls-1" d="M65.13,58.95c1.57,1.57,4.12,1.57,5.69,0,1.57-1.57,1.57-4.12,0-5.69-1.57-1.57-4.12-1.57-5.69,0-1.57,1.57-1.57,4.12,0,5.69Z"/><rect class="cls-1" x="54.88" y="38.12" width="12.05" height="3.57"/><path class="cls-1" d="M66.73,43.93c2.22,0,4.03-1.8,4.03-4.03s-1.8-4.03-4.03-4.03-4.03,1.8-4.03,4.03,1.8,4.03,4.03,4.03Z"/><polygon class="cls-1" points="14.34 31.1 8.84 31.1 2.62 24.87 5.15 22.35 10.32 27.53 14.34 27.53 14.34 31.1"/><circle class="cls-1" cx="4.03" cy="23.75" r="4.03" transform="translate(-14.48 8.33) rotate(-40.58)"/><polygon class="cls-1" points="5.15 57.51 2.62 54.99 8.84 48.76 14.34 48.76 14.34 52.33 10.32 52.33 5.15 57.51"/><path class="cls-1" d="M1.18,53.26c-1.57,1.57-1.57,4.12,0,5.69,1.57,1.57,4.12,1.57,5.69,0,1.57-1.57,1.57-4.12,0-5.69-1.57-1.57-4.12-1.57-5.69,0Z"/><rect class="cls-1" x="5.07" y="38.12" width="12.05" height="3.57"/><path class="cls-1" d="M5.27,35.88c-2.22,0-4.03,1.8-4.03,4.03s1.8,4.03,4.03,4.03,4.03-1.8,4.03-4.03-1.8-4.03-4.03-4.03Z"/></g></svg>