<?xml version="1.0" encoding="UTF-8"?><svg id="Layer_2" xmlns="http://www.w3.org/2000/svg" viewBox="0 0 72 72"><defs><style>.cls-1{fill:#241f20;}</style></defs><g id="Layer_1-2"><g id="Icon_53"><path class="cls-1" d="M49.92,55.19h-27.69c-3.06,0-5.54-2.49-5.54-5.54v-27.69c0-3.06,2.49-5.54,5.54-5.54h27.69c3.06,0,5.54,2.49,5.54,5.54v27.69c0,3.06-2.49,5.54-5.54,5.54ZM22.23,19.97c-1.09,0-1.98.89-1.98,1.98v27.69c0,1.09.89,1.98,1.98,1.98h27.69c1.09,0,1.98-.89,1.98-1.98v-27.69c0-1.09-.89-1.98-1.98-1.98h-27.69Z"/><rect class="cls-1" x="34.98" y="4.89" width="2.49" height="12.25"/><path class="cls-1" d="M36.29,7.2c-1.99,0-3.6-1.62-3.6-3.6s1.61-3.6,3.6-3.6,3.6,1.61,3.6,3.6-1.61,3.6-3.6,3.6ZM36.29,2.49c-.61,0-1.11.5-1.11,1.11s.5,1.11,1.11,1.11,1.11-.5,1.11-1.11-.5-1.11-1.11-1.11Z"/><rect class="cls-1" x="24.14" y="10.58" width="2.49" height="8.69"/><path class="cls-1" d="M25.38,12.93c-1.99,0-3.6-1.61-3.6-3.6s1.61-3.6,3.6-3.6,3.6,1.61,3.6,3.6-1.61,3.6-3.6,3.6ZM25.38,8.23c-.61,0-1.11.5-1.11,1.11s.5,1.11,1.11,1.11,1.11-.5,1.11-1.11-.5-1.11-1.11-1.11Z"/><rect class="cls-1" x="45.94" y="10.58" width="2.49" height="8.69"/><path class="cls-1" d="M47.19,12.93c-1.99,0-3.6-1.61-3.6-3.6s1.61-3.6,3.6-3.6,3.6,1.61,3.6,3.6-1.61,3.6-3.6,3.6ZM47.19,8.23c-.61,0-1.11.5-1.11,1.11s.5,1.11,1.11,1.11,1.11-.5,1.11-1.11-.5-1.11-1.11-1.11Z"/><rect class="cls-1" x="35.1" y="54.86" width="2.49" height="12.25"/><path class="cls-1" d="M36.29,72c-1.99,0-3.6-1.61-3.6-3.6s1.61-3.6,3.6-3.6,3.6,1.61,3.6,3.6-1.61,3.6-3.6,3.6ZM36.29,67.29c-.61,0-1.11.5-1.11,1.11s.5,1.11,1.11,1.11,1.11-.5,1.11-1.11-.5-1.11-1.11-1.11Z"/><rect class="cls-1" x="45.94" y="52.72" width="2.49" height="8.69"/><path class="cls-1" d="M47.19,66.27c-1.99,0-3.6-1.61-3.6-3.6s1.61-3.6,3.6-3.6,3.6,1.62,3.6,3.6-1.61,3.6-3.6,3.6ZM47.19,61.56c-.61,0-1.11.5-1.11,1.11s.5,1.11,1.11,1.11,1.11-.5,1.11-1.11-.5-1.11-1.11-1.11Z"/><rect class="cls-1" x="24.14" y="52.72" width="2.49" height="8.69"/><path class="cls-1" d="M25.38,66.27c-1.99,0-3.6-1.61-3.6-3.6s1.61-3.6,3.6-3.6,3.6,1.62,3.6,3.6-1.61,3.6-3.6,3.6ZM25.38,61.56c-.61,0-1.11.5-1.11,1.11s.5,1.11,1.11,1.11,1.11-.5,1.11-1.11-.5-1.11-1.11-1.11Z"/><rect class="cls-1" x="54.86" y="34.7" width="12.25" height="2.49"/><path class="cls-1" d="M68.4,39.6c-1.99,0-3.6-1.62-3.6-3.6s1.61-3.6,3.6-3.6,3.6,1.61,3.6,3.6-1.61,3.6-3.6,3.6ZM68.4,34.89c-.61,0-1.11.5-1.11,1.11s.5,1.11,1.11,1.11,1.11-.5,1.11-1.11-.5-1.11-1.11-1.11Z"/><rect class="cls-1" x="52.72" y="23.85" width="8.69" height="2.49"/><path class="cls-1" d="M62.67,28.7c-1.99,0-3.6-1.62-3.6-3.6s1.61-3.6,3.6-3.6,3.6,1.61,3.6,3.6-1.61,3.6-3.6,3.6ZM62.67,23.99c-.61,0-1.11.5-1.11,1.11s.5,1.11,1.11,1.11,1.11-.5,1.11-1.11-.5-1.11-1.11-1.11Z"/><rect class="cls-1" x="52.72" y="45.65" width="8.69" height="2.49"/><path class="cls-1" d="M62.67,50.5c-1.99,0-3.6-1.62-3.6-3.6s1.61-3.6,3.6-3.6,3.6,1.61,3.6,3.6-1.61,3.6-3.6,3.6ZM62.67,45.8c-.61,0-1.11.5-1.11,1.11s.5,1.11,1.11,1.11,1.11-.5,1.11-1.11-.5-1.11-1.11-1.11Z"/><rect class="cls-1" x="4.89" y="34.81" width="12.25" height="2.49"/><path class="cls-1" d="M3.6,39.6c-1.99,0-3.6-1.62-3.6-3.6s1.61-3.6,3.6-3.6,3.6,1.61,3.6,3.6-1.61,3.6-3.6,3.6ZM3.6,34.89c-.61,0-1.11.5-1.11,1.11s.5,1.11,1.11,1.11,1.11-.5,1.11-1.11-.5-1.11-1.11-1.11Z"/><rect class="cls-1" x="10.58" y="45.65" width="8.69" height="2.49"/><path class="cls-1" d="M9.33,50.5c-1.99,0-3.6-1.62-3.6-3.6s1.61-3.6,3.6-3.6,3.6,1.61,3.6,3.6-1.61,3.6-3.6,3.6ZM9.33,45.8c-.61,0-1.11.5-1.11,1.11s.5,1.11,1.11,1.11,1.11-.5,1.11-1.11-.5-1.11-1.11-1.11Z"/><rect class="cls-1" x="10.58" y="23.85" width="8.69" height="2.49"/><path class="cls-1" d="M9.33,28.7c-1.99,0-3.6-1.62-3.6-3.6s1.61-3.6,3.6-3.6,3.6,1.61,3.6,3.6-1.61,3.6-3.6,3.6ZM9.33,23.99c-.61,0-1.11.5-1.11,1.11s.5,1.11,1.11,1.11,1.11-.5,1.11-1.11-.5-1.11-1.11-1.11Z"/><path class="cls-1" d="M34.29,27.25h-3.99l-6.32,17.02h4.13l1.13-3.31h6.06l1.13,3.31h4.22l-6.34-17.02h0ZM30.42,37.41l1.84-5.45,1.84,5.45h-3.68Z"/><polygon class="cls-1" points="45.83 27.25 41.78 27.25 41.78 44.26 45.83 44.26 45.83 27.25 45.83 27.25"/></g></g></svg>