<?xml version="1.0" encoding="UTF-8"?><svg id="Layer_2" xmlns="http://www.w3.org/2000/svg" viewBox="0 0 69.21 72"><defs><style>.cls-1{fill:#241f20;}</style></defs><g id="Layer_1-2"><g id="Icon_42"><path class="cls-1" d="M27.37,25.29C11.77,25.29,0,19.85,0,12.65S11.77,0,27.37,0s27.36,5.44,27.36,12.65-11.76,12.65-27.36,12.65ZM27.37,3.57C13.34,3.57,3.57,8.35,3.57,12.65s9.77,9.08,23.79,9.08,23.79-4.78,23.79-9.08S41.39,3.57,27.37,3.57Z"/><path class="cls-1" d="M26.11,39.46s-.02,0-.04,0c-6.8-.14-13.16-1.38-17.93-3.5C2.9,33.62,0,30.38,0,26.82c0-.99.8-1.78,1.78-1.78s1.78.8,1.78,1.78c0,4.15,9.07,8.79,22.57,9.07.99.02,1.77.84,1.75,1.82-.02.97-.81,1.75-1.78,1.75Z"/><path class="cls-1" d="M22.06,52.73c-.05,0-.11,0-.16,0C8.8,51.55,0,46.56,0,40.32c0-.99.8-1.78,1.78-1.78s1.78.8,1.78,1.78c0,3.53,6.97,7.8,18.64,8.85.98.09,1.71.95,1.62,1.94-.08.93-.86,1.62-1.77,1.62Z"/><path class="cls-1" d="M25.63,66.43s-.03,0-.05,0C10.76,66.01,0,60.7,0,53.81c0-.99.8-1.78,1.78-1.78s1.78.8,1.78,1.78c0,4.07,8.88,8.68,22.11,9.05.98.03,1.76.85,1.73,1.83-.03.97-.82,1.73-1.78,1.73Z"/><path class="cls-1" d="M1.78,55.82c-.99,0-1.78-.8-1.78-1.78V13.48c0-.99.8-1.78,1.78-1.78s1.78.8,1.78,1.78v40.56c0,.99-.8,1.78-1.78,1.78Z"/><path class="cls-1" d="M52.99,27.98c-.99,0-1.78-.8-1.78-1.78v-12.72c0-.99.8-1.78,1.78-1.78s1.78.8,1.78,1.78v12.72c0,.99-.8,1.78-1.78,1.78Z"/><path class="cls-1" d="M48.92,72c-5.42,0-10.52-2.11-14.35-5.94-7.91-7.91-7.91-20.79,0-28.7,1.45-1.45,3.11-2.67,4.91-3.62,1.29-.68,2.5-1.11,2.96-1.26.58-.2,1.18-.37,1.78-.51.22-.05,5.49-1.27,10.76.37h0c.78.24,1.53.54,1.56.56.02,0,.57.23,1.11.49,2.09.99,3.98,2.33,5.64,3.98,7.92,7.92,7.92,20.79,0,28.71-3.83,3.83-8.93,5.94-14.35,5.94ZM49.01,35.04c-2.27,0-3.95.38-3.98.39-.49.12-.98.26-1.46.42-.3.1-1.35.47-2.43,1.04-1.49.78-2.85,1.79-4.05,2.99-6.52,6.52-6.52,17.14,0,23.66,3.16,3.16,7.36,4.9,11.83,4.9s8.67-1.74,11.83-4.9c6.52-6.52,6.52-17.14,0-23.66-1.37-1.36-2.93-2.47-4.65-3.29-.44-.21-.91-.4-.91-.4,0,0-.64-.26-1.28-.46-1.7-.53-3.43-.69-4.9-.69Z"/><path class="cls-1" d="M51.07,50.94l2.65,7.45c.48,1.39-1.42,2.31-2.22,1.09,0,0-4.27-6.65-4.27-6.65-.64-1-.35-2.33.65-2.98,1.14-.76,2.75-.2,3.19,1.09h0Z"/><path class="cls-1" d="M47.19,50.43l6.25-10.25c.89-1.4,3.01-.29,2.37,1.24,0,0-4.82,10.99-4.82,10.99-.48,1.08-1.74,1.58-2.83,1.1-1.18-.51-1.65-1.99-.97-3.08h0Z"/></g></g></svg>