<?xml version="1.0" encoding="UTF-8"?><svg id="Layer_2" xmlns="http://www.w3.org/2000/svg" viewBox="0 0 72 72"><defs><style>.cls-1{fill:#241f20;}</style></defs><g id="Layer_1-2"><path class="cls-1" d="M62.84,72H10.33c-.98,0-1.78-.8-1.78-1.78s.8-1.78,1.78-1.78h52.52c.48,0,.88-.39.88-.87v-28.77c0-.98.8-1.78,1.78-1.78s1.78.8,1.78,1.78v28.77c0,2.44-1.99,4.43-4.43,4.43Z"/><path class="cls-1" d="M7.67,15.97c-.98,0-1.78-.8-1.78-1.78V4.43C5.89,1.99,7.88,0,10.33,0h52.52c.98,0,1.78.8,1.78,1.78s-.8,1.78-1.78,1.78H10.33c-.48,0-.88.39-.88.87v9.76c0,.98-.8,1.78-1.78,1.78Z"/><path class="cls-1" d="M22.86,11.68h-14.78c-.69,0-1.25-.56-1.25-1.24s.56-1.24,1.25-1.24h14.78c.69,0,1.25.56,1.25,1.24s-.56,1.24-1.25,1.24Z"/><path class="cls-1" d="M13.66,7.29h-.87c-.39,0-.71-.32-.71-.71s.32-.71.71-.71h.87c.39,0,.71.32.71.71s-.32.71-.71.71Z"/><path class="cls-1" d="M17.57,7.29h-.87c-.39,0-.71-.32-.71-.71s.32-.71.71-.71h.87c.39,0,.71.32.71.71s-.32.71-.71.71Z"/><path class="cls-1" d="M21.47,7.29h-.87c-.39,0-.71-.32-.71-.71s.32-.71.71-.71h.87c.39,0,.71.32.71.71s-.32.71-.71.71Z"/><path class="cls-1" d="M22.11,45.22H6.77c-1.58,0-2.87-1.29-2.87-2.87v-22.43c0-1.58,1.29-2.87,2.87-2.87h15.34c1.58,0,2.87,1.29,2.87,2.87v22.43c0,1.58-1.29,2.87-2.87,2.87ZM6.77,19.54c-.21,0-.38.17-.38.38v22.43c0,.21.17.38.38.38h15.34c.21,0,.38-.17.38-.38v-22.43c0-.21-.17-.38-.38-.38H6.77Z"/><path class="cls-1" d="M18.92,25.58h-9.71c-.59,0-1.07-.48-1.07-1.07s.48-1.07,1.07-1.07h9.71c.59,0,1.07.48,1.07,1.07s-.48,1.07-1.07,1.07Z"/><path class="cls-1" d="M18.92,29.99h-9.71c-.59,0-1.07-.48-1.07-1.07s.48-1.07,1.07-1.07h9.71c.59,0,1.07.48,1.07,1.07s-.48,1.07-1.07,1.07Z"/><path class="cls-1" d="M17.91,38.99h-8.69c-.59,0-1.07-.48-1.07-1.07s.48-1.07,1.07-1.07h8.69c.59,0,1.07.48,1.07,1.07s-.48,1.07-1.07,1.07Z"/><path class="cls-1" d="M15.75,34.39h-6.6c-.59,0-1.07-.48-1.07-1.07s.48-1.07,1.07-1.07h6.6c.59,0,1.07.48,1.07,1.07s-.48,1.07-1.07,1.07Z"/><path class="cls-1" d="M57.71,59.64h-26.81c-1.55,0-2.81-1.26-2.81-2.8v-14.48c0-1.55,1.26-2.8,2.81-2.8h26.81c1.55,0,2.81,1.26,2.81,2.8v14.48c0,1.55-1.26,2.8-2.81,2.8ZM30.9,41.33c-.57,0-1.03.46-1.03,1.03v14.48c0,.57.46,1.03,1.03,1.03h26.81c.57,0,1.03-.46,1.03-1.03v-14.48c0-.57-.46-1.03-1.03-1.03h-26.81Z"/><path class="cls-1" d="M50.29,45.95h-12.8c-.59,0-1.07-.48-1.07-1.07s.48-1.07,1.07-1.07h12.8c.59,0,1.07.48,1.07,1.07s-.48,1.07-1.07,1.07Z"/><path class="cls-1" d="M54.39,50.36h-16.9c-.59,0-1.07-.48-1.07-1.07s.48-1.07,1.07-1.07h16.9c.59,0,1.07.48,1.07,1.07s-.48,1.07-1.07,1.07Z"/><path class="cls-1" d="M54.39,54.76h-16.9c-.59,0-1.07-.48-1.07-1.07s.48-1.07,1.07-1.07h16.9c.59,0,1.07.48,1.07,1.07s-.48,1.07-1.07,1.07Z"/><path class="cls-1" d="M33.33,45.95c-.28,0-.56-.11-.75-.31-.2-.2-.31-.47-.31-.75,0-.07,0-.14.02-.21.01-.07.04-.14.06-.2.03-.06.06-.12.1-.18.04-.06.09-.11.13-.16.4-.4,1.11-.4,1.51,0,.2.2.31.47.31.75s-.12.55-.31.75c-.05.05-.11.09-.16.13-.06.04-.12.07-.19.1-.06.02-.13.05-.2.06-.07.01-.14.02-.21.02Z"/><path class="cls-1" d="M33.33,50.36c-.28,0-.56-.11-.75-.31-.2-.2-.31-.47-.31-.75,0-.07,0-.14.02-.21.01-.07.04-.14.06-.2.03-.06.06-.12.1-.18.04-.06.09-.11.13-.16.25-.25.62-.36.96-.29.07.01.14.03.2.06.06.02.13.06.19.1.06.04.11.09.16.14.2.2.31.47.31.75s-.12.55-.31.75c-.05.05-.11.09-.16.13-.06.04-.12.07-.19.1-.06.02-.13.05-.2.06s-.14.02-.21.02Z"/><path class="cls-1" d="M33.33,54.76c-.28,0-.56-.11-.75-.31-.05-.05-.09-.1-.13-.16-.04-.06-.07-.12-.1-.18-.03-.06-.05-.13-.06-.2-.01-.07-.02-.14-.02-.21,0-.28.11-.55.31-.75.25-.25.62-.36.96-.29.07.01.14.03.2.06.06.02.13.06.19.1.06.04.11.09.16.14.2.2.31.47.31.75s-.12.55-.31.75c-.05.05-.11.09-.16.13s-.12.07-.19.1c-.06.02-.13.05-.2.06s-.14.02-.21.02Z"/><path class="cls-1" d="M68.28,33.82h-35.39c-2.05,0-3.72-1.67-3.72-3.71V10.15c0-2.05,1.67-3.71,3.72-3.71h35.39c2.05,0,3.72,1.67,3.72,3.71v19.96c0,2.05-1.67,3.71-3.72,3.71ZM32.89,9.99c-.09,0-.16.07-.16.16v19.96c0,.09.07.16.16.16h35.39c.09,0,.16-.07.16-.16V10.15c0-.09-.07-.16-.16-.16h-35.39Z"/><path class="cls-1" d="M54.23,33.21c-.52,0-1.04-.23-1.39-.66l-10.59-13.14-8.64,10.61c-.62.76-1.74.88-2.5.26s-.88-1.74-.26-2.5l10.03-12.31c.34-.41.84-.66,1.38-.66h0c.54,0,1.04.25,1.38.66l11.97,14.85c.62.76.5,1.88-.27,2.5-.33.26-.72.39-1.11.39Z"/><path class="cls-1" d="M68.07,32.92c-.5,0-.99-.21-1.34-.61l-8.95-10.22-5.43,5.43c-.7.69-1.82.69-2.52,0-.69-.69-.69-1.82,0-2.52l6.77-6.77c.35-.35.82-.54,1.32-.52.49.02.96.24,1.28.61l10.2,11.65c.65.74.57,1.86-.17,2.51-.34.3-.76.44-1.17.44Z"/><path class="cls-1" d="M51.46,16.68c-1.42,0-2.58-1.16-2.58-2.58s1.16-2.58,2.58-2.58,2.58,1.16,2.58,2.58-1.16,2.58-2.58,2.58ZM51.46,13.12c-.54,0-.98.44-.98.98s.44.98.98.98.98-.44.98-.98-.44-.98-.98-.98Z"/><path class="cls-1" d="M20.39,65.48H3.16c-1.74,0-3.16-1.42-3.16-3.16v-10.6c0-1.74,1.42-3.16,3.16-3.16h17.23c1.74,0,3.16,1.42,3.16,3.16v10.6c0,1.74-1.42,3.16-3.16,3.16ZM3.16,51.04c-.37,0-.67.3-.67.67v10.6c0,.37.3.67.67.67h17.23c.37,0,.67-.3.67-.67v-10.6c0-.37-.3-.67-.67-.67H3.16Z"/><path class="cls-1" d="M18.26,57.78c-.23,0-.46-.09-.63-.26l-2-2c-.35-.35-.35-.91,0-1.26.35-.35.91-.35,1.26,0l2,2c.35.35.35.91,0,1.26-.17.17-.4.26-.63.26Z"/><path class="cls-1" d="M16.26,59.85c-.23,0-.46-.09-.63-.26-.35-.35-.35-.91,0-1.26l2-2c.35-.35.91-.35,1.26,0,.35.35.35.91,0,1.26l-2,2c-.17.17-.4.26-.63.26Z"/><path class="cls-1" d="M7.57,59.85c-.23,0-.46-.09-.63-.26l-2-2c-.35-.35-.35-.91,0-1.26.35-.35.91-.35,1.26,0l2,2c.35.35.35.91,0,1.26-.17.17-.4.26-.63.26Z"/><path class="cls-1" d="M5.56,57.78c-.23,0-.46-.09-.63-.26-.35-.35-.35-.91,0-1.26l2-2c.35-.35.91-.35,1.26,0,.35.35.35.91,0,1.26l-2,2c-.17.17-.4.26-.63.26Z"/><path class="cls-1" d="M10.12,59.46c-.23,0-.46-.09-.63-.26-.35-.35-.35-.91,0-1.26l3.25-3.25c.35-.35.91-.35,1.26,0,.35.35.35.91,0,1.26l-3.25,3.25c-.17.17-.4.26-.63.26Z"/></g></svg>