<?xml version="1.0" encoding="UTF-8"?><svg id="Layer_2" xmlns="http://www.w3.org/2000/svg" viewBox="0 0 72 72.03"><g id="Layer_1-2"><g id="Icon_1"><path d="M67.73,72.03H4.27c-2.36,0-4.27-1.92-4.27-4.27V4.27C0,1.92,1.92,0,4.27,0h63.45c2.36,0,4.27,1.92,4.27,4.27v63.48c0,2.36-1.92,4.27-4.27,4.27ZM4.27,3.56c-.39,0-.71.32-.71.71v63.48c0,.39.32.71.71.71h63.45c.39,0,.71-.32.71-.71V4.27c0-.39-.32-.71-.71-.71H4.27Z"/><rect x="34.22" y="1.81" width="3.56" height="68.19"/><path d="M29.58,34.26h-15.07c-.98,0-1.78-.8-1.78-1.78s.8-1.78,1.78-1.78h15.07c.98,0,1.78.8,1.78,1.78s-.8,1.78-1.78,1.78Z"/><path d="M29.58,59.4h-13.66c-.98,0-1.78-.8-1.78-1.78s.8-1.78,1.78-1.78h13.66c.98,0,1.78.8,1.78,1.78s-.8,1.78-1.78,1.78Z"/><path d="M29.58,51.02H10.42c-.98,0-1.78-.8-1.78-1.78s.8-1.78,1.78-1.78h19.16c.98,0,1.78.8,1.78,1.78s-.8,1.78-1.78,1.78Z"/><path d="M29.58,42.64h-8.68c-.98,0-1.78-.8-1.78-1.78s.8-1.78,1.78-1.78h8.68c.98,0,1.78.8,1.78,1.78s-.8,1.78-1.78,1.78Z"/><path d="M57.47,34.26h-15.07c-.98,0-1.78-.8-1.78-1.78s.8-1.78,1.78-1.78h15.07c.98,0,1.78.8,1.78,1.78s-.8,1.78-1.78,1.78Z"/><path d="M56.06,59.4h-13.66c-.98,0-1.78-.8-1.78-1.78s.8-1.78,1.78-1.78h13.66c.98,0,1.78.8,1.78,1.78s-.8,1.78-1.78,1.78Z"/><path d="M61.57,51.02h-19.16c-.98,0-1.78-.8-1.78-1.78s.8-1.78,1.78-1.78h19.16c.98,0,1.78.8,1.78,1.78s-.8,1.78-1.78,1.78Z"/><path d="M51.08,42.64h-8.68c-.98,0-1.78-.8-1.78-1.78s.8-1.78,1.78-1.78h8.68c.98,0,1.78.8,1.78,1.78s-.8,1.78-1.78,1.78Z"/><path d="M28.35,16.72H10.08c-1.38,0-2.49-1.12-2.49-2.49s1.12-2.49,2.49-2.49h18.27c1.38,0,2.49,1.12,2.49,2.49s-1.12,2.49-2.49,2.49Z"/><path d="M62.17,16.72h-18.27c-1.38,0-2.49-1.12-2.49-2.49s1.12-2.49,2.49-2.49h18.27c1.38,0,2.49,1.12,2.49,2.49s-1.12,2.49-2.49,2.49Z"/></g></g></svg>