<?xml version="1.0" encoding="UTF-8"?><svg id="Layer_2" xmlns="http://www.w3.org/2000/svg" viewBox="0 0 72 72"><g id="Layer_1-2"><g id="Icon_48"><path d="M23.27,41.69h-7.83c-.99,0-1.79-.8-1.79-1.78v-7.82c0-.98.8-1.78,1.79-1.78h7.83c.99,0,1.79.8,1.79,1.78v7.82c0,.98-.8,1.78-1.79,1.78ZM17.22,38.13h4.26v-4.25h-4.26v4.25Z"/><path d="M39.91,41.69h-7.83c-.99,0-1.79-.8-1.79-1.78v-7.82c0-.98.8-1.78,1.79-1.78h7.83c.99,0,1.79.8,1.79,1.78v7.82c0,.98-.8,1.78-1.79,1.78ZM33.87,38.13h4.26v-4.25h-4.26v4.25Z"/><path d="M56.56,41.69h-7.83c-.99,0-1.79-.8-1.79-1.78v-7.82c0-.98.8-1.78,1.79-1.78h7.83c.99,0,1.79.8,1.79,1.78v7.82c0,.98-.8,1.78-1.79,1.78ZM50.52,38.13h4.26v-4.25h-4.26v4.25Z"/><path d="M66.29,71.9h-13.47c-.99,0-1.79-.8-1.79-1.78s.8-1.78,1.79-1.78h13.47c1.18,0,2.14-.96,2.14-2.14V5.7c0-1.18-.96-2.14-2.14-2.14h-13.47c-.99,0-1.79-.8-1.79-1.78s.8-1.78,1.79-1.78h13.47c3.15,0,5.71,2.56,5.71,5.7v60.5c0,3.14-2.56,5.7-5.71,5.7Z"/><path d="M19.18,72H5.71c-3.15,0-5.71-2.56-5.71-5.7V5.8C0,2.65,2.56.1,5.71.1h13.47c.99,0,1.79.8,1.79,1.78s-.8,1.78-1.79,1.78H5.71c-1.18,0-2.14.96-2.14,2.14v60.5c0,1.18.96,2.14,2.14,2.14h13.47c.99,0,1.79.8,1.79,1.78s-.8,1.78-1.79,1.78Z"/></g></g></svg>