<?xml version="1.0" encoding="UTF-8"?><svg id="Layer_2" xmlns="http://www.w3.org/2000/svg" viewBox="0 0 71.51 72"><defs><style>.cls-1{fill:#241f20;}</style></defs><g id="Layer_1-2"><path class="cls-1" d="M62.06,72H14.48c-.98,0-1.78-.8-1.78-1.78s.8-1.78,1.78-1.78h47.58c.48,0,.88-.39.88-.87v-25.46c0-.98.8-1.78,1.78-1.78s1.78.8,1.78,1.78v25.46c0,2.44-1.99,4.43-4.43,4.43Z"/><path class="cls-1" d="M11.82,15.97c-.98,0-1.78-.8-1.78-1.78V4.43c0-2.44,1.99-4.43,4.43-4.43h47.58c.98,0,1.78.8,1.78,1.78s-.8,1.78-1.78,1.78H14.48c-.48,0-.88.39-.88.87v9.76c0,.98-.8,1.78-1.78,1.78Z"/><path class="cls-1" d="M22.11,42.42H6.77c-1.58,0-2.87-1.29-2.87-2.87v-16.24c0-1.58,1.29-2.87,2.87-2.87h15.34c1.58,0,2.87,1.29,2.87,2.87v16.24c0,1.58-1.29,2.87-2.87,2.87ZM6.77,22.92c-.21,0-.38.17-.38.38v16.24c0,.21.17.38.38.38h15.34c.21,0,.38-.17.38-.38v-16.24c0-.21-.17-.38-.38-.38H6.77Z"/><path class="cls-1" d="M18.24,29.58h-8.31c-.59,0-1.07-.48-1.07-1.07s.48-1.07,1.07-1.07h8.31c.59,0,1.07.48,1.07,1.07s-.48,1.07-1.07,1.07Z"/><path class="cls-1" d="M15.07,35.41h-5.21c-.59,0-1.07-.48-1.07-1.07s.48-1.07,1.07-1.07h5.21c.59,0,1.07.48,1.07,1.07s-.48,1.07-1.07,1.07Z"/><path class="cls-1" d="M55.16,61.86h-23.63c-1.55,0-2.81-1.26-2.81-2.8v-14.48c0-1.55,1.26-2.8,2.81-2.8h23.63c1.55,0,2.81,1.26,2.81,2.8v14.48c0,1.55-1.26,2.8-2.81,2.8ZM32.08,43.93c-.54,0-.98.44-.98.98v13.8c0,.54.44.98.98.98h22.52c.54,0,.98-.44.98-.98v-13.8c0-.54-.44-.98-.98-.98h-22.52Z"/><path class="cls-1" d="M48.99,50.29h-9.61c-.59,0-1.07-.48-1.07-1.07s.48-1.07,1.07-1.07h9.61c.59,0,1.07.48,1.07,1.07s-.48,1.07-1.07,1.07Z"/><path class="cls-1" d="M50.61,56.07h-11.23c-.59,0-1.07-.48-1.07-1.07s.48-1.07,1.07-1.07h11.23c.59,0,1.07.48,1.07,1.07s-.48,1.07-1.07,1.07Z"/><path class="cls-1" d="M35.21,50.3c-.28,0-.56-.11-.75-.31-.2-.2-.31-.47-.31-.75,0-.07,0-.14.02-.21.01-.07.04-.14.06-.2.03-.06.06-.12.1-.18.04-.06.09-.11.13-.16.4-.4,1.11-.4,1.51,0,.2.2.31.47.31.75s-.12.55-.31.75c-.05.05-.11.09-.16.13-.06.04-.12.07-.19.1-.06.02-.13.05-.2.06-.07.01-.14.02-.21.02Z"/><path class="cls-1" d="M35.21,56.07c-.28,0-.56-.11-.75-.31-.2-.2-.31-.47-.31-.75,0-.07,0-.14.02-.21.01-.07.04-.14.06-.2.03-.06.06-.12.1-.18.04-.06.09-.11.13-.16.25-.25.62-.36.96-.29.07.01.14.03.2.06.06.02.13.06.19.1.06.04.11.09.16.14.2.2.31.47.31.75s-.12.55-.31.75c-.05.05-.11.09-.16.13-.06.04-.12.07-.19.1-.06.02-.13.05-.2.06s-.14.02-.21.02Z"/><path class="cls-1" d="M68.05,34.72h-33c-1.91,0-3.46-1.55-3.46-3.46V12.65c0-1.91,1.55-3.46,3.46-3.46h33c1.91,0,3.46,1.55,3.46,3.46v18.61c0,1.91-1.55,3.46-3.46,3.46ZM35.68,12.27c-.65,0-1.17.53-1.17,1.17v18.04c0,.08.07.15.15.15h33.8c.08,0,.15-.07.15-.15V13.45c0-.65-.53-1.17-1.17-1.17h-31.75Z"/><path class="cls-1" d="M55.03,33.74c-.5,0-.99-.22-1.32-.63l-10.11-12.55-8.25,10.13c-2.3,2.48-1.66.84-2.39.24s-.84-.96-.24-1.69l9.58-11.76c.32-.4.81-.63,1.32-.63h0c.51,0,1,.23,1.32.63l11.43,14.19c.59.73.47,1.8-.26,2.39-.31.25-.69-.32-1.06-.32Z"/><path class="cls-1" d="M68.25,33.33c-.47,0-.94-.2-1.28-.58l-8.54-9.76-5.19,5.18c-.66.66-1.74.66-2.4,0-.66-.66-.66-.91,0-1.57l6.47-6.47c.33-.33.78-.51,1.26-.5.47.02.91.23,1.22.58l9.74,11.13c.62.71.55,1.78-.16,2.4-.32.28-.72-.41-1.12-.41Z"/><path class="cls-1" d="M52.39,18.66c-1.36,0-2.46-1.1-2.46-2.46s1.11-2.46,2.46-2.46,2.46,1.1,2.46,2.46-1.11,2.46-2.46,2.46ZM52.39,15.26c-.51,0-.93.42-.93.93s.42.93.93.93.93-.42.93-.93-.42-.93-.93-.93Z"/><path class="cls-1" d="M20.39,65.48H3.16c-1.74,0-3.16-1.42-3.16-3.16v-10.6c0-1.74,1.42-3.16,3.16-3.16h17.23c1.74,0,3.16,1.42,3.16,3.16v10.6c0,1.74-1.42,3.16-3.16,3.16ZM3.16,51.04c-.37,0-.67.3-.67.67v10.6c0,.37.3.67.67.67h17.23c.37,0,.67-.3.67-.67v-10.6c0-.37-.3-.67-.67-.67H3.16Z"/><path class="cls-1" d="M18.26,57.78c-.23,0-.46-.09-.63-.26l-2-2c-.35-.35-.35-.91,0-1.26.35-.35.91-.35,1.26,0l2,2c.35.35.35.91,0,1.26-.17.17-.4.26-.63.26Z"/><path class="cls-1" d="M16.26,59.85c-.23,0-.46-.09-.63-.26-.35-.35-.35-.91,0-1.26l2-2c.35-.35.91-.35,1.26,0,.35.35.35.91,0,1.26l-2,2c-.17.17-.4.26-.63.26Z"/><path class="cls-1" d="M7.57,59.85c-.23,0-.46-.09-.63-.26l-2-2c-.35-.35-.35-.91,0-1.26.35-.35.91-.35,1.26,0l2,2c.35.35.35.91,0,1.26-.17.17-.4.26-.63.26Z"/><path class="cls-1" d="M5.56,57.78c-.23,0-.46-.09-.63-.26-.35-.35-.35-.91,0-1.26l2-2c.35-.35.91-.35,1.26,0,.35.35.35.91,0,1.26l-2,2c-.17.17-.4.26-.63.26Z"/><path class="cls-1" d="M10.12,59.46c-.23,0-.46-.09-.63-.26-.35-.35-.35-.91,0-1.26l3.25-3.25c.35-.35.91-.35,1.26,0,.35.35.35.91,0,1.26l-3.25,3.25c-.17.17-.4.26-.63.26Z"/></g></svg>