<?xml version="1.0" encoding="UTF-8"?><svg id="Layer_2" xmlns="http://www.w3.org/2000/svg" viewBox="0 0 72 60.76"><g id="Layer_1-2"><g id="Icon_56"><path d="M66.66,60.76H5.34c-2.95,0-5.34-2.4-5.34-5.34V5.34C0,2.4,2.4,0,5.34,0h61.32c2.95,0,5.34,2.4,5.34,5.34v50.07c0,2.95-2.4,5.34-5.34,5.34ZM5.34,3.56c-.98,0-1.78.8-1.78,1.78v50.07c0,.98.8,1.78,1.78,1.78h61.32c.98,0,1.78-.8,1.78-1.78V5.34c0-.98-.8-1.78-1.78-1.78H5.34Z"/><path d="M68.38,20.75H3.29c-.98,0-1.78-.8-1.78-1.78s.8-1.78,1.78-1.78h65.09c.98,0,1.78.8,1.78,1.78s-.8,1.78-1.78,1.78Z"/><path d="M68.38,34.08H3.29c-.98,0-1.78-.8-1.78-1.78s.8-1.78,1.78-1.78h65.09c.98,0,1.78.8,1.78,1.78s-.8,1.78-1.78,1.78Z"/><path d="M24.42,60.38c-.98,0-1.78-.8-1.78-1.78V19.56c0-.98.8-1.78,1.78-1.78s1.78.8,1.78,1.78v39.04c0,.98-.8,1.78-1.78,1.78Z"/><path d="M48.19,60.38c-.98,0-1.78-.8-1.78-1.78V19.56c0-.98.8-1.78,1.78-1.78s1.78.8,1.78,1.78v39.04c0,.98-.8,1.78-1.78,1.78Z"/><path d="M68.38,47.19H3.29c-.98,0-1.78-.8-1.78-1.78s.8-1.78,1.78-1.78h65.09c.98,0,1.78.8,1.78,1.78s-.8,1.78-1.78,1.78Z"/></g></g></svg>