<?xml version="1.0" encoding="UTF-8"?><svg id="Layer_2" xmlns="http://www.w3.org/2000/svg" viewBox="0 0 72 72"><g id="Layer_1-2"><g id="Icon_2"><path d="M24.53,57.27h-13.79c-.98,0-1.78-.8-1.78-1.78s.8-1.78,1.78-1.78h13.79c.98,0,1.78.8,1.78,1.78s-.8,1.78-1.78,1.78Z"/><path d="M20.93,44.89h-10.2c-.98,0-1.78-.8-1.78-1.78s.8-1.78,1.78-1.78h10.2c.98,0,1.78.8,1.78,1.78s-.8,1.78-1.78,1.78Z"/><path d="M26.75,32.52H10.74c-.98,0-1.78-.8-1.78-1.78s.8-1.78,1.78-1.78h16.01c.98,0,1.78.8,1.78,1.78s-.8,1.78-1.78,1.78Z"/><path d="M37.11,17.29h-20.72c-1.38,0-2.5-1.12-2.5-2.5s1.12-2.5,2.5-2.5h20.72c1.38,0,2.5,1.12,2.5,2.5s-1.12,2.5-2.5,2.5Z"/><path d="M42.5,70.68H4.34c-2.39,0-4.34-1.95-4.34-4.34V4.35C0,1.95,1.95,0,4.34,0h45.58c2.4,0,4.35,1.95,4.35,4.35v17.93c0,.98-.8,1.78-1.78,1.78s-1.78-.8-1.78-1.78V4.35c0-.43-.35-.78-.78-.78H4.34c-.43,0-.78.35-.78.78v61.99c0,.43.35.78.78.78h38.16c.98,0,1.78.8,1.78,1.78s-.8,1.78-1.78,1.78Z"/><path d="M47.75,63.23c-9.22,0-16.73-7.5-16.73-16.73s7.5-16.73,16.73-16.73,16.73,7.5,16.73,16.73-7.5,16.73-16.73,16.73ZM47.75,33.34c-7.26,0-13.16,5.91-13.16,13.16s5.9,13.16,13.16,13.16,13.16-5.91,13.16-13.16-5.9-13.16-13.16-13.16Z"/><path d="M70.22,72c-.46,0-.91-.17-1.26-.52l-12.05-12.05c-.7-.7-.7-1.82,0-2.52.7-.7,1.82-.7,2.52,0l12.05,12.05c.7.7.7,1.82,0,2.52-.35.35-.8.52-1.26.52Z"/></g></g></svg>