<?xml version="1.0" encoding="UTF-8"?><svg id="Layer_2" xmlns="http://www.w3.org/2000/svg" viewBox="0 0 72 72"><g id="Layer_1-2"><g id="Icon_49"><path d="M66.3,72H5.8c-3.14,0-5.7-2.56-5.7-5.71v-13.47c0-.99.8-1.79,1.78-1.79s1.78.8,1.78,1.79v13.47c0,1.18.96,2.14,2.14,2.14h60.5c1.18,0,2.14-.96,2.14-2.14v-13.47c0-.99.8-1.79,1.78-1.79s1.78.8,1.78,1.79v13.47c0,3.15-2.56,5.71-5.7,5.71Z"/><path d="M70.12,20.97c-.98,0-1.78-.8-1.78-1.79V5.71c0-1.18-.96-2.14-2.14-2.14H5.7c-1.18,0-2.14.96-2.14,2.14v13.47c0,.99-.8,1.79-1.78,1.79s-1.78-.8-1.78-1.79V5.71C0,2.56,2.56,0,5.7,0h60.5c3.14,0,5.7,2.56,5.7,5.71v13.47c0,.99-.8,1.79-1.78,1.79Z"/><path d="M35.95,71.8c-.98,0-1.78-.8-1.78-1.79V2.38c0-.99.8-1.79,1.78-1.79s1.78.8,1.78,1.79v67.64c0,.99-.8,1.79-1.78,1.79Z"/><path d="M27.74,37.86H4.83c-.98,0-1.78-.8-1.78-1.79s.8-1.79,1.78-1.79h22.91c.98,0,1.78.8,1.78,1.79s-.8,1.79-1.78,1.79Z"/><path d="M13.09,46.34c-.46,0-.91-.17-1.26-.52l-8.46-8.48c-.7-.7-.7-1.83,0-2.52.7-.7,1.83-.7,2.52,0l8.46,8.48c.7.7.7,1.83,0,2.52-.35.35-.8.52-1.26.52Z"/><path d="M4.62,37.86c-.46,0-.91-.17-1.26-.52-.7-.7-.7-1.83,0-2.52l8.46-8.48c.7-.7,1.82-.7,2.52,0,.7.7.7,1.83,0,2.52l-8.46,8.48c-.35.35-.8.52-1.26.52Z"/><path d="M67.23,37.86h-23c-.98,0-1.78-.8-1.78-1.79s.8-1.79,1.78-1.79h23c.98,0,1.78.8,1.78,1.79s-.8,1.79-1.78,1.79Z"/><path d="M67.44,37.86c-.46,0-.91-.17-1.26-.52l-8.46-8.48c-.7-.7-.7-1.83,0-2.52s1.83-.7,2.52,0l8.46,8.48c.7.7.7,1.83,0,2.52-.35.35-.8.52-1.26.52Z"/><path d="M58.97,46.34c-.46,0-.91-.17-1.26-.52-.7-.7-.7-1.83,0-2.52l8.46-8.48c.7-.7,1.82-.7,2.52,0,.7.7.7,1.83,0,2.52l-8.46,8.48c-.35.35-.8.52-1.26.52Z"/></g></g></svg>