<?xml version="1.0" encoding="UTF-8"?><svg id="Layer_2" xmlns="http://www.w3.org/2000/svg" viewBox="0 0 65.15 72"><g id="Layer_1-2"><path d="M46.96,72h-28.77c-6.03,0-9.05,0-11.62-1.31-2.28-1.16-4.1-2.98-5.26-5.26-1.31-2.57-1.31-5.6-1.31-11.62v-28.77c0-6.03,0-9.05,1.31-11.62,1.16-2.28,2.98-4.1,5.26-5.26,2.42-1.23,5.23-1.31,10.55-1.31V1.76c0-.97.79-1.76,1.76-1.76s1.76.79,1.76,1.76v5.09h23.89V1.76c0-.97.79-1.76,1.76-1.76s1.76.79,1.76,1.76v5.09c5.32,0,8.14.08,10.55,1.31,2.28,1.16,4.1,2.98,5.26,5.26,1.31,2.57,1.31,5.6,1.31,11.62v28.77c0,6.03,0,9.05-1.31,11.62-1.16,2.28-2.98,4.1-5.26,5.26-2.57,1.31-5.6,1.31-11.62,1.31ZM3.51,30.14v23.67c0,5.47,0,8.21.93,10.03.82,1.61,2.11,2.9,3.72,3.72,1.82.93,4.57.93,10.03.93h28.77c5.47,0,8.21,0,10.03-.93,1.61-.82,2.9-2.11,3.72-3.72.93-1.82.93-4.57.93-10.03v-23.67H3.51ZM3.51,26.63h58.13v-1.58c0-5.47,0-8.21-.93-10.03-.82-1.61-2.11-2.9-3.72-3.72-1.7-.87-4.2-.92-8.96-.93v5.09c0,.97-.79,1.76-1.76,1.76s-1.76-.79-1.76-1.76v-5.09h-23.89v5.09c0,.97-.79,1.76-1.76,1.76s-1.76-.79-1.76-1.76v-5.09c-4.76,0-7.26.06-8.96.93-1.61.82-2.9,2.11-3.72,3.72-.93,1.82-.93,4.57-.93,10.03v1.58ZM50.91,61.9h-3.01c-.74,0-1.32,0-1.93-.31-.54-.27-.96-.7-1.24-1.24-.31-.6-.31-1.19-.31-1.93v-3.01c0-.74,0-1.32.31-1.93.27-.54.7-.96,1.24-1.24.6-.31,1.19-.31,1.93-.31h3.01c.74,0,1.32,0,1.93.31.54.27.96.7,1.24,1.24.31.61.31,1.19.31,1.93v3.01c0,.74,0,1.32-.31,1.93-.27.54-.7.96-1.24,1.24-.6.31-1.19.31-1.93.31ZM47.94,58.39h2.93v-2.93h-2.93v2.93ZM33.88,61.9h-3.01c-.74,0-1.32,0-1.93-.31-.54-.27-.96-.7-1.24-1.24-.31-.6-.31-1.19-.31-1.93v-3.01c0-.74,0-1.32.31-1.93.27-.54.7-.96,1.24-1.24.61-.31,1.19-.31,1.93-.31h3.01c.74,0,1.32,0,1.93.31.54.27.96.7,1.24,1.24.31.61.31,1.19.31,1.93v3.01c0,.74,0,1.32-.31,1.93-.27.54-.7.96-1.24,1.24-.6.31-1.19.31-1.93.31ZM30.92,59.01h0s0,0,0,0ZM30.91,58.39h2.93v-2.93h-2.93v2.93ZM30.92,54.84h0ZM17.4,61.9h-3.01c-.74,0-1.32,0-1.93-.31-.54-.27-.96-.7-1.24-1.24-.31-.6-.31-1.19-.31-1.93v-3.01c0-.74,0-1.32.31-1.93.27-.54.7-.96,1.24-1.24.61-.31,1.19-.31,1.93-.31h3.01c.74,0,1.32,0,1.93.31.54.27.96.7,1.24,1.24.31.61.31,1.19.31,1.93v3.01c0,.74,0,1.32-.31,1.93-.27.54-.7.96-1.24,1.24-.6.31-1.19.31-1.93.31ZM14.44,58.39h2.93v-2.93h-2.93v2.93ZM50.91,46.49h-3.01c-.74,0-1.32,0-1.93-.31-.54-.27-.96-.7-1.24-1.24-.31-.6-.31-1.19-.31-1.93v-3.01c0-.74,0-1.32.31-1.93.27-.54.7-.96,1.24-1.24.61-.31,1.19-.31,1.93-.31h3.01c.74,0,1.32,0,1.93.31.54.27.96.7,1.24,1.24.31.61.31,1.19.31,1.93v3.01c0,.74,0,1.32-.31,1.93-.27.54-.7.96-1.24,1.24-.6.31-1.19.31-1.93.31ZM47.94,42.98h2.93v-2.93h-2.93v2.93ZM33.88,46.49h-3.01c-.74,0-1.32,0-1.93-.31-.54-.27-.96-.7-1.24-1.24-.31-.6-.31-1.19-.31-1.93v-3.01c0-.74,0-1.32.31-1.93.27-.54.7-.96,1.24-1.24.61-.31,1.19-.31,1.93-.31h3.01c.74,0,1.32,0,1.93.31.54.27.96.7,1.24,1.24.31.61.31,1.19.31,1.93v3.01c0,.74,0,1.32-.31,1.93-.27.54-.7.96-1.24,1.24-.6.31-1.19.31-1.93.31ZM30.92,43.6h0s0,0,0,0ZM30.91,42.98h2.93v-2.93h-2.93v2.93ZM30.92,39.43h0ZM17.4,46.49h-3.01c-.74,0-1.32,0-1.93-.31-.54-.27-.96-.7-1.24-1.24-.31-.6-.31-1.19-.31-1.93v-3.01c0-.74,0-1.32.31-1.93.27-.54.7-.96,1.24-1.24.61-.31,1.19-.31,1.93-.31h3.01c.74,0,1.32,0,1.93.31.54.27.96.7,1.24,1.24.31.61.31,1.19.31,1.93v3.01c0,.74,0,1.32-.31,1.93-.27.54-.7.96-1.24,1.24-.6.31-1.19.31-1.93.31ZM14.44,42.98h2.93v-2.93h-2.93v2.93Z"/></g></svg>