<?xml version="1.0" encoding="UTF-8"?><svg id="Layer_2" xmlns="http://www.w3.org/2000/svg" viewBox="0 0 72 72"><g id="Layer_1-2"><path d="M26.87,63.11H7.07c-3.9,0-7.07-3.17-7.07-7.07V7.07C0,3.17,3.17,0,7.07,0h35.93c3.9,0,7.07,3.17,7.07,7.07v19.46c0,.98-.8,1.78-1.78,1.78s-1.78-.8-1.78-1.78V7.07c0-1.93-1.57-3.51-3.51-3.51H7.07c-1.93,0-3.51,1.57-3.51,3.51v48.97c0,1.93,1.57,3.51,3.51,3.51h19.8c.99,0,1.78.8,1.78,1.78s-.8,1.78-1.78,1.78Z"/><path d="M37.17,16.91H12.39c-.69,0-1.25-.56-1.25-1.25s.56-1.25,1.25-1.25h24.78c.69,0,1.25.56,1.25,1.25s-.56,1.25-1.25,1.25Z"/><path d="M37.17,27.93H12.39c-.69,0-1.25-.56-1.25-1.25s.56-1.25,1.25-1.25h24.78c.69,0,1.25.56,1.25,1.25s-.56,1.25-1.25,1.25Z"/><path d="M30.25,38.95H12.39c-.69,0-1.25-.56-1.25-1.25s.56-1.25,1.25-1.25h17.87c.69,0,1.25.56,1.25,1.25s-.56,1.25-1.25,1.25Z"/><path d="M26.15,49.97h-13.76c-.69,0-1.25-.56-1.25-1.25s.56-1.25,1.25-1.25h13.76c.69,0,1.25.56,1.25,1.25s-.56,1.25-1.25,1.25Z"/><path d="M53.36,72c-10.28,0-18.64-8.36-18.64-18.63s8.36-18.63,18.64-18.63,18.64,8.36,18.64,18.63-8.36,18.63-18.64,18.63ZM53.36,38.3c-8.31,0-15.07,6.76-15.07,15.07s6.76,15.07,15.07,15.07,15.07-6.76,15.07-15.07-6.76-15.07-15.07-15.07Z"/><path d="M53.32,53.77c-3.3,0-5.98-2.7-5.98-6.01s2.68-6.01,5.98-6.01,5.98,2.7,5.98,6.01-2.68,6.01-5.98,6.01ZM53.32,45.31c-1.33,0-2.41,1.1-2.41,2.45s1.08,2.45,2.41,2.45,2.41-1.1,2.41-2.45-1.08-2.45-2.41-2.45Z"/><path d="M63.29,67.85c-.99,0-1.78-.8-1.78-1.78,0-3.78-2.88-6.85-6.42-6.85h-3.52c-3.54,0-6.42,3.07-6.42,6.85,0,.98-.8,1.78-1.78,1.78s-1.78-.8-1.78-1.78c0-5.74,4.48-10.42,9.99-10.42h3.52c5.51,0,9.99,4.67,9.99,10.42,0,.98-.8,1.78-1.78,1.78Z"/></g></svg>