<?xml version="1.0" encoding="UTF-8"?><svg id="Layer_2" xmlns="http://www.w3.org/2000/svg" viewBox="0 0 72 56.99"><defs><style>.cls-1{fill:#241f20;}</style></defs><g id="Layer_1-2"><g id="Icon_13"><path class="cls-1" d="M29.91,40.44H1.97c-1.09,0-1.97-.88-1.97-1.97V1.97C0,.88.88,0,1.97,0h58.41c1.09,0,1.97.88,1.97,1.97v12.98c0,1.09-.88,1.97-1.97,1.97s-1.97-.88-1.97-1.97V3.93H3.93v32.58h25.98c1.09,0,1.97.88,1.97,1.97s-.88,1.97-1.97,1.97Z"/><path class="cls-1" d="M50.5,14.07h-15.76c-1.09,0-1.97-.88-1.97-1.97s.88-1.97,1.97-1.97h15.76c1.09,0,1.97.88,1.97,1.97s-.88,1.97-1.97,1.97Z"/><path class="cls-1" d="M38.18,24.02h-3.13c-1.09,0-1.97-.88-1.97-1.97s.88-1.97,1.97-1.97h3.13c1.09,0,1.97.88,1.97,1.97s-.88,1.97-1.97,1.97Z"/><path class="cls-1" d="M55.1,56.99c-9.32,0-16.9-7.58-16.9-16.9s7.58-16.9,16.9-16.9,16.9,7.58,16.9,16.9-7.58,16.9-16.9,16.9ZM55.1,27.11c-7.15,0-12.97,5.82-12.97,12.97s5.82,12.97,12.97,12.97,12.97-5.82,12.97-12.97-5.82-12.97-12.97-12.97Z"/><path class="cls-1" d="M52.08,45.81c-.54,0-1.08-.22-1.47-.65-.74-.83-3.38-3.93-3.98-4.66-.69-.84-.56-2.08.28-2.77.84-.69,2.08-.56,2.77.28.37.45,1.67,1.99,2.7,3.18l10.48-7.65c.88-.64,2.11-.45,2.75.43.64.88.45,2.11-.43,2.75l-11.94,8.72c-.35.25-.75.38-1.16.38Z"/><path d="M19.22,20.93c-2.97,0-5.39-2.59-5.39-5.77s2.42-5.77,5.39-5.77,5.39,2.59,5.39,5.77-2.42,5.77-5.39,5.77ZM19.22,12.62c-1.18,0-2.15,1.14-2.15,2.53s.96,2.53,2.15,2.53,2.15-1.14,2.15-2.53-.96-2.53-2.15-2.53Z"/><path d="M28.29,30.79c-.69,0-1.33-.44-1.55-1.14-.8-2.58-3.16-4.31-5.86-4.31h-3.33c-2.69,0-5.04,1.72-5.85,4.29-.27.85-1.18,1.33-2.03,1.06-.85-.27-1.33-1.18-1.06-2.03,1.24-3.92,4.83-6.55,8.94-6.55h3.33c4.13,0,7.73,2.65,8.95,6.58.27.85-.21,1.76-1.06,2.03-.16.05-.32.07-.48.07Z"/></g></g></svg>