<?xml version="1.0" encoding="UTF-8"?><svg id="Layer_2" xmlns="http://www.w3.org/2000/svg" viewBox="0 0 72 72"><defs><style>.cls-1{fill:#241f20;}</style></defs><g id="Layer_1-2"><g id="Icon_70"><path class="cls-1" d="M52.75,37.99c-.97,0-1.76-.79-1.76-1.76V15.33c0-1.62-1.33-2.94-2.96-2.94h-8.6c-.97,0-1.76-.79-1.76-1.76s.79-1.76,1.76-1.76h8.6c3.58,0,6.49,2.9,6.49,6.47v20.89c0,.97-.79,1.76-1.76,1.76Z"/><path class="cls-1" d="M33.69,71.21H6.49c-3.58,0-6.49-2.91-6.49-6.48V15.33c0-3.57,2.91-6.47,6.49-6.47h8.7c.97,0,1.76.79,1.76,1.76s-.79,1.76-1.76,1.76H6.49c-1.63,0-2.96,1.32-2.96,2.94v49.4c0,1.63,1.33,2.96,2.96,2.96h27.21c.97,0,1.76.79,1.76,1.76s-.79,1.76-1.76,1.76Z"/><path class="cls-1" d="M13.23,32.83c-.45,0-.9-.17-1.25-.52l-2.84-2.84c-.69-.69-.69-1.81,0-2.5.69-.69,1.81-.69,2.5,0l1.59,1.59,3.56-3.56c.69-.69,1.81-.69,2.5,0,.69.69.69,1.81,0,2.5l-4.81,4.81c-.34.34-.8.52-1.25.52Z"/><path class="cls-1" d="M43.01,31.12h-17.15c-.97,0-1.76-.79-1.76-1.76s.79-1.76,1.76-1.76h17.15c.97,0,1.76.79,1.76,1.76s-.79,1.76-1.76,1.76Z"/><path class="cls-1" d="M13.23,46.39c-.45,0-.9-.17-1.25-.52l-2.84-2.84c-.69-.69-.69-1.81,0-2.5.69-.69,1.81-.69,2.5,0l1.59,1.59,3.56-3.56c.69-.69,1.81-.69,2.5,0,.69.69.69,1.81,0,2.5l-4.81,4.81c-.34.34-.8.52-1.25.52Z"/><path class="cls-1" d="M37.39,43.98h-11.53c-.97,0-1.76-.79-1.76-1.76s.79-1.76,1.76-1.76h11.53c.97,0,1.76.79,1.76,1.76s-.79,1.76-1.76,1.76Z"/><path class="cls-1" d="M13.23,59.94c-.45,0-.9-.17-1.25-.52l-2.84-2.84c-.69-.69-.69-1.81,0-2.5.69-.69,1.81-.69,2.5,0l1.59,1.59,3.56-3.56c.69-.69,1.81-.69,2.5,0,.69.69.69,1.81,0,2.5l-4.81,4.81c-.34.34-.8.52-1.25.52Z"/><path class="cls-1" d="M33.32,57.54h-7.46c-.97,0-1.76-.79-1.76-1.76s.79-1.76,1.76-1.76h7.46c.97,0,1.76.79,1.76,1.76s-.79,1.76-1.76,1.76Z"/><path class="cls-1" d="M61.69,62.76c-.43,0-.86-.16-1.2-.47l-5.11-4.76c-.36-.34-.57-.81-.56-1.31l.09-7.39c.01-.97.8-1.75,1.79-1.74.97.01,1.76.81,1.74,1.79l-.08,6.61,4.54,4.23c.71.66.75,1.78.09,2.49-.35.37-.82.56-1.29.56Z"/><path class="cls-1" d="M56.5,72c-8.55,0-15.5-6.95-15.5-15.5s6.95-15.5,15.5-15.5,15.5,6.95,15.5,15.5-6.95,15.5-15.5,15.5ZM56.5,44.53c-6.6,0-11.97,5.37-11.97,11.97s5.37,11.97,11.97,11.97,11.97-5.37,11.97-11.97-5.37-11.97-11.97-11.97Z"/><path class="cls-1" d="M36.99,18.56h-19.24c-1.06,0-2.08-.46-2.78-1.27-.7-.81-1.02-1.88-.87-2.95l.7-4.96c.26-1.81,1.84-3.18,3.67-3.18h2.14c.29-3.47,3.21-6.21,6.76-6.21s6.47,2.74,6.76,6.21h2.17c1.84,0,3.42,1.37,3.66,3.19l.71,4.94c.15,1.07-.17,2.14-.87,2.95-.7.81-1.72,1.27-2.79,1.27ZM18.46,9.74c-.08,0-.16.07-.17.14l-.7,4.95c0,.05,0,.1.04.14.05.05.1.05.12.05h19.24s.08,0,.13-.06c.03-.04.05-.09.04-.14l-.71-4.95c-.01-.09-.08-.14-.16-.14h-4.06c-.55,0-1.06-.25-1.39-.68s-.45-.99-.31-1.52c.06-.24.09-.49.09-.75,0-1.79-1.46-3.25-3.25-3.25s-3.25,1.46-3.25,3.25c0,.26.03.51.09.75.14.53.02,1.09-.31,1.52s-.85.68-1.39.68h-4.04Z"/></g></g></svg>