<?xml version="1.0" encoding="UTF-8"?><svg id="Layer_2" xmlns="http://www.w3.org/2000/svg" viewBox="0 0 58.16 72"><g id="Layer_1-2"><g id="Icon_67"><path d="M52.18,72H5.97c-3.29,0-5.97-2.68-5.97-5.97V5.97C0,2.68,2.68,0,5.97,0h46.21c3.29,0,5.97,2.68,5.97,5.97v60.05c0,3.29-2.68,5.97-5.97,5.97ZM5.97,3.56c-1.33,0-2.42,1.08-2.42,2.42v60.05c0,1.33,1.08,2.42,2.42,2.42h46.21c1.33,0,2.42-1.08,2.42-2.42V5.97c0-1.33-1.08-2.42-2.42-2.42H5.97Z"/><path d="M42.36,39.15l-5.63-10.42c1.14-1.63,1.76-3.59,1.76-5.59,0-5.4-4.4-9.8-9.8-9.8s-9.8,4.39-9.8,9.8c0,2.01.62,3.96,1.76,5.6l-5.63,10.41c-.25.47-.18,1.04.18,1.43s.93.51,1.41.3l2.81-1.22.47,3.39c.07.53.48.96,1.01,1.06.07.01.15.02.22.02.45,0,.87-.25,1.09-.65l5.59-10.33c.3.03.61.05.92.05.29,0,.58-.02.86-.05l5.58,10.32c.26.47.79.73,1.31.63.53-.1.94-.52,1.01-1.05l.48-3.38,2.81,1.21c.49.21,1.05.09,1.41-.3.36-.39.43-.97.18-1.43ZM37.45,36.75c-.36-.15-.76-.13-1.1.06-.34.19-.57.53-.62.91l-.18,1.25-4.24-7.84c-.23-.61-.83-.99-1.46-.87-.74.14-1.52.14-2.26,0-.41-.08-.8.06-1.09.32-.04.03-.06.06-.1.09,0,0,0,0,0,0-.09.09-.19.18-.25.3l-4.31,7.97-.17-1.25c-.05-.39-.28-.72-.62-.92-.34-.19-.75-.21-1.11-.06l-1.02.44,4.3-7.95c.24-.45.19-1-.14-1.39-1.1-1.31-1.7-2.97-1.7-4.68,0-4.03,3.28-7.31,7.31-7.31s7.31,3.28,7.31,7.31c0,1.71-.6,3.37-1.7,4.68-.33.39-.38.94-.14,1.39l4.31,7.97-1.02-.44Z"/><path d="M27.46,26.18c-.24,0-.47-.1-.64-.27l-1.7-1.7c-.35-.35-.35-.93,0-1.28.35-.35.93-.35,1.28,0l1.06,1.06,3.04-3.04c.35-.35.93-.35,1.28,0,.35.35.35.93,0,1.28l-3.68,3.68c-.17.17-.4.27-.64.27Z"/><path d="M43.92,57.59H14.23c-.98,0-1.78-.8-1.78-1.78s.8-1.78,1.78-1.78h29.69c.98,0,1.78.8,1.78,1.78s-.8,1.78-1.78,1.78Z"/></g></g></svg>