<?xml version="1.0" encoding="UTF-8"?><svg id="Layer_2" xmlns="http://www.w3.org/2000/svg" viewBox="0 0 72 71.98"><g id="Layer_1-2"><g id="Icon_13"><path d="M1.78,21.05c-.98,0-1.78-.8-1.78-1.78V1.78C0,.8.8,0,1.78,0h17.49c.98,0,1.78.8,1.78,1.78s-.8,1.78-1.78,1.78H3.56v15.71c0,.98-.8,1.78-1.78,1.78Z"/><path d="M70.22,21.05c-.98,0-1.78-.8-1.78-1.78V3.56h-15.71c-.98,0-1.78-.8-1.78-1.78s.8-1.78,1.78-1.78h17.49c.98,0,1.78.8,1.78,1.78v17.49c0,.98-.8,1.78-1.78,1.78Z"/><path d="M19.27,71.98H1.78c-.98,0-1.78-.8-1.78-1.78v-17.49c0-.98.8-1.78,1.78-1.78s1.78.8,1.78,1.78v15.71h15.71c.98,0,1.78.8,1.78,1.78s-.8,1.78-1.78,1.78Z"/><path d="M70.21,71.63h-32.52c-.51,0-.98-.27-1.24-.72-.25-.44-.25-.99.01-1.43l16.26-27.35c.26-.43.72-.7,1.22-.7h0c.5,0,.97.26,1.22.7l16.26,27.35c.26.44.27.99.01,1.43-.25.44-.73.72-1.24.72ZM40.19,68.78h27.52l-13.76-23.14-13.76,23.14Z"/><path d="M53.88,61.27c-.69,0-1.24-.56-1.24-1.24v-5.16c0-.69.56-1.24,1.24-1.24s1.24.56,1.24,1.24v5.16c0,.69-.56,1.24-1.24,1.24Z"/><path d="M53.88,65.32c-.69,0-1.24-.56-1.24-1.24v-.06c0-.69.56-1.24,1.24-1.24s1.24.56,1.24,1.24v.06c0,.69-.56,1.24-1.24,1.24Z"/><path d="M36.28,55.3H9.86c-.98,0-1.78-.8-1.78-1.78V20.49c0-.98.8-1.78,1.78-1.78h52.86c.98,0,1.78.8,1.78,1.78v23.13c0,.98-.8,1.78-1.78,1.78s-1.78-.8-1.78-1.78v-21.35H11.63v29.48h24.65c.98,0,1.78.8,1.78,1.78s-.8,1.78-1.78,1.78Z"/><path d="M23.93,37.24c-2.28,0-4.14-1.99-4.14-4.44s1.86-4.44,4.14-4.44,4.14,1.99,4.14,4.44-1.86,4.44-4.14,4.44ZM23.93,30.86c-.91,0-1.65.87-1.65,1.95s.74,1.95,1.65,1.95,1.65-.87,1.65-1.95-.74-1.95-1.65-1.95Z"/><path d="M30.9,44.82c-.53,0-1.02-.34-1.19-.88-.62-1.98-2.43-3.31-4.5-3.31h-2.56c-2.07,0-3.88,1.32-4.5,3.29-.21.66-.91,1.02-1.56.81-.66-.21-1.02-.91-.81-1.56.95-3.01,3.71-5.04,6.87-5.04h2.56c3.17,0,5.94,2.03,6.88,5.06.2.66-.16,1.35-.82,1.56-.12.04-.25.06-.37.06Z"/><path d="M54.63,30.91h-16.33c-.69,0-1.24-.56-1.24-1.24s.56-1.24,1.24-1.24h16.33c.69,0,1.24.56,1.24,1.24s-.56,1.24-1.24,1.24Z"/><path d="M48.73,39.91h-10.19c-.69,0-1.24-.56-1.24-1.24s.56-1.24,1.24-1.24h10.19c.69,0,1.24.56,1.24,1.24s-.56,1.24-1.24,1.24Z"/><path d="M43.17,46.36h-4.63c-.69,0-1.24-.56-1.24-1.24s.56-1.24,1.24-1.24h4.63c.69,0,1.24.56,1.24,1.24s-.56,1.24-1.24,1.24Z"/></g></g></svg>