<?xml version="1.0" encoding="UTF-8"?><svg id="Layer_2" xmlns="http://www.w3.org/2000/svg" viewBox="0 0 57.61 72"><g id="Layer_1-2"><path d="M42.9,72H5.33c-2.94,0-5.33-2.39-5.33-5.33V15c0-2.94,2.39-5.33,5.33-5.33h7.22c.98,0,1.78.8,1.78,1.78s-.8,1.78-1.78,1.78h-7.22c-.98,0-1.77.8-1.77,1.77v51.66c0,.98.8,1.78,1.77,1.78h37.57c.98,0,1.78.8,1.78,1.78s-.8,1.78-1.78,1.78Z"/><path d="M52.28,72H14.71c-.98,0-1.78-.8-1.78-1.78s.8-1.78,1.78-1.78h37.57c.98,0,1.77-.8,1.77-1.78V15c0-.98-.8-1.77-1.77-1.77h-7.22c-.98,0-1.78-.8-1.78-1.78s.8-1.78,1.78-1.78h7.22c2.94,0,5.33,2.39,5.33,5.33v51.66c0,2.94-2.39,5.33-5.33,5.33Z"/><path d="M44.6,17.71H12.6c-.98,0-1.78-.8-1.78-1.78V6.48c0-.98.8-1.78,1.78-1.78h10.89c.98,0,1.78.8,1.78,1.78s-.8,1.78-1.78,1.78h-9.11v5.89h28.44v-5.89h-8.77c-.98,0-1.78-.8-1.78-1.78s.8-1.78,1.78-1.78h10.55c.98,0,1.78.8,1.78,1.78v9.45c0,.98-.8,1.78-1.78,1.78Z"/><path d="M33.65,8.26c-.93,0-1.71-.72-1.77-1.66-.12-1.71-1.56-3.05-3.27-3.05s-3.15,1.34-3.27,3.05c-.07.98-.91,1.72-1.9,1.65-.98-.07-1.72-.92-1.65-1.9.25-3.57,3.24-6.36,6.82-6.36s6.57,2.79,6.82,6.36c.07.98-.67,1.83-1.65,1.9-.04,0-.08,0-.12,0Z"/><path d="M28.9,7.57c-.65,0-1.18.53-1.18,1.18s.53,1.18,1.18,1.18,1.18-.53,1.18-1.18-.53-1.18-1.18-1.18h0Z"/><path d="M38.77,28.84h-21.76c-.98,0-1.78-.8-1.78-1.78s.8-1.78,1.78-1.78h21.76c.98,0,1.78.8,1.78,1.78s-.8,1.78-1.78,1.78Z"/><path d="M44.27,37.73H12.46c-.69,0-1.24-.56-1.24-1.24s.56-1.24,1.24-1.24h31.81c.69,0,1.24.56,1.24,1.24s-.56,1.24-1.24,1.24Z"/><path d="M44.27,45.12H12.46c-.69,0-1.24-.56-1.24-1.24s.56-1.24,1.24-1.24h31.81c.69,0,1.24.56,1.24,1.24s-.56,1.24-1.24,1.24Z"/><path d="M44.27,52.51H12.46c-.69,0-1.24-.56-1.24-1.24s.56-1.24,1.24-1.24h31.81c.69,0,1.24.56,1.24,1.24s-.56,1.24-1.24,1.24Z"/><path d="M44.27,59.9H12.46c-.69,0-1.24-.56-1.24-1.24s.56-1.24,1.24-1.24h31.81c.69,0,1.24.56,1.24,1.24s-.56,1.24-1.24,1.24Z"/></g></svg>