<?xml version="1.0" encoding="UTF-8"?><svg id="Layer_2" xmlns="http://www.w3.org/2000/svg" viewBox="0 0 71.97 72"><g id="Layer_1-2"><g id="Icon_1"><path d="M67.7,72H4.27c-2.36,0-4.27-1.92-4.27-4.27V4.27C0,1.92,1.92,0,4.27,0h63.43c2.36,0,4.27,1.92,4.27,4.27v63.46c0,2.36-1.92,4.27-4.27,4.27ZM4.27,3.56c-.39,0-.71.32-.71.71v63.46c0,.39.32.71.71.71h63.43c.39,0,.71-.32.71-.71V4.27c0-.39-.32-.71-.71-.71H4.27Z"/><rect x="34.21" y="1.81" width="3.56" height="68.16"/><path d="M29.57,34.25h-15.06c-.98,0-1.78-.8-1.78-1.78s.8-1.78,1.78-1.78h15.06c.98,0,1.78.8,1.78,1.78s-.8,1.78-1.78,1.78Z"/><path d="M29.57,56.55H10.41c-.98,0-1.78-.8-1.78-1.78s.8-1.78,1.78-1.78h19.16c.98,0,1.78.8,1.78,1.78s-.8,1.78-1.78,1.78Z"/><path d="M29.57,45.4h-8.67c-.98,0-1.78-.8-1.78-1.78s.8-1.78,1.78-1.78h8.67c.98,0,1.78.8,1.78,1.78s-.8,1.78-1.78,1.78Z"/><path d="M57.45,34.25h-15.06c-.98,0-1.78-.8-1.78-1.78s.8-1.78,1.78-1.78h15.06c.98,0,1.78.8,1.78,1.78s-.8,1.78-1.78,1.78Z"/><path d="M61.54,56.55h-19.16c-.98,0-1.78-.8-1.78-1.78s.8-1.78,1.78-1.78h19.16c.98,0,1.78.8,1.78,1.78s-.8,1.78-1.78,1.78Z"/><path d="M51.06,45.4h-8.67c-.98,0-1.78-.8-1.78-1.78s.8-1.78,1.78-1.78h8.67c.98,0,1.78.8,1.78,1.78s-.8,1.78-1.78,1.78Z"/><path d="M28.34,16.71H10.07c-1.38,0-2.49-1.12-2.49-2.49s1.12-2.49,2.49-2.49h18.27c1.38,0,2.49,1.12,2.49,2.49s-1.12,2.49-2.49,2.49Z"/><path d="M62.15,16.71h-18.27c-1.38,0-2.49-1.12-2.49-2.49s1.12-2.49,2.49-2.49h18.27c1.38,0,2.49,1.12,2.49,2.49s-1.12,2.49-2.49,2.49Z"/></g></g></svg>