<?xml version="1.0" encoding="UTF-8"?><svg id="Layer_2" xmlns="http://www.w3.org/2000/svg" viewBox="0 0 55.93 72"><g id="Layer_1-2"><g id="Icon_70"><path d="M34.59,72H6.65c-3.67,0-6.65-2.98-6.65-6.65V14.62c0-3.66,2.98-6.64,6.65-6.64h10.35c1,0,1.81.81,1.81,1.81s-.81,1.81-1.81,1.81H6.65c-1.68,0-3.04,1.36-3.04,3.03v50.73c0,1.68,1.36,3.04,3.04,3.04h27.93c1,0,1.81.81,1.81,1.81s-.81,1.81-1.81,1.81Z"/><path d="M34.59,72H6.65c-3.67,0-6.65-2.98-6.65-6.65V14.62c0-3.66,2.98-6.64,6.65-6.64h10.35c1,0,1.81.81,1.81,1.81s-.81,1.81-1.81,1.81H6.65c-1.68,0-3.04,1.36-3.04,3.03v50.73c0,1.68,1.36,3.04,3.04,3.04h27.93c1,0,1.81.81,1.81,1.81s-.81,1.81-1.81,1.81Z"/><path d="M49.28,72h-27.93c-1,0-1.81-.81-1.81-1.81s.81-1.81,1.81-1.81h27.93c1.68,0,3.04-1.36,3.04-3.04V14.62c0-1.67-1.36-3.03-3.04-3.03h-10.35c-1,0-1.81-.81-1.81-1.81s.81-1.81,1.81-1.81h10.35c3.67,0,6.65,2.98,6.65,6.64v50.73c0,3.67-2.98,6.65-6.65,6.65Z"/><path d="M14.25,34.91c-.46,0-.92-.18-1.28-.53l-2.91-2.91c-.71-.71-.71-1.85,0-2.55.71-.71,1.85-.71,2.55,0l1.64,1.64,3.66-3.66c.71-.71,1.85-.71,2.55,0,.71.71.71,1.85,0,2.55l-4.94,4.94c-.35.35-.81.53-1.28.53Z"/><path d="M14.25,47.41c-.46,0-.92-.18-1.28-.53l-2.91-2.91c-.71-.71-.71-1.85,0-2.55.71-.71,1.85-.71,2.55,0l1.64,1.64,3.66-3.66c.71-.71,1.85-.71,2.55,0,.71.71.71,1.85,0,2.55l-4.94,4.94c-.35.35-.81.53-1.28.53Z"/><path d="M14.25,59.91c-.46,0-.92-.18-1.28-.53l-2.91-2.91c-.71-.71-.71-1.85,0-2.55.71-.71,1.85-.71,2.55,0l1.64,1.64,3.66-3.66c.71-.71,1.85-.71,2.55,0,.71.71.71,1.85,0,2.55l-4.94,4.94c-.35.35-.81.53-1.28.53Z"/><path d="M44.6,32.78h-14.59c-1,0-1.81-.81-1.81-1.81s.81-1.81,1.81-1.81h14.59c1,0,1.81.81,1.81,1.81s-.81,1.81-1.81,1.81Z"/><path d="M44.6,45.16h-14.59c-1,0-1.81-.81-1.81-1.81s.81-1.81,1.81-1.81h14.59c1,0,1.81.81,1.81,1.81s-.81,1.81-1.81,1.81Z"/><path d="M44.6,57.54h-14.59c-1,0-1.81-.81-1.81-1.81s.81-1.81,1.81-1.81h14.59c1,0,1.81.81,1.81,1.81s-.81,1.81-1.81,1.81Z"/><path d="M37.97,19.05h-19.76c-1.09,0-2.13-.47-2.85-1.3-.72-.83-1.05-1.93-.9-3.02l.72-5.09c.27-1.86,1.88-3.26,3.76-3.26h2.21c.3-3.57,3.29-6.38,6.94-6.38s6.64,2.81,6.94,6.38h2.23c1.89,0,3.5,1.41,3.75,3.27l.73,5.07c.15,1.09-.17,2.19-.89,3.02-.72.83-1.76,1.3-2.86,1.3ZM18.94,9.99c-.09,0-.17.07-.18.15l-.72,5.08c0,.05,0,.1.05.15.05.06.11.06.12.06h19.76s.08,0,.14-.06c.04-.04.05-.09.04-.15l-.73-5.08c-.01-.09-.09-.15-.17-.15h-4.17c-.56,0-1.09-.26-1.43-.7-.34-.44-.46-1.02-.32-1.56.06-.25.1-.51.1-.78,0-1.85-1.5-3.35-3.35-3.35s-3.35,1.5-3.35,3.35c0,.27.03.53.1.78.14.54.02,1.12-.32,1.56-.34.44-.87.7-1.43.7h-4.14Z"/></g></g></svg>