<?xml version="1.0" encoding="UTF-8"?><svg id="Layer_2" xmlns="http://www.w3.org/2000/svg" viewBox="0 0 66.75 72"><g id="Layer_1-2"><g id="Icon_25"><path d="M25.54,64.17H4.03c-2.22,0-4.03-1.81-4.03-4.03V4.03C0,1.81,1.81,0,4.03,0h44.29c2.22,0,4.03,1.81,4.03,4.03v24.89c0,.98-.8,1.78-1.78,1.78s-1.78-.8-1.78-1.78V4.03c0-.26-.21-.47-.47-.47H4.03c-.26,0-.47.21-.47.47v56.1c0,.26.21.47.47.47h21.51c.98,0,1.78.8,1.78,1.78s-.8,1.78-1.78,1.78Z"/><path d="M20.03,51.99h-9.6c-.98,0-1.78-.8-1.78-1.78s.8-1.78,1.78-1.78h9.6c.98,0,1.78.8,1.78,1.78s-.8,1.78-1.78,1.78Z"/><path d="M28.8,41.48H10.42c-.98,0-1.78-.8-1.78-1.78s.8-1.78,1.78-1.78h18.37c.98,0,1.78.8,1.78,1.78s-.8,1.78-1.78,1.78Z"/><path d="M41.64,30.7H10.42c-.98,0-1.78-.8-1.78-1.78s.8-1.78,1.78-1.78h31.21c.98,0,1.78.8,1.78,1.78s-.8,1.78-1.78,1.78Z"/><path d="M38.4,14.88H13.66c-1.38,0-2.49-1.12-2.49-2.49s1.12-2.49,2.49-2.49h24.74c1.38,0,2.49,1.12,2.49,2.49s-1.12,2.49-2.49,2.49Z"/><path d="M49.04,72c-9.77,0-17.72-7.95-17.72-17.72s7.95-17.72,17.72-17.72,17.72,7.95,17.72,17.72-7.95,17.72-17.72,17.72ZM49.04,40.12c-7.81,0-14.16,6.35-14.16,14.16s6.35,14.16,14.16,14.16,14.16-6.35,14.16-14.16-6.35-14.16-14.16-14.16Z"/><path d="M45.9,62.59c-.64,0-1.27-.24-1.76-.73-.97-.97-.97-2.55,0-3.52l9.42-9.42c.97-.97,2.55-.97,3.52,0s.97,2.55,0,3.52l-9.42,9.42c-.49.49-1.12.73-1.76.73Z"/><path d="M45.81,62.49c-.64,0-1.27-.24-1.76-.73l-3.79-3.79c-.97-.97-.97-2.55,0-3.52.97-.97,2.55-.97,3.52,0l3.79,3.79c.97.97.97,2.55,0,3.52-.49.49-1.12.73-1.76.73Z"/></g></g></svg>