<?xml version="1.0" encoding="UTF-8"?><svg id="Layer_2" xmlns="http://www.w3.org/2000/svg" viewBox="0 0 72 46.33"><g id="Layer_1-2"><g id="Icon_15"><path d="M68.17,46.33H3.82c-2.1,0-3.82-1.71-3.82-3.82V3.82C0,1.71,1.71,0,3.82,0h64.37c1.02,0,1.98.4,2.7,1.12.72.72,1.12,1.68,1.12,2.7v38.7c-.01,2.1-1.73,3.81-3.83,3.81ZM3.82,3.56c-.14,0-.26.12-.26.26v38.7c0,.14.12.26.26.26h64.36c.14,0,.26-.12.26-.26V3.82c.01-.09-.03-.15-.06-.18-.03-.03-.09-.08-.18-.08H3.82Z"/><path d="M21.74,25.1c-3.24,0-5.88-3.07-5.88-6.84s2.64-6.84,5.88-6.84,5.88,3.07,5.88,6.84-2.64,6.84-5.88,6.84ZM21.74,14.28c-1.68,0-3.04,1.79-3.04,3.99s1.36,3.99,3.04,3.99,3.04-1.79,3.04-3.99-1.36-3.99-3.04-3.99Z"/><path d="M32.89,36.12c-.79,0-1.42-.64-1.42-1.42,0-4.28-3.48-7.76-7.76-7.76h-3.94c-4.28,0-7.76,3.48-7.76,7.76,0,.79-.64,1.42-1.42,1.42s-1.42-.64-1.42-1.42c0-5.85,4.76-10.6,10.6-10.6h3.94c5.85,0,10.6,4.76,10.6,10.6,0,.79-.64,1.42-1.42,1.42Z"/><path d="M59.99,16.99h-17.8c-1.18,0-2.13-.96-2.13-2.13s.96-2.13,2.13-2.13h17.8c1.18,0,2.13.96,2.13,2.13s-.96,2.13-2.13,2.13Z"/><path d="M54.07,26.05h-11.88c-.98,0-1.78-.8-1.78-1.78s.8-1.78,1.78-1.78h11.88c.98,0,1.78.8,1.78,1.78s-.8,1.78-1.78,1.78Z"/><path d="M54.07,34.04h-11.88c-.98,0-1.78-.8-1.78-1.78s.8-1.78,1.78-1.78h11.88c.98,0,1.78.8,1.78,1.78s-.8,1.78-1.78,1.78Z"/></g></g></svg>