<?xml version="1.0" encoding="UTF-8"?><svg id="Layer_2" xmlns="http://www.w3.org/2000/svg" viewBox="0 0 63.49 72"><defs><style>.cls-1{fill:#241f20;}</style></defs><g id="Layer_1-2"><g id="Icon_7"><path class="cls-1" d="M22.43,64.17H4.03c-2.22,0-4.03-1.81-4.03-4.03V4.03C0,1.81,1.81,0,4.03,0h41.18c2.22,0,4.03,1.81,4.03,4.03v25.64c0,.98-.8,1.78-1.78,1.78s-1.78-.8-1.78-1.78V4.03c0-.26-.21-.47-.47-.47H4.03c-.26,0-.47.21-.47.47v56.1c0,.26.21.47.47.47h18.4c.98,0,1.78.8,1.78,1.78s-.8,1.78-1.78,1.78Z"/><path class="cls-1" d="M17.39,48.58h-6.49c-.98,0-1.78-.8-1.78-1.78s.8-1.78,1.78-1.78h6.49c.98,0,1.78.8,1.78,1.78s-.8,1.78-1.78,1.78Z"/><path class="cls-1" d="M25.69,39.2h-15.26c-.98,0-1.78-.8-1.78-1.78s.8-1.78,1.78-1.78h15.26c.98,0,1.78.8,1.78,1.78s-.8,1.78-1.78,1.78Z"/><path class="cls-1" d="M38.88,29.83H10.43c-.98,0-1.78-.8-1.78-1.78s.8-1.78,1.78-1.78h28.46c.98,0,1.78.8,1.78,1.78s-.8,1.78-1.78,1.78Z"/><path class="cls-1" d="M34.39,13.32H15.17c-1.38,0-2.49-1.12-2.49-2.49s1.12-2.49,2.49-2.49h19.23c1.38,0,2.49,1.12,2.49,2.49s-1.12,2.49-2.49,2.49Z"/><path class="cls-1" d="M45.49,72c-9.92,0-18-8.07-18-18s8.07-18,18-18,18,8.07,18,18-8.07,18-18,18ZM45.49,39.56c-7.96,0-14.44,6.48-14.44,14.44s6.48,14.44,14.44,14.44,14.44-6.48,14.44-14.44-6.48-14.44-14.44-14.44Z"/><path class="cls-1" d="M53.88,56.25s-.08,0-.11,0c-.98-.06-1.73-.91-1.66-1.89,0-.14.01-.28.01-.42,0-3.66-2.97-6.63-6.63-6.63-1.47,0-2.92.5-4.08,1.41-.77.61-1.89.47-2.5-.31-.61-.77-.47-1.89.31-2.5,1.78-1.39,4.01-2.16,6.28-2.16,5.62,0,10.19,4.57,10.19,10.19,0,.21,0,.43-.02.64-.06.94-.84,1.67-1.77,1.67Z"/><path class="cls-1" d="M53.8,54.51l-3.28-2.43c-.22-.16-.52.02-.48.29l.3,2.01c.01.08.06.15.12.2l2.53,1.87c.28.2.6.3.92.3.47,0,.94-.22,1.24-.63l1.87-2.53c.05-.07.07-.15.06-.23l-.3-2.01c-.04-.27-.39-.36-.55-.14l-2.43,3.29Z"/><path class="cls-1" d="M45.63,64.82c-5.62,0-10.19-4.57-10.19-10.19,0-.21,0-.43.02-.64.06-.98.91-1.73,1.89-1.66.98.06,1.73.91,1.66,1.89,0,.14-.01.28-.01.42,0,3.66,2.97,6.63,6.63,6.63,1.4,0,2.79-.46,3.92-1.29.79-.58,1.91-.41,2.49.38.58.79.41,1.91-.38,2.49-1.76,1.29-3.85,1.98-6.03,1.98Z"/><path class="cls-1" d="M37.32,51.73c-.43,0-.85.18-1.16.52l-2.09,2.36c-.05.06-.08.14-.08.22l.12,2.03c.02.27.35.39.53.18l2.71-3.06,3.06,2.71c.2.18.52.02.51-.25l-.12-2.03c0-.08-.04-.16-.1-.21l-2.36-2.09c-.29-.26-.66-.39-1.03-.39h0Z"/></g></g></svg>