<?xml version="1.0" encoding="UTF-8"?><svg id="Layer_2" xmlns="http://www.w3.org/2000/svg" viewBox="0 0 72 72"><g id="Layer_1-2"><g id="Icon_22"><path d="M1.78,22.18c-.98,0-1.78-.8-1.78-1.78V5.38C0,2.41,2.41,0,5.37,0h15c.98,0,1.78.8,1.78,1.78s-.8,1.78-1.78,1.78H5.37c-1,0-1.82.82-1.82,1.82v15.02c0,.98-.8,1.78-1.78,1.78Z"/><path d="M70.22,22.18c-.98,0-1.78-.8-1.78-1.78V5.38c0-1-.81-1.82-1.82-1.82h-15c-.98,0-1.78-.8-1.78-1.78s.8-1.78,1.78-1.78h15c2.96,0,5.37,2.41,5.37,5.38v15.02c0,.98-.8,1.78-1.78,1.78Z"/><path d="M66.63,72h-15c-.98,0-1.78-.8-1.78-1.78s.8-1.78,1.78-1.78h15c1,0,1.82-.82,1.82-1.82v-15.02c0-.98.8-1.78,1.78-1.78s1.78.8,1.78,1.78v15.02c0,2.97-2.41,5.38-5.37,5.38Z"/><path d="M20.38,72H5.37c-2.96,0-5.37-2.41-5.37-5.38v-15.02c0-.98.8-1.78,1.78-1.78s1.78.8,1.78,1.78v15.02c0,1,.81,1.82,1.82,1.82h15c.98,0,1.78.8,1.78,1.78s-.8,1.78-1.78,1.78Z"/><path d="M55.61,63.83H17.09c-2.23,0-4.05-1.82-4.05-4.06V12.21c0-2.24,1.82-4.06,4.05-4.06h38.52c1.08,0,2.1.42,2.86,1.19s1.19,1.78,1.19,2.87v47.56c0,2.24-1.82,4.06-4.05,4.06ZM17.09,11.71c-.27,0-.49.22-.49.5v47.56c0,.27.22.5.49.5h38.52c.27,0,.49-.22.49-.5V12.21c0-.17-.08-.28-.14-.35-.07-.07-.18-.15-.35-.15H17.09Z"/><path d="M48.87,23.76h-24.89c-.98,0-1.78-.8-1.78-1.78s.8-1.78,1.78-1.78h24.89c.98,0,1.78.8,1.78,1.78s-.8,1.78-1.78,1.78Z"/><path d="M38.76,33h-14.79c-.98,0-1.78-.8-1.78-1.78s.8-1.78,1.78-1.78h14.79c.98,0,1.78.8,1.78,1.78s-.8,1.78-1.78,1.78Z"/><path d="M25.02,44.54c-.91,0-1.71.15-2.4.44-.52.22-1,.55-1.44,1s-.78.96-1.04,1.53c-.34.77-.51,1.72-.51,2.86,0,1.77.49,3.17,1.47,4.18.98,1.01,2.29,1.52,3.95,1.52s2.94-.51,3.92-1.53c.98-1.02,1.47-2.43,1.47-4.22s-.49-3.23-1.48-4.25-2.3-1.53-3.94-1.53h0ZM25.04,54.15c-.9,0-1.64-.33-2.22-.98-.58-.65-.87-1.61-.87-2.87s.28-2.24.85-2.88c.57-.64,1.31-.95,2.24-.95s1.67.31,2.23.94.84,1.58.84,2.86-.29,2.26-.86,2.91c-.57.65-1.31.97-2.21.97h0Z"/><path d="M37.13,44.54c-1.56,0-2.82.51-3.78,1.54-.96,1.03-1.44,2.47-1.44,4.32,0,1.75.48,3.14,1.43,4.15.95,1.01,2.17,1.52,3.65,1.52,1.2,0,2.18-.3,2.96-.89.78-.59,1.33-1.49,1.67-2.71l-2.18-.69c-.19.82-.5,1.41-.93,1.8-.43.38-.94.57-1.54.57-.81,0-1.47-.3-1.98-.9-.51-.6-.76-1.6-.76-3.01,0-1.33.26-2.29.77-2.88s1.18-.89,2.01-.89c.6,0,1.11.17,1.52.5.42.33.69.79.82,1.37l2.23-.53c-.25-.89-.63-1.58-1.14-2.05-.85-.81-1.96-1.21-3.32-1.21h0Z"/><path d="M48.14,44.73h-4.73v11.15h2.25v-4.65h.46c.52,0,.89.04,1.13.13.24.08.46.24.68.46.21.23.61.77,1.19,1.64l1.63,2.43h2.69l-1.36-2.18c-.54-.87-.96-1.47-1.28-1.81-.32-.34-.72-.65-1.2-.94.98-.14,1.71-.49,2.2-1.03.49-.55.74-1.24.74-2.07,0-.66-.16-1.24-.49-1.76s-.76-.87-1.3-1.07c-.54-.2-1.4-.3-2.59-.3h0ZM45.65,49.45v-2.83h1.75c.91,0,1.46.01,1.64.04.36.06.65.21.85.44.2.23.3.53.3.91,0,.33-.08.61-.23.84-.15.22-.36.38-.63.47-.27.09-.94.14-2.02.14h-1.66Z"/></g></g></svg>