<?xml version="1.0" encoding="UTF-8"?><svg id="Layer_2" xmlns="http://www.w3.org/2000/svg" viewBox="0 0 72 72"><defs><style>.cls-1{fill:#241f20;}</style></defs><g id="Layer_1-2"><g id="Icon_47"><path class="cls-1" d="M26.09,61.06H4.27c-2.35,0-4.27-1.93-4.27-4.29V4.29C0,1.93,1.92,0,4.27,0h42.45c2.35,0,4.27,1.93,4.27,4.29v15.03c0,.98-.79,1.78-1.76,1.78,0,0,0,0,0,0-.97,0-1.76-.8-1.76-1.78V4.29c0-.4-.33-.73-.74-.73H4.27c-.41,0-.74.33-.74.73v52.47c0,.4.33.73.74.73h21.82c.97,0,1.76.8,1.76,1.78s-.79,1.78-1.76,1.78Z"/><path class="cls-1" d="M39.29,18.27H11.85c-.97,0-1.76-.8-1.76-1.78s.79-1.78,1.76-1.78h27.43c.97,0,1.76.8,1.76,1.78s-.79,1.78-1.76,1.78Z"/><path class="cls-1" d="M26.64,30.53h-14.79c-.97,0-1.76-.8-1.76-1.78s.79-1.78,1.76-1.78h14.79c.97,0,1.76.8,1.76,1.78s-.79,1.78-1.76,1.78Z"/><path class="cls-1" d="M20.44,41.97h-8.59c-.97,0-1.76-.8-1.76-1.78s.79-1.78,1.76-1.78h8.59c.97,0,1.76.8,1.76,1.78s-.79,1.78-1.76,1.78Z"/><path class="cls-1" d="M48.43,63.27c-8.97,0-16.68-6.8-17.59-15.88-.5-4.68.86-9.28,3.82-12.94,3-3.72,7.25-6.01,11.96-6.46,9.64-.92,18.3,6.13,19.3,15.72.49,4.71-.86,9.33-3.82,12.99-2.95,3.65-7.28,6.01-11.89,6.48-.6.06-1.19.09-1.78.09ZM48.31,31.47c-.45,0-.9.02-1.36.06-3.76.36-7.15,2.19-9.55,5.17-2.36,2.92-3.45,6.59-3.05,10.31h0c.72,7.26,6.9,12.69,14.08,12.69.47,0,.95-.02,1.43-.07,3.68-.37,7.15-2.26,9.5-5.18,2.36-2.92,3.44-6.61,3.04-10.37-.75-7.21-6.94-12.62-14.1-12.62Z"/><path class="cls-1" d="M69.35,72c-.68,0-1.36-.26-1.88-.79l-9.9-10.2c-1.03-1.05-1.03-2.74.01-3.78,1.04-1.04,2.71-1.04,3.74.01l9.9,10.2c1.03,1.05,1.03,2.74-.01,3.78-.52.52-1.19.78-1.87.78Z"/><path class="cls-1" d="M57.58,46.25c-.31,0-.62-.08-.9-.25-1.38-.82-4.28-2.21-8.26-2.25-4.13-.04-7.14,1.39-8.57,2.25-.84.5-1.92.22-2.42-.62-.5-.85-.22-1.94.62-2.44,1.74-1.04,5.41-2.79,10.4-2.74,4.81.04,8.35,1.74,10.03,2.74.84.5,1.11,1.6.62,2.44-.33.56-.92.87-1.52.87Z"/><path class="cls-1" d="M48.4,52.77c-3.46,0-6.27-2.83-6.27-6.3s2.81-6.3,6.27-6.3,6.27,2.83,6.27,6.3-2.81,6.3-6.27,6.3ZM48.4,43.73c-1.51,0-2.74,1.23-2.74,2.74s1.23,2.74,2.74,2.74,2.74-1.23,2.74-2.74-1.23-2.74-2.74-2.74Z"/></g></g></svg>