<?xml version="1.0" encoding="UTF-8"?><svg id="Layer_2" xmlns="http://www.w3.org/2000/svg" viewBox="0 0 72 72"><g id="Layer_1-2"><path d="M49.88,72H6.84c-3.77,0-6.84-3.07-6.84-6.84V19.45c0-3.77,3.07-6.84,6.84-6.84h43.03c3.77,0,6.83,3.07,6.84,6.84v45.71c.01,3.77-3.05,6.84-6.82,6.84ZM6.84,16.17c-1.81,0-3.28,1.47-3.28,3.28v45.71c0,1.81,1.47,3.28,3.28,3.28h43.04c1.81,0,3.28-1.47,3.28-3.28V19.45c-.01-1.81-1.48-3.28-3.29-3.28H6.84Z"/><path d="M44.96,27.9H10.66c-.69,0-1.24-.56-1.24-1.25s.56-1.25,1.24-1.25h34.3c.69,0,1.24.56,1.24,1.25s-.56,1.25-1.24,1.25Z"/><path d="M45.03,48.56h-18.38c-.69,0-1.24-.56-1.24-1.25s.56-1.25,1.24-1.25h18.38c.69,0,1.24.56,1.24,1.25s-.56,1.25-1.24,1.25Z"/><path d="M35.27,37.34H10.66c-.69,0-1.24-.56-1.24-1.25s.56-1.25,1.24-1.25h24.61c.69,0,1.24.56,1.24,1.25s-.56,1.25-1.24,1.25Z"/><path d="M31.25,57h-4.18c-.69,0-1.24-.56-1.24-1.25s.56-1.25,1.24-1.25h4.18c.69,0,1.24.56,1.24,1.25s-.56,1.25-1.24,1.25Z"/><path d="M38.68,57h-1.53c-.69,0-1.24-.56-1.24-1.25s.56-1.25,1.24-1.25h1.53c.69,0,1.24.56,1.24,1.25s-.56,1.25-1.24,1.25Z"/><path d="M19.09,57.16h-8.43c-.69,0-1.24-.56-1.24-1.25v-8.43c0-.69.56-1.25,1.24-1.25h8.43c.69,0,1.24.56,1.24,1.25v8.43c0,.69-.56,1.25-1.24,1.25ZM11.91,54.67h5.94v-5.94h-5.94v5.94Z"/><path d="M62.29,63.38c-.98,0-1.78-.8-1.78-1.78V12.45c0-1.38-1.12-2.5-2.5-2.5H10.45c-.98,0-1.78-.8-1.78-1.78s.8-1.78,1.78-1.78h47.56c3.34,0,6.06,2.72,6.06,6.06v49.16c0,.98-.8,1.78-1.78,1.78Z"/><path d="M70.22,57c-.98,0-1.78-.8-1.78-1.78V6.06c0-1.38-1.12-2.5-2.5-2.5H18.98c-.98,0-1.78-.8-1.78-1.78s.8-1.78,1.78-1.78h46.96c3.34,0,6.06,2.72,6.06,6.06v49.16c0,.98-.8,1.78-1.78,1.78Z"/></g></svg>