<?xml version="1.0" encoding="UTF-8"?><svg id="Layer_2" xmlns="http://www.w3.org/2000/svg" viewBox="0 0 70.71 72"><g id="Layer_1-2"><path d="M50.96,72h-31.22c-6.54,0-9.82,0-12.62-1.42-2.47-1.26-4.45-3.23-5.71-5.7-1.42-2.79-1.42-6.08-1.42-12.62v-25.08c0-6.54,0-9.82,1.42-12.62,1.26-2.47,3.23-4.45,5.71-5.71,1.61-.82,3.48-1.21,6.46-1.35,1.05-.05,1.94.77,1.99,1.82.05,1.05-.77,1.94-1.82,1.99-2.39.11-3.81.38-4.9.94-1.75.89-3.15,2.29-4.04,4.04-1.01,1.98-1.01,4.96-1.01,10.89v.21h63.09v-.21c0-5.93,0-8.91-1.01-10.89-.89-1.75-2.29-3.15-4.04-4.04-1.06-.54-2.39-.8-4.61-.92-1.05-.06-1.86-.95-1.8-2,.06-1.05.95-1.86,2-1.8,2.8.15,4.58.53,6.14,1.33,2.47,1.26,4.45,3.23,5.7,5.71,1.42,2.79,1.42,6.08,1.42,12.62v25.08c0,6.54,0,9.82-1.42,12.62-1.26,2.47-3.23,4.45-5.7,5.7-2.79,1.42-6.08,1.42-12.62,1.42ZM3.81,31.2v21.06c0,5.93,0,8.91,1.01,10.89.89,1.75,2.29,3.15,4.04,4.04,1.98,1.01,4.96,1.01,10.89,1.01h31.22c5.93,0,8.91,0,10.89-1.01,1.75-.89,3.15-2.29,4.04-4.04,1.01-1.98,1.01-4.96,1.01-10.89v-21.06H3.81ZM50.22,18.68c-1.05,0-1.9-.85-1.9-1.9V1.9c0-1.05.85-1.9,1.9-1.9s1.9.85,1.9,1.9v14.87c0,1.05-.85,1.9-1.9,1.9ZM20.49,18.68c-1.05,0-1.9-.85-1.9-1.9V1.9c0-1.05.85-1.9,1.9-1.9s1.9.85,1.9,1.9v14.87c0,1.05-.85,1.9-1.9,1.9ZM43.44,11.24h-16.25c-1.05,0-1.9-.85-1.9-1.9s.85-1.9,1.9-1.9h16.25c1.05,0,1.9.85,1.9,1.9s-.85,1.9-1.9,1.9Z"/></g></svg>