<?xml version="1.0" encoding="UTF-8"?><svg id="Layer_2" xmlns="http://www.w3.org/2000/svg" viewBox="0 0 76.46 72"><defs><style>.cls-1{fill:none;stroke:#000;stroke-linecap:round;stroke-linejoin:round;stroke-width:4px;}</style></defs><g id="Layer_1-2"><path d="M60.31,72H16.43c-3.35,0-6.07-2.72-6.07-6.06V30.7c0-3.34,2.72-6.06,6.07-6.06h20.96c.98,0,1.78.8,1.78,1.78s-.8,1.78-1.78,1.78h-20.96c-1.38,0-2.5,1.12-2.5,2.5v35.24c0,1.38,1.12,2.5,2.5,2.5h43.88c1.38,0,2.5-1.12,2.5-2.5v-14.61c0-.98.8-1.78,1.78-1.78s1.78.8,1.78,1.78v14.61c0,3.34-2.72,6.06-6.07,6.06Z"/><path d="M37.61,35.86h-17.48c-.69,0-1.25-.56-1.25-1.25s.56-1.25,1.25-1.25h17.48c.69,0,1.25.56,1.25,1.25s-.56,1.25-1.25,1.25Z"/><path d="M55.52,53.54h-21.02c-.69,0-1.25-.56-1.25-1.25s.56-1.25,1.25-1.25h21.02c.69,0,1.25.56,1.25,1.25s-.56,1.25-1.25,1.25Z"/><path d="M45.33,64.21h-25.2c-.69,0-1.25-.56-1.25-1.25s.56-1.25,1.25-1.25h25.2c.69,0,1.25.56,1.25,1.25s-.56,1.25-1.25,1.25Z"/><path d="M38.65,47.65h-3.76c-.69,0-1.25-.56-1.25-1.25s.56-1.25,1.25-1.25h3.76c.69,0,1.25.56,1.25,1.25s-.56,1.25-1.25,1.25Z"/><path d="M27.71,53.97h-7.58c-.69,0-1.25-.56-1.25-1.25v-7.57c0-.69.56-1.25,1.25-1.25h7.58c.69,0,1.25.56,1.25,1.25v7.57c0,.69-.56,1.25-1.25,1.25ZM21.38,51.48h5.09v-5.08h-5.09v5.08Z"/><path d="M71.55,43.51h-22.01c-2.71,0-4.91-2.2-4.91-4.91v-19.02c0-2.71,2.2-4.91,4.91-4.91h22.01c2.71,0,4.91,2.2,4.91,4.91v19.02c0,2.71-2.2,4.91-4.91,4.91ZM49.54,18.23c-.74,0-1.35.6-1.35,1.35v19.02c0,.74.6,1.35,1.35,1.35h22.01c.74,0,1.35-.6,1.35-1.35v-19.02c0-.74-.6-1.35-1.35-1.35h-22.01Z"/><path d="M69.26,17.51c-.98,0-1.78-.8-1.78-1.78v-5.23c0-3.82-3.11-6.94-6.94-6.94s-6.94,3.11-6.94,6.94v5.23c0,.98-.8,1.78-1.78,1.78s-1.78-.8-1.78-1.78v-5.23c0-5.79,4.71-10.5,10.5-10.5s10.5,4.71,10.5,10.5v5.23c0,.98-.8,1.78-1.78,1.78Z"/><path d="M60.43,29.71c-2.07,0-3.75-1.68-3.75-3.75s1.68-3.75,3.75-3.75,3.75,1.68,3.75,3.75-1.68,3.75-3.75,3.75ZM60.43,24.7c-.69,0-1.26.56-1.26,1.26s.56,1.26,1.26,1.26,1.26-.56,1.26-1.26-.56-1.26-1.26-1.26Z"/><path d="M60.46,36.24c-.84,0-1.53-.69-1.53-1.53v-6.2c0-.69.56-1.25,1.25-1.25h.57c.69,0,1.25.56,1.25,1.25v6.2c0,.84-.69,1.53-1.53,1.53Z"/><path d="M64.6,67.72c-.98,0-1.78-.8-1.78-1.78v-14.61c0-.98.8-1.78,1.78-1.78s1.78.8,1.78,1.78v14.61c0,.98-.8,1.78-1.78,1.78Z"/><path class="cls-1" d="M2,58.31V23.08c0-3.82,3.1-6.91,6.91-6.91h21.57"/></g></svg>