<?xml version="1.0" encoding="UTF-8"?><svg id="Layer_2" xmlns="http://www.w3.org/2000/svg" viewBox="0 0 61.28 72"><g id="Layer_1-2"><g id="Icon_11"><path d="M30.35,70.64H6.03c-2.99,0-5.5-2.15-5.96-5.11C.02,65.22,0,64.89,0,64.56c0-6.99,0-13.98,0-20.97V15.34c0-3.2,2.21-5.7,5.37-6.1.26-.03.48-.03.66-.03h.07c.72,0,2.08,0,3.29,0h.43c.01-.14.03-.28.05-.42.37-2.15,2.17-3.66,4.38-3.66h.08c1.56,0,2.07,0,3.26,0C18.8,2.39,21.4.4,24.35.06c3.86-.44,7.36,1.61,8.86,5.07.88,0,1.32,0,2.21,0h.93c1.23,0,2.33.44,3.17,1.27.77.76,1.22,1.73,1.31,2.81,1.41-.01,3.14-.03,4.01.01,3.06.14,5.37,2.1,5.87,5,.06.34.09.71.09,1.13v12.39q0,10.47,0,10.57c-.07.99-.92,1.74-1.91,1.67-.96-.06-1.7-.87-1.67-1.83,0-.33,0-5.01,0-10.41v-12.4c0-.2-.01-.37-.04-.5-.21-1.21-1.15-1.97-2.51-2.03-.88-.04-2.93-.02-4.28,0-.44,0-.82,0-1.1,0-.74.01-1.21-.32-1.48-.59-.27-.27-.58-.75-.56-1.48,0-.39,0-.78,0-1.17,0-.27-.08-.44-.25-.62-.12-.12-.29-.24-.66-.24h-.93c-1.17,0-1.57,0-3.19,0h-.01c-1.01,0-1.79-.58-2.08-1.56-.71-2.37-2.92-3.82-5.38-3.54-1.89.22-3.53,1.63-4.08,3.51-.29,1-1.09,1.6-2.12,1.58-1.96,0-2.29,0-4.21,0h-.08c-.45,0-.78.27-.86.69-.03.2-.03.48-.02.77,0,.2,0,.4,0,.6-.03,1.25-.82,2.02-2.07,2.03h-1.93c-1.21,0-2.57,0-3.29,0h-.08c-.07,0-.14,0-.21,0-1.35.17-2.23,1.16-2.23,2.54v28.25c0,6.99,0,13.98,0,20.97,0,.15.01.29.03.42.19,1.22,1.18,2.07,2.42,2.07h24.32c.99,0,1.79.8,1.79,1.79s-.8,1.79-1.79,1.79Z"/><path d="M47.22,72c-3.76,0-7.29-1.46-9.94-4.11-2.66-2.66-4.13-6.2-4.13-9.97,0-3.78,1.48-7.32,4.15-9.98,2.67-2.65,6.22-4.09,10-4.08,3.79.02,7.34,1.52,9.98,4.22,2.6,2.66,4.02,6.16,4,9.84.02,3.73-1.43,7.25-4.08,9.92-2.65,2.67-6.19,4.14-9.96,4.15h-.02ZM47.22,46.37c-3.08,0-5.98,1.19-8.15,3.35-2.2,2.19-3.41,5.1-3.41,8.2,0,3.1,1.2,6.01,3.39,8.2,2.18,2.18,5.09,3.39,8.19,3.37,3.1,0,6.01-1.22,8.18-3.41,2.18-2.2,3.37-5.09,3.35-8.15,0,0,0,0,0-.01.02-3.02-1.15-5.89-3.29-8.08-2.17-2.22-5.08-3.45-8.2-3.47-.02,0-.04,0-.07,0Z"/><path d="M12.63,17.84c-.44,0-1.1-.06-1.73-.53-.72-.54-1.11-1.34-1.11-2.25,0-1.3,0-1.97,0-2.94v-1.22c0-.99.8-1.79,1.79-1.79,0,0,0,0,0,0,.99,0,1.79.8,1.79,1.79v1.21c0,.75,0,1.32,0,2.13,3.26,0,6.51,0,9.76,0h14.12s0-3.3,0-3.3c0-.99.8-1.79,1.79-1.79s1.79.8,1.79,1.79v4.03c0,1.11-.53,2.03-1.45,2.53-.54.29-1.05.33-1.39.32h-14.87c-3.5,0-7,0-10.5,0h0Z"/><path d="M11.6,59.1c-.57,0-1.15,0-1.72,0-.88,0-1.43-.55-1.44-1.43,0-.41,0-.82,0-1.23v-.51s0-.53,0-.53c0-.4,0-.81,0-1.21,0-.87.55-1.42,1.42-1.42,1.16,0,2.33,0,3.49,0,.86,0,1.41.55,1.41,1.41,0,1.16,0,2.31,0,3.47,0,.86-.58,1.44-1.44,1.44-.57,0-1.15,0-1.72,0ZM10.59,56.95c.68,0,1.35,0,2.02,0,0-.67,0-1.35,0-2.02-.67,0-1.35,0-2.02,0,0,.16,0,.32,0,.48v.53s0,.51,0,.51c0,.17,0,.34,0,.51Z"/><path d="M11.51,44.35c-.54,0-1.09,0-1.63,0-.9,0-1.44-.54-1.44-1.44,0-.41,0-.82,0-1.23v-.51s0-.52,0-.52c0-.4,0-.8,0-1.2,0-.89.54-1.42,1.43-1.42,1.15,0,2.3,0,3.45,0,.89,0,1.44.56,1.44,1.45,0,1.14,0,2.27,0,3.41,0,.92-.55,1.46-1.47,1.46-.59,0-1.19,0-1.78,0ZM10.59,42.2c.68,0,1.35,0,2.02,0,0-.68,0-1.35,0-2.02-.68,0-1.35,0-2.02,0,0,.16,0,.31,0,.47v.52s0,.51,0,.51c0,.17,0,.35,0,.52Z"/><path d="M11.65,30.14c-.6,0-1.19,0-1.79,0-.87,0-1.42-.55-1.42-1.42,0-1.16,0-2.31,0-3.47,0-.88.55-1.43,1.44-1.43,1.14,0,2.29,0,3.43,0,.9,0,1.45.56,1.46,1.45v1.21s0,.5,0,.5v.51c0,.4,0,.8,0,1.21,0,.88-.55,1.43-1.43,1.43-.56,0-1.12,0-1.68,0ZM10.59,27.99c.68,0,1.35,0,2.02,0,0-.16,0-.33,0-.49v-.51s0-.5,0-.5v-.52c-.68,0-1.35,0-2.02,0,0,.68,0,1.35,0,2.02Z"/><path d="M41.28,25.92h-20.85c-.59,0-1.08-.48-1.08-1.08s.48-1.08,1.08-1.08h20.85c.59,0,1.08.48,1.08,1.08s-.48,1.08-1.08,1.08Z"/><path d="M36.39,29.82h-15.96c-.59,0-1.08-.48-1.08-1.08s.48-1.08,1.08-1.08h15.96c.59,0,1.08.48,1.08,1.08s-.48,1.08-1.08,1.08Z"/><path d="M41.28,39.99h-20.85c-.59,0-1.08-.48-1.08-1.08s.48-1.08,1.08-1.08h20.85c.59,0,1.08.48,1.08,1.08s-.48,1.08-1.08,1.08Z"/><path d="M34.86,43.89h-14.42c-.59,0-1.08-.48-1.08-1.08s.48-1.08,1.08-1.08h14.42c.59,0,1.08.48,1.08,1.08s-.48,1.08-1.08,1.08Z"/><path d="M26.97,54.82h-6.53c-.59,0-1.08-.48-1.08-1.08s.48-1.08,1.08-1.08h6.53c.59,0,1.08.48,1.08,1.08s-.48,1.08-1.08,1.08Z"/><path d="M25.63,58.72h-5.19c-.59,0-1.08-.48-1.08-1.08s.48-1.08,1.08-1.08h5.19c.59,0,1.08.48,1.08,1.08s-.48,1.08-1.08,1.08Z"/><path d="M45.06,64.24c-.46,0-.92-.18-1.27-.52l-3.44-3.44c-.7-.7-.7-1.83,0-2.53.7-.7,1.83-.7,2.53,0l2.17,2.17,6.17-6.17c.7-.7,1.83-.7,2.53,0,.7.7.7,1.83,0,2.53l-7.43,7.43c-.35.35-.81.52-1.27.52Z"/></g></g></svg>