<?xml version="1.0" encoding="UTF-8"?><svg id="Layer_2" xmlns="http://www.w3.org/2000/svg" viewBox="0 0 58.16 72"><g id="Layer_1-2"><g id="Icon_67"><path d="M52.18,72H5.97c-3.29,0-5.97-2.68-5.97-5.97V5.97C0,2.68,2.68,0,5.97,0h46.21c3.29,0,5.97,2.68,5.97,5.97v60.05c0,3.29-2.68,5.97-5.97,5.97ZM5.97,3.56c-1.33,0-2.42,1.08-2.42,2.42v60.05c0,1.33,1.08,2.42,2.42,2.42h46.21c1.33,0,2.42-1.08,2.42-2.42V5.97c0-1.33-1.08-2.42-2.42-2.42H5.97Z"/><path d="M28.71,30.28c-.53,0-1.06-.05-1.58-.15-.72-.13-1.21-.87-1.08-1.65.13-.77.82-1.29,1.54-1.16.74.14,1.52.14,2.26,0,.73-.13,1.41.38,1.54,1.16.13.77-.36,1.51-1.08,1.65-.52.1-1.05.15-1.59.15Z"/><path d="M21.11,41.21c-.07,0-.15,0-.22-.02-.53-.1-.94-.52-1.01-1.06l-.47-3.39-2.81,1.22c-.49.21-1.05.09-1.41-.3-.36-.39-.43-.97-.18-1.43l5.63-10.41c-1.14-1.63-1.76-3.59-1.76-5.6,0-5.4,4.39-9.8,9.8-9.8s9.8,4.39,9.8,9.8c0,2-.62,3.96-1.76,5.59l5.63,10.42c.25.47.18,1.04-.18,1.43-.36.39-.92.51-1.41.3l-2.81-1.21-.48,3.38c-.08.53-.48.96-1.01,1.05-.53.09-1.06-.16-1.32-.63l-6.12-11.31c-.33-.6-.1-1.36.5-1.69.6-.33,1.36-.1,1.69.5l4.32,7.98.18-1.25c.05-.38.28-.72.62-.91.34-.19.75-.21,1.1-.06l1.02.44-4.31-7.97c-.24-.45-.19-1,.14-1.39,1.1-1.31,1.7-2.97,1.7-4.68,0-4.03-3.28-7.31-7.31-7.31s-7.31,3.28-7.31,7.31c0,1.71.6,3.37,1.7,4.68.33.39.38.94.14,1.39l-4.3,7.95,1.02-.44c.36-.15.77-.13,1.11.06.34.19.57.53.62.92l.17,1.25,4.31-7.97c.33-.6,1.08-.83,1.69-.5.6.33.83,1.08.5,1.69l-6.12,11.31c-.22.41-.64.65-1.09.65Z"/><path d="M27.46,23.26c-.24,0-.47-.1-.64-.27l-1.7-1.7c-.35-.35-.35-.93,0-1.28.35-.35.93-.35,1.28,0l1.06,1.06,3.04-3.04c.35-.35.93-.35,1.28,0,.35.35.35.93,0,1.28l-3.68,3.68c-.17.17-.4.27-.64.27Z"/><path d="M46.24,52.78H11.69c-.98,0-1.78-.8-1.78-1.78s.8-1.78,1.78-1.78h34.54c.98,0,1.78.8,1.78,1.78s-.8,1.78-1.78,1.78Z"/><path d="M28.82,61.78H11.69c-.98,0-1.78-.8-1.78-1.78s.8-1.78,1.78-1.78h17.12c.98,0,1.78.8,1.78,1.78s-.8,1.78-1.78,1.78Z"/></g></g></svg>