<?xml version="1.0" encoding="UTF-8"?><svg id="Layer_2" xmlns="http://www.w3.org/2000/svg" viewBox="0 0 72 71.93"><g id="Layer_1-2"><g id="Icon_12"><path d="M23.93,53.61h-12.71c-.98,0-1.78-.8-1.78-1.78s.8-1.78,1.78-1.78h12.71c.98,0,1.78.8,1.78,1.78s-.8,1.78-1.78,1.78Z"/><path d="M30.19,44.07H11.23c-.98,0-1.78-.8-1.78-1.78s.8-1.78,1.78-1.78h18.96c.98,0,1.78.8,1.78,1.78s-.8,1.78-1.78,1.78Z"/><path d="M35.93,34.36H11.23c-.98,0-1.78-.8-1.78-1.78s.8-1.78,1.78-1.78h24.7c.98,0,1.78.8,1.78,1.78s-.8,1.78-1.78,1.78Z"/><path d="M39.65,17.16h-23.51c-1.38,0-2.49-1.11-2.49-2.49s1.11-2.49,2.49-2.49h23.51c1.38,0,2.49,1.11,2.49,2.49s-1.11,2.49-2.49,2.49Z"/><path d="M38.77,71.93H4.09c-2.25,0-4.09-1.83-4.09-4.09V4.09C0,1.84,1.83,0,4.09,0h48.41c2.26,0,4.09,1.84,4.09,4.09v15.31c0,.98-.8,1.78-1.78,1.78s-1.78-.8-1.78-1.78V4.09c0-.3-.24-.54-.54-.54H4.09c-.29,0-.53.24-.53.54v63.74c0,.29.24.53.53.53h34.68c.98,0,1.78.8,1.78,1.78s-.8,1.78-1.78,1.78Z"/><path d="M70.22,62.39h-37.18c-.64,0-1.23-.34-1.55-.9-.32-.56-.31-1.24.02-1.79l18.59-31.26c.32-.54.9-.87,1.53-.87s1.21.33,1.53.87l18.59,31.26c.33.55.33,1.23.02,1.79-.32.56-.91.9-1.55.9ZM36.17,58.83h30.92l-15.46-26-15.46,26Z"/><path d="M51.55,50.93c-.98,0-1.78-.8-1.78-1.78v-7.02c0-.98.8-1.78,1.78-1.78s1.78.8,1.78,1.78v7.02c0,.98-.8,1.78-1.78,1.78Z"/><path d="M51.55,56.13c-.98,0-1.78-.8-1.78-1.78v-.07c0-.98.8-1.78,1.78-1.78s1.78.8,1.78,1.78v.07c0,.98-.8,1.78-1.78,1.78Z"/></g></g></svg>