<?xml version="1.0" encoding="UTF-8"?><svg id="Layer_2" xmlns="http://www.w3.org/2000/svg" viewBox="0 0 72 72"><g id="Layer_1-2"><g id="Icon_4"><path d="M51.61,72H6.65c-3.67,0-6.65-2.98-6.65-6.65V14.42c0-3.67,2.98-6.65,6.65-6.65h32.22c.98,0,1.78.8,1.78,1.78s-.8,1.78-1.78,1.78H6.65c-1.71,0-3.1,1.39-3.1,3.09v50.93c0,1.71,1.39,3.09,3.1,3.09h44.95c1.71,0,3.1-1.39,3.1-3.09v-25.15c0-.98.8-1.78,1.78-1.78s1.78.8,1.78,1.78v25.15c0,3.67-2.98,6.65-6.65,6.65Z"/><path d="M37.86,47.29l-2.52-2.51L68.37,11.77s.05-.06.06-.09l-8.13-8.12s-.05.03-.09.06L27.19,36.63l-2.52-2.51L57.7,1.11c1.43-1.43,3.69-1.49,5.05-.13l8.28,8.27c.67.67,1.03,1.61.98,2.59-.05.92-.44,1.79-1.11,2.45l-33.03,33.01Z"/><rect x="54.81" y="8.45" width="3.56" height="13.89" transform="translate(5.7 44.54) rotate(-45.02)"/><path d="M20.95,52.79c-.46,0-.92-.18-1.26-.52-.47-.47-.64-1.17-.44-1.8l5.04-15.71c.19-.59.67-1.04,1.28-1.19.6-.15,1.24.03,1.68.47l10.68,10.67c.44.44.62,1.07.47,1.68-.15.6-.6,1.09-1.19,1.27l-15.72,5.04c-.18.06-.36.08-.54.08ZM26.8,38.62l-3.09,9.64,9.65-3.09-6.56-6.55Z"/></g></g></svg>