<?xml version="1.0" encoding="UTF-8"?><svg id="Layer_2" xmlns="http://www.w3.org/2000/svg" viewBox="0 0 66.01 72"><g id="Layer_1-2"><g id="Icon_77"><path d="M45.75,72H4.22c-2.33,0-4.22-1.89-4.22-4.22V6.78C0,4.46,1.89,2.56,4.22,2.56h41.53c2.33,0,4.22,1.89,4.22,4.22v18.95c0,.98-.8,1.78-1.78,1.78s-1.78-.8-1.78-1.78V6.78c0-.37-.3-.66-.66-.66H4.22c-.37,0-.66.3-.66.66v61c0,.37.3.66.66.66h41.53c.37,0,.66-.3.66-.66v-10.3c0-.98.8-1.78,1.78-1.78s1.78.8,1.78,1.78v10.3c0,2.33-1.89,4.22-4.22,4.22Z"/><path d="M12.29,10.81c-1.38,0-2.49-1.11-2.49-2.49V2.49c0-1.38,1.11-2.49,2.49-2.49s2.49,1.11,2.49,2.49v5.83c0,1.38-1.11,2.49-2.49,2.49Z"/><path d="M20.73,10.81c-1.38,0-2.49-1.11-2.49-2.49V2.49c0-1.38,1.11-2.49,2.49-2.49s2.49,1.11,2.49,2.49v5.83c0,1.38-1.11,2.49-2.49,2.49Z"/><path d="M29.17,10.81c-1.38,0-2.49-1.11-2.49-2.49V2.49c0-1.38,1.11-2.49,2.49-2.49s2.49,1.11,2.49,2.49v5.83c0,1.38-1.11,2.49-2.49,2.49Z"/><path d="M37.61,10.81c-1.38,0-2.49-1.11-2.49-2.49V2.49c0-1.38,1.11-2.49,2.49-2.49s2.49,1.11,2.49,2.49v5.83c0,1.38-1.11,2.49-2.49,2.49Z"/><path d="M16.27,27.43c-.4,0-.81-.09-1.19-.32-1.36-.8-1.14-2.36-1.03-3.11,0-.04,0-.07,0-.11-1.1.59-2.13,1.29-3.05,2.08-.52.45-1.31.39-1.76-.13s-.39-1.31.13-1.76c1.06-.91,2.24-1.72,3.51-2.39.3-.16.94-.5,1.7-.41.57.07,1.07.36,1.42.81.63.81.56,1.85.51,2.25-.02.12-.05.36-.06.54.03-.01.05-.03.08-.05.18-.13.34-.35.54-.6.09-.12.19-.24.29-.36.75-.9,1.74-1.62,2.88-2.08.4-.16,1.02-.36,1.69-.17,1.47.42,1.46,1.86,1.46,2.47,0,.13,0,.3,0,.42.13.01.34-.01.5-.1.28-.16.54-.41.85-.71.21-.21.43-.43.69-.64.86-.71,2.22-1.26,3.49-.7.93.42,1.34,1.2,1.53,1.92.29-.16.63-.41,1.03-.72,1.06-.81,2.38-1.81,4.04-1.26.43.14.77.37,1.04.55.09.06.19.13.29.18.7.4,1.84.24,2.34-.32.46-.51,1.24-.56,1.76-.11.51.46.56,1.24.11,1.76-1.28,1.44-3.72,1.82-5.44.84-.15-.09-.29-.18-.44-.28-.17-.11-.32-.22-.43-.25-.39-.13-.95.26-1.75.88-1.04.79-2.33,1.78-3.97,1.31-.54-.15-.91-.64-.91-1.2,0-.93-.19-1.03-.2-1.03-.13-.06-.53.05-.89.34-.17.14-.34.31-.52.49-.38.38-.81.81-1.4,1.13-1.2.66-2.99.59-3.79-.66-.37-.58-.4-1.22-.4-1.72-.64.3-1.2.73-1.62,1.24-.08.09-.15.19-.23.29-.27.35-.57.75-1.03,1.09-.46.34-1.09.58-1.74.58Z"/><path d="M10.17,44.2c-.05,0-.11,0-.17,0-.69-.03-1.22-.62-1.19-1.3.03-.69.62-1.22,1.3-1.19.6.03,1.26-.53,1.97-1.11.19-.16.38-.31.56-.46,1.04-.81,2.21-1.42,3.48-1.79.29-.09.98-.29,1.68.03.78.34,1.07,1.03,1.2,1.62.57-.6,1.24-1.2,2.15-1.51.89-.3,1.93-.18,2.72.31.49.31.85.73,1.04,1.23.23-.12.46-.27.7-.42.56-.35,1.19-.76,1.95-.97.92-.27,1.53,0,1.87.27.46.36.62.84.69,1.17.16-.07.33-.19.51-.32l.2-.14c.57-.39,1.34-.24,1.73.33.39.57.24,1.34-.33,1.73l-.18.12c-.37.26-.83.59-1.43.74-1.08.29-2.2-.15-2.66-1.05-.05-.1-.1-.21-.13-.31-.29.14-.59.33-.9.52-.53.34-1.13.72-1.84.94-.84.26-1.62.08-2.1-.48-.36-.44-.4-.92-.42-1.18,0-.02,0-.04,0-.06-.09-.08-.4-.17-.64-.09-.51.17-.98.68-1.48,1.22l-.23.24c-.22.24-.75.79-1.57.81-1.08.02-1.9-.86-2.05-2.18,0-.04,0-.08-.01-.12-.87.29-1.71.73-2.43,1.3-.17.13-.34.27-.51.41-.91.76-2.03,1.69-3.51,1.69Z"/><path d="M11.53,58.94c-.51,0-.99-.31-1.17-.82-.23-.65.1-1.36.75-1.59,1.05-.38,2.05-.89,2.98-1.51l.22-.15c.44-.3.94-.65,1.55-.87,1.01-.36,2.07-.25,2.82.31.16.12.31.26.44.42.39-.42.83-.88,1.41-1.21.73-.42,1.5-.47,2.13-.13.7.37.92,1.02,1.04,1.48.03-.02.06-.05.09-.08.13-.11.26-.22.39-.32,1.38-1.02,3.36-1.11,4.82-.2.14.08.25.15.35.22.21.13.37.23.53.33.71.48,2.16.4,4.07-.24.65-.22,1.36.13,1.57.79.22.65-.13,1.36-.79,1.58-2.78.93-4.83.91-6.26-.06-.13-.09-.26-.16-.42-.26-.11-.07-.23-.14-.37-.23-.59-.37-1.46-.33-2.02.09-.09.07-.18.14-.26.21-.21.18-.48.41-.81.59-.85.46-1.82.4-2.48-.15-.42-.35-.61-.79-.71-1.17-.16.15-.33.33-.5.51-.63.67-1.4,1.5-2.65,1.6-.52.04-1.01-.24-1.23-.72-.16-.35-.15-.74,0-1.07-.09,0-.21.02-.34.06-.31.11-.63.34-.98.58l-.24.16c-1.09.74-2.28,1.34-3.52,1.79-.14.05-.28.07-.42.07Z"/><path d="M44.86,53.12l-2.02-2.01,20.11-20.2-3.54-3.53-20.11,20.2-2.02-2.01,20.42-20.51c.94-.94,2.43-.97,3.33-.07l4.31,4.3c.42.42.66.99.66,1.6s-.26,1.27-.73,1.73l-20.42,20.51ZM63.27,30.6s0,0,0,0h0Z"/><rect x="56.81" y="28.6" width="2.85" height="7.22" transform="translate(-5.7 50.68) rotate(-45.06)"/><path d="M35.71,56.12c-.37,0-.74-.15-1.01-.42-.38-.38-.51-.93-.35-1.44l2.62-8.16c.15-.47.54-.83,1.02-.95.48-.12.99.03,1.34.38l5.56,5.55c.35.35.49.86.38,1.34s-.48.87-.95,1.02l-8.18,2.62c-.14.05-.29.07-.43.07ZM38.98,49.19l-1.06,3.31,3.32-1.06-2.26-2.25Z"/></g></g></svg>