<?xml version="1.0" encoding="UTF-8"?><svg id="Layer_2" xmlns="http://www.w3.org/2000/svg" viewBox="0 0 65.76 73.75"><defs><style>.cls-1{fill:none;stroke:#000;stroke-linecap:round;stroke-linejoin:round;stroke-width:3.5px;}</style></defs><g id="Layer_1-2"><g id="Icon_12"><path d="M26.68,54.77H10.38c-.96,0-1.74-.78-1.74-1.74s.78-1.74,1.74-1.74h16.3c.96,0,1.74.78,1.74,1.74s-.78,1.74-1.74,1.74Z"/><path d="M32.81,45.41H10.38c-.96,0-1.74-.78-1.74-1.74s.78-1.74,1.74-1.74h22.43c.96,0,1.74.78,1.74,1.74s-.78,1.74-1.74,1.74Z"/><path d="M38.44,35.89H10.38c-.96,0-1.74-.78-1.74-1.74s.78-1.74,1.74-1.74h28.06c.96,0,1.74.78,1.74,1.74s-.78,1.74-1.74,1.74Z"/><path d="M38.87,16.68H15.82c-1.35,0-2.44-1.09-2.44-2.44s1.09-2.44,2.44-2.44h23.05c1.35,0,2.44,1.09,2.44,2.44s-1.09,2.44-2.44,2.44Z"/><path d="M38,70.51H4.01c-2.21,0-4.01-1.8-4.01-4.01V4.01C0,1.8,1.8,0,4.01,0h47.45c2.21,0,4.01,1.8,4.01,4.01v24c0,.96-.78,1.74-1.74,1.74s-1.74-.78-1.74-1.74V4.01c0-.29-.24-.52-.52-.52H4.01c-.29,0-.52.24-.52.52v62.49c0,.29.23.52.52.52h33.99c.96,0,1.74.78,1.74,1.74s-.78,1.74-1.74,1.74Z"/><path class="cls-1" d="M53.74,60.66v-20.79c0-3.13,2.3-5.67,5.14-5.67s5.14,2.54,5.14,5.67v20.79c0,6.26-4.6,11.34-10.27,11.34s-10.27-5.08-10.27-11.34v-15.12"/></g></g></svg>