<?xml version="1.0" encoding="UTF-8"?><svg id="Layer_2" xmlns="http://www.w3.org/2000/svg" viewBox="0 0 72 70.47"><g id="Layer_1-2"><path d="M64.24,70.47H11.41c-1.99,0-3.68-1.48-3.87-3.37l-2.57-25.6-.51-5.19c-.1-1.03.23-2.01.92-2.78.73-.81,1.79-1.28,2.92-1.3.55,0,1.09,0,1.63,0,1.71-.01,3.45,0,5.19-.05.02,0,.04,0,.06,0,1.08,0,2.18,0,3.26-.01.56,0,1.05-.26,1.27-.65l1.53-2.59c.78-1.32,2.11-2.19,3.66-2.39.12-.02.25-.01.38-.02.11,0,.21,0,.31,0h42.49c1.15,0,2.24.48,2.98,1.32.61.69.94,1.58.91,2.48,0,.09,0,.19,0,.28l-3.88,36.54c-.21,1.91-1.87,3.35-3.86,3.35ZM15.19,35.66c-1.75.04-3.51.04-5.23.05-.55,0-1.09,0-1.63,0-.13,0-.27.05-.35.14-.05.06-.05.1-.04.11l.51,5.18,2.57,25.61c0,.06.15.22.39.22h52.83c.23,0,.38-.14.39-.23l3.86-36.31c0-.08,0-.15.01-.23,0-.02-.02-.05-.04-.07-.06-.07-.19-.15-.38-.15H25.61c-.05,0-.1,0-.16,0-.06,0-.11,0-.17,0-.44.08-.8.33-1.02.69l-1.52,2.57c-.83,1.46-2.47,2.39-4.26,2.39-1.07.01-2.19.01-3.28.01Z"/><path d="M8.85,35.67c-.6,0-1.18-.31-1.5-.86L.52,23.22c-1.02-1.73-.49-4.01,1.19-5.08L29.27.57c.83-.53,1.81-.69,2.76-.47.97.23,1.79.84,2.3,1.71l15.04,25.28c.49.83.22,1.9-.61,2.39-.83.49-1.9.22-2.39-.61L31.34,3.59c-.04-.07-.08-.09-.11-.09-.03,0-.05,0-.08.01L3.58,21.08c-.09.06-.14.23-.06.36l6.83,11.59c.49.83.21,1.9-.62,2.39-.28.16-.58.24-.88.24Z"/><path d="M14.41,25.79c-.47,0-.94-.23-1.21-.66-.43-.67-.23-1.55.44-1.98l14.64-9.34c.67-.43,1.55-.23,1.98.44.43.67.23,1.55-.44,1.98l-14.64,9.34c-.24.15-.51.23-.77.23Z"/><path d="M56.11,28.32c-.79,0-1.51-.54-1.7-1.35l-3.03-12.88-1.34-5.5c-.02-.09-.06-.13-.09-.14-.04-.03-.08-.02-.09-.02l-11.86,3.08c-.93.24-1.88-.32-2.13-1.25-.24-.93.32-1.88,1.25-2.13l11.85-3.08c.94-.25,1.92-.11,2.77.4.86.52,1.46,1.34,1.69,2.32l1.34,5.5,3.03,12.89c.22.94-.36,1.88-1.3,2.1-.13.03-.27.05-.4.05Z"/><path d="M65.23,28.56c-.05,0-.1,0-.16,0-.96-.08-1.67-.93-1.58-1.89l.87-9.88c.01-.14-.07-.25-.16-.26l-11.28-1.09c-.96-.09-1.66-.94-1.57-1.9.09-.96.94-1.66,1.9-1.57l11.28,1.09c2,.19,3.48,2,3.3,4.04l-.87,9.88c-.08.91-.84,1.59-1.74,1.59Z"/></g></svg>