<?xml version="1.0" encoding="UTF-8"?><svg id="Layer_2" xmlns="http://www.w3.org/2000/svg" viewBox="0 0 71.49 71.48"><defs><style>.cls-1{fill:none;stroke:#241f20;stroke-miterlimit:10;stroke-width:3.5px;}.cls-2{fill:#241f20;}</style></defs><g id="Layer_1-2"><path class="cls-2" d="M69.72,71.48H1.77c-.98,0-1.77-.79-1.77-1.77s.79-1.77,1.77-1.77h67.95c.98,0,1.77.79,1.77,1.77s-.79,1.77-1.77,1.77Z"/><path class="cls-2" d="M64.57,66.41H6.92c-.98,0-1.77-.79-1.77-1.77s.79-1.77,1.77-1.77h57.65c.98,0,1.77.79,1.77,1.77s-.79,1.77-1.77,1.77Z"/><path class="cls-2" d="M62.86,28.75H8.63c-.98,0-1.77-.79-1.77-1.77s.79-1.77,1.77-1.77h54.23c.98,0,1.77.79,1.77,1.77s-.79,1.77-1.77,1.77Z"/><path class="cls-2" d="M12.67,28.74c-.56,0-1.11-.27-1.45-.77-.54-.8-.33-1.89.47-2.43l12.48-8.41c.8-.54,1.89-.33,2.43.47.54.8.33,1.89-.47,2.43l-12.48,8.41c-.3.2-.64.3-.98.3Z"/><path class="cls-2" d="M58.61,28.74c-.34,0-.68-.1-.98-.3l-12.48-8.41c-.8-.54-1.01-1.63-.47-2.43.54-.8,1.63-1.01,2.43-.47l12.48,8.41c.8.54,1.01,1.63.47,2.43-.34.5-.89.77-1.45.77Z"/><path class="cls-2" d="M35.52,19.63c-5.41,0-9.81-4.4-9.81-9.82S30.11,0,35.52,0s9.81,4.4,9.81,9.82-4.4,9.82-9.81,9.82ZM35.52,2.49c-4.04,0-7.32,3.29-7.32,7.32s3.28,7.32,7.32,7.32,7.32-3.29,7.32-7.32-3.29-7.32-7.32-7.32Z"/><path class="cls-2" d="M35.73,4.79c-.22,0-.33.14-.33.43v.55c-.71.06-1.26.28-1.63.66-.38.38-.57.86-.57,1.46,0,.45.1.83.29,1.12.19.29.44.51.75.67.31.16.7.3,1.16.43v2.4c-.23-.07-.42-.16-.56-.28-.14-.12-.24-.26-.31-.41-.07-.15-.15-.37-.24-.65-.04-.13-.12-.23-.22-.3-.11-.07-.24-.11-.39-.11-.19,0-.35.07-.48.2-.13.13-.19.28-.19.45,0,.22.05.45.14.68.1.23.25.46.45.67.2.22.45.4.75.54.3.14.65.24,1.06.28v1.39c0,.16.02.28.07.35.05.08.14.11.26.11.13,0,.22-.05.26-.14.04-.09.06-.24.06-.44v-1.29c.49-.04.92-.17,1.28-.39.36-.22.63-.5.81-.84s.28-.71.28-1.1c0-.31-.06-.6-.17-.87-.12-.26-.28-.49-.49-.68-.2-.18-.43-.32-.68-.42-.25-.1-.59-.2-1.02-.32v-2.15c.43.14.71.43.82.86.1.37.32.55.66.55.18,0,.33-.06.46-.19.13-.13.19-.27.19-.45,0-.15-.04-.33-.13-.51-.08-.19-.2-.37-.36-.54-.2-.23-.43-.4-.69-.52-.26-.11-.58-.19-.95-.23v-.56c0-.28-.11-.42-.33-.42h0ZM35.4,8.76c-.31-.11-.54-.24-.69-.38-.15-.14-.23-.35-.23-.62,0-.29.08-.5.24-.64.16-.14.39-.25.68-.34v1.98h0ZM36.06,12.55v-2.26c.36.11.63.25.81.42.18.16.28.4.28.69,0,.28-.09.52-.28.73-.19.21-.46.35-.81.42h0Z"/><path class="cls-2" d="M23.38,34.72h-9.93c-.97,0-1.75-.78-1.75-1.75s.78-1.75,1.75-1.75h9.93c.97,0,1.75.78,1.75,1.75s-.78,1.75-1.75,1.75Z"/><path class="cls-2" d="M23.38,60.78h-9.93c-.97,0-1.75-.78-1.75-1.75s.78-1.75,1.75-1.75h9.93c.97,0,1.75.78,1.75,1.75s-.78,1.75-1.75,1.75Z"/><line class="cls-1" x1="15.42" y1="33.57" x2="15.42" y2="59.38"/><line class="cls-1" x1="21.4" y1="33.57" x2="21.4" y2="59.38"/><path class="cls-2" d="M40.71,34.72h-9.93c-.97,0-1.75-.78-1.75-1.75s.78-1.75,1.75-1.75h9.93c.97,0,1.75.78,1.75,1.75s-.78,1.75-1.75,1.75Z"/><path class="cls-2" d="M40.71,60.78h-9.93c-.97,0-1.75-.78-1.75-1.75s.78-1.75,1.75-1.75h9.93c.97,0,1.75.78,1.75,1.75s-.78,1.75-1.75,1.75Z"/><line class="cls-1" x1="32.75" y1="33.57" x2="32.75" y2="59.38"/><line class="cls-1" x1="38.73" y1="33.57" x2="38.73" y2="59.38"/><path class="cls-2" d="M58.12,34.72h-9.93c-.97,0-1.75-.78-1.75-1.75s.78-1.75,1.75-1.75h9.93c.97,0,1.75.78,1.75,1.75s-.78,1.75-1.75,1.75Z"/><path class="cls-2" d="M58.12,60.78h-9.93c-.97,0-1.75-.78-1.75-1.75s.78-1.75,1.75-1.75h9.93c.97,0,1.75.78,1.75,1.75s-.78,1.75-1.75,1.75Z"/><line class="cls-1" x1="50.17" y1="33.57" x2="50.17" y2="59.38"/><line class="cls-1" x1="56.15" y1="33.57" x2="56.15" y2="59.38"/></g></svg>