<?xml version="1.0" encoding="UTF-8"?><svg id="Layer_2" xmlns="http://www.w3.org/2000/svg" viewBox="0 0 72 72"><defs><style>.cls-1{fill:#241f20;}</style></defs><g id="Layer_1-2"><g id="Icon_65"><path class="cls-1" d="M15.29,71.91h-7.8c-.98,0-1.77-.8-1.77-1.78v-23.45c0-.99.79-1.78,1.77-1.78h7.8c.98,0,1.77.8,1.77,1.78v23.45c0,.99-.79,1.78-1.77,1.78ZM9.26,68.34h4.26v-19.88h-4.26v19.88Z"/><path class="cls-1" d="M31.51,71.91h-7.8c-.98,0-1.77-.8-1.77-1.78V30.15c0-.99.79-1.78,1.77-1.78h7.8c.98,0,1.77.8,1.77,1.78v39.98c0,.99-.79,1.78-1.77,1.78ZM25.48,68.34h4.26V31.93h-4.26v36.41Z"/><path class="cls-1" d="M47.73,71.91h-7.8c-.98,0-1.77-.8-1.77-1.78v-32.13c0-.99.79-1.78,1.77-1.78h7.8c.98,0,1.77.8,1.77,1.78v32.13c0,.99-.79,1.78-1.77,1.78ZM41.7,68.34h4.26v-28.56h-4.26v28.56Z"/><path class="cls-1" d="M63.94,71.91h-7.8c-.98,0-1.77-.8-1.77-1.78V22.29c0-.99.79-1.78,1.77-1.78h7.8c.98,0,1.77.8,1.77,1.78v47.84c0,.99-.79,1.78-1.77,1.78ZM57.91,68.34h4.26V24.07h-4.26v44.27Z"/><path class="cls-1" d="M70.26,72H1.74c-.96,0-1.74-.78-1.74-1.75s.78-1.75,1.74-1.75h68.52c.96,0,1.74.78,1.74,1.75s-.78,1.75-1.74,1.75Z"/><polygon class="cls-1" points="47.79 19.81 45.22 17.36 56.26 5.63 58.83 8.09 47.79 19.81"/><polygon class="cls-1" points="14.68 28.07 12.1 25.64 24.21 12.54 26.8 14.97 14.68 28.07"/><path class="cls-1" d="M59.93,8.6c-2.35,0-4.26-1.93-4.26-4.3s1.91-4.3,4.26-4.3,4.26,1.93,4.26,4.3-1.91,4.3-4.26,4.3ZM59.93,1.78c-1.38,0-2.49,1.13-2.49,2.51s1.12,2.52,2.49,2.52,2.49-1.13,2.49-2.52-1.12-2.51-2.49-2.51Z"/><path class="cls-1" d="M43.77,23.93c-2.35,0-4.26-1.93-4.26-4.3s1.91-4.3,4.26-4.3,4.26,1.93,4.26,4.3-1.91,4.3-4.26,4.3ZM43.77,17.11c-1.38,0-2.49,1.13-2.49,2.51s1.12,2.51,2.49,2.51,2.49-1.13,2.49-2.51-1.12-2.51-2.49-2.51Z"/><path class="cls-1" d="M28.14,16.34c-2.35,0-4.26-1.93-4.26-4.3s1.91-4.3,4.26-4.3,4.26,1.93,4.26,4.3-1.91,4.3-4.26,4.3ZM28.14,9.53c-1.38,0-2.49,1.13-2.49,2.51s1.12,2.52,2.49,2.52,2.49-1.13,2.49-2.52-1.12-2.51-2.49-2.51Z"/><path class="cls-1" d="M10.95,33.48c-2.35,0-4.26-1.93-4.26-4.3s1.91-4.3,4.26-4.3,4.26,1.93,4.26,4.3-1.91,4.3-4.26,4.3ZM10.95,26.67c-1.38,0-2.49,1.13-2.49,2.51s1.12,2.51,2.49,2.51,2.49-1.13,2.49-2.51-1.12-2.51-2.49-2.51Z"/><polygon class="cls-1" points="39.87 20.63 30.01 15.01 31.74 11.91 41.61 17.52 39.87 20.63"/></g></g></svg>