<?xml version="1.0" encoding="UTF-8"?><svg id="Layer_2" xmlns="http://www.w3.org/2000/svg" viewBox="0 0 72 72"><defs><style>.cls-1{fill:#241f20;}</style></defs><g id="Layer_1-2"><path class="cls-1" d="M70.22,72H1.78c-.98,0-1.78-.8-1.78-1.78s.8-1.78,1.78-1.78h68.44c.98,0,1.78.8,1.78,1.78s-.8,1.78-1.78,1.78Z"/><path class="cls-1" d="M66.5,69.55c-.69,0-1.25-.56-1.25-1.25v-2.53c0-.32-.17-.49-.22-.51H6.97c-.05.01-.22.19-.22.51v2.53c0,.69-.56,1.25-1.25,1.25s-1.25-.56-1.25-1.25v-2.53c0-1.65,1.22-3,2.71-3h58.07c1.49,0,2.71,1.34,2.71,3v2.53c0,.69-.56,1.25-1.25,1.25Z"/><path class="cls-1" d="M24.49,65.12h-12.99v-6.72c0-1.36,1.1-2.46,2.46-2.46h8.07c1.36,0,2.46,1.1,2.46,2.46v6.72ZM13.99,62.63h8.01v-4.19h-8.01v4.19Z"/><path class="cls-1" d="M42.5,65.12h-12.99v-6.72c0-1.36,1.1-2.46,2.46-2.46h8.07c1.36,0,2.46,1.1,2.46,2.46v6.72ZM31.99,62.63h8.01v-4.19h-8.01v4.19Z"/><path class="cls-1" d="M60.5,65.12h-12.99v-6.72c0-1.36,1.1-2.46,2.46-2.46h8.07c1.36,0,2.46,1.1,2.46,2.46v6.72ZM50,62.63h8.01v-4.19h-8.01v4.19Z"/><path class="cls-1" d="M58.04,35.49h-8.07c-1.36,0-2.46-1.1-2.46-2.46v-1.9c0-.69.56-1.25,1.25-1.25s1.25.56,1.25,1.25v1.87h8.01v-1.87c0-.69.56-1.25,1.25-1.25s1.25.56,1.25,1.25v1.9c0,1.36-1.1,2.46-2.46,2.46Z"/><path class="cls-1" d="M40.04,35.49h-8.07c-1.36,0-2.46-1.1-2.46-2.46v-1.9c0-.69.56-1.25,1.25-1.25s1.25.56,1.25,1.25v1.87h8.01v-1.87c0-.69.56-1.25,1.25-1.25s1.25.56,1.25,1.25v1.9c0,1.36-1.1,2.46-2.46,2.46Z"/><path class="cls-1" d="M22.03,35.49h-8.07c-1.36,0-2.46-1.1-2.46-2.46v-1.9c0-.69.56-1.25,1.25-1.25s1.25.56,1.25,1.25v1.87h8.01v-1.87c0-.69.56-1.25,1.25-1.25s1.25.56,1.25,1.25v1.9c0,1.36-1.1,2.46-2.46,2.46Z"/><path class="cls-1" d="M22.2,58.34h-8.25v-25.35h8.25v25.35ZM16.44,55.85h3.27v-20.37h-3.27v20.37Z"/><path class="cls-1" d="M40.12,58.34h-8.25v-25.35h8.25v25.35ZM34.36,55.85h3.27v-20.37h-3.27v20.37Z"/><path class="cls-1" d="M58.13,58.34h-8.25v-25.35h8.25v25.35ZM52.37,55.85h3.27v-20.37h-3.27v20.37Z"/><path class="cls-1" d="M59.72,31.62H11.48c-1.68,0-3.05-1.37-3.05-3.05s1.37-3.05,3.05-3.05h48.25c1.68,0,3.05,1.37,3.05,3.05s-1.37,3.05-3.05,3.05ZM11.48,28c-.31,0-.56.25-.56.56s.25.56.56.56h48.25c.31,0,.56-.25.56-.56s-.25-.56-.56-.56H11.48Z"/><path class="cls-1" d="M14.17,27.72c-.37,0-.74-.16-.98-.48-.42-.54-.32-1.33.22-1.75l10.43-8.12c.54-.42,1.33-.33,1.75.22.42.54.33,1.33-.22,1.75l-10.43,8.12c-.23.18-.5.26-.76.26Z"/><path class="cls-1" d="M57.84,27.72c-.27,0-.54-.09-.76-.26l-10.51-8.19c-.54-.42-.64-1.21-.22-1.75.42-.54,1.2-.64,1.75-.22l10.51,8.19c.54.42.64,1.21.22,1.75-.25.32-.61.48-.98.48Z"/><path class="cls-1" d="M35.78,19.63c-5.41,0-9.81-4.4-9.81-9.82S30.37,0,35.78,0s9.81,4.4,9.81,9.82-4.4,9.82-9.81,9.82ZM35.78,2.49c-4.04,0-7.32,3.29-7.32,7.32s3.28,7.32,7.32,7.32,7.32-3.29,7.32-7.32-3.29-7.32-7.32-7.32Z"/><path class="cls-1" d="M35.99,4.79c-.22,0-.33.14-.33.43v.55c-.71.06-1.26.28-1.63.66-.38.38-.57.86-.57,1.46,0,.45.1.83.29,1.12.19.29.44.51.75.67.31.16.7.3,1.16.43v2.4c-.23-.07-.42-.16-.56-.28-.14-.12-.24-.26-.31-.41-.07-.15-.15-.37-.24-.65-.04-.13-.12-.23-.22-.3-.11-.07-.24-.11-.39-.11-.19,0-.35.07-.48.2-.13.13-.19.28-.19.45,0,.22.05.45.14.68.1.23.25.46.45.67.2.22.45.4.75.54.3.14.65.24,1.06.28v1.39c0,.16.02.28.07.35.05.08.14.11.26.11.13,0,.22-.05.26-.14.04-.09.06-.24.06-.44v-1.29c.49-.04.92-.17,1.28-.39.36-.22.63-.5.81-.84s.28-.71.28-1.1c0-.31-.06-.6-.17-.87-.12-.26-.28-.49-.49-.68-.2-.18-.43-.32-.68-.42-.25-.1-.59-.2-1.02-.32v-2.15c.43.14.71.43.82.86.1.37.32.55.66.55.18,0,.33-.06.46-.19.13-.13.19-.27.19-.45,0-.15-.04-.33-.13-.51-.08-.19-.2-.37-.36-.54-.2-.23-.43-.4-.69-.52-.26-.11-.58-.19-.95-.23v-.56c0-.28-.11-.42-.33-.42h0ZM35.66,8.76c-.31-.11-.54-.24-.69-.38-.15-.14-.23-.35-.23-.62,0-.29.08-.5.24-.64.16-.14.39-.25.68-.34v1.98h0ZM36.32,12.55v-2.26c.36.11.63.25.81.42.18.16.28.4.28.69,0,.28-.09.52-.28.73-.19.21-.46.35-.81.42h0Z"/></g></svg>