<?xml version="1.0" encoding="UTF-8"?><svg id="Layer_2" xmlns="http://www.w3.org/2000/svg" viewBox="0 0 69.82 69.82"><defs><style>.cls-1{fill:none;stroke:#000;stroke-linecap:round;stroke-linejoin:round;stroke-width:3.75px;}</style></defs><g id="Layer_1-2"><path class="cls-1" d="M67.94,67.94H7.75c-2.06,0-3.08,0-3.87-.4-.69-.35-1.25-.91-1.6-1.6-.4-.79-.4-1.81-.4-3.87V1.88M67.94,16.56l-19.95,19.95c-.73.73-1.09,1.09-1.51,1.23-.37.12-.77.12-1.13,0-.42-.14-.78-.5-1.51-1.23l-6.86-6.86c-.73-.73-1.09-1.09-1.51-1.23-.37-.12-.77-.12-1.13,0-.42.14-.78.5-1.51,1.23l-16.28,16.28M67.94,16.56h-14.68M67.94,16.56v14.68"/></g></svg>