<?xml version="1.0" encoding="UTF-8"?><svg id="Layer_2" xmlns="http://www.w3.org/2000/svg" viewBox="0 0 71.49 72"><defs><style>.cls-1{fill:#241f20;}</style></defs><g id="Layer_1-2"><path class="cls-1" d="M69.72,72H1.77c-.98,0-1.77-.79-1.77-1.77s.79-1.77,1.77-1.77h67.95c.98,0,1.77.79,1.77,1.77s-.79,1.77-1.77,1.77Z"/><path class="cls-1" d="M64.57,66.93H6.92c-.98,0-1.77-.79-1.77-1.77s.79-1.77,1.77-1.77h57.65c.98,0,1.77.79,1.77,1.77s-.79,1.77-1.77,1.77Z"/><path class="cls-1" d="M24.85,61.69h-13.96v-5.77c0-1.64,1.33-2.97,2.97-2.97h8.01c1.64,0,2.97,1.33,2.97,2.97v5.77ZM14.42,58.16h6.9v-1.68h-6.9v1.68Z"/><path class="cls-1" d="M42.72,61.69h-13.96v-5.77c0-1.64,1.33-2.97,2.97-2.97h8.01c1.64,0,2.97,1.33,2.97,2.97v5.77ZM32.29,58.16h6.9v-1.68h-6.9v1.68Z"/><path class="cls-1" d="M60.6,61.69h-13.96v-5.77c0-1.64,1.33-2.97,2.97-2.97h8.01c1.64,0,2.97,1.33,2.97,2.97v5.77ZM50.17,58.16h6.9v-1.68h-6.9v1.68Z"/><path class="cls-1" d="M57.63,36.29h-8.01c-1.64,0-2.97-1.33-2.97-2.97v-1.89c0-.98.79-1.77,1.77-1.77s1.77.79,1.77,1.77v1.33h6.9v-1.33c0-.98.79-1.77,1.77-1.77s1.77.79,1.77,1.77v1.89c0,1.64-1.33,2.97-2.97,2.97Z"/><path class="cls-1" d="M39.75,36.29h-8.01c-1.64,0-2.97-1.33-2.97-2.97v-1.89c0-.98.79-1.77,1.77-1.77s1.77.79,1.77,1.77v1.33h6.9v-1.33c0-.98.79-1.77,1.77-1.77s1.77.79,1.77,1.77v1.89c0,1.64-1.33,2.97-2.97,2.97Z"/><path class="cls-1" d="M21.87,36.29h-8.01c-1.64,0-2.97-1.33-2.97-2.97v-1.89c0-.98.79-1.77,1.77-1.77s1.77.79,1.77,1.77v1.33h6.9v-1.33c0-.98.79-1.77,1.77-1.77s1.77.79,1.77,1.77v1.89c0,1.64-1.33,2.97-2.97,2.97Z"/><path class="cls-1" d="M20.81,56.1c-.98,0-1.77-.79-1.77-1.77v-18.06h-2.19v18.06c0,.98-.79,1.77-1.77,1.77s-1.77-.79-1.77-1.77v-21.59h9.25v21.59c0,.98-.79,1.77-1.77,1.77Z"/><path class="cls-1" d="M38.59,56.1c-.98,0-1.77-.79-1.77-1.77v-18.06h-2.19v18.06c0,.98-.79,1.77-1.77,1.77s-1.77-.79-1.77-1.77v-21.59h9.25v21.59c0,.98-.79,1.77-1.77,1.77Z"/><path class="cls-1" d="M56.47,56.1c-.98,0-1.77-.79-1.77-1.77v-18.06h-2.19v18.06c0,.98-.79,1.77-1.77,1.77s-1.77-.79-1.77-1.77v-21.59h9.25v21.59c0,.98-.79,1.77-1.77,1.77Z"/><path class="cls-1" d="M62.93,31.04H8.63c-.98,0-1.77-.79-1.77-1.77s.79-1.77,1.77-1.77h54.3c.98,0,1.77.79,1.77,1.77s-.79,1.77-1.77,1.77Z"/><path class="cls-1" d="M14.69,26.13c-.62,0-1.22-.33-1.54-.9-.48-.85-.17-1.93.68-2.4l10.06-5.64c.85-.48,1.93-.17,2.4.68.48.85.17,1.93-.68,2.4l-10.06,5.64c-.27.15-.57.23-.86.23Z"/><path class="cls-1" d="M56.8,26.13c-.29,0-.59-.07-.86-.23l-10.14-5.68c-.85-.48-1.15-1.55-.68-2.4.48-.85,1.55-1.15,2.4-.68l10.14,5.68c.85.48,1.15,1.55.68,2.4-.32.58-.92.9-1.54.9Z"/><path class="cls-1" d="M35.52,20.55c-5.66,0-10.27-4.61-10.27-10.27S29.86,0,35.52,0s10.27,4.61,10.27,10.27-4.61,10.27-10.27,10.27ZM35.52,3.53c-3.72,0-6.74,3.02-6.74,6.74s3.02,6.74,6.74,6.74,6.74-3.02,6.74-6.74-3.02-6.74-6.74-6.74Z"/><path class="cls-1" d="M35.73,5.28c-.22,0-.32.14-.32.43v.54c-.71.06-1.25.28-1.62.66-.37.38-.56.86-.56,1.45,0,.45.1.82.29,1.11.19.29.44.51.75.66.31.16.69.3,1.15.42v2.38c-.23-.06-.41-.16-.55-.28-.14-.12-.24-.26-.31-.41-.07-.15-.15-.36-.24-.64-.04-.13-.11-.23-.22-.3-.11-.07-.24-.11-.39-.11-.19,0-.35.07-.48.2-.13.13-.19.28-.19.44,0,.22.05.45.14.68.1.23.24.45.44.67.2.21.45.39.75.54.3.14.65.24,1.05.28v1.38c0,.16.02.27.07.35.05.08.14.11.26.11.13,0,.22-.05.26-.14.04-.09.06-.24.06-.44v-1.28c.49-.04.91-.17,1.27-.38.36-.22.62-.49.81-.83.18-.34.27-.71.27-1.09,0-.31-.06-.6-.17-.86-.11-.26-.28-.49-.49-.67-.2-.18-.42-.32-.67-.42s-.59-.2-1.01-.32v-2.13c.43.14.7.42.82.85.1.36.32.54.65.54.18,0,.33-.06.45-.19.12-.12.19-.27.19-.44,0-.15-.04-.32-.13-.51-.08-.18-.2-.36-.36-.54-.19-.23-.42-.4-.68-.51-.26-.11-.58-.19-.94-.23v-.55c0-.28-.11-.42-.33-.42h0ZM35.41,9.22c-.31-.11-.54-.24-.69-.38-.15-.14-.23-.34-.23-.61,0-.28.08-.5.24-.64.16-.14.38-.25.67-.34v1.96h0ZM36.06,12.99v-2.25c.36.11.62.25.81.41.18.16.27.39.27.69,0,.28-.09.52-.28.73-.19.21-.45.35-.8.42h0Z"/></g></svg>