<?xml version="1.0" encoding="UTF-8"?><svg id="Layer_2" xmlns="http://www.w3.org/2000/svg" viewBox="0 0 72 71.98"><g id="Layer_1-2"><path d="M37.46,71.98H7.86c-4.33,0-7.86-3.52-7.86-7.86V7.86C0,3.52,3.52,0,7.86,0h41.28c4.33,0,7.86,3.52,7.86,7.86v16.58c0,.98-.8,1.78-1.78,1.78s-1.78-.8-1.78-1.78V7.86c0-2.37-1.93-4.3-4.3-4.3H7.86c-2.37,0-4.3,1.93-4.3,4.3v56.27c0,2.37,1.93,4.3,4.3,4.3h29.61c.98,0,1.78.8,1.78,1.78s-.8,1.78-1.78,1.78Z"/><path d="M33.56,50.01H11.42c-.69,0-1.24-.56-1.24-1.24s.56-1.24,1.24-1.24h22.13c.69,0,1.24.56,1.24,1.24s-.56,1.24-1.24,1.24Z"/><path d="M33.56,41.37H11.42c-.69,0-1.24-.56-1.24-1.24s.56-1.24,1.24-1.24h22.13c.69,0,1.24.56,1.24,1.24s-.56,1.24-1.24,1.24Z"/><path d="M28.1,58.71c-.06,0-.11,0-.17-.01-.93-.05-10.32-.09-16.51-.11-.69,0-1.24-.56-1.24-1.25,0-.69.56-1.24,1.24-1.24h0s4.17.01,8.34.04c2.09.01,4.17.03,5.74.04.79,0,1.44.02,1.9.02.77.01,1.94.03,1.94,1.27,0,.69-.56,1.24-1.24,1.24ZM27.97,58.7h0,0ZM27.36,58.47c.16.12.33.19.51.22-.19-.03-.36-.11-.51-.22ZM26.85,57.47c0,.36.15.67.37.88-.23-.23-.37-.54-.37-.88Z"/><path d="M67.31,71.98h-20.23c-2.59,0-4.69-2.11-4.69-4.69v-33.18c0-2.59,2.11-4.69,4.69-4.69h20.23c2.59,0,4.69,2.11,4.69,4.69v33.18c0,2.59-2.11,4.69-4.69,4.69ZM47.08,32.97c-.63,0-1.14.51-1.14,1.14v33.18c0,.63.51,1.14,1.14,1.14h20.23c.63,0,1.14-.51,1.14-1.14v-33.18c0-.63-.51-1.14-1.14-1.14h-20.23Z"/><path d="M62.97,41.72h-11.56c-1.1,0-2-.9-2-2s.9-2,2-2h11.56c1.1,0,2,.9,2,2s-.9,2-2,2Z"/><path d="M51.56,50.41h-1.87c-.69,0-1.24-.56-1.24-1.24s.56-1.24,1.24-1.24h1.87c.69,0,1.24.56,1.24,1.24s-.56,1.24-1.24,1.24Z"/><path d="M51.56,57.06h-1.87c-.69,0-1.24-.56-1.24-1.24s.56-1.24,1.24-1.24h1.87c.69,0,1.24.56,1.24,1.24s-.56,1.24-1.24,1.24Z"/><path d="M51.56,63.72h-1.87c-.69,0-1.24-.56-1.24-1.24s.56-1.24,1.24-1.24h1.87c.69,0,1.24.56,1.24,1.24s-.56,1.24-1.24,1.24Z"/><path d="M58.13,50.41h-1.87c-.69,0-1.24-.56-1.24-1.24s.56-1.24,1.24-1.24h1.87c.69,0,1.24.56,1.24,1.24s-.56,1.24-1.24,1.24Z"/><path d="M58.13,57.06h-1.87c-.69,0-1.24-.56-1.24-1.24s.56-1.24,1.24-1.24h1.87c.69,0,1.24.56,1.24,1.24s-.56,1.24-1.24,1.24Z"/><path d="M58.13,63.72h-1.87c-.69,0-1.24-.56-1.24-1.24s.56-1.24,1.24-1.24h1.87c.69,0,1.24.56,1.24,1.24s-.56,1.24-1.24,1.24Z"/><path d="M64.64,50.41h-1.87c-.69,0-1.24-.56-1.24-1.24s.56-1.24,1.24-1.24h1.87c.69,0,1.24.56,1.24,1.24s-.56,1.24-1.24,1.24Z"/><path d="M64.64,57.06h-1.87c-.69,0-1.24-.56-1.24-1.24s.56-1.24,1.24-1.24h1.87c.69,0,1.24.56,1.24,1.24s-.56,1.24-1.24,1.24Z"/><path d="M64.64,63.72h-1.87c-.69,0-1.24-.56-1.24-1.24s.56-1.24,1.24-1.24h1.87c.69,0,1.24.56,1.24,1.24s-.56,1.24-1.24,1.24Z"/><polygon points="20.13 12.89 9.48 12.89 9.48 15.53 13.2 15.53 13.2 26.75 16.35 26.75 16.35 15.53 20.13 15.53 20.13 12.89 20.13 12.89"/><path d="M29.3,12.89h-4.11l-4.23,13.86h3.25l.99-3.56h3.97l1.07,3.56h3.37l-4.3-13.86h0ZM25.64,20.85l.82-2.94c.23-.8.43-1.85.64-2.67h.04c.21.82.45,1.85.7,2.67l.86,2.94h-3.06Z"/><path d="M47.31,12.89h-3.58l-1.17,2.53c-.35.8-.62,1.42-.95,2.3h-.04c-.33-.78-.64-1.46-1.05-2.3l-1.21-2.53h-3.6l3.86,6.85-4.01,7.01h3.58l1.15-2.51c.43-.97.78-1.69,1.07-2.49h.04c.39.8.72,1.52,1.23,2.49l1.25,2.51h3.62l-4.11-7.09,3.91-6.76h0Z"/></g></svg>