<?xml version="1.0" encoding="UTF-8"?><svg id="Layer_2" xmlns="http://www.w3.org/2000/svg" viewBox="0 0 72 72"><g id="Layer_1-2"><g id="Icon_63"><path d="M36.4,53.86c.76,0,1.53-.04,2.29-.13,11.71-1.32,20.18-11.86,18.88-23.51-.04-.39-.1-.8-.16-1.2-.16-.97-1.07-1.63-2.04-1.47-.97.16-1.63,1.07-1.47,2.04.05.33.1.67.13,1.01,1.09,9.71-5.97,18.49-15.74,19.59-4.6.52-9.33-.87-12.99-3.81-3.7-2.97-6.02-7.22-6.53-11.98-1.03-9.61,6.01-18.36,15.69-19.49,3.7-.43,7.39.31,10.66,2.16.86.48,1.94.18,2.42-.68.48-.86.18-1.94-.68-2.43-3.93-2.22-8.37-3.12-12.82-2.6-11.61,1.36-20.05,11.86-18.81,23.41.61,5.7,3.4,10.81,7.84,14.37,3.79,3.04,8.54,4.7,13.32,4.7Z"/><path d="M21,47.24L1.35,64.9c-1.67,1.5-1.81,4.08-.31,5.75s4.07,1.81,5.75.31c.11-.1.21-.2.3-.3l17.68-19.63c2.18-2.58-1.19-5.94-3.77-3.78h0Z"/><path d="M44.76,31.2c.48,0,.95-.19,1.31-.57l20.12-21.71c.67-.72.63-1.85-.09-2.52-.72-.67-1.85-.63-2.51.09l-20.12,21.71c-.67.72-.63,1.85.09,2.52.34.32.78.48,1.21.48Z"/><path d="M22.95,32.49c.4,0,.81-.14,1.14-.42l6.03-5.08c.75-.63.85-1.76.22-2.51-.63-.75-1.75-.85-2.51-.22l-6.03,5.08c-.75.63-.85,1.76-.22,2.51.35.42.86.63,1.36.63Z"/><path d="M8.63,43.67c.39,0,.79-.13,1.12-.4l3.13-2.54c.76-.62.88-1.74.26-2.5-.62-.76-1.74-.88-2.5-.26l-3.13,2.54c-.76.62-.88,1.74-.26,2.5.35.43.87.66,1.38.66Z"/><path d="M.05,44.59c0-2.79,2.27-5.06,5.05-5.06s5.05,2.27,5.05,5.06-2.27,5.06-5.05,5.06S.05,47.38.05,44.59ZM3.61,44.59c0,.82.67,1.49,1.49,1.49s1.49-.67,1.49-1.49-.67-1.49-1.49-1.49-1.49.67-1.49,1.49Z"/><path d="M27.2,23.2c0-2.79,2.27-5.06,5.05-5.06s5.05,2.27,5.05,5.06-2.27,5.06-5.05,5.06-5.05-2.27-5.05-5.06ZM30.76,23.2c0,.82.67,1.49,1.49,1.49s1.49-.67,1.49-1.49-.67-1.49-1.49-1.49-1.49.67-1.49,1.49Z"/><path d="M37.38,32.39c0-2.79,2.27-5.06,5.05-5.06s5.05,2.27,5.05,5.06-2.27,5.06-5.05,5.06-5.05-2.27-5.05-5.06ZM40.94,32.39c0,.82.67,1.49,1.49,1.49s1.49-.67,1.49-1.49-.67-1.49-1.49-1.49-1.49.67-1.49,1.49Z"/><path d="M61.9,5.06c0-2.79,2.27-5.06,5.05-5.06s5.05,2.27,5.05,5.06-2.27,5.06-5.05,5.06-5.05-2.27-5.05-5.06ZM65.46,5.06c0,.82.67,1.49,1.49,1.49s1.49-.67,1.49-1.49-.67-1.49-1.49-1.49-1.49.67-1.49,1.49Z"/><path d="M38.5,31.79c.46,0,.91-.18,1.26-.53.69-.7.69-1.82,0-2.52l-2.21-2.2-1.61-1.76c-.66-.73-1.79-.78-2.51-.11-.73.66-.78,1.79-.11,2.52l1.69,1.85,2.24,2.23c.35.35.8.52,1.25.52Z"/></g></g></svg>