<?xml version="1.0" encoding="UTF-8"?><svg id="Layer_2" xmlns="http://www.w3.org/2000/svg" viewBox="0 0 72 72"><g id="Layer_1-2"><path d="M54.99,45.59c-.62,0-1.22-.33-1.54-.9-.48-.85-.17-1.93.68-2.4,6.53-3.66,10.59-10.58,10.59-18.07,0-11.41-9.27-20.69-20.67-20.69s-20.67,9.28-20.67,20.69c0,3.23.72,6.32,2.14,9.19.43.87.08,1.93-.8,2.37-.87.43-1.93.08-2.37-.8-1.67-3.36-2.51-6.98-2.51-10.76C19.85,10.87,30.7,0,44.05,0s24.2,10.87,24.2,24.22c0,8.76-4.75,16.87-12.4,21.15-.27.15-.57.23-.86.23Z"/><path d="M44.59,11.05c-.57,0-.85.38-.85,1.14v1.43c-1.87.16-3.29.74-4.28,1.73-.99.99-1.48,2.26-1.48,3.82,0,1.19.25,2.17.76,2.92.5.76,1.16,1.34,1.97,1.75.81.41,1.82.78,3.03,1.12v6.29c-.6-.17-1.09-.42-1.45-.74-.37-.32-.64-.68-.82-1.08-.18-.39-.39-.96-.64-1.7-.11-.34-.3-.61-.58-.8-.28-.19-.62-.28-1.03-.28-.5,0-.93.17-1.26.52-.34.35-.51.74-.51,1.17,0,.59.13,1.18.38,1.79.25.61.64,1.2,1.17,1.76.53.56,1.19,1.04,1.97,1.41.79.38,1.71.63,2.77.74v3.65c0,.41.07.72.2.92.13.2.36.3.68.3.35,0,.58-.12.68-.37.1-.24.16-.63.16-1.16v-3.37c1.29-.11,2.4-.45,3.34-1.02.94-.57,1.65-1.3,2.13-2.2.48-.9.72-1.86.72-2.89,0-.82-.15-1.58-.45-2.27-.3-.69-.73-1.28-1.29-1.78-.52-.48-1.12-.84-1.78-1.1-.66-.25-1.55-.53-2.67-.84v-5.63c1.14.37,1.85,1.12,2.15,2.25.26.96.83,1.43,1.72,1.43.47,0,.87-.16,1.2-.49.33-.33.49-.72.49-1.17,0-.41-.11-.85-.33-1.34-.22-.49-.53-.96-.94-1.42-.51-.6-1.12-1.06-1.81-1.35-.69-.3-1.52-.5-2.48-.6v-1.46c0-.74-.29-1.11-.87-1.11h0ZM43.74,21.44c-.81-.3-1.42-.63-1.81-.99-.4-.37-.59-.9-.59-1.62,0-.75.21-1.31.64-1.68.42-.37,1.01-.67,1.77-.89v5.18h0ZM45.46,31.39v-5.93c.94.3,1.65.66,2.13,1.09.48.43.72,1.04.72,1.82,0,.73-.25,1.37-.74,1.92-.5.55-1.2.92-2.11,1.1h0Z"/><path d="M12.55,72L0,48.53l10.27-5.5c1.25-.67,2.68-.81,4.03-.4,1.35.41,2.47,1.32,3.13,2.57l7.55,14.12c1.38,2.58.4,5.8-2.17,7.17l-10.27,5.5ZM4.78,49.98l9.22,17.24,7.15-3.83c.86-.46,1.18-1.53.72-2.39l-7.55-14.12c-.46-.86-1.53-1.18-2.39-.72l-7.15,3.83Z"/><path d="M15.99,48.01c-.34,0-.69-.1-1-.31-.8-.55-1.01-1.65-.46-2.46,2.93-4.29,8.5-6.47,14.19-5.55,3.43.55,6.55,2.18,8.79,4.59.66.71.62,1.83-.09,2.5-.71.66-1.83.62-2.49-.09-1.71-1.84-4.11-3.09-6.77-3.51-4.35-.7-8.55.89-10.72,4.06-.34.5-.9.77-1.46.77Z"/><path d="M49.55,58.92c-.54,0-1.07-.08-1.6-.24l-11.33-3.44c-.93-.28-1.46-1.27-1.18-2.2.28-.93,1.27-1.46,2.2-1.18l11.33,3.44c.5.15,1.03.1,1.5-.15.47-.25.8-.66.96-1.17.31-1.04-.28-2.14-1.31-2.45l-14.03-4.25c-.08-.02-.15-.04-.23-.06-.95-.2-1.57-1.14-1.37-2.09.2-.95,1.13-1.57,2.09-1.37.19.04.36.08.53.13l14.03,4.25c2.9.88,4.55,3.96,3.67,6.86-.43,1.41-1.38,2.57-2.67,3.26-.81.43-1.69.65-2.58.65Z"/><path d="M49.83,66.9c-.53,0-1.07-.08-1.59-.24l-15.48-4.69c-1.55-.47-3.19-.53-4.77-.17l-2.48.56c-.95.22-1.9-.38-2.11-1.33-.22-.95.38-1.9,1.33-2.11l2.48-.56c2.17-.49,4.44-.41,6.57.23l15.48,4.69c.56.17,1.15.08,1.63-.24l16.71-11.2c.36-.25.63-.62.77-1.07.18-.59.08-1.22-.26-1.73-.58-.86-1.71-1.12-2.62-.61l-10.84,6.14c-.85.48-1.93.18-2.41-.67-.48-.85-.18-1.93.67-2.41l10.84-6.14c2.52-1.43,5.65-.7,7.28,1.7.95,1.4,1.21,3.13.72,4.74-.36,1.2-1.13,2.26-2.16,2.97l-16.73,11.22c-.91.61-1.97.93-3.03.93Z"/><path d="M11.57,52.69c-.19,0-.39-.03-.58-.09-1.05-.32-1.65-1.44-1.33-2.49h0c.32-1.05,1.43-1.65,2.49-1.33.51.15.93.5,1.18.97.25.47.3,1.01.15,1.52-.15.51-.5.93-.97,1.18-.29.16-.61.24-.94.24ZM11.57,49.16c-.25,0-.5.06-.73.18-.36.19-.63.52-.75.91-.12.38-.07.81.12,1.17.19.36.52.63.91.75.81.24,1.67-.21,1.91-1.03l-1.69-.51,1.69.51c.25-.81-.21-1.67-1.02-1.92-.14-.04-.29-.07-.44-.07Z"/></g></svg>