<?xml version="1.0" encoding="UTF-8"?><svg id="Layer_2" xmlns="http://www.w3.org/2000/svg" viewBox="0 0 72 72"><g id="Layer_1-2"><g id="Icon_47"><path d="M36.57,64.06H4.28c-2.36,0-4.28-1.92-4.28-4.29V4.29C0,1.92,1.92,0,4.28,0h42.34c2.36,0,4.28,1.92,4.28,4.29v27.26c0,.99-.8,1.78-1.78,1.78h0c-.98,0-1.78-.8-1.78-1.78V4.29c0-.4-.32-.72-.72-.72H4.28c-.4,0-.72.32-.72.72v55.48c0,.4.32.72.72.72h32.29c.98,0,1.78.8,1.78,1.78s-.8,1.78-1.78,1.78Z"/><path d="M39.06,38.12H10.66c-.98,0-1.78-.8-1.78-1.78s.8-1.78,1.78-1.78h28.4c.98,0,1.78.8,1.78,1.78s-.8,1.78-1.78,1.78Z"/><path d="M33.29,46.19H10.66c-.98,0-1.78-.8-1.78-1.78s.8-1.78,1.78-1.78h22.64c.98,0,1.78.8,1.78,1.78s-.8,1.78-1.78,1.78Z"/><path d="M31.67,54.58H10.66c-.98,0-1.78-.8-1.78-1.78s.8-1.78,1.78-1.78h21.01c.98,0,1.78.8,1.78,1.78s-.8,1.78-1.78,1.78Z"/><path d="M53.15,66.05c-7.52,0-13.99-5.7-14.75-13.31-.42-3.94.73-7.81,3.24-10.89,2.52-3.09,6.07-5,9.99-5.38,8.08-.77,15.34,5.14,16.18,13.18.42,3.97-.73,7.85-3.23,10.93-2.47,3.04-6.09,5-9.94,5.39-.5.05-1,.07-1.5.07ZM53.06,39.98c-.36,0-.72.02-1.08.05-2.97.28-5.66,1.73-7.57,4.08-1.9,2.34-2.78,5.27-2.46,8.26h0c.61,6.17,6.15,10.68,12.35,10.06,2.91-.29,5.66-1.78,7.53-4.09,1.9-2.34,2.77-5.28,2.45-8.3-.6-5.74-5.52-10.05-11.23-10.05Z"/><path d="M69.33,72c-.7,0-1.4-.27-1.92-.82l-6.83-7.1c-1.02-1.06-.99-2.76.07-3.78,1.06-1.03,2.75-.99,3.77.07l6.83,7.1c1.02,1.06.99,2.76-.07,3.78-.52.5-1.19.75-1.85.75Z"/><path d="M53.24,43.83c-.32,0-.48.21-.48.64v.8c-1.04.09-1.84.41-2.39.97-.55.56-.83,1.27-.83,2.14,0,.67.14,1.21.42,1.64.28.42.65.75,1.1.98.45.23,1.02.44,1.69.62v3.52c-.34-.1-.61-.23-.81-.42-.2-.18-.36-.38-.46-.6-.1-.22-.22-.54-.35-.95-.06-.19-.17-.34-.32-.45-.16-.11-.35-.16-.57-.16-.28,0-.52.1-.71.29-.19.19-.28.41-.28.65,0,.33.07.66.21,1,.14.34.36.67.65.98.29.32.66.58,1.1.79.44.21.96.35,1.54.42v1.17c0,.23.04.4.11.51.07.11.2.17.38.17.2,0,.32-.07.38-.2.06-.14.09-.35.09-.65v-1.02c.72-.06,1.34-.25,1.87-.57s.92-.73,1.19-1.23c.27-.5.4-1.04.4-1.62,0-.46-.08-.88-.25-1.27-.17-.39-.41-.72-.72-1-.29-.27-.62-.47-.99-.61s-.87-.3-1.49-.47v-3.15c.63.21,1.03.63,1.2,1.26.15.54.47.8.96.8.26,0,.48-.09.67-.28.18-.18.28-.4.28-.65,0-.23-.06-.48-.19-.75-.12-.27-.3-.54-.52-.8-.29-.34-.62-.59-1.01-.76-.39-.17-.85-.28-1.39-.33v-.82c0-.41-.16-.62-.48-.62h0ZM52.77,49.65c-.45-.17-.79-.35-1.01-.56-.22-.2-.33-.51-.33-.9,0-.42.12-.73.35-.94.24-.21.57-.37.99-.5v2.9h0ZM53.73,55.21v-3.32c.52.17.92.37,1.19.61.27.24.4.58.4,1.02,0,.41-.14.77-.42,1.08-.28.31-.67.51-1.18.61h0Z"/><g id="Icon_65"><rect x="15.05" y="18.6" width="3.56" height="8.84"/><rect x="20.83" y="13.81" width="3.56" height="13.64"/><rect x="26.6" y="16.2" width="3.56" height="11.24"/><rect x="32.37" y="10.63" width="3.56" height="16.81"/><path d="M37.55,27.78H13.67c-.69,0-1.25-.56-1.25-1.25s.56-1.25,1.25-1.25h23.89c.69,0,1.25.56,1.25,1.25s-.56,1.25-1.25,1.25Z"/></g></g></g></svg>