<?xml version="1.0" encoding="UTF-8"?><svg id="Layer_2" xmlns="http://www.w3.org/2000/svg" viewBox="0 0 72 72"><g id="Layer_1-2"><path d="M30.72,71.26c-3.84,0-7.57-.67-11.1-2-2.47-.93-4.56-1.54-6.69-1.45-.98.04-1.81-.72-1.85-1.71-.04-.98.72-1.81,1.71-1.85,2.89-.11,5.6.74,8.09,1.68,3.78,1.42,7.64,1.98,11.81,1.71,1.56-.1,3.02-.91,4.57-1.76.4-.22.8-.44,1.2-.65,2.95-1.54,5.97-3.06,8.89-4.53,1.28-.65,2.57-1.29,3.85-1.94.51-.26.96-.5,1.31-.83.25-.24,1.05-1.07.62-1.79-.47-.79-1.2-1-2.17-.6-1.98.81-3.84,1.83-5.8,2.9-1.1.6-2.23,1.22-3.38,1.79l-.17.09c-.84.42-1.88.95-3.22.86-.98-.07-1.72-.92-1.65-1.9s.92-1.72,1.9-1.65c.35.03.74-.17,1.37-.48l.18-.09c1.09-.55,2.2-1.15,3.27-1.74,1.96-1.07,4-2.18,6.16-3.07,2.61-1.07,5.19-.26,6.58,2.07,1.17,1.96.68,4.39-1.24,6.2-.7.65-1.44,1.06-2.14,1.41-1.28.65-2.57,1.3-3.86,1.95-2.91,1.46-5.91,2.98-8.84,4.51-.38.2-.75.4-1.12.61-1.74.96-3.7,2.04-6.05,2.2-.74.05-1.47.07-2.2.07Z"/><path d="M10.47,72c-.11,0-.21,0-.28,0-1.69-.06-5.23-.04-6.83,0-.7.02-1.72-.05-2.5-.82C.28,70.62,0,69.84,0,68.87c.02-6.51.02-13.14,0-19.32,0-.96.28-1.73.85-2.29.56-.56,1.32-.83,2.29-.82,1.57.02,4.37.01,6.41,0h1.08s0,0,0,0c1.07,0,1.92.33,2.51.97.59.64.86,1.51.79,2.58,0,.97-.06,14.08.01,18.29,0,.46.03,1.85-.95,2.82-.83.81-1.93.91-2.53.91ZM7.04,68.4c1.23,0,2.44.01,3.27.04.03,0,.06,0,.09,0,0-.03,0-.07,0-.1-.08-4.22-.02-17.2-.01-18.34h-.83c-1.86,0-4.35.01-5.99,0,.01,5.92.02,12.22,0,18.44.9-.02,2.2-.03,3.48-.03Z"/><path d="M31.47,63.64c-.82,0-1.64,0-2.47,0h-2.46c-.98,0-1.78-.8-1.78-1.78s.8-1.78,1.78-1.78h2.47c1.96,0,3.93,0,5.89,0,.77,0,1.53-.61,1.64-.89-.04-1.12-.76-1.97-1.68-1.99-.71-.02-1.45-.01-2.16,0-.6,0-1.21,0-1.81,0-3.92-.05-8.09-.33-12.08-2.03-1.79-.76-3.75-.82-5.94-.81h0c-.98,0-1.77-.79-1.78-1.77,0-.98.79-1.78,1.77-1.79,2.51-.01,4.94.06,7.35,1.09,3.41,1.46,7.17,1.7,10.72,1.75.58,0,1.16,0,1.75,0,.74,0,1.5,0,2.26,0,2.84.06,5.1,2.49,5.16,5.53.02.96-.41,1.94-1.21,2.76-1.03,1.05-2.56,1.7-3.99,1.71-1.14,0-2.29,0-3.43,0Z"/><path d="M7.43,56.24c-.98,0-1.78-.8-1.78-1.78v-1.15c0-.98.8-1.78,1.78-1.78s1.78.8,1.78,1.78v1.15c0,.98-.8,1.78-1.78,1.78Z"/><path d="M30.57,8.09c-.65,0-1.27-.35-1.58-.97-.45-.87-.1-1.95.77-2.39.72-.37,1.43-.74,2.15-1.11.37-.19.74-.4,1.12-.61,1.74-.96,3.71-2.05,6.06-2.2,4.62-.31,9.09.34,13.3,1.93,1.99.75,4.33,1.54,6.69,1.45.98-.04,1.81.73,1.85,1.71.04.98-.73,1.81-1.71,1.85-3.03.12-5.76-.8-8.09-1.67-3.78-1.43-7.64-1.99-11.81-1.71-1.56.1-3.02.91-4.57,1.77-.4.22-.79.44-1.19.65-.73.38-1.45.75-2.17,1.12-.26.13-.54.2-.81.2Z"/><path d="M25.22,43.68c-11.01,0-19.97-8.96-19.97-19.97S14.21,3.73,25.22,3.73c2,0,3.97.3,5.87.88,2.77.85,5.27,2.26,7.44,4.2.73.66.79,1.78.14,2.51s-1.78.79-2.51.14c-1.78-1.59-3.84-2.76-6.11-3.45-1.56-.48-3.18-.72-4.82-.72-9.05,0-16.41,7.36-16.41,16.42s7.36,16.42,16.41,16.42,16.41-7.36,16.41-16.42c0-2.23-.44-4.38-1.3-6.41-.38-.9.04-1.95.94-2.33.9-.38,1.95.04,2.33.94,1.05,2.47,1.58,5.09,1.58,7.8,0,11.01-8.96,19.97-19.97,19.97Z"/><path d="M25.66,13.03c-.46,0-.69.31-.69.92v1.16c-1.51.13-2.67.6-3.47,1.4-.8.8-1.2,1.84-1.2,3.09,0,.96.2,1.75.61,2.37.41.61.94,1.09,1.6,1.42.66.33,1.48.63,2.46.9v5.1c-.49-.14-.88-.34-1.18-.6-.3-.26-.52-.55-.66-.87-.15-.32-.32-.78-.52-1.38-.09-.28-.25-.49-.47-.65-.23-.15-.5-.23-.83-.23-.41,0-.75.14-1.03.42-.27.28-.41.6-.41.95,0,.48.1.96.31,1.45.2.49.52.97.95,1.43.43.46.96.84,1.6,1.15.64.31,1.39.51,2.24.6v2.96c0,.34.05.58.16.75.11.16.29.24.55.24.28,0,.47-.1.55-.3.08-.2.13-.51.13-.94v-2.73c1.05-.09,1.95-.36,2.71-.82s1.34-1.05,1.73-1.78c.39-.73.59-1.51.59-2.34,0-.67-.12-1.28-.37-1.84-.25-.56-.59-1.04-1.05-1.44-.42-.39-.9-.68-1.44-.89-.54-.2-1.26-.43-2.17-.68v-4.56c.92.3,1.5.91,1.74,1.82.21.78.68,1.16,1.39,1.16.38,0,.7-.13.97-.4s.4-.58.4-.95c0-.33-.09-.69-.27-1.09-.18-.39-.43-.78-.76-1.15-.42-.49-.9-.86-1.46-1.1-.56-.24-1.23-.4-2.01-.48v-1.18c0-.6-.23-.9-.7-.9h0ZM24.97,21.45c-.66-.24-1.15-.51-1.47-.81-.32-.3-.48-.73-.48-1.31,0-.61.17-1.06.52-1.36.34-.3.82-.54,1.44-.72v4.2h0ZM26.36,29.52v-4.8c.76.24,1.34.54,1.73.88.39.35.59.84.59,1.48,0,.59-.2,1.11-.6,1.56-.4.45-.97.74-1.71.89h0Z"/><path d="M68.91,25.57s-.04,0-.05,0c-1.57-.02-4.37-.01-6.41,0h-1.07s0,0,0,0c-1.07,0-1.92-.33-2.51-.97-.59-.64-.86-1.51-.79-2.58,0-.97.06-14.08-.01-18.29,0-.46-.03-1.85.95-2.82C59.98-.06,61.36-.01,61.82,0c1.69.06,5.23.04,6.83,0,.7-.02,1.72.05,2.5.82.57.56.85,1.33.85,2.31-.02,6.51-.02,13.14,0,19.32,0,.96-.28,1.73-.85,2.29-.55.55-1.3.82-2.23.82ZM61.61,22.43h0,0ZM59.84,22.08h0,0ZM65.69,22c1,0,1.97,0,2.75,0-.01-5.92-.02-12.22,0-18.44-1.78.04-5.07.05-6.75,0-.03,0-.06,0-.09,0,0,.03,0,.07,0,.1.08,4.22.02,17.2.01,18.34h.83c.98,0,2.13,0,3.24,0Z"/><path d="M58.74,21.2c-2.36,0-4.67-.12-6.95-1.09-3.41-1.46-7.17-1.7-10.72-1.75-.58,0-1.16,0-1.75,0-.74,0-1.5,0-2.26,0-2.84-.06-5.1-2.49-5.16-5.53-.02-.96.41-1.94,1.21-2.76,1.03-1.05,2.56-1.7,3.99-1.71,1.96,0,3.92,0,5.88,0h2.48c.98,0,1.78.8,1.78,1.78s-.8,1.78-1.78,1.78h-2.48c-1.96,0-3.91,0-5.87,0-.77,0-1.53.61-1.64.89.04,1.12.76,1.97,1.68,1.99.71.02,1.45.01,2.16,0,.6,0,1.21,0,1.81,0,3.92.05,8.09.33,12.08,2.03,1.79.76,3.75.82,5.94.81.99,0,1.78.79,1.79,1.77,0,.98-.79,1.78-1.77,1.79-.13,0-.27,0-.4,0Z"/><path d="M64.57,20.46c-.98,0-1.78-.8-1.78-1.78v-1.15c0-.98.8-1.78,1.78-1.78s1.78.8,1.78,1.78v1.15c0,.98-.8,1.78-1.78,1.78Z"/></g></svg>