<?xml version="1.0" encoding="UTF-8"?><svg id="Layer_2" xmlns="http://www.w3.org/2000/svg" viewBox="0 0 72 72"><defs><style>.cls-1{fill:#241f20;}</style></defs><g id="Layer_1-2"><path class="cls-1" d="M51.89,71.99H19.14V17.02c0-1.87,1.52-3.39,3.39-3.39h13.49c.98,0,1.78.8,1.78,1.78s-.8,1.78-1.78,1.78h-13.32v51.25h25.64v-32.9c0-.98.8-1.78,1.78-1.78s1.78.8,1.78,1.78v36.46Z"/><path class="cls-1" d="M20.75,71.99H5.02v-35.92c0-1.92,1.15-3.63,2.92-4.36l12.13-4.99c.91-.37,1.95.06,2.32.97.37.91-.06,1.95-.97,2.32l-12.13,4.99c-.44.18-.72.6-.72,1.07v32.36h12.17c.98,0,1.78.8,1.78,1.78s-.8,1.78-1.78,1.78Z"/><path class="cls-1" d="M66.4,71.99h-15.32c-.98,0-1.78-.8-1.78-1.78s.8-1.78,1.78-1.78h11.76v-33.09c0-.98.8-1.78,1.78-1.78s1.78.8,1.78,1.78v36.65Z"/><path class="cls-1" d="M32.46,26.87h-5.27c-.69,0-1.25-.56-1.25-1.25s.56-1.25,1.25-1.25h5.27c.69,0,1.25.56,1.25,1.25s-.56,1.25-1.25,1.25Z"/><path class="cls-1" d="M40.46,26.87h-2.34c-.69,0-1.25-.56-1.25-1.25s.56-1.25,1.25-1.25h2.34c.69,0,1.25.56,1.25,1.25s-.56,1.25-1.25,1.25Z"/><path class="cls-1" d="M32.46,33.93h-5.27c-.69,0-1.25-.56-1.25-1.25s.56-1.25,1.25-1.25h5.27c.69,0,1.25.56,1.25,1.25s-.56,1.25-1.25,1.25Z"/><path class="cls-1" d="M43.39,33.93h-5.27c-.69,0-1.25-.56-1.25-1.25s.56-1.25,1.25-1.25h5.27c.69,0,1.25.56,1.25,1.25s-.56,1.25-1.25,1.25Z"/><path class="cls-1" d="M32.46,40.99h-5.27c-.69,0-1.25-.56-1.25-1.25s.56-1.25,1.25-1.25h5.27c.69,0,1.25.56,1.25,1.25s-.56,1.25-1.25,1.25Z"/><path class="cls-1" d="M43.39,40.99h-5.27c-.69,0-1.25-.56-1.25-1.25s.56-1.25,1.25-1.25h5.27c.69,0,1.25.56,1.25,1.25s-.56,1.25-1.25,1.25Z"/><path class="cls-1" d="M32.46,48.04h-5.27c-.69,0-1.25-.56-1.25-1.25s.56-1.25,1.25-1.25h5.27c.69,0,1.25.56,1.25,1.25s-.56,1.25-1.25,1.25Z"/><path class="cls-1" d="M43.39,48.04h-5.27c-.69,0-1.25-.56-1.25-1.25s.56-1.25,1.25-1.25h5.27c.69,0,1.25.56,1.25,1.25s-.56,1.25-1.25,1.25Z"/><path class="cls-1" d="M32.46,55.1h-5.27c-.69,0-1.25-.56-1.25-1.25s.56-1.25,1.25-1.25h5.27c.69,0,1.25.56,1.25,1.25s-.56,1.25-1.25,1.25Z"/><path class="cls-1" d="M43.39,55.1h-5.27c-.69,0-1.25-.56-1.25-1.25s.56-1.25,1.25-1.25h5.27c.69,0,1.25.56,1.25,1.25s-.56,1.25-1.25,1.25Z"/><path class="cls-1" d="M32.46,62.16h-5.27c-.69,0-1.25-.56-1.25-1.25s.56-1.25,1.25-1.25h5.27c.69,0,1.25.56,1.25,1.25s-.56,1.25-1.25,1.25Z"/><path class="cls-1" d="M43.39,62.16h-5.27c-.69,0-1.25-.56-1.25-1.25s.56-1.25,1.25-1.25h5.27c.69,0,1.25.56,1.25,1.25s-.56,1.25-1.25,1.25Z"/><path class="cls-1" d="M59.52,40.99h-3.98c-.69,0-1.25-.56-1.25-1.25s.56-1.25,1.25-1.25h3.98c.69,0,1.25.56,1.25,1.25s-.56,1.25-1.25,1.25Z"/><path class="cls-1" d="M59.52,48.04h-3.98c-.69,0-1.25-.56-1.25-1.25s.56-1.25,1.25-1.25h3.98c.69,0,1.25.56,1.25,1.25s-.56,1.25-1.25,1.25Z"/><path class="cls-1" d="M59.52,55.1h-3.98c-.69,0-1.25-.56-1.25-1.25s.56-1.25,1.25-1.25h3.98c.69,0,1.25.56,1.25,1.25s-.56,1.25-1.25,1.25Z"/><path class="cls-1" d="M59.52,62.16h-3.98c-.69,0-1.25-.56-1.25-1.25s.56-1.25,1.25-1.25h3.98c.69,0,1.25.56,1.25,1.25s-.56,1.25-1.25,1.25Z"/><path class="cls-1" d="M15.88,40.99h-3.98c-.69,0-1.25-.56-1.25-1.25s.56-1.25,1.25-1.25h3.98c.69,0,1.25.56,1.25,1.25s-.56,1.25-1.25,1.25Z"/><path class="cls-1" d="M15.88,48.04h-3.98c-.69,0-1.25-.56-1.25-1.25s.56-1.25,1.25-1.25h3.98c.69,0,1.25.56,1.25,1.25s-.56,1.25-1.25,1.25Z"/><path class="cls-1" d="M15.88,55.1h-3.98c-.69,0-1.25-.56-1.25-1.25s.56-1.25,1.25-1.25h3.98c.69,0,1.25.56,1.25,1.25s-.56,1.25-1.25,1.25Z"/><path class="cls-1" d="M15.88,62.16h-3.98c-.69,0-1.25-.56-1.25-1.25s.56-1.25,1.25-1.25h3.98c.69,0,1.25.56,1.25,1.25s-.56,1.25-1.25,1.25Z"/><path class="cls-1" d="M15.72,72H1.78c-.98,0-1.78-.8-1.78-1.78s.8-1.78,1.78-1.78h13.95c.98,0,1.78.8,1.78,1.78s-.8,1.78-1.78,1.78Z"/><path class="cls-1" d="M70.22,72h-13.95c-.98,0-1.78-.8-1.78-1.78s.8-1.78,1.78-1.78h13.95c.98,0,1.78.8,1.78,1.78s-.8,1.78-1.78,1.78Z"/><path class="cls-1" d="M56.5,30.99c-8.54,0-15.5-6.95-15.5-15.49S47.96,0,56.5,0s15.5,6.95,15.5,15.49-6.95,15.49-15.5,15.49ZM56.5,3.56c-6.58,0-11.94,5.35-11.94,11.94s5.36,11.94,11.94,11.94,11.94-5.35,11.94-11.94-5.36-11.94-11.94-11.94Z"/><path class="cls-1" d="M56.83,7.45c-.35,0-.52.23-.52.69v.88c-1.14.1-2.01.45-2.62,1.06-.6.61-.91,1.38-.91,2.33,0,.73.15,1.32.46,1.79.31.46.71.82,1.21,1.07.5.25,1.11.48,1.85.68v3.84c-.37-.1-.67-.26-.89-.45-.22-.2-.39-.42-.5-.66-.11-.24-.24-.59-.39-1.04-.07-.21-.18-.37-.36-.49-.17-.12-.38-.17-.63-.17-.31,0-.57.11-.77.32-.21.21-.31.45-.31.72,0,.36.08.72.23,1.1.15.37.39.73.72,1.07.32.34.72.63,1.21.86.48.23,1.05.38,1.69.45v2.23c0,.25.04.44.12.56.08.12.22.18.42.18.21,0,.35-.07.42-.22s.1-.39.1-.71v-2.06c.79-.07,1.47-.27,2.04-.62.57-.35,1.01-.79,1.3-1.34.29-.55.44-1.14.44-1.77,0-.5-.09-.96-.28-1.38-.18-.42-.45-.78-.79-1.09-.32-.29-.68-.52-1.09-.67-.41-.15-.95-.33-1.63-.51v-3.44c.69.23,1.13.68,1.31,1.37.16.58.51.88,1.05.88.29,0,.53-.1.73-.3.2-.2.3-.44.3-.72,0-.25-.07-.52-.2-.82-.14-.3-.33-.59-.57-.87-.31-.37-.68-.64-1.1-.83-.42-.18-.93-.3-1.52-.36v-.89c0-.45-.18-.68-.53-.68h0ZM56.31,13.8c-.5-.18-.87-.38-1.11-.61-.24-.22-.36-.55-.36-.99,0-.46.13-.8.39-1.03.26-.23.62-.41,1.08-.55v3.17h0ZM57.36,19.87v-3.62c.57.18,1.01.4,1.3.67.29.26.44.63.44,1.11,0,.45-.15.84-.45,1.17-.3.34-.73.56-1.29.67h0Z"/></g></svg>