<?xml version="1.0" encoding="UTF-8"?><svg id="Layer_2" xmlns="http://www.w3.org/2000/svg" viewBox="0 0 72 72"><g id="Layer_1-2"><g id="Icon_19"><path d="M52.38,39c-.69,0-1.25-.56-1.25-1.25v-2.99c0-.69.56-1.25,1.25-1.25s1.25.56,1.25,1.25v2.99c0,.69-.56,1.25-1.25,1.25Z"/><path d="M37.74,53.63h-2.99c-.69,0-1.25-.56-1.25-1.25s.56-1.25,1.25-1.25h2.99c.69,0,1.25.56,1.25,1.25s-.56,1.25-1.25,1.25Z"/><path d="M52.38,71.25c-.69,0-1.25-.56-1.25-1.25v-2.99c0-.69.56-1.25,1.25-1.25s1.25.56,1.25,1.25v2.99c0,.69-.56,1.25-1.25,1.25Z"/><path d="M70,53.63h-2.99c-.69,0-1.25-.56-1.25-1.25s.56-1.25,1.25-1.25h2.99c.69,0,1.25.56,1.25,1.25s-.56,1.25-1.25,1.25Z"/><path d="M52.38,72c-5.24,0-10.17-2.04-13.87-5.75-3.71-3.7-5.75-8.63-5.75-13.87s2.04-10.16,5.75-13.87c1.4-1.4,3-2.58,4.74-3.5,1.24-.65,2.41-1.07,2.86-1.22.56-.19,1.14-.36,1.72-.49.21-.05,5.31-1.23,10.4.35h0c.76.23,1.47.52,1.51.54.02,0,.55.22,1.07.47,2.02.96,3.85,2.25,5.45,3.85,3.71,3.71,5.75,8.63,5.75,13.87s-2.04,10.16-5.75,13.87c-3.71,3.7-8.63,5.75-13.87,5.75ZM52.46,36.4c-2.18,0-3.79.36-3.82.37-.47.11-.94.25-1.4.4-.28.1-1.29.45-2.34,1-1.43.75-2.73,1.71-3.88,2.86-3.03,3.03-4.7,7.06-4.7,11.35s1.67,8.32,4.7,11.35c3.03,3.03,7.07,4.7,11.35,4.7s8.32-1.67,11.35-4.7c3.03-3.03,4.7-7.06,4.7-11.35s-1.67-8.32-4.7-11.35c-1.31-1.31-2.81-2.37-4.46-3.15-.42-.2-.87-.38-.87-.38,0,0-.62-.25-1.23-.44h0c-1.63-.51-3.29-.66-4.71-.66Z"/><path d="M15.42,67.24H6.13c-.98,0-1.78-.8-1.78-1.78v-33.36l-2.62-.06c-.69-.02-1.31-.44-1.59-1.07s-.16-1.38.31-1.89l8.24-9.2c.56-.62,1.29-.97,2.08-.97s1.52.34,2.08.97l8.26,9.23c.46.52.58,1.26.31,1.9s-.9,1.06-1.6,1.07l-2.61.05v33.35c0,.98-.8,1.78-1.78,1.78ZM7.91,63.67h5.73V30.36c0-.97.78-1.76,1.75-1.78h.47s-5.09-5.7-5.09-5.7l-5.09,5.69h.5c.97.04,1.74.83,1.74,1.79v33.32Z"/><path d="M31.31,67.24h-2.85c-.98,0-1.78-.8-1.78-1.78V21.61l-2.62-.06c-.69-.02-1.31-.44-1.59-1.07-.28-.64-.16-1.38.31-1.89l8.24-9.2c.56-.62,1.29-.97,2.08-.97s1.52.34,2.08.97l8.26,9.23c.46.52.58,1.26.31,1.9-.28.64-.9,1.06-1.6,1.07l-2.61.05v10.03c0,.98-.8,1.78-1.78,1.78s-1.78-.8-1.78-1.78v-11.77c0-.97.78-1.76,1.75-1.78h.47s-5.09-5.7-5.09-5.7l-5.09,5.69h.5c.97.04,1.74.83,1.74,1.79v43.8h1.07c.98,0,1.78.8,1.78,1.78s-.8,1.78-1.78,1.78Z"/><path d="M61.57,31.74c-.98,0-1.78-.8-1.78-1.78V11.46c0-.97.78-1.76,1.75-1.78h.47s-5.09-5.7-5.09-5.7l-5.09,5.69h.5c.97.04,1.74.83,1.74,1.79v16.58c0,.98-.8,1.78-1.78,1.78s-1.78-.8-1.78-1.78v-14.84l-2.62-.06c-.69-.02-1.31-.44-1.59-1.07-.28-.64-.16-1.38.31-1.89L54.84.97c.56-.62,1.29-.97,2.08-.97s1.52.34,2.08.96l8.26,9.23c.46.52.58,1.26.31,1.9s-.9,1.06-1.6,1.07l-2.61.05v16.75c0,.98-.8,1.78-1.78,1.78Z"/><path d="M50.74,53.63l-4.88-6.16c-.9-1.16.6-2.64,1.75-1.74,0,0,6.16,4.88,6.16,4.88.93.74,1.09,2.09.35,3.02-.84,1.08-2.54,1.08-3.37,0h0Z"/><path d="M51.1,50.61l8.85-7.71c1.26-1.06,2.95.63,1.89,1.89,0,0-7.71,8.85-7.71,8.85-2.09,2.19-5.21-.92-3.02-3.02h0Z"/></g></g></svg>