<?xml version="1.0" encoding="UTF-8"?><svg id="Layer_2" xmlns="http://www.w3.org/2000/svg" viewBox="0 0 68.73 71.97"><g id="Layer_1-2"><path d="M15.83,70.09c-1.04,0-1.88-.84-1.88-1.88V18.2c0-1.04.84-1.88,1.88-1.88s1.88.84,1.88,1.88v50.01c0,1.04-.84,1.88-1.88,1.88Z"/><path d="M66.85,67.32c-1.04,0-1.88-.84-1.88-1.88V6.25c0-1.37-1.2-2.49-2.68-2.49H10.62c-1.04,0-1.88-.84-1.88-1.88s.84-1.88,1.88-1.88h51.67c3.55,0,6.44,2.8,6.44,6.25v59.18c0,1.04-.84,1.88-1.88,1.88Z"/><path d="M47.32,71.97c-.38,0-.76-.11-1.08-.34l-4.11-2.88-5.03,2.9c-.64.37-1.45.33-2.05-.11l-3.99-2.92-4.98,2.87c-.66.38-1.49.33-2.09-.14l-3.82-2.96-3.18,1.84c-.9.52-2.05.21-2.57-.69-.52-.9-.21-2.05.69-2.57l4.27-2.47c.66-.38,1.49-.33,2.09.14l3.82,2.96,4.94-2.85c.64-.37,1.45-.33,2.05.11l3.99,2.92,5-2.89c.63-.37,1.42-.33,2.02.09l4.11,2.88,5.65-3.26c.65-.38,1.46-.33,2.06.12l3.93,2.93,5.48-3.16c.9-.52,2.05-.21,2.57.69.52.9.21,2.05-.69,2.57l-6.55,3.78c-.65.38-1.46.33-2.06-.12l-3.93-2.93-5.61,3.24c-.29.17-.62.25-.94.25Z"/><path d="M17.71,22.7H6.44c-3.55,0-6.44-2.89-6.44-6.44v-4.99C0,5.05,5.05,0,11.26,0c3.55,0,6.44,2.89,6.44,6.44v16.25ZM11.26,3.76c-4.14,0-7.5,3.36-7.5,7.5v4.99c0,1.48,1.2,2.68,2.68,2.68h7.5V6.44c0-1.48-1.2-2.68-2.68-2.68Z"/><path d="M55.7,35.93h-9.98c-1.04,0-1.88-.84-1.88-1.88s.84-1.88,1.88-1.88h9.98c1.04,0,1.88.84,1.88,1.88s-.84,1.88-1.88,1.88Z"/><path d="M55.99,25.86h-27.01c-1.04,0-1.88-.84-1.88-1.88s.84-1.88,1.88-1.88h27.01c1.04,0,1.88.84,1.88,1.88s-.84,1.88-1.88,1.88Z"/><path d="M55.99,15.79h-27.01c-1.04,0-1.88-.84-1.88-1.88s.84-1.88,1.88-1.88h27.01c1.04,0,1.88.84,1.88,1.88s-.84,1.88-1.88,1.88Z"/><path d="M40.02,41.41c-.37,0-.55.24-.55.73v.93c-1.21.1-2.13.48-2.77,1.12-.64.64-.96,1.46-.96,2.46,0,.77.16,1.4.49,1.89.33.49.75.87,1.28,1.13.52.27,1.18.51,1.96.72v4.06c-.39-.11-.7-.27-.94-.48-.24-.21-.41-.44-.53-.69-.12-.25-.25-.62-.41-1.1-.07-.22-.2-.39-.38-.52-.18-.12-.4-.18-.66-.18-.33,0-.6.11-.82.34-.22.22-.33.48-.33.76,0,.38.08.76.24,1.16.16.39.42.77.76,1.14.34.36.77.67,1.28.91.51.24,1.11.41,1.79.48v2.36c0,.27.04.47.13.59.08.13.23.19.44.19.23,0,.37-.08.44-.24.07-.16.1-.41.1-.75v-2.18c.83-.07,1.55-.29,2.16-.66s1.06-.84,1.38-1.42c.31-.58.47-1.2.47-1.87,0-.53-.1-1.02-.29-1.46-.2-.45-.47-.83-.83-1.15-.34-.31-.72-.54-1.15-.71-.43-.16-1-.34-1.73-.54v-3.64c.73.24,1.2.72,1.39,1.45.17.62.54.93,1.11.93.3,0,.56-.11.77-.32.21-.21.32-.46.32-.76,0-.26-.07-.55-.21-.87-.14-.31-.35-.62-.61-.92-.33-.39-.72-.68-1.17-.87-.45-.19-.98-.32-1.6-.38v-.94c0-.48-.19-.72-.56-.72h0ZM39.47,48.12c-.52-.19-.91-.41-1.17-.64-.26-.24-.38-.58-.38-1.04,0-.48.14-.84.41-1.08.27-.24.66-.43,1.15-.58v3.35h0ZM40.58,54.55v-3.83c.61.19,1.06.43,1.38.7.31.28.47.67.47,1.18,0,.47-.16.89-.48,1.24-.32.36-.78.59-1.36.71h0Z"/></g></svg>