<?xml version="1.0" encoding="UTF-8"?><svg id="Layer_2" xmlns="http://www.w3.org/2000/svg" viewBox="0 0 72 72"><defs><style>.cls-1{fill:#241f20;}</style></defs><g id="Layer_1-2"><g id="Icon_83"><path class="cls-1" d="M19.28,43.95c-.36,0-.72-.11-1.04-.34-.8-.58-.98-1.69-.4-2.49l9.55-13.26.17-18.45c0-.98.81-1.78,1.8-1.77.98,0,1.77.81,1.76,1.8l-.18,19.59-10.21,14.18c-.35.48-.89.74-1.45.74Z"/><path class="cls-1" d="M26.56,57.88c-.05,0-.11,0-.16,0-7.19-.63-13.85-3.92-18.75-9.25C2.72,43.26,0,36.29,0,29,0,13.01,13,0,28.98,0s28.02,11.97,28.93,27.25c.06.98-.69,1.83-1.67,1.88-.98.06-1.82-.69-1.88-1.67-.79-13.4-11.94-23.9-25.37-23.9S3.56,14.97,3.56,29c0,6.4,2.38,12.51,6.71,17.22,4.3,4.68,10.14,7.56,16.44,8.12.98.09,1.7.95,1.62,1.93-.08.93-.86,1.62-1.77,1.62Z"/><path class="cls-1" d="M52,72c-11.03,0-20-8.97-20-20s8.97-20,20-20,20,8.97,20,20-8.97,20-20,20ZM52,35.55c-9.06,0-16.43,7.38-16.43,16.44s7.37,16.44,16.43,16.44,16.43-7.38,16.43-16.44-7.37-16.44-16.43-16.44Z"/><path class="cls-1" d="M52.45,41.3c-.46,0-.69.31-.69.92v1.16c-1.52.13-2.67.6-3.48,1.41-.8.81-1.2,1.84-1.2,3.1,0,.97.2,1.76.61,2.37.41.62.94,1.09,1.6,1.42.66.33,1.48.64,2.46.91v5.11c-.49-.14-.88-.34-1.18-.6-.3-.26-.52-.55-.66-.87-.15-.32-.32-.78-.52-1.38-.09-.28-.25-.49-.47-.65-.23-.15-.51-.23-.83-.23-.41,0-.75.14-1.03.42-.27.28-.41.6-.41.95,0,.48.1.96.31,1.46.2.49.52.97.95,1.43.43.46.96.84,1.6,1.15.64.31,1.39.51,2.25.6v2.97c0,.34.05.59.16.75.11.16.29.24.55.24.29,0,.47-.1.55-.3.08-.2.13-.51.13-.94v-2.74c1.05-.09,1.95-.36,2.71-.82s1.34-1.06,1.73-1.79c.39-.73.59-1.51.59-2.35,0-.67-.12-1.28-.37-1.84-.25-.56-.59-1.04-1.05-1.44-.42-.39-.91-.68-1.44-.89-.54-.2-1.26-.43-2.17-.68v-4.57c.92.3,1.5.91,1.75,1.82.21.78.68,1.16,1.39,1.16.38,0,.7-.13.97-.4s.4-.58.4-.95c0-.33-.09-.69-.27-1.09-.18-.4-.43-.78-.76-1.15-.42-.49-.91-.86-1.47-1.1-.56-.24-1.23-.4-2.01-.48v-1.19c0-.6-.23-.9-.7-.9h0ZM51.76,49.74c-.66-.24-1.15-.51-1.47-.81-.32-.3-.48-.73-.48-1.31,0-.61.17-1.06.52-1.36.34-.3.82-.54,1.44-.72v4.21h0ZM53.15,57.81v-4.81c.76.24,1.34.54,1.73.88.39.35.59.84.59,1.48,0,.59-.2,1.11-.6,1.56-.4.45-.97.74-1.71.89h0Z"/></g></g></svg>