<?xml version="1.0" encoding="UTF-8"?><svg id="Layer_2" xmlns="http://www.w3.org/2000/svg" viewBox="0 0 72 71.97"><g id="Layer_1-2"><path d="M27.63,58.29H6.64c-3.66,0-6.64-2.98-6.64-6.64V6.64C0,2.98,2.98,0,6.64,0h33.02c3.66,0,6.64,2.98,6.64,6.64v20.69c0,.98-.8,1.78-1.78,1.78s-1.78-.8-1.78-1.78V6.64c0-1.7-1.38-3.08-3.08-3.08H6.64c-1.7,0-3.08,1.38-3.08,3.08v45.01c0,1.7,1.38,3.08,3.08,3.08h20.99c.98,0,1.78.8,1.78,1.78s-.8,1.78-1.78,1.78Z"/><path d="M28.16,39.27H10.46c-.69,0-1.25-.56-1.25-1.25s.56-1.25,1.25-1.25h17.7c.69,0,1.25.56,1.25,1.25s-.56,1.25-1.25,1.25Z"/><path d="M23.8,46.18c-.05,0-.11,0-.16-.01-.79-.04-8.27-.07-13.18-.09-.69,0-1.24-.56-1.24-1.25,0-.69.56-1.24,1.25-1.24h0s3.34.01,6.67.03c1.67,0,3.34.02,4.59.03.63,0,1.15.01,1.52.02.58.01,1.8.03,1.8,1.27,0,.69-.56,1.25-1.25,1.25ZM23.67,46.17h0,0ZM23.11,45.97c.15.1.31.16.47.19-.17-.03-.33-.09-.47-.19ZM22.55,44.93c0,.36.15.66.36.88-.22-.23-.36-.53-.36-.88Z"/><path d="M23.32,10.34c-.4,0-.6.27-.6.8v1.01c-1.32.11-2.33.52-3.03,1.23-.7.7-1.05,1.6-1.05,2.7,0,.84.18,1.53.54,2.07.36.54.82.95,1.4,1.24.57.29,1.29.55,2.14.79v4.45c-.43-.12-.77-.3-1.03-.53-.26-.23-.45-.48-.58-.76-.13-.28-.28-.68-.45-1.2-.08-.24-.21-.43-.41-.56-.2-.13-.44-.2-.73-.2-.36,0-.66.12-.89.37-.24.25-.36.52-.36.83,0,.41.09.84.27,1.27.18.43.45.85.83,1.24.37.4.84.73,1.4,1,.56.27,1.21.44,1.96.53v2.58c0,.29.05.51.14.65.09.14.25.21.48.21.25,0,.41-.09.48-.26s.11-.45.11-.82v-2.38c.91-.08,1.7-.32,2.36-.72.66-.4,1.17-.92,1.51-1.56.34-.63.51-1.32.51-2.04,0-.58-.11-1.11-.32-1.6-.21-.49-.52-.91-.91-1.26-.37-.34-.79-.6-1.26-.78-.47-.18-1.1-.38-1.89-.59v-3.98c.8.26,1.31.79,1.52,1.59.18.68.59,1.01,1.22,1.01.33,0,.61-.12.85-.35s.35-.51.35-.83c0-.29-.08-.6-.23-.95-.16-.34-.38-.68-.67-1-.36-.43-.79-.75-1.28-.96-.49-.21-1.07-.35-1.76-.42v-1.03c0-.52-.2-.78-.61-.78h0ZM22.71,17.69c-.57-.21-1-.45-1.28-.7-.28-.26-.42-.64-.42-1.14,0-.53.15-.93.45-1.19.3-.26.72-.47,1.25-.63v3.67h0ZM23.93,24.72v-4.19c.66.21,1.17.47,1.51.77.34.3.51.73.51,1.29,0,.52-.18.97-.53,1.36-.35.39-.85.65-1.49.78h0Z"/><path d="M51.9,71.97c-11.08,0-20.1-9.02-20.1-20.1s9.02-20.1,20.1-20.1,20.1,9.02,20.1,20.1-9.02,20.1-20.1,20.1ZM51.9,35.33c-9.12,0-16.54,7.42-16.54,16.54s7.42,16.54,16.54,16.54,16.54-7.42,16.54-16.54-7.42-16.54-16.54-16.54Z"/><path d="M42.53,57.46c-.48,0-.93-.27-1.14-.73-.93-2.06-1.21-4.33-.83-6.56,1.04-6.01,6.58-10.1,12.63-9.29.68.09,1.16.72,1.07,1.4-.09.68-.72,1.16-1.4,1.07-4.71-.63-9.04,2.56-9.84,7.25-.3,1.74-.08,3.51.65,5.12.28.63,0,1.37-.62,1.65-.17.07-.34.11-.51.11Z"/><path d="M51.88,45.68l4.97-.64c.81-.1,1.21-1.05.71-1.7l-3.03-3.98c-.5-.65-1.51-.52-1.83.23l-1.93,4.62c-.32.76.3,1.57,1.12,1.47Z"/><path d="M51.74,63.4c-.5,0-1.01-.03-1.52-.1-.68-.09-1.16-.72-1.07-1.4s.72-1.16,1.4-1.07c4.71.62,9.04-2.56,9.85-7.25.3-1.74.08-3.51-.65-5.11-.28-.63,0-1.37.62-1.65.63-.28,1.37,0,1.65.62.93,2.06,1.22,4.33.83,6.56-.95,5.51-5.68,9.4-11.11,9.4Z"/><path d="M51.54,58.48l-4.97.64c-.81.1-1.21,1.05-.71,1.7l3.03,3.98c.5.65,1.51.52,1.83-.23l1.93-4.62c.32-.76-.3-1.57-1.12-1.47Z"/></g></svg>