<?xml version="1.0" encoding="UTF-8"?><svg id="Layer_2" xmlns="http://www.w3.org/2000/svg" viewBox="0 0 72 72"><defs><style>.cls-1{fill:#241f20;}</style></defs><g id="Layer_1-2"><g id="Icon_8"><path class="cls-1" d="M14.08,72H5.7c-.98,0-1.78-.8-1.78-1.78v-13.3l-2.19-.05c-.71-.02-1.34-.45-1.6-1.11-.27-.66-.12-1.41.37-1.92l7.43-7.71c.53-.55,1.23-.86,1.95-.86s1.42.3,1.95.86l7.44,7.73c.49.51.63,1.27.36,1.92-.27.66-.9,1.09-1.61,1.1l-2.18.04v13.29c0,.99-.8,1.78-1.78,1.78ZM7.48,68.43h4.82v-13.26c0-.92.69-1.68,1.59-1.77l-4.01-4.16-4.01,4.16c.9.09,1.61.85,1.61,1.78v13.26Z"/><path class="cls-1" d="M40.19,72h-8.38c-.98,0-1.78-.8-1.78-1.78v-26.91l-2.19-.05c-.71-.02-1.34-.45-1.6-1.11-.27-.66-.12-1.41.37-1.92l7.43-7.71c.53-.55,1.23-.86,1.95-.86s1.42.3,1.95.86l7.44,7.73c.49.51.63,1.27.36,1.92s-.9,1.09-1.61,1.1l-2.18.04v26.91c0,.99-.8,1.78-1.78,1.78ZM33.59,68.43h4.82v-26.87c0-.92.69-1.68,1.59-1.77l-4.01-4.16-4.01,4.16c.9.09,1.61.85,1.61,1.78v26.87Z"/><path class="cls-1" d="M66.3,72h-8.38c-.98,0-1.78-.8-1.78-1.78V25.47l-2.19-.05c-.71-.02-1.34-.45-1.6-1.11-.27-.66-.12-1.41.37-1.92l7.43-7.71c.53-.55,1.23-.86,1.95-.86s1.42.3,1.95.86l7.44,7.73c.49.51.63,1.27.36,1.92s-.9,1.09-1.61,1.1l-2.18.04v44.74c0,.99-.8,1.78-1.78,1.78ZM59.7,68.43h4.82V23.73c0-.92.69-1.68,1.59-1.77l-4.01-4.16-4.01,4.16c.9.09,1.61.85,1.61,1.78v44.71Z"/><path class="cls-1" d="M1.81,39.38c-.87,0-1.62-.64-1.76-1.51-.14-.88.39-1.72,1.24-1.98,8.54-2.6,16.26-6.87,22.94-12.68,4.89-4.25,9.07-9.22,12.45-14.79l-3.13-2.04c-.61-.4-.92-1.13-.77-1.84.14-.72.7-1.27,1.42-1.41L50.84.03c.52-.1,1.06.05,1.47.39.41.34.64.85.63,1.38l-.11,14.07c0,.65-.36,1.24-.92,1.55-.56.31-1.25.29-1.8-.05l-3.11-1.95c-4.4,6.3-10.09,11.7-16.56,15.69-10.81,6.65-21.52,8.17-28.6,8.27,0,0-.02,0-.03,0ZM39.22,5.81l.82.54c.79.52,1.04,1.56.57,2.38-3.72,6.51-8.44,12.28-14.06,17.16-3.55,3.09-7.38,5.77-11.46,8.02,4.26-1.17,8.86-3.01,13.47-5.85,6.52-4.01,12.2-9.56,16.43-16.05.53-.81,1.61-1.05,2.43-.54l1.87,1.17.07-8.72-10.14,1.88Z"/></g></g></svg>