<?xml version="1.0" encoding="UTF-8"?><svg id="Layer_2" xmlns="http://www.w3.org/2000/svg" viewBox="0 0 51.72 72"><g id="Layer_1-2"><path d="M42.94,72c-.08,0-.16,0-.24,0h-.19s-33.32,0-33.32,0c-2.64,0-4.89-.95-6.69-2.83-1.66-1.74-2.51-3.79-2.51-6.09V8.91C0,4.56,3.32.77,7.72.1c.58-.09,1.12-.1,1.48-.1h33.32c3.89,0,7.39,2.44,8.71,6.07.33.92.5,1.89.5,2.89v27.06c0,3,0,5.99,0,8.98,0,5.88-.01,11.96,0,17.94,0,4.56-3.59,8.53-8.17,9.03-.22.02-.43.03-.62.03ZM9.19,3.56c-.38,0-.68.02-.94.06-2.63.4-4.69,2.72-4.69,5.29v54.18c0,1.37.5,2.55,1.52,3.62,1.11,1.16,2.46,1.72,4.11,1.72h33.56c.16,0,.31,0,.41,0,2.8-.31,4.99-2.72,4.99-5.48-.02-5.99-.01-12.07,0-17.95,0-2.99,0-5.98,0-8.98V8.96c0-.59-.09-1.14-.29-1.67-.81-2.23-2.97-3.72-5.36-3.72H9.19Z"/><path d="M39.45,23.1H12.52c-3.46,0-6.27-2.57-6.55-5.99-.15-1.8-.15-3.64,0-5.46.28-3.29,3.21-5.86,6.67-5.86h26.59c1.83,0,3.39.58,4.67,1.73,1.29,1.18,2.01,2.61,2.14,4.26.12,1.68.12,3.43,0,5.35-.18,2.84-2.55,5.42-5.4,5.87-.36.06-.74.08-1.19.08ZM26,19.53h13.46c.25,0,.46-.01.63-.04,1.2-.19,2.32-1.39,2.39-2.57.11-1.76.11-3.35,0-4.86-.06-.73-.37-1.34-.98-1.89-.61-.55-1.33-.81-2.27-.81H12.65c-1.63,0-3,1.14-3.12,2.59-.13,1.62-.13,3.26,0,4.87.13,1.57,1.39,2.72,3,2.72h13.47Z"/><path d="M12.84,64.58c-2.65,0-4.9-2.25-4.92-4.91v-6.65c0-2.66,2.26-4.92,4.93-4.94h6.62c2.69,0,4.9,2.21,4.92,4.93v6.65c0,2.65-2.24,4.9-4.9,4.92h-6.65ZM12.85,50.58c-1.3,0-2.44,1.15-2.44,2.44v6.64c0,1.29,1.14,2.43,2.43,2.43h6.64c1.28,0,2.41-1.14,2.41-2.43v-6.64c0-1.32-1.12-2.44-2.43-2.44h-6.61Z"/><path d="M12.84,44.36c-2.65,0-4.9-2.25-4.92-4.91v-6.65c0-2.66,2.26-4.92,4.93-4.94h6.62c2.69,0,4.9,2.21,4.92,4.93v6.65c0,2.65-2.24,4.9-4.9,4.92h-6.65ZM12.85,30.36c-1.3,0-2.44,1.15-2.44,2.44v6.64c0,1.29,1.14,2.43,2.43,2.43h6.64c1.28,0,2.41-1.14,2.41-2.43v-6.64c0-1.32-1.12-2.44-2.43-2.44h-6.61Z"/><path d="M32.04,64.58c-2.65,0-4.9-2.25-4.92-4.91v-6.65c0-2.66,2.26-4.92,4.93-4.94h6.62c2.69,0,4.9,2.21,4.92,4.93v6.65c0,2.65-2.24,4.9-4.9,4.92h-6.65ZM32.06,50.58c-1.3,0-2.44,1.15-2.44,2.44v6.64c0,1.29,1.14,2.43,2.43,2.43h6.64c1.28,0,2.41-1.14,2.41-2.43v-6.64c0-1.32-1.12-2.44-2.43-2.44h-6.61Z"/><path d="M32.04,44.36c-2.65,0-4.9-2.25-4.92-4.91v-6.65c0-2.66,2.26-4.92,4.93-4.94h6.62c2.69,0,4.9,2.21,4.92,4.93v6.64c0,2.65-2.24,4.9-4.9,4.92h-6.65ZM32.06,30.36c-1.3,0-2.44,1.15-2.44,2.44v6.64c0,1.29,1.14,2.43,2.43,2.43h6.64c1.28,0,2.41-1.14,2.41-2.43v-6.64c0-1.32-1.12-2.44-2.43-2.44h-6.61Z"/><path d="M14.12,53.35s-.11.03-.17.03c-.75.16-.99,1.02-.42,1.62.36.39.75.77,1.13,1.13.16.16.16.25,0,.41-.38.36-.75.72-1.11,1.1-.42.44-.44,1.02-.06,1.4.18.19.4.29.62.29.25,0,.52-.12.76-.36.36-.36.74-.71,1.08-1.08.08-.08.15-.12.22-.12s.14.04.21.12c.38.39.77.79,1.16,1.15.22.21.48.31.72.31s.45-.09.63-.28c.35-.38.31-.97-.08-1.38-.35-.36-.71-.74-1.08-1.08-.22-.2-.19-.31,0-.5.39-.36.77-.74,1.13-1.13.47-.5.36-1.19-.24-1.49-.14-.07-.28-.1-.42-.1-.24,0-.48.11-.7.32-.39.38-.77.74-1.13,1.13-.09.09-.16.13-.23.13s-.14-.04-.21-.13c-.38-.38-.75-.75-1.13-1.13-.19-.19-.42-.3-.71-.31l.02-.02h0Z"/><path d="M38.45,54.07h-5.62c-.28,0-.53.08-.74.28-.27.25-.35.68-.2,1,.17.41.5.58.93.58h2.84v.02h2.81c.58-.02,1-.39,1-.91s-.44-.97-1.02-.97h0Z"/><path d="M38.31,57.09h-5.61c-.57.06-.91.47-.88.99.03.52.39.83.97.83h2.84l.05.02h2.91c.46,0,.79-.3.88-.74.08-.36-.14-.79-.49-.97-.22-.11-.44-.13-.68-.13h0Z"/><path d="M38.38,34.93h-5.61c-.74.02-1.18.66-.9,1.32.19.44.57.57,1,.57h5.61c.39-.02.69-.2.86-.57s.08-.68-.14-.97c-.2-.27-.5-.35-.83-.35h0Z"/><path d="M16.18,32.03c-.05,0-.1,0-.15.01-.47.08-.8.47-.8,1.02v1.54c.02.25-.09.33-.33.33h-1.51c-.61.02-1.05.41-1.05.94s.46.94,1.05.94h1.48c.27,0,.36.08.36.36-.02.5-.02,1,0,1.51.02.6.44,1.02.96,1.02.57-.02.93-.42.93-1.05v-1.51c0-.25.09-.33.33-.33h1.54c.39,0,.74-.13.93-.52.3-.64-.13-1.33-.85-1.35h-1.6c-.25,0-.36-.08-.35-.35v-.79l-.02-.02c0-.3.02-.58,0-.88-.03-.51-.44-.89-.91-.89h0Z"/></g></svg>