<?xml version="1.0" encoding="UTF-8"?><svg id="Layer_2" xmlns="http://www.w3.org/2000/svg" viewBox="0 0 72 72"><g id="Layer_1-2"><g id="Icon_21"><path d="M36,72c-9.95,0-18.05-8.11-18.05-18.08s8.1-18.08,18.05-18.08,18.05,8.11,18.05,18.08-8.1,18.08-18.05,18.08ZM36,39.42c-7.99,0-14.49,6.51-14.49,14.51s6.5,14.51,14.49,14.51,14.49-6.51,14.49-14.51-6.5-14.51-14.49-14.51Z"/><path d="M30.66,34.26c-.98,0-1.78-.8-1.78-1.78V15.69l-3.32-.1c-.68-.02-1.29-.43-1.57-1.05-.28-.62-.18-1.35.25-1.88L33.78,1.17c.59-.75,1.39-1.17,2.26-1.17s1.67.42,2.26,1.17l9.56,11.53c.44.53.53,1.26.25,1.88-.28.62-.9,1.03-1.58,1.04l-3.3.07v11.03c0,.99-.8,1.78-1.78,1.78s-1.78-.8-1.78-1.78v-12.78c0-.97.77-1.76,1.74-1.78l1.36-.03-6.72-8.11-6.71,8.1,1.39.04c.96.03,1.73.82,1.73,1.78v18.52c0,.99-.8,1.78-1.78,1.78Z"/><path d="M54.41,42.7c-.22,0-.45-.04-.67-.13-.91-.37-1.35-1.41-.98-2.33,1.15-2.82,2.75-5.41,4.75-7.69,2.74-3.12,4.85-4.39,6.77-5.42.63-.34,1.4-.27,1.95.18l1.73,1.39.43-10.74-10.02.86.79.76c.4.38.6.93.54,1.49s-.38,1.05-.85,1.33c-2.54,1.53-4.8,3.44-6.73,5.68-1.65,1.92-3.04,4.07-4.12,6.37-.42.89-1.48,1.28-2.37.86-.89-.42-1.28-1.48-.86-2.37,1.22-2.6,2.78-5.02,4.65-7.19,1.67-1.94,3.56-3.66,5.65-5.14l-2.03-1.94c-.51-.48-.68-1.22-.45-1.88.23-.66.83-1.13,1.53-1.19l14.55-1.25c.92-.15,1.77.09,2.4.65.64.58.96,1.43.9,2.38l-.61,14.97c-.03.67-.43,1.27-1.04,1.55-.61.28-1.33.19-1.85-.23l-3.55-2.84c-1.42.83-2.86,1.9-4.75,4.06-1.74,1.98-3.13,4.23-4.13,6.68-.28.69-.95,1.11-1.65,1.11Z"/><path d="M17.81,44.31c-.74,0-1.43-.46-1.68-1.2-.86-2.49-2.04-4.81-3.53-6.9-.89-1.25-2.11-2.97-4.28-4.54-.41-.29-.83-.57-1.26-.83l-3.56,2.85c-.52.42-1.24.51-1.85.23-.61-.28-1.01-.88-1.04-1.55L0,17.39c-.06-.96.25-1.8.9-2.38.63-.57,1.48-.8,2.4-.65l14.55,1.25c.7.06,1.3.52,1.53,1.19.23.66.06,1.4-.45,1.88l-2.03,1.94c2.1,1.48,3.99,3.21,5.65,5.14,1.03,1.2,1.98,2.49,2.83,3.84.52.84.27,1.94-.57,2.46-.83.52-1.93.27-2.46-.57-.75-1.2-1.59-2.34-2.5-3.4-1.91-2.22-4.18-4.13-6.73-5.68-.47-.29-.79-.78-.85-1.33-.06-.55.14-1.1.54-1.49l.79-.76-10.02-.86.43,10.74,1.73-1.39c.54-.44,1.29-.51,1.91-.2.95.48,1.87,1.04,2.74,1.66,2.64,1.91,4.11,3.99,5.09,5.36,1.68,2.37,3.03,5,4,7.81.32.93-.17,1.95-1.11,2.27-.19.07-.39.1-.58.1Z"/><path d="M35.86,43.73c-.47,0-.7.31-.7.93v1.18c-1.53.13-2.71.61-3.52,1.42-.81.82-1.22,1.86-1.22,3.14,0,.98.21,1.78.62,2.4.41.62.96,1.1,1.62,1.44.67.34,1.5.64,2.49.92v5.18c-.5-.14-.89-.35-1.19-.61-.3-.27-.52-.56-.67-.88s-.32-.79-.52-1.4c-.09-.28-.25-.5-.48-.66-.23-.16-.51-.23-.84-.23-.41,0-.76.14-1.04.43s-.42.61-.42.96c0,.48.1.97.31,1.47.21.5.53.98.96,1.45.43.46.97.85,1.62,1.16.65.31,1.41.52,2.27.61v1.06c0,.34.05.59.16.76.11.16.29.24.56.24.29,0,.48-.1.56-.3.09-.2.13-.52.13-.96v-.82c1.06-.09,1.97-.37,2.74-.83.77-.47,1.35-1.07,1.75-1.81.4-.74.59-1.53.59-2.38,0-.68-.12-1.3-.37-1.86-.25-.57-.6-1.06-1.06-1.46-.43-.39-.92-.69-1.46-.9-.54-.21-1.28-.44-2.19-.69v-4.63c.93.3,1.52.92,1.77,1.85.21.79.69,1.18,1.41,1.18.38,0,.71-.14.98-.41.27-.27.41-.59.41-.96,0-.33-.09-.7-.27-1.1s-.44-.79-.77-1.17c-.42-.5-.92-.87-1.48-1.11-.57-.24-1.25-.41-2.04-.49v-1.2c0-.61-.24-.91-.71-.91h0ZM35.16,52.27c-.67-.24-1.16-.52-1.49-.82-.33-.3-.49-.74-.49-1.33,0-.62.17-1.08.52-1.38.35-.3.83-.55,1.46-.73v4.26h0ZM36.57,60.45v-4.87c.77.24,1.35.54,1.75.9.4.35.59.85.59,1.5,0,.6-.2,1.13-.61,1.58-.41.45-.99.75-1.73.9h0Z"/></g></g></svg>