<?xml version="1.0" encoding="UTF-8"?><svg id="Layer_2" xmlns="http://www.w3.org/2000/svg" viewBox="0 0 72 46.33"><defs><style>.cls-1{fill:#241f20;}</style></defs><g id="Layer_1-2"><g id="Icon_36"><path class="cls-1" d="M67.49,46.33H4.5c-2.48,0-4.5-2.02-4.5-4.5V4.5C0,2.02,2.02,0,4.5,0h63c1.2,0,2.33.47,3.18,1.32.85.85,1.32,1.98,1.32,3.18v37.34c-.01,2.48-2.03,4.5-4.51,4.5ZM4.5,3.56c-.52,0-.94.42-.94.94v37.34c0,.52.42.94.94.94h62.99c.52,0,.94-.42.94-.94V4.5c.01-.25-.09-.49-.26-.67-.18-.18-.41-.28-.67-.28H4.5Z"/><path class="cls-1" d="M68.45,17.23h0l-64.3-.05c-1.77,0-3.2-1.44-3.2-3.2,0-1.77,1.43-3.2,3.2-3.2h0l64.3.05c1.77,0,3.2,1.44,3.2,3.2,0,1.77-1.43,3.2-3.2,3.2Z"/><path class="cls-1" d="M17.24,29.94h-6.63c-.98,0-1.78-.8-1.78-1.78s.8-1.78,1.78-1.78h6.63c.98,0,1.78.8,1.78,1.78s-.8,1.78-1.78,1.78Z"/><path class="cls-1" d="M10.83,38.18c-.98,0-1.77-.79-1.78-1.76,0-.98.78-1.78,1.76-1.79l18.64-.14c.97-.02,1.78.78,1.79,1.76,0,.98-.78,1.78-1.76,1.79l-18.64.14s0,0-.01,0Z"/><path class="cls-1" d="M59.57,36.73h-7.4c-.69,0-1.24-.56-1.24-1.24v-7.4c0-.69.56-1.24,1.24-1.24h7.4c.69,0,1.24.56,1.24,1.24v7.4c0,.69-.56,1.24-1.24,1.24ZM53.41,34.24h4.91v-4.91h-4.91v4.91Z"/></g></g></svg>