<?xml version="1.0" encoding="UTF-8"?><svg id="Layer_2" xmlns="http://www.w3.org/2000/svg" viewBox="0 0 72 66.31"><g id="Layer_1-2"><g id="Icon_96"><path d="M36.28,16.32h0,0M33.91,14.75c-.79,0-1.19.53-1.19,1.59v2c-2.61.23-4.6,1.03-5.98,2.42-1.38,1.39-2.07,3.16-2.07,5.33,0,1.66.35,3.02,1.06,4.08.71,1.06,1.63,1.87,2.76,2.45,1.13.57,2.55,1.09,4.23,1.56v8.79c-.84-.24-1.52-.59-2.03-1.04s-.89-.95-1.14-1.5c-.25-.55-.55-1.34-.89-2.37-.15-.48-.42-.85-.81-1.12-.39-.26-.87-.4-1.44-.4-.71,0-1.29.24-1.77.73-.47.49-.71,1.03-.71,1.64,0,.82.18,1.65.53,2.5.35.85.9,1.67,1.64,2.46.74.79,1.66,1.45,2.76,1.98,1.1.53,2.39.88,3.87,1.04v5.1c0,.58.09,1.01.27,1.29.18.28.5.42.95.42.49,0,.81-.17.95-.51.14-.34.22-.88.22-1.63v-4.71c1.8-.15,3.36-.62,4.67-1.42s2.3-1.82,2.98-3.07c.67-1.25,1.01-2.6,1.01-4.04,0-1.15-.21-2.2-.63-3.17-.42-.96-1.02-1.79-1.81-2.49-.73-.67-1.56-1.18-2.49-1.53-.93-.35-2.17-.74-3.73-1.17v-7.86c1.59.52,2.59,1.56,3.01,3.14.37,1.34,1.17,2,2.4,2,.66,0,1.21-.23,1.67-.69.46-.46.69-1,.69-1.64,0-.57-.15-1.19-.46-1.87-.31-.68-.75-1.34-1.31-1.99-.72-.84-1.56-1.47-2.52-1.89-.96-.42-2.12-.69-3.47-.83v-2.04c0-1.03-.4-1.55-1.21-1.55h0ZM32.72,29.27c-1.13-.42-1.98-.88-2.53-1.39-.55-.51-.83-1.26-.83-2.26,0-1.05.3-1.83.89-2.34.59-.52,1.42-.93,2.48-1.25v7.24h0ZM35.12,43.16v-8.28c1.31.42,2.3.92,2.98,1.52.67.6,1.01,1.45,1.01,2.54,0,1.02-.35,1.92-1.04,2.68-.69.77-1.68,1.28-2.95,1.53h0Z"/><path d="M33.15,66.31C14.87,66.31,0,51.44,0,33.15S14.87,0,33.15,0c12.17,0,23.34,6.65,29.15,17.35.47.86.15,1.95-.72,2.42-.87.47-1.95.15-2.42-.72-5.19-9.55-15.16-15.49-26.02-15.49C16.84,3.56,3.56,16.84,3.56,33.15s13.27,29.59,29.59,29.59c6.22,0,12.17-1.91,17.21-5.51.8-.57,1.91-.39,2.49.41.57.8.39,1.91-.41,2.49-5.65,4.04-12.31,6.18-19.28,6.18Z"/><path d="M60.2,58.97c-.55,0-1.06-.25-1.4-.68l-9.97-12.64c-.42-.54-.5-1.27-.2-1.88.3-.61.92-1,1.6-1h4.03v-16.98c0-.48.19-.93.53-1.27s.79-.52,1.27-.52l8.8.08c.98,0,1.77.8,1.77,1.78v16.95h3.59c.68,0,1.3.39,1.6,1s.22,1.34-.2,1.88l-4.96,6.29c-.84,1.06-1.71,2.13-2.55,3.17-.83,1.03-1.7,2.09-2.51,3.12-.34.43-.85.68-1.4.68h0ZM53.91,46.34l6.3,7.99c.38-.47.76-.94,1.14-1.4.83-1.03,1.7-2.09,2.52-3.13l2.68-3.41h-1.7c-.98,0-1.78-.8-1.78-1.78v-16.96l-5.24-.05v16.96c0,.98-.8,1.78-1.78,1.78h-2.13Z"/></g></g></svg>