<?xml version="1.0" encoding="UTF-8"?><svg id="Layer_2" xmlns="http://www.w3.org/2000/svg" viewBox="0 0 71.9 72"><g id="Layer_1-2"><path d="M34.68,63.81H4.27c-2.36,0-4.27-1.92-4.27-4.27V4.27C0,1.92,1.92,0,4.27,0h42.29c2.36,0,4.27,1.92,4.27,4.27v16.49c0,.98-.8,1.78-1.78,1.78h0c-.98,0-1.78-.8-1.78-1.78V4.27c0-.4-.32-.72-.72-.72H4.27c-.4,0-.72.32-.72.72v55.27c0,.4.32.72.72.72h30.41c.98,0,1.78.8,1.78,1.78s-.8,1.78-1.78,1.78Z"/><path d="M39.56,13.8H11.19c-.98,0-1.78-.8-1.78-1.78s.8-1.78,1.78-1.78h28.37c.98,0,1.78.8,1.78,1.78s-.8,1.78-1.78,1.78Z"/><path d="M38.92,22H11.19c-.98,0-1.78-.8-1.78-1.78s.8-1.78,1.78-1.78h27.73c.98,0,1.78.8,1.78,1.78s-.8,1.78-1.78,1.78Z"/><path d="M32.18,30.2H11.19c-.98,0-1.78-.8-1.78-1.78s.8-1.78,1.78-1.78h20.99c.98,0,1.78.8,1.78,1.78s-.8,1.78-1.78,1.78Z"/><path d="M22.3,54.77h-11.11c-.98,0-1.78-.8-1.78-1.78s.8-1.78,1.78-1.78h11.11c.98,0,1.78.8,1.78,1.78s-.8,1.78-1.78,1.78Z"/><path d="M15.51,48.99c-.45,0-.91-.17-1.26-.52l-3.4-3.4c-.69-.69-.69-1.82,0-2.51.69-.69,1.82-.69,2.51,0l3.4,3.4c.69.69.69,1.82,0,2.51-.35.35-.8.52-1.26.52Z"/><path d="M15.51,48.99c-.45,0-.91-.17-1.26-.52-.69-.69-.69-1.82,0-2.51l6.19-6.19c.69-.69,1.82-.69,2.51,0,.69.69.69,1.82,0,2.51l-6.19,6.19c-.35.35-.8.52-1.26.52Z"/><path d="M60.35,40.42h-9.21c-1.77,0-3.21-1.44-3.21-3.21s1.44-3.21,3.21-3.21h9.21c1.77,0,3.21,1.44,3.21,3.21s-1.44,3.21-3.21,3.21ZM51.14,36.5c-.4,0-.72.32-.72.72s.32.72.72.72h9.21c.4,0,.72-.32.72-.72s-.32-.72-.72-.72h-9.21Z"/><path d="M60.35,35.41c-.2,0-.4-.05-.58-.15-.61-.32-.84-1.08-.51-1.68l2.98-5.6-.59.2c-1.69.58-3.59.23-4.96-.92l-.49-.41-2.53,1.38c-1.32.72-2.88.83-4.29.29l-.33-.13,3.16,5.12c.36.58.18,1.35-.4,1.71-.58.36-1.35.18-1.71-.4l-3.7-5.98c-.49-.8-.42-1.78.17-2.5.6-.72,1.55-.97,2.42-.64l1.28.49c.72.28,1.52.22,2.2-.15l2.73-1.49c.78-.43,1.73-.33,2.41.24l.67.56c.7.59,1.68.77,2.55.47l1.41-.49c.84-.29,1.75-.04,2.33.63.58.67.68,1.62.26,2.4l-3.39,6.37c-.22.42-.65.66-1.1.66Z"/><path d="M48.91,49.91c-.08,0-.16,0-.24-.02-.67-.13-1.11-.79-.98-1.46.38-1.93,1.03-3.78,1.95-5.51.78-1.47,1.74-2.85,2.86-4.08.46-.51,1.25-.55,1.76-.09.51.46.55,1.25.09,1.76-.98,1.08-1.82,2.29-2.5,3.58-.8,1.52-1.37,3.14-1.7,4.83-.12.59-.64,1.01-1.22,1.01Z"/><path d="M62.34,49.91c-.58,0-1.1-.41-1.22-1.01-.33-1.69-.9-3.31-1.7-4.83-.68-1.29-1.52-2.49-2.5-3.58-.46-.51-.42-1.3.09-1.76.51-.46,1.3-.42,1.76.09,1.12,1.24,2.08,2.61,2.86,4.08.91,1.73,1.57,3.59,1.95,5.51.13.67-.31,1.33-.98,1.46-.08.02-.16.02-.24.02Z"/><path d="M55.54,48.35c-.32,0-.48.21-.48.63v.8c-1.04.09-1.84.41-2.39.97-.55.55-.83,1.26-.83,2.13,0,.66.14,1.21.42,1.63.28.42.65.75,1.1.98.45.23,1.02.44,1.69.62v3.51c-.34-.1-.61-.23-.81-.41-.2-.18-.36-.38-.46-.6-.1-.22-.22-.53-.35-.95-.06-.19-.17-.34-.32-.45-.16-.11-.35-.16-.57-.16-.28,0-.52.1-.71.29-.19.19-.28.41-.28.65,0,.33.07.66.21,1,.14.34.36.67.65.98.29.31.66.58,1.1.79.44.21.95.35,1.54.42v1.17c0,.23.04.4.11.51.07.11.2.17.38.17.2,0,.32-.07.38-.2.06-.14.09-.35.09-.65v-1.01c.72-.06,1.34-.25,1.86-.57.52-.32.92-.73,1.19-1.23.27-.5.4-1.04.4-1.61,0-.46-.08-.88-.25-1.26-.17-.38-.41-.72-.72-.99-.29-.27-.62-.47-.99-.61s-.87-.3-1.49-.47v-3.14c.63.21,1.03.62,1.2,1.25.15.53.47.8.96.8.26,0,.48-.09.67-.28.18-.18.28-.4.28-.65,0-.23-.06-.48-.18-.75-.12-.27-.3-.54-.52-.79-.29-.34-.62-.59-1.01-.75-.38-.17-.85-.28-1.38-.33v-.81c0-.41-.16-.62-.48-.62h0ZM55.06,54.14c-.45-.17-.79-.35-1.01-.55-.22-.2-.33-.5-.33-.9,0-.42.12-.73.35-.94.24-.21.57-.37.99-.5v2.89h0ZM56.02,59.68v-3.3c.52.17.92.37,1.19.61.27.24.4.58.4,1.01,0,.41-.14.76-.41,1.07-.28.31-.67.51-1.18.61h0Z"/><path d="M55.62,72c-1.89,0-3.78,0-5.22,0-2.93-.01-5.66-1.12-7.69-3.1-.75-.73-1.39-1.56-1.9-2.47-1.78-3.14-1.53-6.17-1.31-8.85.63-7.72,4.98-13.17,6.62-15.22,1.07-1.33,2.24-2.58,3.48-3.72.51-.46,1.3-.43,1.76.08.46.51.43,1.3-.08,1.76-1.15,1.05-2.23,2.2-3.22,3.43-1.65,2.07-5.52,6.91-6.09,13.87-.2,2.43-.4,4.95,1,7.42.4.71.9,1.35,1.48,1.92,1.57,1.53,3.69,2.38,5.97,2.4,2.87.01,7.54.01,10.41,0,2.28-.01,4.4-.86,5.97-2.4.58-.57,1.08-1.22,1.48-1.92,1.4-2.47,1.2-4.99,1-7.42-.57-6.97-4.43-11.81-6.09-13.87-.98-1.23-2.07-2.38-3.22-3.43-.51-.46-.55-1.25-.08-1.76.46-.51,1.25-.55,1.76-.08,1.25,1.13,2.42,2.39,3.49,3.72,1.64,2.05,6,7.5,6.62,15.22.22,2.68.46,5.71-1.31,8.85-.51.91-1.16,1.74-1.91,2.47-2.03,1.99-4.77,3.09-7.69,3.1-1.44,0-3.33,0-5.22,0Z"/></g></svg>
