<?xml version="1.0" encoding="UTF-8"?><svg id="Layer_2" xmlns="http://www.w3.org/2000/svg" viewBox="0 0 72 72"><defs><style>.cls-1{fill:#241f20;}</style></defs><g id="Layer_1-2"><path class="cls-1" d="M38.98,51.32c-4.88,0-9.6-.85-14.08-2.54-3.24-1.22-5.97-2.01-8.8-1.9-.98.04-1.81-.73-1.85-1.71-.04-.98.73-1.81,1.71-1.85,3.63-.14,7.05.94,10.2,2.13,4.92,1.86,9.96,2.59,15.39,2.23,2.11-.14,4.04-1.2,6.08-2.33.51-.28,1.02-.56,1.53-.83,3.79-1.98,7.67-3.93,11.42-5.82,1.65-.83,3.3-1.66,4.95-2.5.69-.35,1.3-.68,1.8-1.15.4-.37,1.63-1.69.89-2.93-.99-1.67-2.56-1.33-3.42-.98-2.57,1.05-5.08,2.43-7.51,3.75-1.41.77-2.86,1.56-4.33,2.3l-.22.11c-1.02.52-2.29,1.16-3.88,1.05-.98-.07-1.72-.92-1.65-1.9.07-.98.92-1.72,1.9-1.65.57.04,1.14-.23,2.02-.67l.23-.12c1.41-.71,2.84-1.49,4.22-2.24,2.51-1.37,5.11-2.79,7.86-3.92,3.11-1.28,6.18-.31,7.82,2.45,1.37,2.31.78,5.19-1.51,7.35-.85.8-1.76,1.29-2.63,1.73-1.65.84-3.3,1.67-4.96,2.5-3.74,1.88-7.61,3.83-11.37,5.8-.49.25-.97.52-1.45.79-2.29,1.27-4.66,2.58-7.57,2.77-.94.06-1.87.09-2.79.09Z"/><path class="cls-1" d="M12.92,52.26c-.11,0-.22,0-.32,0-2.18-.08-6.75-.05-8.81,0-.81.02-1.98-.05-2.85-.91C.31,50.73,0,49.85,0,48.74c.03-7.89.02-15.64,0-24.85,0-1.1.31-1.97.94-2.59.62-.62,1.49-.92,2.58-.91,2.03.02,5.62.02,8.25,0h1.38s0,0,.01,0c1.23,0,2.19.36,2.86,1.08.67.72.97,1.71.89,2.96,0,1.12-.08,18.1.02,23.55,0,.53.04,2.16-1.08,3.26-.88.87-2.04,1.02-2.93,1.02ZM8.55,48.64c1.57,0,3.12.01,4.18.05.31.01.49,0,.6-.03.02-.11.05-.3.04-.62-.1-5.64-.02-23.51-.02-23.69,0-.04,0-.08,0-.12,0-.12,0-.21,0-.28-.05,0-.11,0-.2,0h-1.38c-2.6,0-6.15.02-8.21,0,.02,9.16.02,16.88,0,24.74.04,0,.09,0,.15,0,1.16-.03,3.02-.05,4.84-.05Z"/><path class="cls-1" d="M39.96,41.51c-1.06,0-2.12,0-3.18,0h-3.17c-.98,0-1.78-.8-1.78-1.78s.8-1.78,1.78-1.78h3.17c2.52,0,5.04,0,7.56,0,.76,0,1.66-.39,2.23-.98.33-.33.39-.58.39-.62-.03-1.74-1.17-3.09-2.66-3.12-.92-.02-1.87-.02-2.79,0-.77,0-1.55,0-2.32,0-4.98-.06-10.29-.42-15.33-2.57-2.39-1.02-4.96-1.09-7.84-1.08h0c-.98,0-1.77-.79-1.78-1.77,0-.98.79-1.78,1.77-1.79,3.16-.01,6.24.08,9.25,1.37,4.47,1.91,9.36,2.23,13.97,2.29.75,0,1.5,0,2.26,0,.94,0,1.92-.01,2.89.01,3.38.08,6.07,2.98,6.13,6.62.02,1.1-.48,2.23-1.41,3.18-1.23,1.26-3.06,2.04-4.76,2.04-1.47,0-2.93,0-4.4,0Z"/><path class="cls-1" d="M9.04,32c-.98,0-1.78-.8-1.78-1.78v-1.48c0-.98.8-1.78,1.78-1.78s1.78.8,1.78,1.78v1.48c0,.98-.8,1.78-1.78,1.78Z"/><path class="cls-1" d="M38.03,26.3c-7.24,0-13.14-5.9-13.14-13.15S30.78,0,38.03,0s13.14,5.9,13.14,13.15-5.89,13.15-13.14,13.15ZM38.03,3.56c-5.28,0-9.58,4.3-9.58,9.59s4.3,9.59,9.58,9.59,9.58-4.3,9.58-9.59-4.3-9.59-9.58-9.59Z"/><path class="cls-1" d="M38.2,6.04c-.33,0-.49.22-.49.65v.82c-1.07.09-1.89.43-2.46,1-.57.57-.85,1.3-.85,2.19,0,.68.15,1.24.44,1.68.29.44.67.77,1.13,1.01s1.05.45,1.74.64v3.62c-.35-.1-.63-.24-.84-.43-.21-.19-.37-.39-.47-.62-.1-.23-.23-.55-.37-.98-.06-.2-.17-.35-.33-.46-.16-.11-.36-.16-.59-.16-.29,0-.53.1-.73.3-.19.2-.29.42-.29.67,0,.34.07.68.22,1.03.15.35.37.69.67,1.01.3.32.68.6,1.13.81.45.22.98.36,1.59.43v.82c0,.24.04.41.11.53.08.11.21.17.39.17.2,0,.33-.07.39-.21.06-.14.09-.36.09-.67v-.66c.74-.06,1.38-.26,1.92-.58.54-.33.95-.75,1.22-1.26.28-.52.42-1.07.42-1.66,0-.47-.09-.91-.26-1.3-.17-.4-.42-.74-.74-1.02-.3-.27-.64-.48-1.02-.63-.38-.15-.89-.31-1.54-.48v-3.24c.65.21,1.06.64,1.24,1.29.15.55.48.82.99.82.27,0,.5-.09.69-.28.19-.19.28-.41.28-.67,0-.23-.06-.49-.19-.77-.13-.28-.31-.55-.54-.82-.3-.35-.64-.61-1.04-.78-.4-.17-.87-.29-1.43-.34v-.84c0-.43-.17-.64-.5-.64h0ZM37.71,12.01c-.47-.17-.81-.36-1.04-.57-.23-.21-.34-.52-.34-.93,0-.43.12-.75.37-.96.24-.21.58-.38,1.02-.51v2.98h0ZM38.7,17.73v-3.41c.54.17.95.38,1.22.63.28.25.42.6.42,1.05,0,.42-.14.79-.43,1.1-.29.32-.69.53-1.21.63h0Z"/><path class="cls-1" d="M36.34,72c-1.16,0-2.24-.4-3.16-1.16-.97-.81-1.58-1.92-1.76-3.2-.02-.11-.03-.22-.03-.33,0-.08,0-.16,0-.25v-.04c0-.74.16-1.51.51-2.33.26-.62.6-1.26,1.05-1.95.26-.39.51-.78.77-1.17.17-.25.33-.5.5-.75.16-.24.28-.46.38-.66.33-.71,1.02-1.16,1.78-1.16h0c.76,0,1.44.44,1.78,1.15.2.41.48.83.78,1.28l.23.33c.53.78,1.08,1.6,1.52,2.53.35.74.55,1.39.64,2.05.18,1.42-.2,2.75-1.1,3.85-.81.98-1.89,1.59-3.14,1.76-.25.03-.49.05-.73.05ZM36.37,62.99c-.22.33-.44.66-.65.99-.48.74-.82,1.37-1.08,1.99-.23.56-.34,1-.34,1.39v.22c.08.59.31,1.01.74,1.36.5.42.99.56,1.63.47.54-.08.93-.3,1.28-.72.41-.5.55-.98.46-1.64-.05-.41-.2-.86-.47-1.43-.42-.88-.97-1.74-1.57-2.63ZM34.94,61.67s0,0,0,0c0,0,0,0,0,0Z"/><path class="cls-1" d="M47.14,61.57c-.84,0-1.62-.29-2.29-.84-.7-.59-1.14-1.39-1.27-2.31-.01-.08-.02-.16-.02-.24,0-.06,0-.12,0-.18l1.25-.03h-1.25c0-.54.12-1.09.37-1.69.19-.45.44-.92.77-1.42.18-.28.37-.57.56-.85l.37-.56c.12-.18.21-.34.28-.5.23-.5.71-.81,1.25-.81h0c.54,0,1.01.3,1.25.81.15.31.36.62.58.95l.16.24c.39.58.79,1.17,1.11,1.86.25.54.4,1.01.46,1.49.13,1.03-.14,1.99-.8,2.78-.58.71-1.37,1.15-2.27,1.27-.18.02-.35.04-.53.04ZM47.17,55.63c-.13.19-.26.39-.38.58-.25.38-.42.7-.55,1.02-.12.29-.18.52-.18.73v.1c.05.33.17.56.4.75.27.22.54.3.88.25.29-.04.5-.16.69-.39.22-.26.29-.53.25-.88-.03-.21-.11-.45-.25-.75-.23-.48-.53-.94-.85-1.42ZM48.17,54.01s0,0,0,0c0,0,0,0,0,0Z"/></g></svg>