<?xml version="1.0" encoding="UTF-8"?><svg id="Layer_2" xmlns="http://www.w3.org/2000/svg" viewBox="0 0 72 72"><defs><style>.cls-1{fill:#241f20;}</style></defs><g id="Layer_1-2"><path class="cls-1" d="M65.83,47.72H6.05c-3.33,0-6.05-2.71-6.05-6.05V6.05C0,2.71,2.71,0,6.05,0h59.78c3.33,0,6.05,2.71,6.05,6.05v35.62c0,3.33-2.71,6.05-6.05,6.05ZM6.05,3.56c-1.37,0-2.49,1.12-2.49,2.49v35.62c0,1.37,1.12,2.49,2.49,2.49h59.78c1.37,0,2.49-1.12,2.49-2.49V6.05c0-1.37-1.12-2.49-2.49-2.49H6.05Z"/><path class="cls-1" d="M70.22,72H1.79c-.98,0-1.78-.8-1.78-1.78s.8-1.78,1.78-1.78h68.43c.98,0,1.78.8,1.78,1.78s-.8,1.78-1.78,1.78Z"/><path class="cls-1" d="M70.22,59.91H1.79c-.98,0-1.78-.8-1.78-1.78s.8-1.78,1.78-1.78h68.43c.98,0,1.78.8,1.78,1.78s-.8,1.78-1.78,1.78Z"/><path class="cls-1" d="M35.93,32.93c-5.07,0-9.19-4.12-9.19-9.19s4.12-9.19,9.19-9.19,9.19,4.12,9.19,9.19-4.12,9.19-9.19,9.19ZM35.93,18.1c-3.11,0-5.63,2.53-5.63,5.63s2.53,5.63,5.63,5.63,5.63-2.53,5.63-5.63-2.53-5.63-5.63-5.63Z"/><path class="cls-1" d="M56.77,19.39c-2.4,0-4.34,1.94-4.34,4.34s1.94,4.34,4.34,4.34,4.34-1.94,4.34-4.34-1.94-4.34-4.34-4.34h0Z"/><path class="cls-1" d="M14.74,19.39c-2.4,0-4.34,1.94-4.34,4.34s1.94,4.34,4.34,4.34,4.34-1.94,4.34-4.34-1.94-4.34-4.34-4.34h0Z"/></g></svg>