<?xml version="1.0" encoding="UTF-8"?><svg id="Layer_2" xmlns="http://www.w3.org/2000/svg" viewBox="0 0 72 72"><defs><style>.cls-1{fill:#241f20;}</style></defs><g id="Layer_1-2"><g id="Icon_17"><path class="cls-1" d="M44.76,23.01c-.79,0-1.43-.64-1.43-1.43v-10.23c0-.5.26-.97.69-1.23.43-.26.96-.28,1.41-.04.83.43,1.97,1.05,3.12,1.66,1.14.61,2.27,1.21,3.09,1.64.7.37.97,1.23.6,1.93-.37.7-1.23.97-1.93.6-.83-.43-1.97-1.04-3.11-1.65-.34-.18-.67-.36-1-.53v7.85c0,.79-.64,1.43-1.43,1.43Z"/><path class="cls-1" d="M13.83,72c-.63,0-1.26-.15-1.84-.44-.97-.49-1.69-1.33-2.03-2.37L.2,39.38c-.7-2.14.47-4.44,2.6-5.14l50.29-16.47c1.04-.34,2.14-.25,3.11.24.97.49,1.69,1.33,2.03,2.37l9.75,29.81c.7,2.14-.47,4.44-2.61,5.14l-50.28,16.47c-.42.14-.85.2-1.27.2ZM54.36,21.14s-.1,0-.15.03h0L3.92,37.64c-.26.08-.4.37-.32.62l9.76,29.81c.05.16.16.25.25.29.08.04.22.08.38.03l50.28-16.47c.26-.08.4-.36.32-.62l-9.75-29.81c-.05-.16-.16-.25-.25-.29-.05-.03-.13-.05-.22-.05ZM53.65,19.46h0,0Z"/><path class="cls-1" d="M6.3,48.99c-1.36,0-2.62-.86-3.06-2.22-.55-1.69.37-3.51,2.06-4.07l51.34-16.78c1.69-.55,3.51.37,4.07,2.06.55,1.69-.37,3.51-2.06,4.07L7.3,48.83c-.33.11-.67.16-1,.16Z"/><path class="cls-1" d="M15.1,57.16c-.75,0-1.45-.48-1.7-1.23-.31-.94.2-1.95,1.14-2.26l5.29-1.73c.94-.31,1.95.2,2.26,1.14.31.94-.2,1.95-1.14,2.26l-5.29,1.73c-.19.06-.37.09-.56.09Z"/><path class="cls-1" d="M17.43,63.68c-.75,0-1.45-.47-1.7-1.22-.32-.94.19-1.95,1.13-2.27l14.84-4.99c.94-.32,1.95.19,2.27,1.13.32.94-.19,1.95-1.13,2.27l-14.84,4.99c-.19.06-.38.09-.57.09Z"/><path class="cls-1" d="M50.25,51.72c-.19,0-.38-.04-.56-.13-.3-.15-.52-.41-.63-.72l-1.98-5.9c-.22-.66.13-1.37.79-1.59l5.89-1.98c.32-.11.66-.08.96.07.3.15.52.41.63.72l1.98,5.9c.22.66-.13,1.37-.79,1.59l-5.89,1.98c-.13.04-.26.07-.4.07ZM49.85,45.36l1.18,3.52,3.52-1.18-1.18-3.52-3.52,1.18Z"/><path class="cls-1" d="M56.34,39.52c-.79,0-1.43-.64-1.43-1.43s.64-1.43,1.43-1.43c5.12,0,9.29-4.17,9.29-9.29V4.99c0-.79.64-1.43,1.43-1.43s1.43.64,1.43,1.43v22.37c0,6.7-5.45,12.15-12.15,12.15Z"/><path class="cls-1" d="M67.16,6.28c-2.67,0-4.84-2.17-4.84-4.84,0-.79.64-1.43,1.43-1.43s1.43.64,1.43,1.43c0,1.09.89,1.98,1.98,1.98s1.98-.89,1.98-1.98c0-.79.64-1.43,1.43-1.43s1.43.64,1.43,1.43c0,2.67-2.17,4.84-4.84,4.84Z"/></g></g></svg>