<?xml version="1.0" encoding="UTF-8"?><svg id="Layer_2" xmlns="http://www.w3.org/2000/svg" viewBox="0 0 72 72"><defs><style>.cls-1{fill:#241f20;}</style></defs><g id="Layer_1-2"><path class="cls-1" d="M72,72h-9.9c-.98,0-1.78-.8-1.78-1.78s.8-1.78,1.78-1.78h6.35V3.56h-32.92v15.68c0,.98-.8,1.78-1.78,1.78s-1.78-.8-1.78-1.78V3.39c0-1.87,1.52-3.39,3.39-3.39h33.25c1.87,0,3.39,1.52,3.39,3.39v68.61Z"/><path class="cls-1" d="M47.88,11.47h-7.09c-.69,0-1.25-.56-1.25-1.25s.56-1.25,1.25-1.25h7.09c.69,0,1.25.56,1.25,1.25s-.56,1.25-1.25,1.25Z"/><path class="cls-1" d="M62.61,11.47h-7.09c-.69,0-1.25-.56-1.25-1.25s.56-1.25,1.25-1.25h7.09c.69,0,1.25.56,1.25,1.25s-.56,1.25-1.25,1.25Z"/><path class="cls-1" d="M47.88,18.84h-7.09c-.69,0-1.25-.56-1.25-1.25s.56-1.25,1.25-1.25h7.09c.69,0,1.25.56,1.25,1.25s-.56,1.25-1.25,1.25Z"/><path class="cls-1" d="M62.61,18.84h-7.09c-.69,0-1.25-.56-1.25-1.25s.56-1.25,1.25-1.25h7.09c.69,0,1.25.56,1.25,1.25s-.56,1.25-1.25,1.25Z"/><path class="cls-1" d="M62.61,26.38h-4.35c-.69,0-1.25-.56-1.25-1.25s.56-1.25,1.25-1.25h4.35c.69,0,1.25.56,1.25,1.25s-.56,1.25-1.25,1.25Z"/><path class="cls-1" d="M62.61,33.63c-.69,0-1.26-.56-1.26-1.25s.55-1.25,1.23-1.25h.02c.69,0,1.25.56,1.25,1.25s-.56,1.25-1.25,1.25Z"/><path class="cls-1" d="M62.61,55.76h-1.59c-.69,0-1.25-.56-1.25-1.25s.56-1.25,1.25-1.25h1.59c.69,0,1.25.56,1.25,1.25s-.56,1.25-1.25,1.25Z"/><path class="cls-1" d="M62.61,63.04h-1.35c-.69,0-1.25-.56-1.25-1.25s.56-1.25,1.25-1.25h1.35c.69,0,1.25.56,1.25,1.25s-.56,1.25-1.25,1.25Z"/><path class="cls-1" d="M59.56,39.25H1.79c-.98,0-1.78-.8-1.78-1.78s.8-1.78,1.78-1.78h57.78c.98,0,1.78.8,1.78,1.78s-.8,1.78-1.78,1.78Z"/><path class="cls-1" d="M21.25,71.04c-.98,0-1.78-.8-1.78-1.78v-19.79c0-.98.8-1.78,1.78-1.78s1.78.8,1.78,1.78v19.79c0,.98-.8,1.78-1.78,1.78Z"/><path class="cls-1" d="M55.2,72H6.15c-.98,0-1.78-.8-1.78-1.78v-20.6c0-.98.8-1.78,1.78-1.78s1.78.8,1.78,1.78v18.82h45.49v-18.82c0-.98.8-1.78,1.78-1.78s1.78.8,1.78,1.78v20.6c0,.98-.8,1.78-1.78,1.78Z"/><path class="cls-1" d="M59.56,47.98c-.98,0-1.78-.8-1.78-1.78v-8.1l-8.79-10.97H12.35l-8.79,10.97v8.1c0,.98-.8,1.78-1.78,1.78S0,47.18,0,46.2v-8.73c0-.4.14-.8.39-1.11l9.71-12.12c.34-.42.85-.67,1.39-.67h38.36c.54,0,1.05.25,1.39.67l9.71,12.12c.25.32.39.71.39,1.11v8.73c0,.98-.8,1.78-1.78,1.78Z"/><path class="cls-1" d="M5.42,51.1c-2.51,0-4.68-1.68-5.26-4.07-.03-.12-.06-.26-.08-.4-.05-.28-.07-.56-.07-.85,0-.98.8-1.78,1.78-1.78s1.78.8,1.78,1.78c0,.09,0,.18.02.26,0,.01,0,.03,0,.04,0,.03.01.06.02.09.2.81.96,1.38,1.81,1.38s1.62-.57,1.81-1.36c.23-.95,1.19-1.54,2.15-1.31.95.23,1.54,1.2,1.31,2.15-.59,2.4-2.75,4.07-5.26,4.07Z"/><path class="cls-1" d="M12.69,51.1c-2.51,0-4.68-1.68-5.26-4.07-.23-.95.35-1.92,1.31-2.15.95-.23,1.92.35,2.15,1.31.2.8.94,1.36,1.81,1.36s1.62-.57,1.81-1.36c.23-.95,1.2-1.54,2.15-1.31.95.23,1.54,1.2,1.31,2.15-.59,2.4-2.75,4.07-5.26,4.07Z"/><path class="cls-1" d="M19.97,51.1c-2.51,0-4.68-1.68-5.26-4.07-.23-.95.35-1.92,1.31-2.15.95-.23,1.92.35,2.15,1.31.2.8.94,1.36,1.81,1.36s1.61-.56,1.81-1.36c.23-.95,1.2-1.54,2.15-1.3.95.23,1.54,1.2,1.3,2.15-.59,2.4-2.75,4.07-5.26,4.07Z"/><path class="cls-1" d="M27.01,51.1c-2.51,0-4.68-1.68-5.26-4.07-.23-.95.35-1.92,1.31-2.15.95-.23,1.92.35,2.15,1.31.2.8.94,1.36,1.81,1.36s1.62-.57,1.81-1.36c.23-.95,1.19-1.54,2.15-1.31.95.23,1.54,1.2,1.31,2.15-.59,2.4-2.75,4.07-5.26,4.07Z"/><path class="cls-1" d="M34.29,51.1c-2.51,0-4.68-1.68-5.26-4.07-.23-.95.35-1.92,1.31-2.15.95-.23,1.92.35,2.15,1.31.2.8.94,1.36,1.81,1.36s1.61-.56,1.81-1.36c.23-.95,1.2-1.54,2.15-1.3.95.23,1.54,1.2,1.3,2.15-.59,2.4-2.75,4.07-5.26,4.07Z"/><path class="cls-1" d="M41.39,51.1c-2.51,0-4.68-1.68-5.26-4.07-.23-.95.35-1.92,1.31-2.15.95-.23,1.92.35,2.15,1.31.19.79.95,1.36,1.81,1.36s1.61-.56,1.81-1.36c.23-.95,1.19-1.54,2.15-1.31.95.23,1.54,1.2,1.31,2.15-.59,2.4-2.75,4.07-5.26,4.07Z"/><path class="cls-1" d="M48.66,51.1c-2.51,0-4.68-1.68-5.26-4.07-.23-.95.35-1.92,1.31-2.15.95-.23,1.92.35,2.15,1.31.19.79.95,1.36,1.81,1.36s1.62-.57,1.81-1.36c.23-.95,1.19-1.54,2.15-1.31.95.23,1.54,1.2,1.31,2.15-.59,2.4-2.75,4.07-5.26,4.07Z"/><path class="cls-1" d="M55.93,51.1c-2.51,0-4.67-1.67-5.26-4.07-.23-.95.35-1.92,1.3-2.15.95-.23,1.92.35,2.15,1.3.2.8.94,1.36,1.81,1.36s1.61-.56,1.81-1.36c.03-.1.04-.19.05-.28,0-.06,0-.09,0-.12s0-.06,0-.1c-.08-.98.65-1.84,1.63-1.92.98-.08,1.84.65,1.92,1.63.01.13.02.26.02.39s0,.26-.02.39c-.02.27-.07.58-.14.87-.58,2.39-2.75,4.06-5.26,4.06Z"/><path class="cls-1" d="M37.53,64.12c-.24,0-.48-.07-.69-.21-.57-.38-.72-1.16-.34-1.73l4.53-6.77c.38-.57,1.16-.73,1.73-.34.57.38.72,1.16.34,1.73l-4.53,6.77c-.24.36-.63.55-1.04.55Z"/><path class="cls-1" d="M43.2,65.02c-.24,0-.48-.07-.69-.21-.57-.38-.72-1.16-.34-1.73l1.55-2.31c.38-.57,1.16-.73,1.73-.34s.72,1.16.34,1.73l-1.55,2.31c-.24.36-.63.55-1.04.55Z"/><path class="cls-1" d="M33.87,58.77c-.24,0-.48-.07-.69-.21-.57-.38-.72-1.16-.34-1.73l1.55-2.31c.38-.57,1.16-.73,1.73-.34.57.38.72,1.16.34,1.73l-1.55,2.31c-.24.36-.63.55-1.04.55Z"/></g></svg>