<?xml version="1.0" encoding="UTF-8"?><svg id="Layer_2" xmlns="http://www.w3.org/2000/svg" viewBox="0 0 72 72"><defs><style>.cls-1{fill:#241f20;}</style></defs><g id="Layer_1-2"><g id="Icon_87"><path class="cls-1" d="M48.81,72c-.69,0-1.39-.02-2.09-.07-.98-.07-1.72-.91-1.66-1.89.07-.98.91-1.72,1.9-1.65,1.24.08,2.47.08,3.66,0,1.03-.07,1.3-.15,1.43-.19.76-.22,1.47-.64,2.03-1.2,1.15-1.15,1.34-2.96,1.4-3.55.34-3.26.51-21.07.17-47.66-.18-3.02,0-10.34,5.15-14.27.58-.44,1.22-.83,1.89-1.16.88-.43,1.95-.06,2.38.82.43.88.06,1.94-.82,2.37-.46.22-.89.49-1.29.79-3.82,2.91-3.89,8.85-3.75,11.28,0,.03,0,.06,0,.08.31,23.86.23,44.1-.19,48.11-.09.9-.38,3.65-2.42,5.69-.99.99-2.23,1.72-3.57,2.11-.46.13-1.01.24-2.18.32-.68.05-1.36.07-2.06.07Z"/><path class="cls-1" d="M10.66,57.98c-.98,0-1.78-.8-1.78-1.78V8.4C8.87,3.82,12.6.1,17.17.1l41.7-.1h0c.98,0,1.78.79,1.78,1.77,0,.98-.79,1.78-1.78,1.78l-41.7.1c-2.61,0-4.74,2.13-4.74,4.76v47.8c0,.98-.8,1.78-1.78,1.78Z"/><path class="cls-1" d="M49.22,71.88s-.07,0-.1,0H9.92c-5.47,0-9.92-4.44-9.92-9.9v-5.69c0-.98.8-1.78,1.78-1.78h38.14c.98,0,1.78.8,1.78,1.78v6.29c.02.54.11,1.06.28,1.57,0,0,.38,1.11,1.15,2.02.84.99,2.9,2.13,5.99,2.15h.2c.98,0,1.78.79,1.78,1.77,0,.98-.79,1.78-1.77,1.78-.04,0-.07,0-.11,0ZM3.56,58.07v3.92c0,3.5,2.85,6.34,6.36,6.34h30.37c-1.13-1.39-1.65-2.9-1.7-3.08-.27-.83-.42-1.7-.45-2.57,0-.02,0-.04,0-.06v-4.55H3.56Z"/><path class="cls-1" d="M70.22,17.36h-11.82c-.98,0-1.78-.8-1.78-1.78s.8-1.78,1.78-1.78h10.04v-3.91c0-3.49-3-6.33-6.7-6.33h-3.4c-.98,0-1.78-.8-1.78-1.78S57.35.02,58.34.02h3.4c5.66,0,10.26,4.43,10.26,9.88v5.68c0,.98-.8,1.78-1.78,1.78Z"/><path class="cls-1" d="M33.89,34.46c-.59,0-1.19-.23-1.88-.7-.47-.32-.95-.64-1.42-.96-1.24-.83-2.52-1.68-3.75-2.59-2.63-1.92-4.05-4.61-4.11-7.78-.03-1.42-.02-2.86-.02-4.26,0-1.04,0-2.08,0-3.12-.01-1.34.61-2.34,1.8-2.92,2.28-1.1,4.7-2.29,7.84-3.84,1-.49,2.06-.49,3.07,0,3.15,1.56,5.56,2.74,7.84,3.84,1.2.58,1.82,1.6,1.79,2.94-.02.87-.01,1.74-.01,2.75,0,.44,0,.91,0,1.4,0,.04,0,.07,0,.11-.03.41-.01.89,0,1.41.03,1.03.07,2.2-.19,3.42-.54,2.56-1.87,4.61-3.96,6.08-1.35.95-2.74,1.89-4.08,2.8l-1.07.72c-.67.46-1.26.68-1.85.68ZM25.99,15.06c0,1.04,0,2.09,0,3.13,0,1.38,0,2.8.02,4.19.04,2.17.94,3.87,2.76,5.19,1.18.86,2.44,1.7,3.65,2.51.48.32.96.64,1.44.97,0,0,.02.01.02.02,0,0,0,0,0,0l1.07-.73c1.33-.9,2.7-1.83,4.03-2.76,1.41-.99,2.27-2.33,2.64-4.08.18-.83.15-1.75.12-2.64-.02-.55-.04-1.12,0-1.67,0-.47,0-.91,0-1.33,0-.97,0-1.88.01-2.78-2.27-1.1-4.68-2.28-7.8-3.82-.04-.02-.07-.03-.09-.04,0,0-.03.01-.06.03-3.12,1.55-5.54,2.73-7.81,3.83ZM43.39,19.24h0,0Z"/><path class="cls-1" d="M48.17,43.5h-27.69c-.79,0-1.43-.64-1.43-1.42s.64-1.42,1.43-1.42h27.69c.79,0,1.43.64,1.43,1.42s-.64,1.42-1.43,1.42Z"/><path class="cls-1" d="M42.97,49.67h-22.5c-.79,0-1.43-.64-1.43-1.42s.64-1.42,1.43-1.42h22.5c.79,0,1.43.64,1.43,1.42s-.64,1.42-1.43,1.42Z"/><path class="cls-1" d="M32.68,25.84c-.42,0-.84-.16-1.16-.48l-2.88-2.87c-.64-.64-.64-1.68,0-2.32.64-.64,1.68-.64,2.33,0l1.72,1.71,4.12-4.11c.64-.64,1.68-.64,2.33,0,.64.64.64,1.68,0,2.32l-5.28,5.27c-.32.32-.74.48-1.16.48Z"/></g></g></svg>