<?xml version="1.0" encoding="UTF-8"?><svg id="Layer_2" xmlns="http://www.w3.org/2000/svg" viewBox="0 0 72.01 72"><defs><style>.cls-1{fill:#241f20;}</style></defs><g id="Layer_1-2"><g id="Icon_98"><path class="cls-1" d="M36.41,65.87H1.78c-.98,0-1.78-.8-1.78-1.78s.8-1.78,1.78-1.78h34.63c.98,0,1.78.8,1.78,1.78s-.8,1.78-1.78,1.78Z"/><path class="cls-1" d="M4.55,65.24c-.98,0-1.78-.8-1.78-1.78V21.85c0-.98.8-1.78,1.78-1.78h20.32c.98,0,1.78.8,1.78,1.78s-.8,1.78-1.78,1.78H6.33v39.83c0,.98-.8,1.78-1.78,1.78Z"/><path class="cls-1" d="M25.7,65.46c-.98,0-1.78-.8-1.78-1.78V13.48c0-.73.45-1.39,1.13-1.66L54.98.12c.55-.21,1.17-.14,1.65.19.49.33.78.88.78,1.47v26.74c0,.98-.8,1.78-1.78,1.78s-1.78-.8-1.78-1.78V4.39l-26.37,10.31v48.99c0,.98-.8,1.78-1.78,1.78Z"/><path class="cls-1" d="M16.3,29.11v2.6h-2.47v-2.6h2.47M16.3,27.54h-2.47c-.87,0-1.57.7-1.57,1.57v2.6c0,.87.7,1.57,1.57,1.57h2.47c.87,0,1.57-.7,1.57-1.57v-2.6c0-.87-.7-1.57-1.57-1.57h0Z"/><path class="cls-1" d="M16.3,37.67v2.6h-2.47v-2.6h2.47M16.3,36.1h-2.47c-.87,0-1.57.7-1.57,1.57v2.6c0,.87.7,1.57,1.57,1.57h2.47c.87,0,1.57-.7,1.57-1.57v-2.6c0-.87-.7-1.57-1.57-1.57h0Z"/><path class="cls-1" d="M16.3,46.23v2.6h-2.47v-2.6h2.47M16.3,44.66h-2.47c-.87,0-1.57.7-1.57,1.57v2.6c0,.87.7,1.57,1.57,1.57h2.47c.87,0,1.57-.7,1.57-1.57v-2.6c0-.87-.7-1.57-1.57-1.57h0Z"/><path class="cls-1" d="M16.3,54.79v2.6h-2.47v-2.6h2.47M16.3,53.23h-2.47c-.87,0-1.57.7-1.57,1.57v2.6c0,.87.7,1.57,1.57,1.57h2.47c.87,0,1.57-.7,1.57-1.57v-2.6c0-.87-.7-1.57-1.57-1.57h0Z"/><path class="cls-1" d="M56.16,72c-.17,0-.35-.02-.52-.08-1.07-.32-8.58-5.56-11.73-11.78-2.46-4.86-3-9.82-3.29-12.49-.22-2.07-.3-4.17-.23-6.25.03-.87.69-1.58,1.55-1.69,2.45-.29,4.87-.83,7.21-1.59,1.65-.54,3.73-1.54,4.97-2.13,1.53-.73,2.04-.98,2.88-.53,1.98,1.07,4.07,1.96,6.21,2.66,2.34.76,4.77,1.3,7.21,1.59.86.1,1.52.82,1.55,1.69.07,2.08,0,4.18-.23,6.25-.29,2.67-.83,7.63-3.29,12.49-3.02,5.96-7.88,9.61-11.42,11.63h0c-.27.15-.57.23-.88.23ZM43.89,43.01c0,1.43.08,2.86.24,4.27.27,2.44.76,6.99,2.93,11.28,2.26,4.46,7.21,8.32,9.13,9.64,3.01-1.85,6.76-4.93,9.14-9.64,2.17-4.28,2.66-8.83,2.93-11.28.15-1.41.23-2.85.24-4.27-2.16-.34-4.29-.85-6.36-1.53-2.07-.68-4.1-1.52-6.04-2.51-.14.07-.29.14-.44.21-1.32.63-3.53,1.69-5.4,2.3-2.07.68-4.21,1.19-6.36,1.53Z"/><path class="cls-1" d="M54.94,60.98c-.64,0-1.28-.24-1.76-.73l-3.5-3.5c-.97-.97-.97-2.55,0-3.53.97-.97,2.55-.97,3.53,0l1.74,1.74,5.63-5.63c.97-.97,2.55-.97,3.53,0,.97.97.97,2.55,0,3.53l-7.39,7.39c-.49.49-1.12.73-1.76.73Z"/><path class="cls-1" d="M35.59,20.58v2.6h-2.47v-2.6h2.47M35.59,19.02h-2.47c-.87,0-1.57.7-1.57,1.57v2.6c0,.87.7,1.57,1.57,1.57h2.47c.87,0,1.57-.7,1.57-1.57v-2.6c0-.87-.7-1.57-1.57-1.57h0Z"/><path class="cls-1" d="M48.02,20.58v2.6h-2.47v-2.6h2.47M48.02,19.02h-2.47c-.87,0-1.57.7-1.57,1.57v2.6c0,.87.7,1.57,1.57,1.57h2.47c.87,0,1.57-.7,1.57-1.57v-2.6c0-.87-.7-1.57-1.57-1.57h0Z"/><path class="cls-1" d="M35.59,29.11v2.6h-2.47v-2.6h2.47M35.59,27.54h-2.47c-.87,0-1.57.7-1.57,1.57v2.6c0,.87.7,1.57,1.57,1.57h2.47c.87,0,1.57-.7,1.57-1.57v-2.6c0-.87-.7-1.57-1.57-1.57h0Z"/><path class="cls-1" d="M35.59,37.67v2.6h-2.47v-2.6h2.47M35.59,36.1h-2.47c-.87,0-1.57.7-1.57,1.57v2.6c0,.87.7,1.57,1.57,1.57h2.47c.87,0,1.57-.7,1.57-1.57v-2.6c0-.87-.7-1.57-1.57-1.57h0Z"/><path class="cls-1" d="M35.59,46.23v2.6h-2.47v-2.6h2.47M35.59,44.66h-2.47c-.87,0-1.57.7-1.57,1.57v2.6c0,.87.7,1.57,1.57,1.57h2.47c.87,0,1.57-.7,1.57-1.57v-2.6c0-.87-.7-1.57-1.57-1.57h0Z"/><path class="cls-1" d="M35.59,54.79v2.6h-2.47v-2.6h2.47M35.59,53.23h-2.47c-.87,0-1.57.7-1.57,1.57v2.6c0,.87.7,1.57,1.57,1.57h2.47c.87,0,1.57-.7,1.57-1.57v-2.6c0-.87-.7-1.57-1.57-1.57h0Z"/><path class="cls-1" d="M48.02,29.11v2.6h-2.47v-2.6h2.47M48.02,27.54h-2.47c-.87,0-1.57.7-1.57,1.57v2.6c0,.87.7,1.57,1.57,1.57h2.47c.87,0,1.57-.7,1.57-1.57v-2.6c0-.87-.7-1.57-1.57-1.57h0Z"/></g></g></svg>