<?xml version="1.0" encoding="UTF-8"?><svg id="Layer_2" xmlns="http://www.w3.org/2000/svg" viewBox="0 0 71.74 72"><defs><style>.cls-1{fill:#241f20;}</style></defs><g id="Layer_1-2"><g id="Icon_98"><path class="cls-1" d="M55.7,72c-.18,0-.35-.03-.52-.08-1.08-.33-8.69-5.63-11.88-11.93-2.49-4.92-3.04-9.95-3.33-12.65-.23-2.09-.31-4.22-.23-6.33.03-.88.7-1.6,1.57-1.71,2.48-.3,4.94-.84,7.31-1.61,1.68-.55,3.78-1.56,5.03-2.16,1.55-.74,2.07-.99,2.92-.54,2.01,1.08,4.12,1.99,6.29,2.7,2.37.77,4.83,1.32,7.31,1.61.87.1,1.54.83,1.57,1.71.07,2.1,0,4.23-.23,6.33-.29,2.7-.84,7.73-3.33,12.65-3.06,6.04-7.98,9.74-11.57,11.77h0c-.27.15-.58.23-.89.23ZM43.26,42.64c0,1.45.08,2.9.24,4.33.27,2.48.77,7.08,2.97,11.42,2.29,4.52,7.3,8.43,9.25,9.76,3.05-1.88,6.84-4.99,9.26-9.76,2.2-4.34,2.7-8.95,2.97-11.42.16-1.43.24-2.88.24-4.33-2.18-.34-4.35-.86-6.44-1.55-2.1-.68-4.15-1.54-6.11-2.55-.14.07-.3.14-.45.21-1.34.64-3.57,1.71-5.47,2.33-2.1.68-4.26,1.2-6.44,1.55Z"/><path class="cls-1" d="M37.93,65.87H1.78c-.98,0-1.78-.8-1.78-1.78s.8-1.78,1.78-1.78h36.15c.98,0,1.78.8,1.78,1.78s-.8,1.78-1.78,1.78Z"/><path class="cls-1" d="M6.05,65.24c-.98,0-1.78-.8-1.78-1.78V21.85c0-.98.8-1.78,1.78-1.78h20.32c.98,0,1.78.8,1.78,1.78s-.8,1.78-1.78,1.78H7.84v39.83c0,.98-.8,1.78-1.78,1.78Z"/><path class="cls-1" d="M27.2,65.46c-.98,0-1.78-.8-1.78-1.78V13.48c0-.73.45-1.39,1.13-1.66L56.49.12c.55-.21,1.17-.14,1.65.19.49.33.78.88.78,1.47v26.74c0,.98-.8,1.78-1.78,1.78s-1.78-.8-1.78-1.78V4.39l-26.37,10.31v48.99c0,.98-.8,1.78-1.78,1.78Z"/><path class="cls-1" d="M13.82,29.55v2.36h-2.24v-2.36h2.24M13.82,28.12h-2.24c-.79,0-1.42.64-1.42,1.42v2.36c0,.79.64,1.42,1.42,1.42h2.24c.79,0,1.42-.64,1.42-1.42v-2.36c0-.79-.64-1.42-1.42-1.42h0Z"/><path class="cls-1" d="M21.41,29.55v2.36h-2.24v-2.36h2.24M21.41,28.12h-2.24c-.79,0-1.42.64-1.42,1.42v2.36c0,.79.64,1.42,1.42,1.42h2.24c.79,0,1.42-.64,1.42-1.42v-2.36c0-.79-.64-1.42-1.42-1.42h0Z"/><path class="cls-1" d="M13.82,37.62v2.36h-2.24v-2.36h2.24M13.82,36.19h-2.24c-.79,0-1.42.64-1.42,1.42v2.36c0,.79.64,1.42,1.42,1.42h2.24c.79,0,1.42-.64,1.42-1.42v-2.36c0-.79-.64-1.42-1.42-1.42h0Z"/><path class="cls-1" d="M21.41,37.62v2.36h-2.24v-2.36h2.24M21.41,36.19h-2.24c-.79,0-1.42.64-1.42,1.42v2.36c0,.79.64,1.42,1.42,1.42h2.24c.79,0,1.42-.64,1.42-1.42v-2.36c0-.79-.64-1.42-1.42-1.42h0Z"/><path class="cls-1" d="M13.82,45.68v2.36h-2.24v-2.36h2.24M13.82,44.26h-2.24c-.79,0-1.42.64-1.42,1.42v2.36c0,.79.64,1.42,1.42,1.42h2.24c.79,0,1.42-.64,1.42-1.42v-2.36c0-.79-.64-1.42-1.42-1.42h0Z"/><path class="cls-1" d="M21.41,45.68v2.36h-2.24v-2.36h2.24M21.41,44.26h-2.24c-.79,0-1.42.64-1.42,1.42v2.36c0,.79.64,1.42,1.42,1.42h2.24c.79,0,1.42-.64,1.42-1.42v-2.36c0-.79-.64-1.42-1.42-1.42h0Z"/><path class="cls-1" d="M13.82,53.75v2.36h-2.24v-2.36h2.24M13.82,52.33h-2.24c-.79,0-1.42.64-1.42,1.42v2.36c0,.79.64,1.42,1.42,1.42h2.24c.79,0,1.42-.64,1.42-1.42v-2.36c0-.79-.64-1.42-1.42-1.42h0Z"/><path class="cls-1" d="M21.41,53.75v2.36h-2.24v-2.36h2.24M21.41,52.33h-2.24c-.79,0-1.42.64-1.42,1.42v2.36c0,.79.64,1.42,1.42,1.42h2.24c.79,0,1.42-.64,1.42-1.42v-2.36c0-.79-.64-1.42-1.42-1.42h0Z"/><path class="cls-1" d="M35.55,29.55v2.36h-2.24v-2.36h2.24M35.55,28.12h-2.24c-.79,0-1.42.64-1.42,1.42v2.36c0,.79.64,1.42,1.42,1.42h2.24c.79,0,1.42-.64,1.42-1.42v-2.36c0-.79-.64-1.42-1.42-1.42h0Z"/><path class="cls-1" d="M43.14,29.55v2.36h-2.24v-2.36h2.24M43.14,28.12h-2.24c-.79,0-1.42.64-1.42,1.42v2.36c0,.79.64,1.42,1.42,1.42h2.24c.79,0,1.42-.64,1.42-1.42v-2.36c0-.79-.64-1.42-1.42-1.42h0Z"/><path class="cls-1" d="M35.55,37.62v2.36h-2.24v-2.36h2.24M35.55,36.19h-2.24c-.79,0-1.42.64-1.42,1.42v2.36c0,.79.64,1.42,1.42,1.42h2.24c.79,0,1.42-.64,1.42-1.42v-2.36c0-.79-.64-1.42-1.42-1.42h0Z"/><path class="cls-1" d="M35.55,45.68v2.36h-2.24v-2.36h2.24M35.55,44.26h-2.24c-.79,0-1.42.64-1.42,1.42v2.36c0,.79.64,1.42,1.42,1.42h2.24c.79,0,1.42-.64,1.42-1.42v-2.36c0-.79-.64-1.42-1.42-1.42h0Z"/><path class="cls-1" d="M35.55,53.75v2.36h-2.24v-2.36h2.24M35.55,52.33h-2.24c-.79,0-1.42.64-1.42,1.42v2.36c0,.79.64,1.42,1.42,1.42h2.24c.79,0,1.42-.64,1.42-1.42v-2.36c0-.79-.64-1.42-1.42-1.42h0Z"/><path class="cls-1" d="M50.81,29.55v2.36h-2.24v-2.36h2.24M50.81,28.12h-2.24c-.79,0-1.42.64-1.42,1.42v2.36c0,.79.64,1.42,1.42,1.42h2.24c.79,0,1.42-.64,1.42-1.42v-2.36c0-.79-.64-1.42-1.42-1.42h0Z"/><path class="cls-1" d="M35.55,21.26v2.36h-2.24v-2.36h2.24M35.55,19.83h-2.24c-.79,0-1.42.64-1.42,1.42v2.36c0,.79.64,1.42,1.42,1.42h2.24c.79,0,1.42-.64,1.42-1.42v-2.36c0-.79-.64-1.42-1.42-1.42h0Z"/><path class="cls-1" d="M43.14,21.26v2.36h-2.24v-2.36h2.24M43.14,19.83h-2.24c-.79,0-1.42.64-1.42,1.42v2.36c0,.79.64,1.42,1.42,1.42h2.24c.79,0,1.42-.64,1.42-1.42v-2.36c0-.79-.64-1.42-1.42-1.42h0Z"/><path class="cls-1" d="M50.81,21.26v2.36h-2.24v-2.36h2.24M50.81,19.83h-2.24c-.79,0-1.42.64-1.42,1.42v2.36c0,.79.64,1.42,1.42,1.42h2.24c.79,0,1.42-.64,1.42-1.42v-2.36c0-.79-.64-1.42-1.42-1.42h0Z"/><path class="cls-1" d="M54.94,60.98c-.64,0-1.28-.24-1.76-.73l-3.5-3.5c-.97-.97-.97-2.55,0-3.53.97-.97,2.55-.97,3.53,0l1.74,1.74,5.63-5.63c.97-.97,2.55-.97,3.53,0,.97.97.97,2.55,0,3.53l-7.39,7.39c-.49.49-1.12.73-1.76.73Z"/></g></g></svg>