<?xml version="1.0" encoding="UTF-8"?><svg id="Layer_2" xmlns="http://www.w3.org/2000/svg" viewBox="0 0 72 72"><defs><style>.cls-1{fill:#241f20;}</style></defs><g id="Layer_1-2"><g id="Icon_102"><path class="cls-1" d="M43.45,38.51c-.05,0-.11,0-.16,0-.64-.06-1.2-.46-1.46-1.04-1.08-2.41-3.45-3.96-6.03-3.96-.02,0-.04,0-.05,0-2.4.02-4.6,1.37-5.76,3.53-.31.58-.91.94-1.57.94,0,0-.01,0-.02,0-.66,0-1.27-.38-1.57-.97-.06-.12-1.56-3.01-4.71-3.37-2.4-.28-4.76.97-6.02,3.17-.42.74-1.32,1.08-2.13.8-.81-.28-1.3-1.1-1.18-1.94.53-3.59,2-8.89,6-13.69,1.3-1.57,3.73-4.48,8.04-6.41,3.25-1.45,7.05-2.1,10.71-1.82,1.4.11,6.33.7,11.1,3.92,8.59,5.79,10.33,15.71,10.66,18.61.09.79-.35,1.54-1.08,1.84-.73.3-1.58.09-2.07-.53-1.76-2.2-4.42-3.25-6.94-2.75-2.39.47-3.8,2.2-4.3,2.92-.33.48-.88.77-1.46.77ZM35.79,29.94c3.11,0,6,1.44,7.91,3.83,1.12-1,2.71-2.03,4.81-2.44,2.13-.42,4.31-.13,6.27.77-1.12-3.62-3.42-8.32-8.14-11.5-4.05-2.73-8.21-3.23-9.38-3.32-3.07-.23-6.26.31-8.98,1.52-3.56,1.59-5.56,4-6.76,5.44-1.79,2.16-3,4.43-3.82,6.56,1.49-.64,3.14-.9,4.81-.71,2.75.32,4.68,1.77,5.89,3.08,1.88-2.01,4.51-3.2,7.3-3.23.03,0,.06,0,.08,0Z"/><path class="cls-1" d="M39.08,60.97c-.19,0-.38-.01-.56-.03-2.02-.24-3.83-1.84-4.6-4.06-.59-1.7-.54-3.48-.49-4.91l.57-17.95c.03-.98.85-1.75,1.83-1.72.98.03,1.75.85,1.72,1.83l-.57,17.95c-.04,1.25-.08,2.56.3,3.64.32.92,1,1.61,1.66,1.69.05,0,.09,0,.14,0,.85,0,1.8-1.07,1.98-2.24.15-.97,1.07-1.63,2.04-1.48.97.15,1.63,1.07,1.48,2.04-.41,2.58-2.58,5.24-5.5,5.24Z"/><path class="cls-1" d="M4.79,51.82c-.68,0-1.33-.39-1.62-1.05C.22,44.21-.7,36.99.53,29.89,3.9,10.33,22.55-2.84,42.11.53c3.95.68,7.73,2,11.21,3.91.86.47,1.18,1.55.7,2.42-.47.86-1.55,1.18-2.42.7-3.14-1.72-6.54-2.91-10.1-3.52C23.88,1,7.07,12.87,4.03,30.49c-1.1,6.4-.28,12.91,2.38,18.82.4.9,0,1.95-.89,2.35-.24.11-.49.16-.73.16Z"/><polygon class="cls-1" points="47.3 10.19 59.67 11.29 54.44 .02 47.3 10.19"/><path class="cls-1" d="M36.07,72c-2.05,0-4.12-.18-6.19-.53-3.95-.68-7.73-2-11.21-3.91-.86-.47-1.18-1.55-.7-2.42.47-.86,1.55-1.18,2.42-.7,3.14,1.72,6.54,2.91,10.11,3.52,8.54,1.47,17.14-.47,24.21-5.47,7.08-5,11.78-12.45,13.26-20.99,1.1-6.4.28-12.91-2.38-18.81-.4-.9,0-1.95.89-2.35.9-.4,1.95,0,2.35.89,2.95,6.55,3.87,13.77,2.64,20.88-1.63,9.47-6.86,17.75-14.71,23.29-6.14,4.34-13.32,6.6-20.69,6.6Z"/><polygon class="cls-1" points="24.69 61.81 12.32 60.71 17.55 71.97 24.69 61.81"/></g></g></svg>