<?xml version="1.0" encoding="UTF-8"?><svg id="Layer_2" xmlns="http://www.w3.org/2000/svg" viewBox="0 0 72 47.64"><defs><style>.cls-1{fill:#241f20;}</style></defs><g id="Layer_1-2"><g id="Icon_66"><path class="cls-1" d="M59.34,19.88H12.38c-.75,0-1.41-.47-1.67-1.17-.14-.37-.23-.75-.27-1.13-.07-.64,0-1.11.06-1.39,0-.02,0-.04.01-.06-.03-.06-.1-.16-.14-.22-.27-.4-.89-1.35-.43-2.53.31-.8.93-1.17,1.27-1.37.17-.1.23-.14.27-.2.08-.37.15-.75.23-1.12.21-1.03.43-2.09.6-3.12C13.06,2.94,16.32.06,20.8.03,31.6-.02,42.08,0,50.91.03c3.59.01,6.37,1.82,7.82,5.09.64,1.44.88,2.95,1.13,4.55l.06.38c.11.77.17,1.05.38,1.37.2.3.5.56.89.76.47.25.8.69.91,1.2s-.01,1.05-.34,1.47c-.47.6-.56.91-.57.99h0c.07.31.23,1.02.09,1.92-.06.34-.15.68-.28,1.01-.27.67-.93,1.11-1.65,1.11ZM14.07,16.32h43.58c-.1-.68.01-1.38.34-2.11-.24-.25-.46-.52-.65-.8-.66-.99-.8-1.88-.94-2.82l-.05-.36c-.22-1.42-.41-2.64-.86-3.66-.88-1.99-2.38-2.97-4.58-2.97-8.82-.03-19.3-.05-30.08,0-2.75.01-4.52,1.63-5,4.54-.18,1.11-.41,2.21-.63,3.27-.09.45-.19.9-.28,1.35-.06.3-.18.52-.24.62-.29.56-.64.94-.96,1.2.21.44.4,1.01.35,1.73ZM11.57,11.65s0,0,0,0h0Z"/><path class="cls-1" d="M15.84,47.64s-.05,0-.08,0c-1.34-.02-2.71-.02-4.04-.01-.74,0-1.48,0-2.22,0-1.27,0-2.43-.47-3.27-1.31-.88-.89-1.36-2.15-1.35-3.56,0-1.22,0-2.45,0-3.68-.02-3.54-.04-7.21.31-10.84.04-.39.06-.79.08-1.18.05-.83.1-1.68.27-2.56.59-3.06,2.1-5.35,4.47-6.79.4-.24.68-.48.9-.74.62-.76,1.75-.87,2.51-.25.76.62.87,1.75.25,2.51-.47.58-1.06,1.07-1.8,1.52-1.5.91-2.42,2.36-2.82,4.42-.12.64-.16,1.34-.21,2.08-.02.43-.05.87-.09,1.31-.33,3.46-.31,7.03-.29,10.49,0,1.24.01,2.48,0,3.72,0,.45.11.82.32,1.03.17.17.42.26.75.26.73,0,1.47,0,2.2,0,1.34,0,2.73,0,4.11.01.29.01.52-.09.72-.3.22-.24.35-.58.33-.88-.04-.54-.03-1.06-.02-1.56,0-.2,0-.4,0-.6,0-.98.8-1.78,1.78-1.78s1.78.8,1.78,1.78c0,.22,0,.44,0,.67,0,.44-.02.85.01,1.23.09,1.29-.39,2.63-1.3,3.59-.87.92-2.03,1.42-3.29,1.42Z"/><path class="cls-1" d="M59.05,47.64c-1.11,0-2.21,0-3.29-.02-2.54-.02-4.46-2.08-4.46-4.78v-1.48s0-.63,0-.63c0-.98.8-1.78,1.78-1.78s1.78.8,1.78,1.78v.63s0,1.47,0,1.47c0,.58.25,1.21.93,1.22,2.13.02,4.34.02,6.55,0,.64,0,.92-.57.92-1.14v-1.64c.02-5.03.03-10.23-.55-15.28-.29-2.56-1.23-4.21-3.03-5.35-.64-.4-1.19-.89-1.63-1.43-.62-.76-.5-1.89.26-2.51.76-.62,1.89-.5,2.51.26.2.24.46.47.77.66,2.73,1.72,4.26,4.33,4.67,7.96.6,5.26.59,10.56.57,15.69v1.64c0,2.61-1.96,4.67-4.46,4.7-1.12.01-2.23.02-3.33.02Z"/><path class="cls-1" d="M48.6,30.55c-1.3,0-2.38-.53-3.21-1.58-.74-.94-.96-2.06-.6-3.05.35-.99,1.22-1.7,2.37-1.95,2.33-.51,4.44-.97,6.59-1.4,1.36-.27,2.62,0,3.56.77.9.74,1.4,1.84,1.4,3.11,0,.01,0,.02,0,.03,0,.01,0,.02,0,.03,0,2.45-1.59,4.04-4.04,4.04-.58,0-1.17,0-1.75,0-1.38,0-2.82-.01-4.21.02-.04,0-.07,0-.11,0ZM54.76,25.3c-.14,0-.29.02-.44.05-2.13.43-4.23.89-6.55,1.39-.2.04-.29.12-.3.14,0,.01.02.14.16.32.29.37.57.5,1.01.49,1.44-.03,2.89-.03,4.29-.02.58,0,1.16,0,1.74,0,.87,0,1.19-.32,1.19-1.19,0-.01,0-.02,0-.03,0-.01,0-.02,0-.03,0-.28-.06-.66-.35-.9-.19-.15-.45-.23-.75-.23Z"/><path class="cls-1" d="M43.32,38.26c-.88,0-1.65-.65-1.76-1.55-.08-.59-.07-1.16-.07-1.66,0-.14,0-.28,0-.41-3.74-.03-7.52-.03-11.27,0,0,.13,0,.27,0,.41,0,.5.01,1.07-.07,1.66-.13.98-1.02,1.66-2,1.53-.98-.13-1.66-1.02-1.53-2,.05-.34.04-.74.04-1.16,0-.42,0-.84.03-1.31v-.04c.19-2.18,1.27-2.64,2.83-2.66,4.2-.04,8.46-.04,12.67,0,2.16.02,2.7,1.08,2.83,2.66v.04c.04.46.04.89.03,1.31,0,.42,0,.81.04,1.16.13.98-.56,1.87-1.53,2-.08.01-.16.02-.24.02Z"/><path class="cls-1" d="M7.49,17.13c-.27,0-.57-.03-.89-.07-.82-.12-1.64-.23-2.46-.34-.58-.08-1.16-.16-1.74-.24C1.23,16.31.03,15.88.02,13.86c0-.16,0-.33,0-.49-.01-.46-.03-.93.03-1.45v-.07c.16-1.47.59-2.19,2.58-2.27,1.53-.07,3.09-.07,4.62,0,2,.09,2.42.81,2.57,2.3v.05c.02.19.03.39.04.58,0,.24.02.45.05.6.31.4.39.95.18,1.44-.04.1-.09.19-.13.29-.07.16-.14.31-.19.44-.49,1.42-1.2,1.85-2.26,1.85ZM2.87,13.67c.55.08,1.11.15,1.66.23.83.11,1.66.22,2.49.34.03,0,.06,0,.08.01.03-.08.06-.16.09-.23-.16-.52-.18-1.01-.2-1.4,0-.06,0-.13,0-.19-1.37-.06-2.76-.06-4.13,0-.01.27,0,.56,0,.87,0,.12,0,.25,0,.37Z"/><path class="cls-1" d="M64.51,17.13c-1.06,0-1.77-.43-2.26-1.85-.04-.13-.11-.28-.19-.44-.04-.1-.09-.19-.13-.29-.22-.49-.13-1.04.18-1.44.04-.15.04-.36.05-.6,0-.19.01-.39.03-.58v-.05c.15-1.49.57-2.21,2.58-2.3,1.53-.07,3.09-.07,4.62,0,1.99.09,2.41.8,2.57,2.27v.07c.06.51.05.99.04,1.45,0,.16,0,.33,0,.49,0,2.01-1.21,2.45-2.39,2.61-.58.08-1.16.16-1.74.24-.82.11-1.64.22-2.46.34-.32.05-.61.07-.89.07ZM64.81,14.01c.03.07.06.15.09.23.03,0,.05,0,.08-.01.83-.12,1.66-.23,2.49-.34.55-.07,1.11-.15,1.66-.23,0-.12,0-.25,0-.37,0-.31.02-.6,0-.87-1.37-.06-2.76-.06-4.13,0,0,.06,0,.13,0,.19-.01.39-.03.88-.2,1.4Z"/><path class="cls-1" d="M42.09,40.98c-12.58,0-27.99-.08-28.17-.1-.98-.08-1.71-.94-1.63-1.92.08-.95.89-1.67,1.83-1.63,2.45.04,41.4.17,43.42-.02.96-.13,1.85.52,2.01,1.48.15.97-.51,1.88-1.48,2.04-.73.12-7.75.15-15.98.15Z"/><path class="cls-1" d="M20.44,30.72c-1.02,0-2.03-.03-3.05-.1-1.52-.1-2.73-.8-3.4-1.97-.7-1.21-.7-2.76-.02-4.13.63-1.27,1.77-1.75,2.57-2,.16-.05.31-.07.47-.07.06,0,.13,0,.19,0,.22-.01.53-.03.87.04l1.03.2c1.95.38,3.97.78,5.95,1.21,1.05.23,1.85.83,2.26,1.69.39.82.37,1.8-.08,2.69-.69,1.38-1.85,2.2-3.27,2.31-1.17.09-2.35.13-3.53.13ZM17.22,25.3c-.47.17-.61.34-.69.49-.25.51-.28,1.07-.06,1.44.19.32.56.51,1.11.54,2.06.13,4.14.12,6.17-.03.31-.02.64-.13.94-.74.05-.11.06-.17.05-.19,0-.01-.09-.09-.3-.13-1.95-.42-3.96-.82-5.89-1.2l-1.03-.2s-.1,0-.17.01c-.05,0-.09,0-.14,0Z"/></g></g></svg>