<?xml version="1.0" encoding="UTF-8"?><svg id="Layer_2" xmlns="http://www.w3.org/2000/svg" viewBox="0 0 72.5 72.5"><defs><style>.cls-1{stroke:#000;stroke-miterlimit:10;stroke-width:.5px;}</style></defs><g id="Layer_1-2"><path class="cls-1" d="M68.95,38.61c.74.76,1.96.78,2.72.04.76-.74.78-1.96.04-2.72L37.64.81c-.72-.75-2.04-.75-2.76,0L.79,35.94c-.74.76-.72,1.98.04,2.72.37.36.86.54,1.34.54s1-.2,1.38-.58l3.34-3.44v33.22h-3.82c-1.06,0-1.92.86-1.92,1.93s.86,1.93,1.92,1.93h66.36c1.06,0,1.92-.86,1.92-1.93s-.86-1.93-1.92-1.93h-3.82v-33.24l3.34,3.44ZM29.06,68.4v-23.46h14.38v23.46h-14.38ZM61.76,31.94v36.46h-14.47v-25.39c0-1.06-.86-1.93-1.92-1.93h-18.23c-1.06,0-1.92.86-1.92,1.93v25.39h-14.47V31.94c0-.21-.06-.41-.12-.6L36.26,4.92l25.62,26.41c-.07.2-.12.4-.12.61Z"/></g></svg>