<?xml version="1.0" encoding="UTF-8"?><svg id="Layer_2" xmlns="http://www.w3.org/2000/svg" viewBox="0 0 67.13 72"><defs><style>.cls-1{fill:#241f20;}</style></defs><g id="Layer_1-2"><path class="cls-1" d="M30.69,72c-.18,0-.36-.03-.55-.08-1.42-.43-16.65-10.7-23.05-23.32C2.19,38.9,1.1,28.89.52,23.52.1,19.66-.07,15.74.02,11.86c.03-1.42,1.08-2.58,2.48-2.76,4.85-.63,9.67-1.73,14.32-3.24,3.52-1.15,7.86-3.23,10.46-4.48C30.27-.06,30.66-.24,31.56.24c4.17,2.25,8.57,4.14,13.08,5.61,2.94.96,5.97,1.75,9,2.36.97.19,1.59,1.14,1.4,2.1-.19.97-1.14,1.59-2.1,1.4-3.17-.64-6.33-1.47-9.41-2.47-4.45-1.45-8.81-3.29-12.95-5.48-.46.21-1.13.53-1.74.83-2.67,1.28-7.15,3.43-10.9,4.65-4.67,1.52-9.49,2.63-14.35,3.31-.06,3.52.11,7.08.49,10.58.56,5.15,1.6,14.73,6.22,23.85,5.25,10.37,17.29,19.18,20.39,21.18,6.55-3.86,15.13-10.57,20.5-21.18,4.01-7.92,5.34-16.26,6-21.84.11-.98,1.01-1.68,1.98-1.57.98.11,1.68,1,1.57,1.98-.68,5.85-2.09,14.61-6.36,23.04-6.01,11.87-15.71,19.15-22.79,23.17-.27.16-.58.23-.89.23Z"/><path class="cls-1" d="M29.5,50.03c-.61,0-1.21-.23-1.67-.64l-15.35-13.73c-1.03-.92-1.12-2.5-.2-3.53.92-1.03,2.5-1.12,3.53-.2l13.48,12.06L62.77,6.58c.92-1.03,2.5-1.12,3.53-.2,1.03.92,1.12,2.5.2,3.53L31.36,49.19c-.44.49-1.06.79-1.73.83-.05,0-.09,0-.14,0Z"/></g></svg>