<?xml version="1.0" encoding="UTF-8"?><svg id="Layer_2" xmlns="http://www.w3.org/2000/svg" viewBox="0 0 72 72"><defs><style>.cls-1{fill:#241f20;}</style></defs><g id="Layer_1-2"><path class="cls-1" d="M55.54,72l-.75-.22c-1.12-.34-9.04-5.84-12.36-12.39-2.6-5.11-3.17-10.34-3.47-13.15-.19-1.76-.28-3.55-.27-5.32.01-1.57,1.15-2.88,2.7-3.11,2.21-.33,4.41-.84,6.54-1.53,1.76-.57,3.95-1.62,5.27-2.25,1.59-.76,2.13-1.02,2.97-.56,2.1,1.13,4.31,2.08,6.58,2.81,2.13.69,4.33,1.21,6.54,1.53,1.56.23,2.69,1.54,2.7,3.11.01,1.77-.08,3.56-.27,5.32-.31,2.81-.88,8.04-3.47,13.15-3.19,6.28-8.31,10.12-12.05,12.23h0s-.66.38-.66.38ZM54.45,68.54s0,0,0,0c0,0,0,0,0,0ZM42.25,41.27c0,1.53.09,3.07.25,4.59.28,2.58.81,7.39,3.11,11.93,2.42,4.77,7.72,8.86,9.73,10.23,3.2-1.96,7.2-5.22,9.75-10.23,2.3-4.53,2.83-9.34,3.11-11.93.17-1.52.25-3.06.25-4.59-2.3-.36-4.58-.9-6.79-1.62-2.2-.72-4.35-1.61-6.41-2.67-.16.08-.34.16-.5.24-1.48.71-3.73,1.78-5.7,2.43-2.21.72-4.49,1.26-6.79,1.62Z"/><path class="cls-1" d="M42.92,71.84H5.33c-2.94,0-5.33-2.39-5.33-5.32V14.97c0-2.93,2.39-5.32,5.33-5.32h7.23c.98,0,1.78.79,1.78,1.77s-.8,1.77-1.78,1.77h-7.23c-.98,0-1.78.79-1.78,1.77v51.55c0,.98.8,1.77,1.78,1.77h37.58c.98,0,1.78.79,1.78,1.77s-.8,1.77-1.78,1.77Z"/><path class="cls-1" d="M54.71,30.33c-.98,0-1.78-.79-1.78-1.77v-13.58c0-.98-.8-1.77-1.78-1.77h-5.74c-.98,0-1.78-.79-1.78-1.77s.8-1.77,1.78-1.77h5.74c2.94,0,5.34,2.39,5.34,5.32v13.58c0,.98-.8,1.77-1.78,1.77Z"/><path class="cls-1" d="M44.62,17.67H12.61c-.98,0-1.78-.79-1.78-1.77V6.47c0-.98.8-1.77,1.78-1.77h10.89c.98,0,1.78.79,1.78,1.77s-.8,1.77-1.78,1.77h-9.11v5.88h28.45v-5.88h-8.77c-.98,0-1.78-.79-1.78-1.77s.8-1.77,1.78-1.77h10.55c.98,0,1.78.79,1.78,1.77v9.43c0,.98-.8,1.77-1.78,1.77Z"/><path class="cls-1" d="M33.66,8.24c-.93,0-1.71-.72-1.77-1.65-.12-1.7-1.56-3.04-3.27-3.04s-3.15,1.34-3.27,3.04c-.07.98-.91,1.72-1.9,1.65-.98-.07-1.72-.91-1.65-1.89.25-3.56,3.24-6.34,6.82-6.34s6.58,2.79,6.82,6.34c.07.98-.67,1.82-1.65,1.89-.04,0-.08,0-.12,0Z"/><path class="cls-1" d="M28.91,7.55c-.65,0-1.18.53-1.18,1.18s.53,1.18,1.18,1.18,1.18-.53,1.18-1.18-.53-1.18-1.18-1.18h0Z"/><path class="cls-1" d="M43.34,28.77H12.46c-.98,0-1.78-.79-1.78-1.77s.8-1.77,1.78-1.77h30.88c.98,0,1.78.79,1.78,1.77s-.8,1.77-1.78,1.77Z"/><path class="cls-1" d="M32,39.26H12.46c-.98,0-1.78-.79-1.78-1.77s.8-1.77,1.78-1.77h19.54c.98,0,1.78.79,1.78,1.77s-.8,1.77-1.78,1.77Z"/><path class="cls-1" d="M32,49.74H12.46c-.98,0-1.78-.79-1.78-1.77s.8-1.77,1.78-1.77h19.54c.98,0,1.78.79,1.78,1.77s-.8,1.77-1.78,1.77Z"/><path class="cls-1" d="M32,60.23H12.46c-.98,0-1.78-.79-1.78-1.77s.8-1.77,1.78-1.77h19.54c.98,0,1.78.79,1.78,1.77s-.8,1.77-1.78,1.77Z"/><path class="cls-1" d="M53.63,59.11c-.47,0-.92-.19-1.26-.52l-4.8-4.79c-.69-.69-.69-1.82,0-2.51.69-.69,1.82-.69,2.52,0l3.54,3.53,7.54-7.52c.69-.69,1.82-.69,2.52,0,.69.69.69,1.82,0,2.51l-8.8,8.78c-.33.33-.79.52-1.26.52Z"/></g></svg>