<?xml version="1.0" encoding="UTF-8"?><svg id="Layer_2" xmlns="http://www.w3.org/2000/svg" viewBox="0 0 72 72"><g id="Layer_1-2"><g id="Icon_5"><path d="M19.73,52.43H5.57c-3.07,0-5.57-2.5-5.57-5.57v-21.14c0-3.07,2.5-5.57,5.57-5.57h14.16c3.07,0,5.57,2.5,5.57,5.57v21.14c0,3.07-2.5,5.57-5.57,5.57ZM5.57,23.7c-1.11,0-2.02.9-2.02,2.02v21.14c0,1.11.9,2.02,2.02,2.02h14.16c1.11,0,2.02-.9,2.02-2.02v-21.14c0-1.11-.9-2.02-2.02-2.02H5.57Z"/><path d="M66.43,15.76h-8.53c-3.07,0-5.57-2.5-5.57-5.57v-4.62c0-3.07,2.5-5.57,5.57-5.57h8.53c3.07,0,5.57,2.5,5.57,5.57v4.62c0,3.07-2.5,5.57-5.57,5.57ZM57.89,3.56c-1.11,0-2.02.9-2.02,2.02v4.62c0,1.11.9,2.02,2.02,2.02h8.53c1.11,0,2.02-.9,2.02-2.02v-4.62c0-1.11-.9-2.02-2.02-2.02h-8.53Z"/><path d="M66.43,43.88h-8.53c-3.07,0-5.57-2.5-5.57-5.57v-4.62c0-3.07,2.5-5.57,5.57-5.57h8.53c3.07,0,5.57,2.5,5.57,5.57v4.62c0,3.07-2.5,5.57-5.57,5.57ZM57.89,31.68c-1.11,0-2.02.9-2.02,2.02v4.62c0,1.11.9,2.02,2.02,2.02h8.53c1.11,0,2.02-.9,2.02-2.02v-4.62c0-1.11-.9-2.02-2.02-2.02h-8.53Z"/><path d="M66.43,72h-8.53c-3.07,0-5.57-2.5-5.57-5.57v-4.62c0-3.07,2.5-5.57,5.57-5.57h8.53c3.07,0,5.57,2.5,5.57,5.57v4.62c0,3.07-2.5,5.57-5.57,5.57ZM57.89,59.79c-1.11,0-2.02.9-2.02,2.02v4.62c0,1.11.9,2.02,2.02,2.02h8.53c1.11,0,2.02-.9,2.02-2.02v-4.62c0-1.11-.9-2.02-2.02-2.02h-8.53Z"/><path d="M48.54,38.14h-24.1c-.98,0-1.78-.8-1.78-1.78s.8-1.78,1.78-1.78h24.1c.98,0,1.78.8,1.78,1.78s-.8,1.78-1.78,1.78Z"/><path d="M34.42,65.88c-.98,0-1.78-.8-1.78-1.78V8.47c0-.98.8-1.78,1.78-1.78s1.78.8,1.78,1.78v55.63c0,.98-.8,1.78-1.78,1.78Z"/><path d="M48.54,10.22h-14c-.98,0-1.78-.8-1.78-1.78s.8-1.78,1.78-1.78h14c.98,0,1.78.8,1.78,1.78s-.8,1.78-1.78,1.78Z"/><path d="M48.54,66.19h-14c-.98,0-1.78-.8-1.78-1.78s.8-1.78,1.78-1.78h14c.98,0,1.78.8,1.78,1.78s-.8,1.78-1.78,1.78Z"/></g></g></svg>