<?xml version="1.0" encoding="UTF-8"?><svg id="Layer_2" xmlns="http://www.w3.org/2000/svg" viewBox="0 0 72 72"><defs><style>.cls-1{fill:#241f20;}</style></defs><g id="Layer_1-2"><path class="cls-1" d="M20.72,19.61c-.14,0-.27.03-.38.09-.56.33-1.99,2.2-2.43,2.82-10.8,15.02.43,34.99,17.83,34.99,1.24,0,2.5-.1,3.79-.31,15.95-2.6,23.62-21.4,14.18-34.61-.44-.61-1.93-2.56-2.48-2.88-.06-.03-.16-.05-.28-.05-.56,0-1.62.27-1.71.4-.21.29.26,1.89.3,2.34-.39,0-.91.43-1.24.44h0c-.3,0-2.62-1.28-3.24-1.49-.73-.24-1.8-.47-2.56-.47-.07,0-.15,0-.22,0-1.92,0-4.84.13-6.65.36-.51.06-1.28.45-1.63.45-.41,0-1.65-.55-2.25-.65-.59-.1-1.13-.15-1.65-.15-1.43,0-2.67.36-4.18.9-.51.18-2.24,1.05-2.54,1.08,0,0,0,0,0,0-.16,0-1.16-.31-1.19-.36-.18-.29.33-1.98.28-2.44-.46-.08-1.2-.44-1.73-.44h0ZM23.41,25.18s.05,0,.07,0c.45-.03,2.31-1.01,2.96-1.25,1.29-.47,2.48-.86,3.76-.86.56,0,1.14.08,1.75.25-1.54,1.87-3.3,3.6-4.84,5.47-.59.72-1.3,1.52-1.34,2.51-.07,1.75,1.5,3.56,3.24,3.56.32,0,.64-.06.96-.19,1.96-1.17,3.5-2.97,5.18-4.49l.33-.1,12.85,12.22c.56.78,0,1.65-.82,1.65-.16,0-.33-.03-.5-.1l-4.23-4.06s-.07-.05-.1-.05c-.04,0-.08.02-.13.05-.08.04-1.2,1.17-1.29,1.29-.07.1-.16.12-.11.29.14,0,.25.08.35.17.81.77,2.63,2.39,3.21,3.21.62.87.02,1.64-.82,1.64-.16,0-.33-.03-.5-.09l-3.5-3.41c-.23-.17-.34-.24-.4-.24-.11,0-.08.19-.25.36-.39.37-.86.69-1.11,1.2.06.33,2.43,2.15,2.62,2.75.26.8-.58,1.72-1.27,1.72-.1,0-.19-.02-.28-.06-.88-.39-1.2-1.5-2.07-2.01-.43-.25-1.03-.47-1.53-.47-.01,0-.03,0-.04,0,.03-.96-.74-2.11-1.55-2.59-.33-.19-1.4-.41-1.46-.47-.05-.05-.17-.73-.27-.95-.37-.8-.89-1.45-1.73-1.76-.3-.11-.99-.16-1.03-.19-.07-.05-.19-.85-.27-1.07-.05-.12-.54-1.06-.58-1.11,0,0,0,0-.01,0-.03,0-.11.03-.16.03-.02,0-.03,0-.04,0-.77-.59-1.31-.91-2.14-.91-.21,0-.45.02-.71.07-.2.03-1.31.41-1.44.49-.2.14-.62.88-.89.89-.47-.2-3.46-1.09-3.55-1.35l1.97-12.51c.56,0,1.17.47,1.72.47h0ZM38.29,23.35c.27,0,.54,0,.83-.02,1-.05,2.27-.25,3.32-.25.14,0,.27,0,.4.01,1.8.1,3.64,1.5,5.3,2.16l1.76-.64,1.99,12.51-2.81,1.07s-.07-.01-.11-.01c-.27,0-.51.22-.67.29-.16.07-.34.09-.49.19l-4.66-4.32,4.18-1c.09-.13-.34-1.95-.45-2.04-1.34.17-2.71.67-4.03.67-.82,0-1.62-.2-2.38-.79l-4.98-4.12c-2.11,1.7-4.05,3.63-6.06,5.45-.11.1-.23.14-.36.14-.46,0-.98-.53-1.06-.91-.13-.63.9-1.63,1.32-2.13,1.33-1.56,3.05-3.7,4.48-5.07,1.14-1.09,2.24-1.2,3.49-1.2.32,0,.65,0,.99,0h0ZM19.59,24.02l-2.36,14.83c-.08.38-.4.56-.76.56-.05,0-.1,0-.14,0-.97-4.89-.13-10.01,2.46-14.25l.79-1.13h0ZM55.02,39.34c-.33,0-.68-.38-.67-.72l-2.25-14.36c2.74,3.62,3.79,8.36,3.49,12.88-.02.27-.27,2.08-.36,2.14-.07.04-.14.06-.22.06h0ZM25.31,42.1c-.25,0-.49-.09-.67-.29-.81-.88.62-2.43,1.7-2.43.25,0,.49.09.67.28.79.86-.62,2.43-1.7,2.43h0ZM43.82,48.62c.97,0,1.92-.34,2.57-1.12.24-.29.66-1.28.72-1.32.06-.04,1.04-.06,1.41-.17,2.53-.76,2.93-4.01,1.02-5.68l2.8-.93c.19,1.27,1.23,1.8,2.34,2.16-2.01,6.3-7.32,11.38-13.73,13.07-1.72.45-3.44.67-5.13.67-8.41,0-16.1-5.36-18.89-13.63.53-.29,1.15-.41,1.61-.83.39-.36.54-.91.88-1.3l2.75.97c.05.38-.02.69.05,1.11.23,1.48,1.59,2.67,3.09,2.67h0c-.06,1.17.74,2.25,1.78,2.7.26.11,1.19.29,1.23.34.04.05.03.47.09.66.4,1.12,1.05,1.75,2.16,2.16.2.07.56.05.68.13.11.08.49,1.71,1.29,2.33.66.5,1.31.72,1.95.72,1.13,0,2.2-.68,3.1-1.6.18-.18.65-.92.77-.98,0,0,.01,0,.02,0,.14,0,.88.19,1.27.19.02,0,.04,0,.06,0,1.2-.08,2.69-1.32,3.09-2.44.34.08.69.12,1.03.12h0ZM28.51,45.12c-.56,0-1.08-.38-1.1-1.01-.02-.5,1.23-1.71,1.72-1.77.05,0,.09,0,.14,0,.71,0,1.23.68,1,1.39-.07.21-.99,1.16-1.19,1.26-.18.09-.38.14-.57.14h0ZM31.44,48.11c-.23,0-.45-.07-.63-.24-.85-.78.49-2.51,1.6-2.51.23,0,.46.08.65.25.87.8-.52,2.5-1.63,2.5h0ZM34.63,51.08c-.69,0-1.28-.52-1.03-1.34.07-.22,1.21-1.28,1.46-1.34.12-.03.24-.04.35-.04.74,0,1.17.61.92,1.42-.07.22-.93,1.1-1.14,1.19-.18.07-.37.11-.55.11h0Z"/><path class="cls-1" d="M40.46,72h-9.26c-1.5,0-2.77-1.02-3.1-2.48l-1.09-4.8c-.05-.23-.23-.42-.45-.5-1.15-.38-2.29-.84-3.39-1.36-.04-.02-.42-.22-.84-.43-.22-.11-.48-.1-.69.03l-3.97,2.57c-1.25.81-2.92.63-3.98-.42l-6.55-6.55c-1.06-1.06-1.24-2.68-.44-3.95l2.56-4.06c.13-.2.14-.46.04-.67-.65-1.28-1.22-2.63-1.69-4l-.12-.39c-.07-.24-.27-.41-.51-.47l-4.47-.96c-1.46-.31-2.51-1.62-2.51-3.11v-9.26c0-1.5,1.02-2.77,2.48-3.1l4.49-1.01c.24-.05.43-.23.5-.45.48-1.51,1.09-3,1.81-4.42l.09-.17c.12-.22.1-.49-.03-.7l-2.38-3.67c-.81-1.25-.63-2.92.42-3.98l6.55-6.55c1.06-1.06,2.68-1.24,3.94-.44l4.1,2.58c1.18-.63,2.44-1.19,3.74-1.67.1-.03.74-.25,1.36-.44.24-.07.41-.27.47-.51l.89-4.16c.31-1.46,1.62-2.51,3.11-2.51h9.26c1.5,0,2.77,1.02,3.1,2.48l1.06,4.68c1.55.48,3.06,1.1,4.51,1.83.1.05.54.28.95.51l3.91-2.53c1.25-.81,2.92-.63,3.98.42l6.55,6.55c1.06,1.06,1.24,2.68.44,3.94l-2.62,4.16c.8,1.55,1.47,3.17,1.98,4.83l.05.16c.07.25.27.43.52.48l4.28.92c1.46.31,2.51,1.62,2.51,3.11v9.26c0,1.5-1.02,2.77-2.48,3.1l-4.64,1.05c-.23.05-.41.21-.49.42-.57,1.49-1.54,3.62-2.08,4.74l2.73,4.21c.81,1.25.63,2.92-.42,3.98l-6.55,6.55c-1.06,1.06-2.68,1.24-3.95.44l-4.48-2.83c-1.23.57-3.13,1.3-4.63,1.85-.22.08-.38.27-.43.5l-1,4.67c-.31,1.46-1.62,2.51-3.11,2.51ZM29.45,64.18l1.09,4.8c.07.32.35.54.67.54h9.26c.32,0,.61-.23.67-.55l1-4.67c.23-1.07.98-1.94,2.01-2.32,2.41-.89,4.22-1.63,4.97-2.03l.64-.35,5.69,3.59c.27.17.63.13.86-.1l6.54-6.55c.23-.23.27-.59.09-.86l-3.53-5.46.39-.66c.17-.3,1.54-3.15,2.26-5.07.38-1,1.23-1.73,2.27-1.97l4.64-1.05c.32-.07.54-.35.54-.67v-9.26c0-.32-.23-.61-.54-.67l-4.28-.92c-1.14-.24-2.05-1.09-2.38-2.21l-.04-.13c-.54-1.73-1.26-3.42-2.13-5.02l-.36-.65.44-.68,2.97-4.7c.17-.27.13-.63-.1-.86l-6.55-6.55c-.23-.23-.59-.27-.86-.09l-5.17,3.35-.67-.38c-.3-.18-1.33-.73-1.47-.8-1.49-.75-3.05-1.36-4.64-1.83h-.82l-.22-.97-1.22-5.39c-.07-.32-.35-.54-.67-.54h-9.26c-.32,0-.61.23-.67.54l-.89,4.16c-.24,1.11-1.06,2.02-2.14,2.36-.58.19-1.19.38-1.27.41-1.4.51-2.75,1.14-4.01,1.86l-.68.39-.66-.46-4.66-2.94c-.27-.17-.63-.13-.86.1l-6.55,6.55c-.23.23-.27.59-.09.86l2.38,3.67c.63.97.68,2.2.14,3.22l-.08.14c-.66,1.29-1.21,2.65-1.66,4.04-.34,1.06-1.23,1.88-2.32,2.13l-4.49,1.01c-.32.07-.54.35-.54.67v9.26c0,.32.23.61.55.67l4.47.96c1.12.24,2.02,1.06,2.37,2.15l.11.35c.43,1.26.95,2.49,1.55,3.66.5.99.45,2.19-.15,3.13l-2.56,4.06c-.17.27-.13.63.1.86l6.55,6.55c.23.23.59.27.86.09l3.97-2.57c.96-.62,2.18-.68,3.19-.15.39.2.75.39.79.41.98.46,2.03.88,3.08,1.23,1.05.35,1.85,1.23,2.1,2.31h0ZM43.9,8.15h0s0,0,0,0Z"/></g></svg>