<?xml version="1.0" encoding="UTF-8"?><svg id="Layer_2" xmlns="http://www.w3.org/2000/svg" viewBox="0 0 72 65.82"><g id="Layer_1-2"><path d="M41.46,39.02c-.37,0-1.15-.11-3.42-1.29-2.61-1.36-2.89-1.89-3.08-2.25-.62-1.18-.4-2.36-.25-3.14.05-.28.11-.56.1-.72-.1-2.33-2.08-5.3-4.42-6.61-.05-.02-.28-.09-.43-.14-.7-.21-1.57-.47-2.07-1.25-.71-1.11-.57-6.13-.57-6.18.22-2.1,1.91-2.78,2.82-3.14.32-.13.63-.25.82-.39,1.37-.99,3.18-3.53,3.37-5.18.03-.29,0-.87-.02-1.38-.08-1.63-.17-3.31.83-4.35C35.48,2.65,39.75-.02,41.01,0c.66,0,1.17.33,2.38,1.09.54.34,1.55.97,1.87,1.08,1.87.62,3.58.53,5.72-.3.32-.12.69-.37,1.08-.64.89-.61,2-1.36,3.45-1.22.92.09,4.98,2.23,5.63,3.22.85,1.3.57,2.43.42,3.03-.03.14-.07.3-.07.36.06,2.36,1.43,5.16,3.2,6.5.2.15.83.45,1.25.66,1.4.67,2.41,1.16,2.75,2.19.33.99.36,4.97.29,5.59-.21,2.06-1.94,2.72-2.96,3.12-.42.16-.81.31-1.05.5-1.74,1.35-3.08,4.11-3.18,6.56,0,.08.05.35.08.53.17.91.45,2.42-.63,3.6h0c-.46.51-4.08,2.56-4.38,2.67-2.06.76-3.1.07-3.92-.79-.15-.16-.24-.25-.34-.31-2.25-1.3-5.35-1.44-7.73-.34-.2.09-.54.38-.82.62-.68.58-1.45,1.24-2.51,1.28-.03,0-.07,0-.12,0ZM41.71,35.48h0,0ZM38.11,33.67c.72.49,2.42,1.37,3.26,1.7.13-.1.29-.24.41-.34.46-.4.99-.84,1.64-1.14,3.43-1.58,7.75-1.39,11,.5.52.3.86.65,1.09.89.02,0,.05-.02.08-.03.43-.22,2.12-1.23,2.9-1.72-.02-.19-.06-.43-.1-.6-.08-.42-.16-.86-.14-1.32.14-3.53,1.98-7.24,4.56-9.23.65-.5,1.37-.78,1.94-1,.23-.09.54-.21.72-.31.03-.68-.03-2.63-.11-3.59-.29-.15-.68-.34-.95-.47-.71-.34-1.38-.66-1.86-1.03-2.63-2-4.53-5.8-4.61-9.25-.01-.55.1-.99.18-1.31.01-.05.02-.1.04-.15-.68-.47-2.4-1.42-3.06-1.69-.23.07-.72.4-1.02.61-.52.35-1.1.75-1.8,1.02-2.89,1.12-5.46,1.23-8.11.36-.68-.22-1.53-.74-2.66-1.45-.19-.12-.41-.26-.61-.38-.85.42-2.37,1.26-3.04,1.68-.05.44,0,1.28.02,1.76.04.72.07,1.39,0,1.97-.32,2.81-2.75,6.16-4.82,7.66-.55.4-1.13.63-1.59.81-.19.07-.45.18-.6.26-.03.59.04,2.52.13,3.59.39.12.78.24,1.15.44,3.39,1.91,6.07,6.02,6.23,9.56.03.58-.07,1.09-.16,1.54-.04.19-.09.47-.1.66ZM58.37,5.43s0,0,0,0t0,0ZM54.95,3.52h0s0,0,0,0ZM41.39,3.5h0s0,0,0,0ZM48.1,30.72c-6.08,0-11.12-4.85-11.3-10.97h0c-.19-6.24,4.73-11.46,10.97-11.65,6.23-.19,11.46,4.73,11.65,10.97.09,3.02-1,5.9-3.07,8.1s-4.88,3.46-7.9,3.55c-.11,0-.23,0-.34,0ZM40.35,19.64c.13,4.27,3.7,7.65,7.98,7.52,2.07-.06,3.99-.93,5.41-2.44,1.42-1.51,2.17-3.48,2.11-5.55-.13-4.27-3.71-7.65-7.98-7.52-4.27.13-7.65,3.71-7.52,7.98h0Z"/><path d="M38.98,64.87c-4.88,0-9.6-.85-14.08-2.54-3.24-1.22-5.97-2.01-8.8-1.9-.98.04-1.81-.73-1.85-1.71-.04-.98.73-1.81,1.71-1.85,3.63-.15,7.05.93,10.2,2.12,4.92,1.86,9.96,2.59,15.39,2.23,2.11-.14,4.04-1.2,6.08-2.33.51-.28,1.02-.56,1.53-.83,3.79-1.98,7.67-3.93,11.42-5.82,1.65-.83,3.3-1.66,4.95-2.5.69-.35,1.3-.68,1.8-1.15.4-.37,1.63-1.68.89-2.93-.99-1.66-2.56-1.33-3.42-.98-2.57,1.05-5.08,2.42-7.51,3.75-1.4.77-2.86,1.56-4.33,2.3l-.22.11c-1.02.52-2.29,1.16-3.88,1.05-.98-.07-1.72-.92-1.65-1.9.07-.98.92-1.72,1.9-1.65.57.04,1.14-.23,2.02-.67l.23-.12c1.41-.71,2.84-1.49,4.22-2.24,2.51-1.37,5.11-2.79,7.86-3.92,3.11-1.27,6.18-.31,7.82,2.45,1.37,2.31.78,5.19-1.51,7.34-.85.8-1.76,1.29-2.63,1.73-1.65.84-3.3,1.67-4.96,2.5-3.74,1.88-7.6,3.83-11.37,5.79-.49.25-.97.52-1.45.79-2.29,1.27-4.66,2.57-7.57,2.76-.94.06-1.87.09-2.79.09Z"/><path d="M12.92,65.82c-.11,0-.22,0-.32,0-2.18-.08-6.75-.05-8.81,0-.81.02-1.98-.05-2.85-.91C.31,64.28,0,63.41,0,62.3c.03-7.88.02-15.63,0-24.84,0-1.1.31-1.96.94-2.58.62-.62,1.48-.93,2.58-.91,2.03.02,5.63.02,8.25,0h1.37s0,0,0,0c1.23,0,2.19.36,2.86,1.08.67.72.97,1.71.89,2.96,0,1.12-.08,18.09.02,23.53,0,.53.04,2.16-1.08,3.25-.88.87-2.04,1.02-2.93,1.02ZM8.54,62.2c1.57,0,3.12.01,4.18.05.31.01.49,0,.6-.03.02-.1.05-.3.04-.62-.1-5.64-.02-23.49-.02-23.67,0-.04,0-.08,0-.12,0-.12,0-.21,0-.27-.05,0-.12,0-.2,0h-1.37c-2.6,0-6.15.02-8.22,0,.02,9.16.02,16.87,0,24.72.04,0,.09,0,.15,0,1.16-.03,3.01-.05,4.84-.05Z"/><path d="M39.98,55.08c-1.06,0-2.12,0-3.19,0h-3.19c-.98,0-1.78-.8-1.78-1.78s.8-1.78,1.78-1.78h3.19c2.52,0,5.03,0,7.55,0,.76,0,1.66-.39,2.23-.98.33-.33.39-.58.39-.62-.03-1.74-1.17-3.08-2.66-3.12-.92-.02-1.87-.02-2.79,0-.77,0-1.55,0-2.32,0-4.98-.06-10.29-.42-15.33-2.57-2.39-1.02-4.96-1.09-7.84-1.08,0,0,0,0,0,0-.98,0-1.77-.79-1.78-1.77,0-.98.79-1.78,1.77-1.79,3.16-.01,6.24.08,9.25,1.36,4.47,1.91,9.36,2.23,13.97,2.29.75,0,1.5,0,2.25,0,.94,0,1.92-.01,2.89.01,3.38.08,6.07,2.98,6.13,6.61.02,1.1-.48,2.23-1.41,3.18-1.23,1.26-3.06,2.04-4.76,2.04-1.46,0-2.91,0-4.37,0Z"/><path d="M9.04,45.57c-.98,0-1.78-.8-1.78-1.78v-1.48c0-.98.8-1.78,1.78-1.78s1.78.8,1.78,1.78v1.48c0,.98-.8,1.78-1.78,1.78Z"/><path d="M46.41,24.44c-.44,0-.88-.16-1.22-.48l-3-2.82c-.72-.67-.75-1.8-.08-2.52s1.8-.75,2.52-.08l3,2.82c.72.67.75,1.8.08,2.52-.35.37-.82.56-1.3.56Z"/><path d="M46.41,24.44c-.44,0-.88-.16-1.22-.48-.72-.67-.75-1.8-.08-2.52l5.7-6.05c.67-.72,1.8-.75,2.52-.08.72.67.75,1.8.08,2.52l-5.7,6.05c-.35.37-.82.56-1.3.56Z"/></g></svg>