<?xml version="1.0" encoding="UTF-8"?><svg id="Layer_2" xmlns="http://www.w3.org/2000/svg" viewBox="0 0 72 72"><g id="Layer_1-2"><g id="Icon_82"><path d="M36,68.23c-17.83,0-32.33-14.5-32.33-32.33S18.17,3.57,36,3.57s32.33,14.5,32.33,32.33-14.5,32.33-32.33,32.33ZM36,7.12c-15.87,0-28.78,12.91-28.78,28.78s12.91,28.78,28.78,28.78,28.78-12.91,28.78-28.78S51.87,7.12,36,7.12Z"/><path d="M36,55.96c-11.06,0-20.06-9-20.06-20.06s9-20.06,20.06-20.06,20.06,9,20.06,20.06-9,20.06-20.06,20.06ZM36,19.4c-9.1,0-16.5,7.4-16.5,16.5s7.4,16.5,16.5,16.5,16.5-7.4,16.5-16.5-7.4-16.5-16.5-16.5Z"/><path d="M36,10.72c-.98,0-1.78-.8-1.78-1.78V1.78c0-.98.8-1.78,1.78-1.78s1.78.8,1.78,1.78v7.16c0,.98-.8,1.78-1.78,1.78Z"/><path d="M36,72c-.98,0-1.78-.8-1.78-1.78v-7.16c0-.98.8-1.78,1.78-1.78s1.78.8,1.78,1.78v7.16c0,.98-.8,1.78-1.78,1.78Z"/><path d="M70.22,37.78h-7.16c-.98,0-1.78-.8-1.78-1.78s.8-1.78,1.78-1.78h7.16c.98,0,1.78.8,1.78,1.78s-.8,1.78-1.78,1.78Z"/><path d="M8.94,37.78H1.78c-.98,0-1.78-.8-1.78-1.78s.8-1.78,1.78-1.78h7.16c.98,0,1.78.8,1.78,1.78s-.8,1.78-1.78,1.78Z"/><path d="M31.24,45.93c-.69,0-1.37-.28-1.86-.83-.91-1.01-4.14-4.81-4.88-5.71-.87-1.07-.71-2.64.36-3.5,1.07-.87,2.64-.71,3.5.36.44.54,2,2.38,3.25,3.83l12.76-9.32c1.11-.81,2.67-.57,3.48.54.81,1.11.57,2.67-.54,3.48l-14.61,10.67c-.44.32-.96.48-1.47.48Z"/></g></g></svg>