<?xml version="1.0" encoding="UTF-8"?><svg id="Layer_2" xmlns="http://www.w3.org/2000/svg" viewBox="0 0 57.75 75.75"><defs><style>.cls-1{fill:none;stroke:#000;stroke-linecap:round;stroke-linejoin:round;stroke-width:3.75px;}</style></defs><g id="Layer_1-2"><path class="cls-1" d="M14,50.33l-3.13,23.54,16.52-9.91c.54-.32.81-.48,1.1-.55.25-.06.52-.06.77,0,.29.06.56.22,1.1.55l16.52,9.91-3.13-23.55M44.81,9.97c.56,1.34,1.62,2.41,2.97,2.97l4.71,1.95c1.34.56,2.41,1.63,2.97,2.97.56,1.34.56,2.86,0,4.2l-1.95,4.71c-.56,1.35-.56,2.86,0,4.2l1.95,4.71c.28.67.42,1.38.42,2.1s-.14,1.43-.42,2.1c-.28.67-.68,1.27-1.19,1.78s-1.12.91-1.78,1.19l-4.71,1.95c-1.34.56-2.41,1.62-2.97,2.97l-1.95,4.71c-.56,1.34-1.63,2.41-2.97,2.97-1.34.56-2.86.56-4.2,0l-4.71-1.95c-1.34-.56-2.86-.55-4.2,0l-4.71,1.95c-1.34.56-2.85.56-4.2,0-1.34-.56-2.41-1.62-2.97-2.97l-1.95-4.71c-.56-1.34-1.62-2.41-2.97-2.97l-4.71-1.95c-1.34-.56-2.41-1.62-2.97-2.97-.56-1.34-.56-2.85,0-4.2l1.95-4.71c.55-1.34.55-2.86,0-4.2l-1.95-4.72c-.28-.67-.42-1.38-.42-2.1s.14-1.44.42-2.1c.28-.67.68-1.27,1.19-1.78.51-.51,1.11-.91,1.78-1.19l4.71-1.95c1.34-.56,2.41-1.62,2.97-2.96l1.95-4.71c.56-1.34,1.63-2.41,2.97-2.97,1.34-.56,2.86-.56,4.2,0l4.71,1.95c1.34.56,2.86.55,4.2,0l4.71-1.94c1.34-.56,2.86-.56,4.2,0,1.34.56,2.41,1.63,2.97,2.97l1.95,4.71h0Z"/></g></svg>