<?xml version="1.0" encoding="UTF-8"?><svg id="Layer_2" xmlns="http://www.w3.org/2000/svg" viewBox="0 0 71.59 72"><g id="Layer_1-2"><g id="Icon_91"><path d="M29.62,72c-.12,0-.24-.01-.36-.03-.55-.1-1.01-.42-1.37-.94-1.48-2.17-2.97-4.34-4.47-6.51-1.28-1.86-2.57-3.72-3.85-5.58l-1.34-1.93c-.13-.19-.52-.74-.42-1.53.2-1.61.62-3.21,3.35-3.46.28-.03.57-.04.86-.06.46-.02.9-.05,1.27-.12,2.58-.54,4.54-2.63,4.88-5.21.28-2.13-.33-3.9-1.86-5.41-1.06-1.04-2.32-1.6-3.86-1.71-1.61-.12-3.03.31-4.33,1.32-.81.62-1.41,1.4-1.84,2.37-.05.11-.1.23-.14.34-.15.38-.33.81-.61,1.24-.97,1.48-2.05,1.69-3.39,1.54-1.38-.15-2.04-1.12-2.36-1.58l-.05-.07c-.49-.71-.98-1.42-1.46-2.14-.44-.65-.88-1.29-1.32-1.94-.47-.68-.94-1.36-1.41-2.04-.36-.52-.71-1.03-1.07-1.55-1.33-1.93-2.66-3.86-3.99-5.79-.78-1.13-.58-2.23.56-3.02l11.74-8.08c.73-.5,1.46-1.01,2.2-1.51h0c.15-.57.28-1.06.28-1.51,0-.37-.1-.67-.61-1.03-.34-.24-.78-.43-1.2-.61-2.69-1.12-4.4-3.21-4.95-6.05-.41-2.15.13-4.42,1.5-6.23C11.34,1.38,13.37.23,15.54.04c2.9-.26,5.38.81,7.18,3.08,1.1,1.39,1.66,3.02,1.66,4.85,0,.67.07,1.15.22,1.56.13.36.33.61.93.76.37.09.8.14,1.24.18,2.27-1.57,4.54-3.13,6.81-4.69,2.25-1.55,4.51-3.1,6.76-4.65.09-.06.17-.12.26-.17.06-.04.13-.08.18-.12.61-.47,1.22-.46,1.53-.41.38.06.92.26,1.34.88.57.84,1.15,1.67,1.72,2.5l4.75,6.9c1.02,1.48,2.03,2.96,3.05,4.43.54.78.51,1.51.4,1.99,0,.02,0,.06,0,.1-.01.11-.02.22-.04.33-.28,1.68-1.29,2.63-3.01,2.8-.36.04-.69.05-1.01.05-.37.01-.72.02-1.01.07-1.84.34-3.21,1.22-4.2,2.68-1.66,2.47-1.48,5.52.46,7.76,1.15,1.33,2.59,2.03,4.39,2.14,1.63.1,3.06-.35,4.37-1.38.82-.65,1.43-1.44,1.85-2.43l.07-.16c.22-.53.48-1.14.92-1.73.36-.49,1.19-1.28,2.69-1.15.08,0,.18.02.26.04l.11.02c1.35.24,1.82.46,2.54,1.57.06.09.13.2.22.33,1.36,1.98,2.72,3.96,4.09,5.94l2.52,3.65c.8,1.16,1.6,2.32,2.4,3.47.44.63.45,1.21.38,1.59-.07.38-.29.92-.92,1.36-2.46,1.68-4.91,3.37-7.36,5.06l-1.32.9c-1.54,1.06-3.13,2.15-4.68,3.24-.88.62-1.8.82-2.72.59-1.84-.29-2.71-1.26-2.89-3.24-.03-.31-.04-.61-.05-.89-.02-.44-.03-.85-.12-1.18-.62-2.56-2.1-4.13-4.51-4.79-2.5-.69-4.63-.06-6.49,1.93-.97,1.04-1.55,2.6-1.55,4.17h0c-.01,2.61,1.63,4.99,4.09,5.93.6.23,1.07.48,1.5.78.95.67,1.42,1.69,1.27,2.78,0,.13-.02.24-.04.34-.26,1.43-.53,1.86-1.73,2.69l-8.41,5.79c-1.59,1.09-3.18,2.18-4.76,3.28-.4.28-.82.42-1.25.42ZM21.57,55.56l.93,1.35c1.29,1.86,2.57,3.72,3.85,5.58,1.22,1.78,2.45,3.55,3.66,5.33,1.19-.82,2.39-1.65,3.58-2.47l8.41-5.79c.06-.04.13-.09.19-.13-.13-.07-.27-.13-.44-.19-3.83-1.47-6.4-5.19-6.38-9.27,0-2.49.92-4.89,2.51-6.6,2.78-2.97,6.25-3.98,10.05-2.93,3.66,1.01,6.09,3.57,7.02,7.38.17.68.19,1.32.21,1.88,0,.23.02.47.04.7,0,.02,0,.05,0,.07,0,0,0,0,0,0,1.56-1.1,3.16-2.2,4.71-3.26l1.31-.9c2.05-1.41,4.11-2.83,6.16-4.24-.53-.76-1.05-1.52-1.58-2.28l-2.52-3.65c-1.37-1.98-2.74-3.96-4.1-5.95-.09-.13-.16-.24-.23-.34-.09.19-.18.4-.28.63l-.07.18c-.65,1.53-1.63,2.82-2.92,3.84-2,1.58-4.29,2.3-6.8,2.14-2.76-.17-5.07-1.31-6.86-3.36-2.99-3.44-3.28-8.3-.73-12.09,1.53-2.27,3.72-3.68,6.5-4.2.56-.1,1.1-.12,1.57-.13.22,0,.42-.01.61-.03-.94-1.37-1.89-2.74-2.83-4.11l-4.75-6.9c-.28-.41-.57-.82-.85-1.23-1.99,1.37-3.99,2.74-5.98,4.12-2.3,1.58-4.59,3.16-6.89,4.75-.24.17-.98.68-1.99.59h-.09c-.6-.06-1.29-.13-1.98-.3-1.67-.42-2.84-1.46-3.41-3-.3-.81-.44-1.69-.44-2.78,0-1.02-.3-1.89-.89-2.64-1.06-1.34-2.35-1.89-4.07-1.74-1.17.1-2.27.74-3.03,1.74-.76,1-1.06,2.25-.84,3.41.32,1.67,1.21,2.76,2.81,3.42.58.24,1.26.54,1.89.99,1.76,1.25,2.12,2.84,2.11,3.96,0,.9-.21,1.69-.4,2.39l-.05.19c-.19.73-.62,1.33-1.24,1.76-.78.53-1.56,1.07-2.33,1.6l-10.59,7.29c1.06,1.55,2.13,3.09,3.2,4.64.35.51.71,1.03,1.07,1.54.47.68.95,1.36,1.42,2.05.45.65.89,1.3,1.33,1.95.48.7.96,1.4,1.44,2.1.06-.13.12-.27.18-.43.06-.15.12-.3.19-.44.67-1.51,1.66-2.78,2.93-3.75,2.01-1.54,4.28-2.23,6.77-2.05,2.38.17,4.43,1.09,6.09,2.72,2.32,2.28,3.33,5.2,2.9,8.43-.54,4.08-3.63,7.39-7.69,8.23-.65.14-1.27.17-1.82.2-.21.01-.42.02-.63.04ZM42.27,59.01s0,0,0,0c0,0,0,0,0,0ZM37.16,49.99h0,0Z"/></g></g></svg>