<?xml version="1.0" encoding="UTF-8"?><svg id="Layer_2" xmlns="http://www.w3.org/2000/svg" viewBox="0 0 69.45 72"><g id="Layer_1-2"><g id="Icon_28"><path d="M13.09,45.75c-.45,0-.91-.11-1.32-.34-.88-.48-1.43-1.41-1.43-2.41v-3.89H4c-2.2,0-4-1.76-4-3.93V3.93C0,1.76,1.79,0,4,0c.98,0,1.78.8,1.78,1.78s-.8,1.78-1.78,1.78c-.24,0-.44.17-.44.37v31.26c0,.2.2.37.44.37h9.9v5.72l6.96-5.72h28.57c.98,0,1.78.8,1.78,1.78s-.8,1.78-1.78,1.78h-27.29l-7.56,6.2c-.45.29-.97.44-1.49.44Z"/><path d="M49.42,39.11h-7.11c-.98,0-1.78-.8-1.78-1.78s.8-1.78,1.78-1.78h7.11c.24,0,.44-.17.44-.37V3.93c0-.2-.2-.37-.44-.37H4c-.24,0-.44.17-.44.37v17.31c0,.98-.8,1.78-1.78,1.78s-1.78-.8-1.78-1.78V3.93C0,1.76,1.79,0,4,0h45.43c2.2,0,4,1.76,4,3.93v31.26c0,2.17-1.79,3.93-4,3.93Z"/><path d="M56.36,72c-.52,0-1.03-.15-1.49-.44l-.17-.12-7.39-6.08h-27.29c-.98,0-1.78-.8-1.78-1.78s.8-1.78,1.78-1.78h28.57l6.96,5.72v-5.72h9.9c.24,0,.44-.17.44-.37v-31.26c0-.2-.2-.37-.44-.37-.98,0-1.78-.8-1.78-1.78s.8-1.78,1.78-1.78c2.2,0,4,1.76,4,3.93v31.26c0,2.16-1.79,3.93-4,3.93h-6.34v3.89c0,1.01-.55,1.93-1.43,2.41-.41.22-.86.34-1.32.34Z"/><path d="M67.67,49.27c-.98,0-1.78-.8-1.78-1.78v-17.32s0-.04,0-.04v-.04c-.03-.05-.05-.09-.08-.13l-.05-.05s-.13-.11-.31-.11h-7.75c-.98,0-1.78-.8-1.78-1.78s.8-1.78,1.78-1.78h7.75c1.06,0,2.06.4,2.81,1.13.05.04.08.08.12.12.05.06.11.11.16.17.33.39.58.84.73,1.32.04.11.07.24.1.38.06.26.08.53.08.8v17.32c0,.98-.8,1.78-1.78,1.78ZM65.81,29.97s0,0,0,0h0Z"/><path d="M27.13,65.36h-7.11c-2.21,0-4-1.77-4-3.93v-14.77c0-.98.8-1.78,1.78-1.78s1.78.8,1.78,1.78v14.77c0,.2.2.37.44.37h7.11c.98,0,1.78.8,1.78,1.78s-.8,1.78-1.78,1.78Z"/><path d="M35.31,27.07c-.05-.09-.15-.16-.25-.17-1.24-.2-2.82-.5-4.36-.83,2.85-1.32,4.52-4.2,4.52-7.9,0-2.51-.81-4.68-2.34-6.27-1.56-1.61-3.71-2.46-6.23-2.46-5.24,0-8.9,3.73-8.9,9.07,0,5.83,4.23,8.59,8.43,8.73.31,0,.65.11,1.02.23,2.16.67,4.6,1.34,7.05,1.92.03,0,.06,0,.08,0,.14,0,.28-.09.33-.23l.68-1.79c.04-.1.03-.21-.02-.3ZM22.8,13.37c.97-.98,2.24-1.48,3.76-1.48,2.62,0,5.44,1.99,5.44,6.37,0,3.25-1.72,6.52-5.55,6.52-1.44,0-2.71-.51-3.67-1.49-1.16-1.17-1.81-2.93-1.8-4.83-.02-2.06.65-3.91,1.82-5.09Z"/><path d="M50.34,58.78l-6.26-16.53c-.05-.14-.18-.23-.33-.23h-2.86c-.15,0-.28.09-.33.23l-6.23,16.53c-.04.11-.03.23.04.33.07.1.18.15.29.15h2.45c.15,0,.28-.09.33-.23l1.82-4.97h6.01l1.87,4.97c.05.14.18.23.33.23h2.53c.12,0,.23-.06.29-.15.07-.1.08-.22.04-.33ZM44.51,51.69h-4.5l1.62-4.3c.21-.59.41-1.22.62-1.92.18.62.39,1.26.65,1.95l1.61,4.28Z"/></g></g></svg>