<?xml version="1.0" encoding="UTF-8"?><svg id="Layer_2" xmlns="http://www.w3.org/2000/svg" viewBox="0 0 64.42 72"><g id="Layer_1-2"><g id="Icon_68"><path d="M13.9,72c-.11,0-.21,0-.32-.03-.76-.14-1.34-.75-1.44-1.51l-1.35-9.81-8.3,3.59c-.7.3-1.51.13-2.02-.43-.51-.56-.61-1.38-.25-2.05l13.99-25.86c-2.89-3.86-4.47-8.59-4.47-13.44C9.74,10.08,19.82,0,32.21,0s22.47,10.08,22.47,22.46c0,4.85-1.58,9.57-4.47,13.44l13.99,25.88c.36.67.26,1.49-.25,2.05-.51.56-1.32.73-2.02.43l-8.28-3.56-1.38,9.77c-.11.76-.69,1.37-1.45,1.5-.76.14-1.51-.23-1.88-.9l-14.01-25.9c-.79.27-1.73.46-2.8.45-1.02,0-1.91-.19-2.67-.45l-14.02,25.9c-.31.58-.92.93-1.56.93ZM35.72,41.08c.16,0,.31.02.47.06.47.13.87.44,1.1.87l12.23,22.61.95-6.72c.08-.55.41-1.03.89-1.3.48-.27,1.07-.3,1.57-.08l5.72,2.46-12.12-22.41c-.35-.64-.27-1.43.2-1.99,2.83-3.39,4.4-7.69,4.4-12.11,0-10.42-8.48-18.91-18.91-18.91S13.3,12.04,13.3,22.46c0,4.43,1.56,8.73,4.4,12.12.47.56.55,1.35.2,1.99l-12.1,22.36,5.72-2.48c.51-.22,1.1-.19,1.58.08.49.27.81.76.89,1.31l.93,6.75,12.22-22.58c.23-.43.63-.74,1.1-.87.47-.13.97-.06,1.39.2.54.33,1.41.72,2.54.72,1.17,0,2.07-.39,2.62-.72.28-.17.6-.26.92-.26Z"/><path d="M29.31,30.97c-.47,0-.92-.19-1.26-.52l-5.71-5.71c-.69-.69-.69-1.82,0-2.52.7-.69,1.82-.69,2.52,0l4.45,4.45,11.07-11.07c.69-.69,1.82-.69,2.52,0,.69.69.69,1.82,0,2.52l-12.33,12.33c-.33.33-.79.52-1.26.52Z"/></g></g></svg>