<?xml version="1.0" encoding="UTF-8"?><svg id="Layer_2" xmlns="http://www.w3.org/2000/svg" viewBox="0 0 72 72"><g id="Layer_1-2"><g id="Icon_14"><path d="M68.16,72H3.82c-2.11,0-3.82-1.72-3.82-3.82V29.49c0-2.11,1.72-3.82,3.82-3.82h16.71c.99,0,1.79.8,1.79,1.79s-.8,1.79-1.79,1.79H3.82c-.14,0-.25.11-.25.25v38.69c0,.14.11.25.25.25h64.34c.14,0,.25-.11.25-.25V29.49c.01-.09-.03-.14-.06-.18-.03-.03-.09-.07-.18-.07h-34c-.99,0-1.79-.8-1.79-1.79s.8-1.79,1.79-1.79h34c1.02,0,1.98.4,2.7,1.12s1.12,1.68,1.12,2.7v38.69c-.01,2.11-1.73,3.82-3.84,3.82Z"/><path d="M20.11,49.22c-3.33,0-6.05-3.02-6.05-6.72s2.71-6.72,6.05-6.72,6.05,3.02,6.05,6.72-2.71,6.72-6.05,6.72ZM20.11,38.64c-1.76,0-3.18,1.73-3.18,3.86s1.43,3.86,3.18,3.86,3.18-1.73,3.18-3.86-1.43-3.86-3.18-3.86Z"/><path d="M31.65,63.66c-.79,0-1.43-.64-1.43-1.43,0-4.45-3.62-8.07-8.07-8.07h-4.07c-4.45,0-8.07,3.62-8.07,8.07,0,.79-.64,1.43-1.43,1.43s-1.43-.64-1.43-1.43c0-6.02,4.9-10.93,10.93-10.93h4.07c6.03,0,10.93,4.9,10.93,10.93,0,.79-.64,1.43-1.43,1.43Z"/><path d="M59.99,42.31h-19.77c-.99,0-1.79-.8-1.79-1.79s.8-1.79,1.79-1.79h19.77c.99,0,1.79.8,1.79,1.79s-.8,1.79-1.79,1.79Z"/><path d="M53.41,52.77h-13.19c-.99,0-1.79-.8-1.79-1.79s.8-1.79,1.79-1.79h13.19c.99,0,1.79.8,1.79,1.79s-.8,1.79-1.79,1.79Z"/><path d="M53.41,61.63h-13.19c-.99,0-1.79-.8-1.79-1.79s.8-1.79,1.79-1.79h13.19c.99,0,1.79.8,1.79,1.79s-.8,1.79-1.79,1.79Z"/><path d="M40.1,28.1c-.79,0-1.43-.64-1.43-1.43v-13.18c0-.79.64-1.43,1.43-1.43s1.43.64,1.43,1.43v13.18c0,.79-.64,1.43-1.43,1.43Z"/><path d="M34.17,36.82c-.36,0-.72-.02-1.08-.06-1.04-.12-3.22-.36-5-2.13-1.87-1.84-2.12-4.21-2.15-5.14,0-.01,0-.02,0-.04v-13.03c0-.51.27-.97.7-1.23.44-.26.97-.27,1.42-.02l4.15,2.29c.69.38.94,1.25.56,1.94-.38.69-1.25.94-1.94.56l-2.03-1.12v10.59c.02.6.18,2.06,1.3,3.16,1.08,1.07,2.48,1.22,3.31,1.32.71.08,1.44.05,2.15-.1.77-.16,1.53.35,1.68,1.12.16.77-.35,1.53-1.12,1.68-.65.13-1.3.2-1.96.2Z"/><path d="M40.1,13.61c-3.75,0-6.8-3.05-6.8-6.8s3.05-6.8,6.8-6.8,6.8,3.05,6.8,6.8-3.05,6.8-6.8,6.8ZM40.1,2.86c-2.17,0-3.94,1.77-3.94,3.94s1.77,3.94,3.94,3.94,3.94-1.77,3.94-3.94-1.77-3.94-3.94-3.94Z"/></g></g></svg>