<?xml version="1.0" encoding="UTF-8"?><svg id="Layer_2" xmlns="http://www.w3.org/2000/svg" viewBox="0 0 67.38 72"><g id="Layer_1-2"><g id="Icon_76"><path d="M1.78,61.96c-.98,0-1.78-.8-1.78-1.78V4.1C0,1.84,1.84,0,4.09,0h41.25c.98,0,1.78.8,1.78,1.78s-.8,1.78-1.78,1.78H4.09c-.3,0-.54.24-.54.54v56.09c0,.98-.8,1.78-1.78,1.78Z"/><path d="M12,72c-2.26,0-4.09-1.84-4.09-4.09V11.82c0-2.26,1.84-4.09,4.09-4.09h41.25c2.26,0,4.1,1.84,4.1,4.1v10.07c0,.98-.8,1.78-1.78,1.78s-1.78-.8-1.78-1.78v-10.07c0-.3-.24-.54-.54-.54H12c-.3,0-.54.24-.54.54v56.09c0,.3.24.54.54.54,12.15,0,34.12,0,41.26-.01.29,0,.53-.24.53-.54v-5.21c0-.98.8-1.78,1.78-1.78s1.78.8,1.78,1.78v5.21c0,2.25-1.83,4.09-4.09,4.09-7.14,0-29.11.01-41.26.01Z"/><path d="M26.03,34.2h-6.73c-1.19,0-2.15-.92-2.15-2.06v-6.82c0-1.14.97-2.06,2.15-2.06h6.73c1.19,0,2.16.92,2.16,2.06v6.82c0,1.14-.97,2.06-2.15,2.06ZM20.69,30.65h3.94v-3.83h-3.94v3.83Z"/><path d="M43.75,47.51h-6.73c-1.19,0-2.15-.92-2.15-2.06v-6.82c0-1.14.97-2.06,2.15-2.06h6.73c1.19,0,2.16.92,2.16,2.06v6.82c0,1.14-.97,2.06-2.15,2.06ZM38.42,43.96h3.94v-3.83h-3.94v3.83Z"/><path d="M61.57,56.84h-6.73c-1.19,0-2.15-.92-2.15-2.06v-6.82c0-1.14.97-2.06,2.15-2.06h6.73c1.19,0,2.16.92,2.16,2.06v6.82c0,1.14-.97,2.06-2.15,2.06ZM56.23,53.29h3.94v-3.83h-3.94v3.83Z"/><path d="M28.52,63.92h-6.73c-1.19,0-2.15-.92-2.15-2.06v-6.82c0-1.14.97-2.06,2.15-2.06h6.73c1.19,0,2.16.92,2.16,2.06v6.82c0,1.14-.97,2.06-2.15,2.06ZM23.19,60.37h3.94v-3.83h-3.94v3.83Z"/><path d="M44.35,25.56h-6.73c-1.19,0-2.15-.92-2.15-2.06v-6.82c0-1.14.97-2.06,2.15-2.06h6.73c1.19,0,2.16.92,2.16,2.06v6.82c0,1.14-.97,2.06-2.15,2.06ZM39.02,22h3.94v-3.83h-3.94v3.83Z"/><path d="M65.23,38.32h-6.73c-1.19,0-2.15-.92-2.15-2.06v-6.82c0-1.14.97-2.06,2.15-2.06h6.73c1.19,0,2.16.92,2.16,2.06v6.82c0,1.14-.97,2.06-2.15,2.06ZM59.9,34.77h3.94v-3.83h-3.94v3.83Z"/></g></g></svg>