<?xml version="1.0" encoding="UTF-8"?><svg id="Layer_2" xmlns="http://www.w3.org/2000/svg" viewBox="0 0 72 72"><g id="Layer_1-2"><g id="IgL9Z4"><path d="M24.78,72c-2.43,0-4.44-2.23-5.78-3.71-.59-.66-1.16-1.28-1.61-1.62-.59-.44-.85-1.2-.65-1.91.22-.8.61-1.45.94-2.03.3-.52.57-.96.64-1.4.58-3.44-1.16-5.85-2.99-6.96-2.3-1.39-5.15-1.17-7.43.57-.75.57-1.82.46-2.44-.26-.46-.54-1.1-1.11-1.77-1.7C1.97,51.45.02,49.71,0,47.31c0-1.42.68-2.78,2.06-4.05.66-.67,10.77-11,20.97-21.24C44.68.31,45.53.19,46.43.05c2.87-.42,4.81,1.77,6.38,3.53.6.67,1.17,1.31,1.67,1.68.62.46.87,1.26.63,1.99-.22.66-.53,1.26-.81,1.78-.32.61-.59,1.13-.69,1.65-.51,2.75.56,5.25,2.87,6.68,1.84,1.15,4.78,1.65,7.51-.38.77-.57,1.85-.44,2.45.31.35.43.96.97,1.61,1.54,2,1.75,5.34,4.69,3.31,8.23-.08.14-.18.27-.29.38-.34.33-34,33.56-43.48,43.48-.09.1-.19.18-.31.26-.88.58-1.72.82-2.51.82ZM20.62,64.79c.34.35.68.73,1.03,1.12,1.97,2.19,2.79,2.76,3.53,2.39,9.32-9.73,40.26-40.29,43.17-43.16.29-.83-.65-1.86-2.65-3.61-.32-.28-.62-.55-.92-.82-3.21,1.72-7.06,1.64-10.19-.3-3.54-2.2-5.26-6.17-4.49-10.36.2-1.06.65-1.91,1.04-2.67.04-.07.07-.14.11-.21-.38-.39-.75-.8-1.12-1.21-1.01-1.13-2.04-2.3-2.95-2.38-3.41,2.49-27.73,26.98-42.63,42.21-.02.02-.05.05-.07.07-.35.32-.94.93-.93,1.43,0,.81,1.39,2.05,2.51,3.04.34.3.68.6,1.01.91,3.22-1.81,6.97-1.8,10.1.09,3.61,2.18,5.4,6.25,4.66,10.6-.18,1.08-.68,1.93-1.09,2.61-.05.08-.09.16-.14.24ZM69.82,26.18h0,0Z"/><path d="M24.78,72c-2.43,0-4.44-2.23-5.78-3.71-.59-.66-1.16-1.28-1.61-1.62-.59-.44-.85-1.2-.65-1.91.22-.8.61-1.45.94-2.03.3-.52.57-.96.64-1.4.58-3.44-1.16-5.85-2.99-6.96-2.3-1.39-5.15-1.17-7.43.57-.75.57-1.82.46-2.44-.26-.46-.54-1.1-1.11-1.77-1.7C1.97,51.45.02,49.71,0,47.31c0-1.42.68-2.78,2.06-4.05.66-.67,10.77-11,20.97-21.24C44.68.31,45.53.19,46.43.05c2.87-.42,4.81,1.77,6.38,3.53.6.67,1.17,1.31,1.67,1.68.62.46.87,1.26.63,1.99-.22.66-.53,1.26-.81,1.78-.32.61-.59,1.13-.69,1.65-.51,2.75.56,5.25,2.87,6.68,1.84,1.15,4.78,1.65,7.51-.38.77-.57,1.85-.44,2.45.31.35.43.96.97,1.61,1.54,2,1.75,5.34,4.69,3.31,8.23-.08.14-.18.27-.29.38-.34.33-34,33.56-43.48,43.48-.09.1-.19.18-.31.26-.88.58-1.72.82-2.51.82ZM26.31,69.69h0,0ZM20.62,64.79c.34.35.68.73,1.03,1.12,1.97,2.19,2.79,2.76,3.53,2.39,9.32-9.73,40.26-40.29,43.17-43.16.29-.83-.65-1.86-2.65-3.61-.32-.28-.62-.55-.92-.82-3.21,1.72-7.06,1.64-10.19-.3-3.54-2.2-5.26-6.17-4.49-10.36.2-1.06.65-1.91,1.04-2.67.04-.07.07-.14.11-.21-.38-.39-.75-.8-1.12-1.21-1.01-1.13-2.04-2.3-2.95-2.38-3.41,2.49-27.73,26.98-42.63,42.21-.02.02-.05.05-.07.07-.35.32-.94.93-.93,1.43,0,.81,1.39,2.05,2.51,3.04.34.3.68.6,1.01.91,3.22-1.81,6.97-1.8,10.1.09,3.61,2.18,5.4,6.25,4.66,10.6-.18,1.08-.68,1.93-1.09,2.61-.05.08-.09.16-.14.24Z"/></g><path d="M44.58,16.67h0c-2.12.95-.17,3.65,1.36,3.65.45,0,.87-.24,1.13-.83.47-1.07-1.32-2.82-2.49-2.82h0Z"/><path d="M40.55,12.73c-.86,0-1.46.65-.87,1.93.5,1.09,1.33,1.53,2.03,1.53,1.17,0,2.03-1.22.55-2.69-.52-.52-1.17-.78-1.71-.78h0Z"/><path d="M49.04,20.81c-1.39,0-1.86,2.35.35,3.37.36.16.66.24.92.24,1.25,0,1.35-1.7.23-2.82-.56-.56-1.08-.79-1.51-.79h0Z"/><path d="M53.12,24.94c-.12,0-.24.01-.35.05-1.95.53-.11,3.43,1.47,3.43.18,0,.36-.04.53-.12,1.62-.82-.1-3.35-1.65-3.35h0Z"/><path d="M57.35,28.97c-.12,0-.24.01-.35.05-1.95.53-.11,3.43,1.47,3.43.18,0,.36-.04.53-.12,1.62-.82-.1-3.35-1.65-3.35h0Z"/><path d="M41.03,54.67l-6.09-6.65c-3.56.93-7.35-.09-9.93-2.67-2.54-2.54-3.57-6.28-2.7-9.76.21-.83.85-1.48,1.67-1.71.82-.23,1.71,0,2.31.61l3.46,3.46c.7.7,1.8.74,2.47.1.33-.32.52-.75.52-1.21,0-.46-.17-.89-.5-1.22l-3.54-3.54c-.6-.6-.84-1.49-.61-2.32.23-.82.89-1.46,1.71-1.66,3.61-.9,7.43.22,9.98,2.94,2.39,2.55,3.33,6.26,2.43,9.68l6.66,6.11-2.4,2.63-6.66-6.08c-.98-.9-1.38-2.27-1.04-3.57.59-2.24-.02-4.67-1.58-6.33-1.1-1.17-2.56-1.89-4.11-2.07l1.69,1.69c1.01,1.01,1.55,2.34,1.54,3.77-.01,1.43-.58,2.76-1.61,3.75-2.06,1.98-5.41,1.92-7.47-.15l-1.6-1.6c.18,1.48.84,2.89,1.92,3.96,1.68,1.68,4.16,2.35,6.47,1.74,1.29-.35,2.66.05,3.57,1.04l6.09,6.65-2.63,2.41ZM30.66,31.56s0,0-.01,0c0,0,0,0,.01,0Z"/></g></svg>