<?xml version="1.0" encoding="UTF-8"?><svg id="Layer_2" xmlns="http://www.w3.org/2000/svg" viewBox="0 0 72 72"><g id="Layer_1-2"><g id="Icon_73"><path d="M18.6,37.22C8.35,37.22,0,28.87,0,18.61S8.35,0,18.6,0s18.6,8.35,18.6,18.61-8.35,18.61-18.6,18.61ZM18.6,3.56c-8.29,0-15.04,6.75-15.04,15.05s6.75,15.05,15.04,15.05,15.04-6.75,15.04-15.05S26.9,3.56,18.6,3.56Z"/><path d="M18.57,19.37c-3.29,0-5.97-2.85-5.97-6.36s2.68-6.36,5.97-6.36,5.97,2.85,5.97,6.36-2.68,6.36-5.97,6.36ZM18.57,10.21c-1.33,0-2.41,1.26-2.41,2.8s1.08,2.8,2.41,2.8,2.41-1.26,2.41-2.8-1.08-2.8-2.41-2.8Z"/><path d="M28.52,33.08c-.98,0-1.78-.8-1.78-1.78,0-3.77-2.88-6.84-6.41-6.84h-3.52c-3.54,0-6.41,3.07-6.41,6.84,0,.98-.8,1.78-1.78,1.78s-1.78-.8-1.78-1.78c0-5.74,4.47-10.41,9.97-10.41h3.52c5.5,0,9.97,4.67,9.97,10.41,0,.98-.8,1.78-1.78,1.78Z"/><path d="M53.4,72c-10.26,0-18.6-8.35-18.6-18.61s8.35-18.61,18.6-18.61,18.6,8.35,18.6,18.61-8.35,18.61-18.6,18.61ZM53.4,38.34c-8.29,0-15.04,6.75-15.04,15.05s6.75,15.05,15.04,15.05,15.04-6.75,15.04-15.05-6.75-15.05-15.04-15.05Z"/><path d="M53.36,54.15c-3.29,0-5.97-2.85-5.97-6.36s2.68-6.36,5.97-6.36,5.97,2.85,5.97,6.36-2.68,6.36-5.97,6.36ZM53.36,44.99c-1.33,0-2.41,1.26-2.41,2.8s1.08,2.8,2.41,2.8,2.41-1.26,2.41-2.8-1.08-2.8-2.41-2.8Z"/><path d="M63.31,67.86c-.98,0-1.78-.8-1.78-1.78,0-3.77-2.88-6.84-6.41-6.84h-3.52c-3.54,0-6.41,3.07-6.41,6.84,0,.98-.8,1.78-1.78,1.78s-1.78-.8-1.78-1.78c0-5.74,4.47-10.41,9.97-10.41h3.52c5.5,0,9.97,4.67,9.97,10.41,0,.98-.8,1.78-1.78,1.78Z"/><path d="M21.99,70.24c-.18,0-.37-.04-.54-.11-.53-.22-.88-.74-.88-1.32v-3.19H7.05c-.79,0-1.42-.64-1.42-1.42v-25.11c0-.79.64-1.42,1.42-1.42s1.42.64,1.42,1.42v23.68h13.52c.79,0,1.42.64,1.42,1.42v1.32c.64-.58,1.3-1.16,1.95-1.73,1.09-.96,2.21-1.95,3.21-2.89-1-.93-2.1-1.91-3.18-2.87-.64-.57-1.29-1.14-1.92-1.71v.97c0,.79-.64,1.42-1.42,1.42h-6.49c-.79,0-1.42-.64-1.42-1.42v-15.43c0-.79.64-1.42,1.42-1.42s1.42.64,1.42,1.42v14.01h3.64v-2.84c0-.58.35-1.1.88-1.32.53-.22,1.15-.1,1.55.31,1.22,1.22,2.75,2.57,4.23,3.88,1.51,1.33,3.07,2.71,4.36,4,.56.56.56,1.46,0,2.02-1.29,1.29-2.86,2.68-4.38,4.02-1.49,1.31-3.02,2.67-4.25,3.9-.27.27-.64.42-1.01.42Z"/><path d="M66.4,34.52c-.79,0-1.42-.64-1.42-1.42V9.41h-13.52c-.79,0-1.42-.64-1.42-1.42v-1.32c-.64.58-1.3,1.16-1.95,1.73-1.09.96-2.21,1.95-3.21,2.89,1,.93,2.1,1.91,3.18,2.87.64.57,1.29,1.14,1.92,1.71v-.97c0-.79.64-1.42,1.42-1.42h6.49c.79,0,1.42.64,1.42,1.42v15.43c0,.79-.64,1.42-1.42,1.42s-1.42-.64-1.42-1.42v-14.01h-3.64v2.84c0,.58-.35,1.1-.88,1.32-.53.22-1.15.1-1.55-.31-1.22-1.22-2.75-2.57-4.23-3.88-1.51-1.33-3.07-2.71-4.36-4-.56-.56-.56-1.46,0-2.02,1.29-1.29,2.86-2.68,4.38-4.02,1.49-1.31,3.02-2.67,4.25-3.9.41-.41,1.02-.53,1.55-.31.53.22.88.74.88,1.32v3.19h13.52c.79,0,1.42.64,1.42,1.42v25.11c0,.79-.64,1.42-1.42,1.42Z"/></g></g></svg>