<?xml version="1.0" encoding="UTF-8"?><svg id="Layer_2" xmlns="http://www.w3.org/2000/svg" viewBox="0 0 72 61.47"><defs><style>.cls-1{fill:#241f20;}</style></defs><g id="Layer_1-2"><g id="Icon_57"><path class="cls-1" d="M17.3,61.47c-.51,0-1.02-.13-1.49-.38-1-.55-1.62-1.59-1.62-2.73v-6H4.83C2.16,52.36,0,50.24,0,47.63V4.73C0,2.12,2.16,0,4.83,0c.98,0,1.78.8,1.78,1.78s-.8,1.78-1.78,1.78c-.7,0-1.27.53-1.27,1.17v42.9c0,.64.57,1.17,1.27,1.17h12.92v8.6l10.46-8.6h38.97c.98,0,1.78.8,1.78,1.78s-.8,1.78-1.78,1.78H29.48l-10.41,8.56-.09.06c-.51.33-1.1.49-1.68.49Z"/><path class="cls-1" d="M67.17,52.36h-9.76c-.98,0-1.78-.8-1.78-1.78s.8-1.78,1.78-1.78h9.76c.7,0,1.27-.53,1.27-1.17V4.73c0-.64-.57-1.17-1.27-1.17H4.82c-.7,0-1.26.52-1.26,1.17v23.77c0,.98-.8,1.78-1.78,1.78s-1.78-.8-1.78-1.78V4.73C0,2.12,2.16,0,4.82,0h62.35c2.66,0,4.83,2.12,4.83,4.73v42.9c0,2.61-2.16,4.73-4.83,4.73Z"/><path class="cls-1" d="M19.89,31.89c-.37,0-.74-.09-1.08-.27l-2.54-1.34-2.54,1.34c-.78.41-1.72.35-2.44-.18-.72-.52-1.07-1.39-.92-2.26l.49-2.83-2.06-2c-.63-.62-.86-1.53-.59-2.37.27-.84.99-1.45,1.87-1.57l2.84-.41,1.27-2.58c.39-.8,1.19-1.29,2.07-1.29s1.68.49,2.07,1.29l1.27,2.58,2.84.41c.88.13,1.59.73,1.87,1.57.27.84.05,1.75-.59,2.37l-2.06,2,.49,2.83c.15.87-.2,1.74-.92,2.26-.41.29-.88.44-1.36.44ZM11.57,23.07l1.48,1.45c.55.53.79,1.3.67,2.05l-.35,2.04,1.83-.96c.67-.35,1.48-.35,2.15,0l1.83.96-.35-2.04c-.13-.75.12-1.52.67-2.05l1.48-1.45-2.05-.3c-.75-.11-1.4-.58-1.74-1.27l-.92-1.86-.92,1.86c-.34.68-.99,1.16-1.74,1.27l-2.05.3ZM22.05,23.23h0,0ZM15.79,18.68h0s0,0,0,0Z"/><path class="cls-1" d="M32.41,31.89c-.48,0-.95-.15-1.36-.44-.72-.52-1.07-1.39-.92-2.26l.49-2.83-2.06-2c-.63-.62-.86-1.53-.59-2.37.27-.84.99-1.45,1.87-1.57l2.84-.41,1.27-2.58c.39-.8,1.19-1.29,2.07-1.29s1.68.49,2.07,1.29l1.27,2.58,2.84.41c.88.13,1.59.73,1.87,1.57.27.84.05,1.75-.59,2.37l-2.06,2,.49,2.83c.15.87-.2,1.74-.92,2.26-.72.52-1.65.59-2.44.18l-2.54-1.34-2.54,1.34c-.34.18-.71.27-1.08.27ZM36.03,27.37c.37,0,.74.09,1.08.27l1.83.96-.35-2.04c-.13-.75.12-1.52.67-2.05l1.48-1.45-2.05-.3c-.75-.11-1.4-.58-1.74-1.26l-.92-1.86-.92,1.86c-.34.68-.99,1.16-1.74,1.27l-2.05.3,1.48,1.45c.55.53.79,1.3.67,2.05l-.35,2.04,1.83-.96c.34-.18.71-.27,1.08-.27ZM41.81,23.23h0,0ZM35.55,18.68h0s0,0,0,0Z"/><path class="cls-1" d="M52.16,31.64c-.48,0-.95-.15-1.36-.44-.72-.52-1.07-1.39-.92-2.26l.49-2.83-2.06-2c-.63-.62-.86-1.53-.59-2.37.27-.84.99-1.45,1.87-1.57l2.84-.41,1.27-2.58c.39-.8,1.19-1.29,2.07-1.29s1.68.49,2.07,1.29l1.27,2.58,2.84.41c.88.13,1.59.73,1.87,1.57.27.84.05,1.75-.59,2.37l-2.06,2,.49,2.83c.15.87-.2,1.74-.92,2.26-.72.52-1.65.59-2.44.18l-2.54-1.34-2.54,1.34c-.34.18-.71.27-1.08.27ZM55.78,27.12c.37,0,.74.09,1.08.27l1.83.96-.35-2.04c-.13-.75.12-1.52.67-2.05l1.48-1.45-2.05-.3c-.75-.11-1.4-.58-1.74-1.26l-.92-1.86-.92,1.86c-.34.68-.99,1.16-1.74,1.27l-2.05.3,1.48,1.45c.55.53.79,1.3.67,2.05l-.35,2.04,1.83-.96c.34-.18.71-.27,1.08-.27ZM61.56,22.97h0,0Z"/></g></g></svg>