<?xml version="1.0" encoding="UTF-8"?><svg id="Layer_2" xmlns="http://www.w3.org/2000/svg" viewBox="0 0 72 72"><g id="Layer_1-2"><g id="Icon_69"><path d="M15.44,58.55c-.25,0-.51-.05-.75-.16-.63-.28-1.04-.88-1.06-1.56l-.36-9.33h-1.95c-6.24,0-11.32-5.01-11.32-11.17V11.17C0,5.01,5.08,0,11.32,0h39.39c6.24,0,11.32,5.01,11.32,11.17v20.65c0,.99-.81,1.79-1.81,1.79s-1.81-.8-1.81-1.79V11.17c0-4.19-3.45-7.6-7.7-7.6H11.32c-4.25,0-7.7,3.41-7.7,7.6v25.16c0,4.19,3.45,7.6,7.7,7.6h3.69c.97,0,1.77.76,1.81,1.72l.29,7.47,10.92-8.78c.32-.26.73-.4,1.14-.4h.21c1,0,1.81.8,1.81,1.79,0,.81-.54,1.49-1.29,1.71l-13.33,10.72c-.33.26-.74.4-1.14.4Z"/><path d="M61.24,72c-.39,0-.78-.13-1.11-.37l-9.68-7.35h-14.42c-4.66,0-8.45-3.74-8.45-8.34v-17.57c0-4.6,3.79-8.34,8.45-8.34h27.5c4.66,0,8.45,3.74,8.45,8.34v17.57c0,4.6-3.79,8.34-8.45,8.34h-.26s-.23,6.01-.23,6.01c-.03.67-.43,1.27-1.04,1.55-.24.11-.51.17-.77.17ZM36.04,33.61c-2.66,0-4.83,2.14-4.83,4.76v17.57c0,2.63,2.17,4.76,4.83,4.76h15.03c.4,0,.79.13,1.11.37l7.39,5.61.17-4.26c.04-.96.83-1.71,1.8-1.72h2.01c2.67,0,4.84-2.14,4.84-4.77v-17.57c0-2.63-2.17-4.76-4.83-4.76h-27.5Z"/><path d="M17.41,24.05c-2.01,0-3.65-1.62-3.65-3.6s1.64-3.6,3.65-3.6,3.65,1.62,3.65,3.6-1.64,3.6-3.65,3.6Z"/><path d="M31.2,24.05c-2.01,0-3.65-1.62-3.65-3.6s1.64-3.6,3.65-3.6,3.65,1.62,3.65,3.6-1.64,3.6-3.65,3.6Z"/><path d="M44.99,24.05c-2.01,0-3.65-1.62-3.65-3.6s1.64-3.6,3.65-3.6,3.65,1.62,3.65,3.6-1.64,3.6-3.65,3.6Z"/><path d="M39.42,49.91c-1.76,0-3.19-1.41-3.19-3.14s1.43-3.14,3.19-3.14,3.19,1.41,3.19,3.14-1.43,3.14-3.19,3.14Z"/><path d="M49.73,49.91c-1.76,0-3.19-1.41-3.19-3.14s1.43-3.14,3.19-3.14,3.19,1.41,3.19,3.14-1.43,3.14-3.19,3.14Z"/><path d="M60.05,49.91c-1.76,0-3.19-1.41-3.19-3.14s1.43-3.14,3.19-3.14,3.19,1.41,3.19,3.14-1.43,3.14-3.19,3.14Z"/></g></g></svg>