<?xml version="1.0" encoding="UTF-8"?><svg id="Layer_2" xmlns="http://www.w3.org/2000/svg" viewBox="0 0 72 58.91"><g id="Layer_1-2"><g id="Icon_78"><path d="M9.68,58.91c-.24,0-.49-.05-.72-.15-.63-.28-1.04-.89-1.06-1.58l-.18-6.98H1.78c-.98,0-1.78-.8-1.78-1.78v-29.62c0-.98.8-1.78,1.78-1.78h24.78c.98,0,1.78.8,1.78,1.78s-.8,1.78-1.78,1.78H3.56v26.06h5.9c.97,0,1.75.77,1.78,1.73l.13,4.96,7.29-6.27c.32-.28.73-.43,1.16-.43h16.19v-8.12c0-.98.8-1.78,1.78-1.78s1.78.8,1.78,1.78v9.9c0,.98-.8,1.78-1.78,1.78h-17.31l-9.63,8.28c-.33.28-.74.43-1.16.43Z"/><path d="M62.32,41.89c-.42,0-.83-.15-1.16-.43l-9.63-8.28h-17.31c-.98,0-1.78-.8-1.78-1.78V1.78c0-.98.8-1.78,1.78-1.78h36.01c.98,0,1.78.8,1.78,1.78v29.62c0,.98-.8,1.78-1.78,1.78h-5.94l-.18,6.97c-.02.69-.43,1.3-1.06,1.58-.23.1-.48.15-.72.15ZM35.99,29.62h16.19c.43,0,.84.15,1.16.43l7.29,6.27.13-4.96c.03-.96.81-1.73,1.78-1.73h5.9V3.56h-32.45v26.06Z"/><path d="M52.95,11.19c-.79,0-1.42-.64-1.42-1.42v-1.33c0-.79.64-1.42,1.42-1.42s1.42.64,1.42,1.42v1.33c0,.79-.64,1.42-1.42,1.42Z"/><path d="M59.74,11.95h-12.98c-.79,0-1.42-.64-1.42-1.42s.64-1.42,1.42-1.42h12.98c.79,0,1.42.64,1.42,1.42s-.64,1.42-1.42,1.42Z"/><path d="M48.02,25.37c-.47,0-.94-.24-1.21-.67-.42-.67-.22-1.55.45-1.96,2.37-1.49,4.37-3.42,5.93-5.72,1.3-1.92,2.25-4.03,2.82-6.29.19-.76.97-1.22,1.73-1.03.76.19,1.22.97,1.03,1.73-.66,2.58-1.74,4.99-3.23,7.18-1.79,2.63-4.06,4.83-6.78,6.53-.24.15-.5.22-.76.22Z"/><path d="M58.86,26.37c-.27,0-.54-.08-.78-.23-2.22-1.46-4.16-3.27-5.75-5.38-1.24-1.65-2.25-3.47-3.01-5.4-.29-.73.07-1.56.81-1.85.73-.29,1.56.07,1.85.81.66,1.69,1.55,3.28,2.64,4.73,1.39,1.85,3.08,3.43,5.03,4.71.66.43.84,1.31.41,1.97-.27.42-.73.64-1.19.64Z"/><path d="M24.39,43.8c-.61,0-1.18-.4-1.36-1.01l-4.78-15.76h-.03l-4.78,15.76c-.23.75-1.02,1.18-1.78.95-.75-.23-1.18-1.02-.95-1.78l5.09-16.77c.18-.6.74-1.01,1.36-1.01h2.14c.63,0,1.18.41,1.36,1.01l5.09,16.77c.23.75-.2,1.55-.95,1.78-.14.04-.28.06-.41.06Z"/><rect x="14.67" y="35.4" width="7.06" height="2.85"/></g></g></svg>