<?xml version="1.0" encoding="UTF-8"?><svg id="Layer_2" xmlns="http://www.w3.org/2000/svg" viewBox="0 0 72 71.96"><g id="Layer_1-2"><g id="Icon_95"><path d="M44.82,40.25c-.39,0-.79-.13-1.12-.4-.76-.62-.88-1.74-.26-2.5.62-.77.89-1.48.9-1.51.72-1.94-.04-3.83-1-6.23-.49-1.23-1.12-2.39-1.88-3.48l-5.95,1.76s-.08.02-.12.03c-.27.06-2.65.52-4.41-1.35l-.05-.05c-.75-.82-1.12-1.89-1.05-3.01.07-1.14.62-2.21,1.49-2.94,2.08-1.75,8.52-6.68,10.15-7.68,1.33-.81,2.94-.99,4.41-.49,1.44.48,2.6,1.55,3.21,2.95l.69,1.14c.53.67.95,1.52,1.47,2.59.43.88.98,1.98,1.73,3.27,1.23,2.13,2.59,3.97,3.76,5.5.6.78.45,1.9-.33,2.49-.78.6-1.9.45-2.49-.33-1.24-1.61-2.68-3.57-4.01-5.87-.81-1.4-1.38-2.55-1.84-3.48-.45-.91-.81-1.64-1.11-2-.06-.07-.11-.14-.15-.21l-.83-1.36c-.05-.08-.1-.17-.13-.26-.27-.68-.8-.95-1.09-1.04-.48-.16-1.01-.1-1.44.16-1.36.83-7.62,5.6-9.71,7.36-.13.11-.22.28-.23.45,0,.1,0,.25.12.37.36.38.89.35,1.05.33l7.04-2.08c.69-.2,1.44.03,1.89.6,1.29,1.62,2.34,3.41,3.1,5.32,1.05,2.61,2.24,5.57,1.03,8.8-.11.3-.55,1.37-1.47,2.51-.35.43-.86.66-1.38.66Z"/><path d="M51.79,71.96c-1.49,0-2.94-.7-3.87-2l-3.38-4.74c-.88-1.23-1.91-2.33-3.08-3.28-1.75-1.41-3.53-2.83-5.31-4.23-2.62-2.06-4.69-3.63-6.35-4.9-4.21-3.21-5.78-4.41-6.81-6.12-.22-.37-.47-.92-.74-1.62-.87-2.29-.85-3.87-.61-10.17.02-.53.06-1.06.09-1.56.06-.86.12-1.68.09-2.48-.02-.52-.05-.96-.07-1.34-.09-1.27-.17-2.47.87-3.44,1.47-1.37,3.94-1.05,5.74-.12,2.28,1.17,3.07,3.2,3.58,5.22.07.29.14.59.21.89.44,1.85.85,3.6,2.34,5.02.71.68.73,1.81.05,2.51-.68.71-1.81.73-2.51.05-2.25-2.15-2.85-4.72-3.34-6.77-.07-.28-.13-.56-.2-.83-.45-1.76-.87-2.48-1.76-2.93-.55-.28-1.12-.39-1.47-.41,0,.18.02.38.04.56.03.4.06.89.08,1.48.03.97-.04,1.92-.1,2.83-.04.5-.07.98-.09,1.45-.23,6.09-.23,7.19.38,8.77.27.72.43,1,.46,1.05.67,1.12,2.21,2.29,5.91,5.12,1.67,1.27,3.75,2.86,6.39,4.93,1.79,1.41,3.59,2.84,5.35,4.26,1.42,1.15,2.68,2.49,3.75,3.98l3.38,4.74c.36.51,1.04.65,1.58.35l15.45-8.85c.55-.31.76-1,.48-1.57l-1.81-3.71c-1.25-2.57-2.02-5.31-2.3-8.15l-1.36-14.09c-.16-1.61-1.03-3.04-2.4-3.92-1.1-.7-2.23-1.39-3.36-2.04-3.7-2.14-6.31-3.56-7.75-4.25-.89-.42-1.27-1.48-.84-2.37.42-.89,1.48-1.27,2.37-.84,1.55.73,4.16,2.17,8,4.38,1.18.68,2.35,1.39,3.5,2.12,2.3,1.47,3.76,3.86,4.03,6.57l1.36,14.09c.23,2.42.89,4.75,1.95,6.93l1.81,3.71c1.09,2.24.25,4.97-1.91,6.21l-15.45,8.85c-.75.43-1.56.63-2.37.63Z"/><path d="M45.99,65.97c-.63,0-1.24-.33-1.56-.92-.47-.86-.16-1.94.7-2.42l21.07-11.59c.86-.47,1.94-.16,2.41.7.47.86.16,1.94-.7,2.42l-21.07,11.59c-.27.15-.57.22-.86.22Z"/><path d="M51.34,56.13c-1.33,0-2.66-.49-3.67-1.49-1.89-1.84-3.95-3.84-6.28-6.09-2.95-2.85-6.3-6.09-10.22-9.92-.7-.69-.72-1.81-.03-2.51.69-.7,1.81-.72,2.51-.03,3.92,3.82,7.26,7.05,10.21,9.91,2.33,2.25,4.4,4.26,6.29,6.1.66.65,1.74.64,2.4-.02.66-.66.66-1.75,0-2.41-2.1-2.1-4.25-4.26-6.61-6.64-3.85-3.87-8.21-8.26-13.83-13.86l-4.47-4.44c-1.15-1.14-2.35-2.33-3.6-3.57-.25-.25-.48-.47-.66-.66l-3.3-.75.58,3.66c.66.76,2.26,2.59,3.45,3.76.7.69.72,1.81.03,2.51s-1.81.72-2.51.03c-.87-.85-1.92-2-2.64-2.81-.39-.44-.74-.84-.98-1.12-.44-.51-.8-.93-.82-1.53l-1.03-6.55c-.09-.58.11-1.17.54-1.58.43-.4,1.03-.57,1.61-.43l6.36,1.45c.33.08.63.24.87.48.19.19.55.55,1,1,1.25,1.24,2.45,2.43,3.6,3.57l4.47,4.44c5.63,5.61,9.99,10,13.84,13.87,2.36,2.37,4.5,4.53,6.6,6.63,2.05,2.05,2.05,5.39,0,7.44-1.02,1.02-2.37,1.53-3.72,1.53Z"/><path d="M1.78,10.67c-.98,0-1.78-.8-1.78-1.78V1.78C0,.8.8,0,1.78,0h7.11c.98,0,1.78.8,1.78,1.78s-.8,1.78-1.78,1.78H3.56v5.33c0,.98-.8,1.78-1.78,1.78Z"/><path d="M35.75,10.67c-.98,0-1.78-.8-1.78-1.78V3.56h-5.33c-.98,0-1.78-.8-1.78-1.78s.8-1.78,1.78-1.78h7.11c.98,0,1.78.8,1.78,1.78v7.11c0,.98-.8,1.78-1.78,1.78Z"/><path d="M8.89,37.52H1.78c-.98,0-1.78-.8-1.78-1.78v-7.11c0-.98.8-1.78,1.78-1.78s1.78.8,1.78,1.78v5.33h5.33c.98,0,1.78.8,1.78,1.78s-.8,1.78-1.78,1.78Z"/></g></g></svg>