<?xml version="1.0" encoding="UTF-8"?><svg id="Layer_2" xmlns="http://www.w3.org/2000/svg" viewBox="0 0 61.38 72"><defs><style>.cls-1{fill:#241f20;}</style></defs><g id="Layer_1-2"><path class="cls-1" d="M25.45,72s-.02,0-.03,0c-.97-.02-1.75-.81-1.75-1.78v-5.63c-1.3-.4-2.55-.93-3.76-1.56l-3.98,3.98c-.65.65-1.52,1.01-2.45,1.01s-1.8-.36-2.45-1.01l-4.37-4.37c-.65-.65-1.02-1.52-1.02-2.45s.36-1.8,1.02-2.45l3.98-3.98c-.63-1.2-1.16-2.46-1.56-3.76H3.46c-1.91,0-3.46-1.55-3.46-3.46v-6.18c0-1.91,1.55-3.46,3.46-3.46h5.63c.4-1.29.92-2.55,1.56-3.76l-3.98-3.98c-1.35-1.36-1.34-3.55,0-4.89l4.37-4.37c.65-.65,1.52-1.02,2.45-1.02h0c.92,0,1.79.36,2.44,1.02l3.98,3.98c1.2-.58,2.68-.99,4.01-1.35.16-.04.32-.09.47-.13l.18-5.93c.03-.96.82-1.73,1.78-1.73,0,0,.02,0,.03,0,.97.02,1.75.81,1.75,1.78l-.02,18.58c0,.64-.35,1.23-.9,1.55-2.7,1.53-4.31,4.07-4.31,6.8s1.51,5.09,4.03,6.64c.55.33.87.94.85,1.58l-.58,18.6c-.03.96-.82,1.73-1.78,1.73ZM9.26,60.19l4.23,4.23,4.21-4.21c.94-.94,2.4-1.15,3.55-.51.87.48,1.78.89,2.71,1.23l.26-8.38c-3.06-2.22-4.85-5.55-4.85-9.09s1.93-7.13,5.22-9.34v-8.06c-1.16.32-2.51.7-3.32,1.15-1.15.64-2.61.43-3.55-.51l-4.21-4.21-4.23,4.23,4.21,4.21c.94.94,1.15,2.4.51,3.55-.68,1.22-1.21,2.51-1.59,3.84-.36,1.27-1.54,2.15-2.87,2.15H3.56v5.98h5.96c1.33,0,2.51.88,2.87,2.15.38,1.33.92,2.62,1.59,3.83.64,1.15.43,2.61-.51,3.55l-4.21,4.22ZM26.36,35.11h0,0ZM13.42,22.41h0s0,0,0,0Z"/><path class="cls-1" d="M35.01,57.25s-.02,0-.03,0c-.97-.02-1.75-.81-1.75-1.78l.02-18.58c0-.64.35-1.23.9-1.55,2.7-1.53,4.31-4.07,4.31-6.8s-1.51-5.09-4.03-6.64c-.55-.33-.87-.94-.85-1.58l.58-18.6c.03-.96.82-1.73,1.78-1.73,0,0,.02,0,.03,0,.97.02,1.75.81,1.75,1.78v5.63c1.3.4,2.55.93,3.76,1.56l3.98-3.98c.65-.65,1.52-1.01,2.45-1.01s1.8.36,2.45,1.01l4.37,4.37c.65.65,1.02,1.52,1.02,2.45s-.36,1.8-1.02,2.45l-3.98,3.98c.63,1.2,1.16,2.46,1.56,3.76h5.63c1.91,0,3.46,1.55,3.46,3.46v6.17c0,1.91-1.55,3.46-3.46,3.46h-5.63c-.4,1.29-.92,2.55-1.56,3.76l3.98,3.98c1.35,1.36,1.34,3.55,0,4.89l-4.37,4.37c-.66.66-1.52,1.02-2.45,1.02h0c-.92,0-1.79-.36-2.44-1.02l-3.98-3.98c-1.2.58-2.68.99-4.01,1.35-.16.04-.32.09-.47.13l-.18,5.93c-.03.96-.82,1.73-1.78,1.73ZM47.96,49.59h0s0,0,0,0ZM41.56,44.43c.78,0,1.55.3,2.12.88l4.21,4.21,4.23-4.23-4.21-4.21c-.94-.94-1.15-2.4-.51-3.55.68-1.22,1.21-2.51,1.59-3.84.36-1.27,1.54-2.15,2.87-2.15h5.96v-5.98h-5.96c-1.33,0-2.51-.88-2.87-2.15-.38-1.33-.92-2.62-1.59-3.83-.64-1.15-.43-2.62.51-3.55l4.22-4.22-4.23-4.23-4.21,4.21c-.94.94-2.4,1.15-3.55.51-.87-.48-1.78-.89-2.71-1.23l-.26,8.38c3.06,2.22,4.85,5.55,4.85,9.09s-1.93,7.13-5.22,9.34v8.06c1.16-.32,2.51-.7,3.32-1.15.45-.25.94-.37,1.43-.37Z"/></g></svg>