<?xml version="1.0" encoding="UTF-8"?><svg id="Layer_2" xmlns="http://www.w3.org/2000/svg" viewBox="0 0 72 72"><g id="Layer_1-2"><g id="Icon_59"><path d="M17.52,72c-.47,0-.93-.19-1.26-.52L.52,55.74c-.33-.33-.52-.79-.52-1.26s.19-.93.52-1.26l6.63-6.63c1.01-1.01,2.35-1.57,3.78-1.57s2.77.56,3.78,1.57l10.69,10.69c2.09,2.09,2.09,5.48,0,7.57l-6.63,6.63c-.33.33-.79.52-1.26.52ZM4.3,54.48l13.21,13.21,5.36-5.36c.34-.34.52-.78.52-1.26s-.19-.92-.52-1.26l-10.69-10.69c-.34-.34-.78-.52-1.26-.52s-.92.19-1.26.52l-5.36,5.36Z"/><path d="M13.5,49.69c-.18,0-.36-.03-.54-.08-.94-.3-1.46-1.3-1.16-2.24,1.52-4.81,6.08-8.4,11.61-9.15,3.34-.45,6.69.18,9.45,1.79.85.5,1.14,1.59.64,2.44-.5.85-1.59,1.14-2.44.64-2.08-1.21-4.63-1.68-7.18-1.34-4.18.57-7.59,3.19-8.69,6.69-.24.76-.94,1.25-1.7,1.25Z"/><path d="M46.49,50.52h-11.42c-.98,0-1.78-.8-1.78-1.78s.8-1.78,1.78-1.78h11.42c.48,0,.94-.19,1.29-.53.35-.34.53-.8.53-1.29,0-1-.82-1.82-1.82-1.82h-14.14c-.07,0-.15,0-.22.01-.98.09-1.85-.64-1.93-1.62-.09-.98.64-1.85,1.62-1.93.17-.02.35-.02.53-.02h14.14c2.97,0,5.38,2.41,5.38,5.38,0,1.44-.56,2.8-1.58,3.81-1.01,1.01-2.37,1.57-3.8,1.57Z"/><path d="M25.96,60.42c-.62,0-1.22-.32-1.55-.9-.49-.86-.19-1.94.67-2.43l2.13-1.21c1.88-1.07,4.01-1.63,6.18-1.63h15.61c.54,0,1.04-.24,1.38-.65l12.3-15.01c.32-.4.39-.85.39-1.15,0-.57-.25-1.1-.69-1.46-.75-.6-1.82-.53-2.48.17l-8.29,8.7c-.68.71-1.81.74-2.52.06-.71-.68-.74-1.81-.06-2.52l8.29-8.7c1.96-2.05,5.1-2.26,7.31-.48,1.28,1.04,2.02,2.58,2.02,4.23,0,1.23-.42,2.43-1.19,3.39l-12.32,15.03c-1.02,1.24-2.53,1.96-4.14,1.96h-15.61c-1.54,0-3.07.4-4.41,1.17l-2.13,1.21c-.28.16-.58.23-.88.23Z"/><path d="M10.66,55.25c-1.11,0-2-.9-2-2s.9-2,2-2,2,.9,2,2-.9,2-2,2ZM10.66,51.68c-.86,0-1.56.7-1.56,1.56s.7,1.56,1.56,1.56,1.56-.7,1.56-1.56-.7-1.56-1.56-1.56Z"/><path d="M19.39,13.1c-3.45,0-6.25-2.94-6.25-6.55S15.95,0,19.39,0s6.25,2.94,6.25,6.55-2.8,6.55-6.25,6.55ZM19.39,3.57c-1.48,0-2.68,1.34-2.68,2.98s1.2,2.98,2.68,2.98,2.68-1.34,2.68-2.98-1.2-2.98-2.68-2.98Z"/><path d="M8.23,24.13c-.98,0-1.78-.8-1.78-1.78,0-6.05,4.92-10.97,10.97-10.97h3.94c3.56,0,6.92,1.74,8.97,4.66.57.81.37,1.92-.43,2.48-.81.57-1.92.37-2.48-.43-1.39-1.97-3.65-3.15-6.06-3.15h-3.94c-4.08,0-7.41,3.32-7.41,7.41,0,.98-.8,1.78-1.78,1.78Z"/><path d="M59.05,13.1c-3.45,0-6.25-2.94-6.25-6.55s2.8-6.55,6.25-6.55,6.25,2.94,6.25,6.55-2.8,6.55-6.25,6.55ZM59.05,3.57c-1.48,0-2.68,1.34-2.68,2.98s1.2,2.98,2.68,2.98,2.68-1.34,2.68-2.98-1.2-2.98-2.68-2.98Z"/><path d="M70.21,24.13c-.98,0-1.78-.8-1.78-1.78,0-4.08-3.32-7.41-7.41-7.41h-3.94c-2.41,0-4.67,1.18-6.06,3.15-.57.8-1.68,1-2.48.43-.8-.57-1-1.68-.43-2.48,2.06-2.92,5.41-4.66,8.97-4.66h3.94c6.05,0,10.97,4.92,10.97,10.97,0,.98-.8,1.78-1.78,1.78Z"/><path d="M39.11,22.57c-3.71,0-6.73-3.31-6.73-7.38s3.02-7.38,6.73-7.38,6.73,3.31,6.73,7.38-3.02,7.38-6.73,7.38ZM39.11,11.39c-1.74,0-3.16,1.71-3.16,3.81s1.42,3.81,3.16,3.81,3.16-1.71,3.16-3.81-1.42-3.81-3.16-3.81Z"/><path d="M51.47,34.79c-.98,0-1.78-.8-1.78-1.78,0-4.63-3.77-8.39-8.39-8.39h-4.37c-4.63,0-8.39,3.77-8.39,8.39,0,.98-.8,1.78-1.78,1.78s-1.78-.8-1.78-1.78c0-6.59,5.37-11.96,11.96-11.96h4.37c6.59,0,11.96,5.37,11.96,11.96,0,.98-.8,1.78-1.78,1.78Z"/></g></g></svg>