<?xml version="1.0" encoding="UTF-8"?><svg id="Layer_2" xmlns="http://www.w3.org/2000/svg" viewBox="0 0 72.17 72"><g id="Layer_1-2"><g id="Icon_51"><path d="M36.93,66.97h-6.89c-2.02,0-3.67-1.65-3.67-3.67v-6.41c-1.52-.46-3-1.08-4.41-1.83l-4.53,4.53c-1.44,1.43-3.76,1.43-5.19,0l-4.86-4.86c-.69-.69-1.07-1.61-1.08-2.59,0-.98.38-1.9,1.08-2.6l4.54-4.54c-.76-1.41-1.37-2.89-1.83-4.41H3.66c-2.02,0-3.66-1.65-3.66-3.67v-6.88c0-2.02,1.64-3.67,3.66-3.67h6.42c.46-1.51,1.07-3,1.83-4.41l-4.54-4.54c-1.42-1.44-1.42-3.75,0-5.18l4.87-4.88c.7-.7,1.62-1.07,2.61-1.07.98,0,1.89.39,2.58,1.08l4.54,4.54c1.41-.76,2.9-1.37,4.42-1.84V3.66c0-2.02,1.64-3.66,3.66-3.66h6.89c2.02,0,3.67,1.64,3.67,3.66v6.41c1.53.46,3.01,1.08,4.42,1.84l4.53-4.53c.68-.69,1.6-1.07,2.58-1.08h0c.98,0,1.9.38,2.59,1.08l4.87,4.86c1.43,1.43,1.43,3.76,0,5.18l-4.53,4.54c.75,1.39,1.37,2.88,1.84,4.42h6.4c2.02,0,3.66,1.65,3.66,3.67v6.88c0,2.02-1.64,3.67-3.66,3.67h-4.13c-.99,0-1.79-.8-1.79-1.79s.8-1.79,1.79-1.79h4.13s.08-.04.08-.08v-6.88s-.04-.08-.08-.08h-6.74c-1.38,0-2.62-.94-3.01-2.28-.43-1.5-1.03-2.94-1.78-4.28-.67-1.22-.45-2.76.54-3.75l4.76-4.76s.03-.08,0-.11l-4.87-4.86s-.03-.03-.06-.03h0s-.04.01-.05.02l-4.77,4.77c-.98.98-2.52,1.21-3.73.54-1.38-.77-2.83-1.37-4.33-1.8-1.33-.37-2.26-1.61-2.26-3.01V3.66s-.03-.08-.08-.08h-6.89s-.08.03-.08.08v6.75c0,1.4-.93,2.63-2.26,3.01-1.48.42-2.94,1.03-4.31,1.79-1.21.67-2.74.45-3.73-.54l-4.78-4.78s-.02-.02-.05-.02h0s-.06.02-.06.03l-4.87,4.87s-.03.09,0,.12l4.77,4.77c.98.99,1.2,2.52.54,3.73-.77,1.38-1.37,2.83-1.79,4.31-.39,1.33-1.62,2.26-3.01,2.26H3.66s-.08.04-.08.08v6.88s.04.08.08.08h6.75c1.39,0,2.63.93,3.01,2.25.43,1.5,1.03,2.95,1.79,4.31.67,1.21.46,2.74-.53,3.73l-4.77,4.77s-.03.03-.03.06c0,.03.02.05.02.05l4.87,4.87s.09.03.12,0l4.76-4.76c.99-.99,2.52-1.21,3.73-.53,1.37.76,2.82,1.36,4.32,1.79,1.32.38,2.25,1.62,2.25,3.01v6.74s.04.08.08.08h6.89s.08-.03.08-.08v-4.62c0-.99.8-1.79,1.79-1.79s1.79.8,1.79,1.79v4.62c0,2.02-1.64,3.66-3.66,3.66ZM21.65,54.89s0,0,0,0c0,0,0,0,0,0ZM26.73,9.97s0,0,0,0c0,0,0,0,0,0ZM40.25,9.97s0,0,0,0c0,0,0,0,0,0Z"/><path d="M63.95,72s-.1,0-.15,0c-2.23-.04-4.29-.95-5.8-2.58l-19.04-20.8c-.24-.26-.61-.37-.97-.28h0c-5.08,1.34-10.54-.13-14.26-3.84-3.65-3.65-5.15-9.04-3.89-14.06.23-.93.95-1.68,1.89-1.94.94-.26,1.94,0,2.63.69l5.3,5.3c1.43,1.43,3.72,1.5,5.1.17.69-.67,1.07-1.56,1.08-2.52,0-.96-.36-1.86-1.04-2.54l-5.43-5.43c-.69-.69-.95-1.69-.69-2.63.26-.93,1-1.65,1.94-1.88,5.2-1.3,10.71.32,14.38,4.24,3.45,3.67,4.79,9.01,3.49,13.94-.1.36.01.74.27.98l20.8,18.99c1.64,1.52,2.56,3.58,2.6,5.81.04,2.25-.82,4.37-2.41,5.97-1.56,1.56-3.62,2.41-5.81,2.41ZM38.26,44.72c1.26,0,2.48.52,3.35,1.48l19.02,20.79c.83.89,1.99,1.4,3.23,1.43,1.27.02,2.46-.46,3.36-1.36.9-.9,1.39-2.1,1.36-3.37-.02-1.25-.54-2.4-1.44-3.24l-20.79-18.98c-1.25-1.14-1.76-2.88-1.33-4.54.98-3.75-.03-7.8-2.64-10.58-2.4-2.56-5.84-3.82-9.27-3.49l4.21,4.21c1.36,1.36,2.1,3.17,2.09,5.1-.02,1.93-.79,3.73-2.18,5.07-2.78,2.68-7.33,2.59-10.12-.21l-4.08-4.08c-.31,3.3.86,6.64,3.23,9.02,2.81,2.81,6.96,3.93,10.81,2.91.39-.1.79-.15,1.18-.15ZM23.32,31.31s0,0,0,0c0,0,0,0,0,0ZM31.49,23.14s0,0,0,0c0,0,0,0,0,0Z"/></g></g></svg>