<?xml version="1.0" encoding="UTF-8"?><svg id="Layer_2" xmlns="http://www.w3.org/2000/svg" viewBox="0 0 72 72"><g id="Layer_1-2"><path d="M21.01,58c-.53,0-1.06-.24-1.41-.7-.81-1.06-1.52-2.2-2.11-3.39-1.41-2.85-2.12-5.93-2.12-9.13,0-11.38,9.24-20.63,20.61-20.63,10.67,0,19.49,8.01,20.52,18.62.09.98-.62,1.85-1.6,1.94-.98.09-1.85-.62-1.94-1.6-.85-8.78-8.14-15.41-16.97-15.41-9.4,0-17.05,7.66-17.05,17.07,0,2.65.59,5.19,1.76,7.55.49.99,1.07,1.93,1.74,2.81.6.78.45,1.9-.33,2.5-.32.25-.7.37-1.08.37Z"/><path d="M36.75,45.41c-3.57,0-6.47-3.1-6.47-6.91s2.9-6.91,6.47-6.91,6.47,3.1,6.47,6.91-2.9,6.91-6.47,6.91ZM36.75,35.15c-1.61,0-2.91,1.5-2.91,3.35s1.31,3.35,2.91,3.35,2.91-1.5,2.91-3.35-1.31-3.35-2.91-3.35Z"/><path d="M26.33,57.01c-.22,0-.45-.04-.66-.13-.91-.37-1.35-1.4-.99-2.32,1.71-4.26,5.68-7.02,10.1-7.02h3.94c3.15,0,6.15,1.42,8.23,3.89.63.75.54,1.88-.21,2.51s-1.87.54-2.51-.21c-1.4-1.67-3.41-2.62-5.5-2.62h-3.94c-2.96,0-5.63,1.88-6.8,4.78-.28.69-.95,1.12-1.65,1.12Z"/><path d="M40,17.9c-.44,0-.88-.11-1.29-.32l-2.73-1.44-2.73,1.44c-.94.49-2.05.41-2.91-.21-.86-.62-1.28-1.66-1.1-2.71l.52-3.04-2.21-2.15c-.76-.74-1.03-1.83-.7-2.84.33-1.01,1.18-1.73,2.23-1.88l3.05-.44,1.36-2.77c.47-.95,1.42-1.54,2.48-1.54s2.01.59,2.48,1.54h0s1.36,2.77,1.36,2.77l3.05.44c1.05.15,1.9.87,2.23,1.88.33,1.01.06,2.1-.7,2.84l-2.21,2.15.52,3.04c.18,1.05-.24,2.08-1.1,2.71-.48.35-1.05.53-1.62.53ZM31.19,8.04l1.36,1.32c.65.64.95,1.55.8,2.45l-.32,1.87,1.68-.88c.81-.42,1.77-.42,2.57,0l1.68.88-.32-1.87c-.15-.9.14-1.81.8-2.45l1.36-1.32-1.87-.27c-.9-.13-1.68-.7-2.08-1.51l-.84-1.7-.84,1.7c-.4.82-1.18,1.38-2.08,1.51l-1.87.27ZM40.01,4.68h0,0Z"/><path d="M13.28,31.4c-.44,0-.88-.11-1.29-.32l-2.73-1.44-2.73,1.44c-.94.49-2.05.41-2.91-.21-.86-.62-1.28-1.66-1.1-2.71l.52-3.04-2.21-2.15c-.76-.74-1.03-1.83-.7-2.84.33-1.01,1.18-1.73,2.23-1.88l3.05-.44,1.36-2.77c.47-.95,1.42-1.54,2.48-1.54s2.01.59,2.48,1.54h0s1.36,2.77,1.36,2.77l3.05.44c1.05.15,1.9.87,2.23,1.88.33,1.01.06,2.1-.7,2.84l-2.21,2.15.52,3.04c.18,1.05-.24,2.08-1.1,2.71-.48.35-1.05.53-1.62.53ZM9.26,25.98c.44,0,.88.11,1.29.32l1.68.88-.32-1.87c-.15-.9.14-1.81.8-2.45l1.36-1.32-1.87-.27c-.9-.13-1.68-.7-2.08-1.51l-.84-1.7-.84,1.7c-.4.82-1.18,1.38-2.08,1.51l-1.87.27,1.36,1.32c.65.64.95,1.55.8,2.45l-.32,1.87,1.68-.88c.4-.21.84-.32,1.29-.32ZM13.29,18.18h0,0Z"/><path d="M58.72,31.4c-.57,0-1.14-.18-1.62-.53-.86-.62-1.28-1.66-1.1-2.71l.52-3.04-2.21-2.15c-.76-.74-1.03-1.83-.7-2.84.33-1.01,1.18-1.73,2.23-1.88l3.05-.44,1.36-2.77c.47-.95,1.42-1.54,2.48-1.54s2.01.59,2.48,1.54h0s1.36,2.77,1.36,2.77l3.05.44c1.05.15,1.91.87,2.23,1.88.33,1.01.06,2.1-.7,2.84l-2.21,2.15.52,3.04c.18,1.05-.24,2.08-1.1,2.71-.86.62-1.97.7-2.91.21l-2.73-1.44-2.73,1.44c-.41.21-.85.32-1.29.32ZM62.74,25.98c.44,0,.88.11,1.29.32l1.68.88-.32-1.87c-.15-.9.14-1.81.8-2.45l1.36-1.32-1.87-.27c-.9-.13-1.68-.7-2.08-1.51l-.84-1.7-.84,1.7c-.4.82-1.18,1.38-2.08,1.51l-1.87.27,1.36,1.32c.65.64.95,1.55.8,2.45l-.32,1.87,1.68-.88c.4-.21.84-.32,1.29-.32ZM66.77,18.18h0,0Z"/><path d="M9.85,72c-.63,0-1.25-.34-1.57-.94-.46-.87-.14-1.95.73-2.41l21.91-11.76c.76-.41,1.71-.21,2.24.47l3.14,4.02,22.63-12.25c.86-.47,1.94-.15,2.41.72s.15,1.95-.72,2.41l-23.95,12.96c-.76.41-1.71.21-2.25-.47l-3.14-4.02-20.59,11.05c-.27.14-.56.21-.84.21Z"/><polygon points="58.9 56.42 58.43 51.43 54.51 48.3 66.32 47.16 58.9 56.42"/></g></svg>