<?xml version="1.0" encoding="UTF-8"?><svg id="Layer_2" xmlns="http://www.w3.org/2000/svg" viewBox="0 0 65.86 72"><defs><style>.cls-1{fill:#241f20;}</style></defs><g id="Layer_1-2"><g id="Icon_74"><path class="cls-1" d="M28,41.45c-7.07,0-12.82-5.95-12.82-13.27s5.75-13.27,12.82-13.27,12.82,5.95,12.82,13.27-5.75,13.27-12.82,13.27ZM28,18.49c-5.1,0-9.25,4.35-9.25,9.7s4.15,9.7,9.25,9.7,9.25-4.35,9.25-9.7-4.15-9.7-9.25-9.7Z"/><path class="cls-1" d="M53.89,72H1.79c-.99,0-1.79-.8-1.79-1.79,0-13.51,10.48-24.5,23.37-24.5h8.94c12.89,0,23.37,10.99,23.37,24.5,0,.99-.8,1.79-1.79,1.79ZM3.64,68.43h48.39c-.86-10.71-9.38-19.14-19.73-19.14h-8.94c-10.35,0-18.87,8.43-19.73,19.14Z"/><path class="cls-1" d="M48.68,36.31c-.23,0-.45-.04-.67-.13-.68-.28-1.13-.94-1.12-1.68l.09-7.59h-1.67c-.99,0-1.79-.8-1.79-1.79s.8-1.79,1.79-1.79h3.48c.48,0,.93.19,1.27.53.34.34.52.8.52,1.28l-.06,4.83,5.73-6.07c.34-.36.81-.56,1.3-.56h3.35c.77,0,1.4-.63,1.4-1.4V4.97c0-.77-.63-1.4-1.4-1.4h-24.31c-.77,0-1.4.63-1.4,1.4v5.4c0,.99-.8,1.79-1.79,1.79s-1.79-.8-1.79-1.79v-5.4c0-2.74,2.23-4.97,4.97-4.97h24.31c2.74,0,4.97,2.23,4.97,4.97v16.98c0,2.74-2.23,4.97-4.97,4.97h-2.58l-8.34,8.84c-.34.36-.82.56-1.3.56Z"/><path d="M49.48,16.35v-.36c0-1.32.52-2.29,1.98-3.59.82-.73,1.06-1.33,1.06-2.02,0-.75-.43-1.36-1.38-1.36-.77,0-1.19.37-1.41.91-.2.49-.69.81-1.22.81h0c-1,0-1.67-1.09-1.17-1.96.62-1.07,1.8-1.95,3.85-1.94,3.23.02,4.18,2.1,4.18,3.63,0,1.24-.4,2.09-1.83,3.41-.84.79-1.12,1.43-1.12,2.25v.21h-2.95ZM49.48,18.71h0c0-.74.59-1.34,1.33-1.34h.29c.73,0,1.33.59,1.33,1.33h0c0,.74-.59,1.34-1.33,1.34h-.29c-.73,0-1.33-.59-1.33-1.33Z"/></g></g></svg>