<?xml version="1.0" encoding="UTF-8"?><svg id="Layer_2" xmlns="http://www.w3.org/2000/svg" viewBox="0 0 72 48.82"><defs><style>.cls-1{fill:#241f20;}</style></defs><g id="Layer_1-2"><g id="Icon_6"><path class="cls-1" d="M68.11,48.82H3.89c-2.15,0-3.89-1.75-3.89-3.89V3.89C0,1.75,1.75,0,3.89,0h64.21c2.15,0,3.89,1.75,3.89,3.89v41.04c0,2.15-1.75,3.89-3.89,3.89ZM3.89,3.56c-.18,0-.34.15-.34.34v41.04c0,.18.15.34.34.34h64.21c.18,0,.34-.15.34-.34V3.89c0-.18-.15-.34-.34-.34H3.89Z"/><path class="cls-1" d="M36.05,28.2c-1.34,0-2.68-.42-3.79-1.26L2.26,4.36c-.78-.59-.94-1.71-.35-2.49.59-.78,1.71-.94,2.49-.35l29.99,22.58c.97.73,2.34.73,3.31,0L67.62,1.58c.78-.59,1.9-.43,2.49.35s.43,1.9-.35,2.49l-29.92,22.52c-1.12.84-2.46,1.26-3.79,1.26Z"/><path class="cls-1" d="M3.33,48.34c-.47,0-.95-.19-1.3-.56-.67-.72-.64-1.84.08-2.51l19.76-18.55c.72-.67,1.84-.64,2.51.08.67.72.64,1.84-.08,2.51L4.55,47.86c-.34.32-.78.48-1.22.48Z"/><path class="cls-1" d="M68.7,48.34c-.44,0-.87-.16-1.22-.48l-19.76-18.55c-.72-.67-.75-1.8-.08-2.51.67-.72,1.8-.75,2.51-.08l19.76,18.55c.72.67.75,1.8.08,2.51-.35.37-.82.56-1.3.56Z"/></g></g></svg>