<?xml version="1.0" encoding="UTF-8"?><svg id="Layer_2" xmlns="http://www.w3.org/2000/svg" viewBox="0 0 72 72"><defs><style>.cls-1{fill:#241f20;}</style></defs><g id="Layer_1-2"><path class="cls-1" d="M35.96,50.45c-7.94,0-14.4-6.46-14.4-14.4s6.46-14.4,14.4-14.4,14.4,6.46,14.4,14.4-6.46,14.4-14.4,14.4ZM35.96,25.05c-6.07,0-11.01,4.94-11.01,11.01s4.94,11.01,11.01,11.01,11.01-4.94,11.01-11.01-4.94-11.01-11.01-11.01Z"/><path class="cls-1" d="M35.96,13.94c-.94,0-1.69-.76-1.69-1.69V1.69c0-.94.76-1.69,1.69-1.69s1.69.76,1.69,1.69v10.55c0,.94-.76,1.69-1.69,1.69Z"/><path class="cls-1" d="M36.01,50.46c-3.85,0-7.46-1.5-10.18-4.22h0s0,0,0,0c-2.72-2.72-4.22-6.33-4.22-10.18s1.5-7.46,4.22-10.18c2.72-2.72,6.33-4.22,10.18-4.22s7.46,1.5,10.18,4.22c2.72,2.72,4.22,6.33,4.22,10.18s-1.5,7.46-4.22,10.18c-2.72,2.72-6.33,4.22-10.18,4.22ZM36.01,25.06c-2.94,0-5.7,1.14-7.78,3.22-2.08,2.08-3.22,4.84-3.22,7.78s1.14,5.7,3.22,7.78h0c2.08,2.08,4.84,3.22,7.78,3.22s5.7-1.14,7.78-3.22c2.08-2.08,3.22-4.84,3.22-7.78s-1.14-5.7-3.22-7.78c-2.08-2.08-4.84-3.22-7.78-3.22Z"/><path class="cls-1" d="M19.18,20.92c-.43,0-.87-.17-1.2-.5l-7.46-7.46c-.66-.66-.66-1.73,0-2.4.66-.66,1.73-.66,2.4,0l7.46,7.46c.66.66.66,1.73,0,2.4-.33.33-.76.5-1.2.5Z"/><path class="cls-1" d="M36.06,50.43c-7.94,0-14.4-6.46-14.4-14.4s6.46-14.4,14.4-14.4,14.4,6.46,14.4,14.4-6.46,14.4-14.4,14.4ZM36.06,25.03c-6.07,0-11.01,4.94-11.01,11.01s4.94,11.01,11.01,11.01,11.01-4.94,11.01-11.01-4.94-11.01-11.01-11.01Z"/><path class="cls-1" d="M12.24,37.73H1.69c-.94,0-1.69-.76-1.69-1.69s.76-1.69,1.69-1.69h10.55c.94,0,1.69.76,1.69,1.69s-.76,1.69-1.69,1.69Z"/><path class="cls-1" d="M36.07,50.37c-3.69,0-7.37-1.4-10.18-4.21-2.72-2.72-4.22-6.33-4.22-10.18s1.5-7.46,4.22-10.18c5.61-5.61,14.75-5.61,20.36,0,2.72,2.72,4.22,6.33,4.22,10.18s-1.5,7.46-4.22,10.18h0c-2.81,2.81-6.49,4.21-10.18,4.21ZM36.07,24.98c-2.82,0-5.64,1.07-7.78,3.22-2.08,2.08-3.22,4.84-3.22,7.78s1.14,5.7,3.22,7.78c4.29,4.29,11.27,4.29,15.57,0,2.08-2.08,3.22-4.84,3.22-7.78s-1.14-5.7-3.22-7.78c-2.15-2.15-4.96-3.22-7.78-3.22ZM45.05,44.97h0,0Z"/><path class="cls-1" d="M11.77,61.98c-.43,0-.87-.17-1.2-.5-.66-.66-.66-1.73,0-2.4l7.46-7.46c.66-.66,1.73-.66,2.4,0,.66.66.66,1.73,0,2.4l-7.46,7.46c-.33.33-.76.5-1.2.5Z"/><path class="cls-1" d="M36.04,50.34c-7.94,0-14.4-6.46-14.4-14.4s6.46-14.4,14.4-14.4,14.4,6.46,14.4,14.4-6.46,14.4-14.4,14.4ZM36.04,24.94c-6.07,0-11.01,4.94-11.01,11.01s4.94,11.01,11.01,11.01,11.01-4.94,11.01-11.01-4.94-11.01-11.01-11.01Z"/><path class="cls-1" d="M36.04,72c-.94,0-1.69-.76-1.69-1.69v-10.55c0-.94.76-1.69,1.69-1.69s1.69.76,1.69,1.69v10.55c0,.94-.76,1.69-1.69,1.69Z"/><path class="cls-1" d="M35.99,50.33c-3.85,0-7.46-1.5-10.18-4.22-2.72-2.72-4.22-6.33-4.22-10.18s1.5-7.46,4.22-10.18c2.72-2.72,6.33-4.22,10.18-4.22s7.46,1.5,10.18,4.22h0s0,0,0,0c2.72,2.72,4.22,6.33,4.22,10.18s-1.5,7.46-4.22,10.18c-2.72,2.72-6.33,4.22-10.18,4.22ZM35.99,24.93c-2.94,0-5.7,1.14-7.78,3.22-2.08,2.08-3.22,4.84-3.22,7.78s1.14,5.7,3.22,7.78c2.08,2.08,4.84,3.22,7.78,3.22s5.7-1.14,7.78-3.22c4.29-4.29,4.29-11.27,0-15.57h0c-2.08-2.08-4.84-3.22-7.78-3.22Z"/><path class="cls-1" d="M60.28,61.93c-.43,0-.87-.17-1.2-.5l-7.46-7.46c-.66-.66-.66-1.73,0-2.4.66-.66,1.73-.66,2.4,0l7.46,7.46c.66.66.66,1.73,0,2.4-.33.33-.76.5-1.2.5Z"/><path class="cls-1" d="M35.94,50.36c-7.94,0-14.4-6.46-14.4-14.4s6.46-14.4,14.4-14.4,14.4,6.46,14.4,14.4-6.46,14.4-14.4,14.4ZM35.94,24.96c-6.07,0-11.01,4.94-11.01,11.01s4.94,11.01,11.01,11.01,11.01-4.94,11.01-11.01-4.94-11.01-11.01-11.01Z"/><path class="cls-1" d="M70.31,37.66h-10.55c-.94,0-1.69-.76-1.69-1.69s.76-1.69,1.69-1.69h10.55c.94,0,1.69.76,1.69,1.69s-.76,1.69-1.69,1.69Z"/><path class="cls-1" d="M35.93,50.4c-3.69,0-7.37-1.4-10.18-4.21-5.61-5.61-5.61-14.75,0-20.36h0c5.61-5.61,14.75-5.61,20.36,0,5.61,5.61,5.61,14.75,0,20.36-2.81,2.81-6.49,4.21-10.18,4.21ZM28.15,28.23c-4.29,4.29-4.29,11.27,0,15.57s11.27,4.29,15.57,0c4.29-4.29,4.29-11.27,0-15.57-4.29-4.29-11.27-4.29-15.57,0h0Z"/><path class="cls-1" d="M52.77,20.87c-.43,0-.87-.17-1.2-.5-.66-.66-.66-1.73,0-2.4l7.46-7.46c.66-.66,1.73-.66,2.4,0,.66.66.66,1.73,0,2.4l-7.46,7.46c-.33.33-.76.5-1.2.5Z"/></g></svg>