<?xml version="1.0" encoding="UTF-8"?><svg id="Layer_2" xmlns="http://www.w3.org/2000/svg" viewBox="0 0 62.33 72"><g id="Layer_1-2"><g id="Icon_27"><path d="M13.3,72c-1.44,0-2.78-.9-3.28-2.33L.2,41.5c-.31-.88-.25-1.82.15-2.65.4-.84,1.11-1.46,1.98-1.77l22.21-7.75.53,1.51-.53-1.51,22.19-7.74c1.81-.63,3.79.33,4.42,2.14l9.82,28.17c.31.88.25,1.82-.15,2.65-.4.84-1.11,1.46-1.98,1.77l-44.4,15.48c-.38.13-.76.19-1.14.19ZM47.87,24.61s-.06,0-.09.01L3.39,40.11c-.09.03-.13.09-.15.14-.02.05-.04.12-.01.2l9.82,28.17c.05.14.2.21.34.16l44.4-15.48c.09-.03.13-.09.15-.14.02-.05.04-.12.01-.2l-9.82-28.17c-.04-.11-.14-.18-.25-.18Z"/><path d="M29.99,49.89c-.5,0-1.01-.08-1.5-.23L1.98,41.17c-.84-.27-1.31-1.17-1.04-2.02.27-.84,1.17-1.31,2.02-1.04l26.52,8.49c.74.24,1.56-.05,2-.7l15.45-23.07c.49-.74,1.49-.93,2.22-.44.74.49.93,1.49.44,2.22l-15.45,23.07c-.94,1.4-2.51,2.2-4.14,2.2Z"/><path d="M13.11,71.8c-.25,0-.5-.06-.74-.18-.78-.41-1.09-1.38-.68-2.16l9.3-17.81c.41-.78,1.38-1.09,2.16-.68.78.41,1.09,1.38.68,2.16l-9.3,17.81c-.29.55-.84.86-1.42.86Z"/><path d="M59.02,55.29c-.21,0-.43-.04-.63-.13l-18.02-7.73c-.81-.35-1.19-1.29-.84-2.11.35-.81,1.29-1.19,2.11-.84l18.02,7.73c.81.35,1.19,1.29.84,2.11-.26.61-.85.97-1.47.97Z"/><path d="M38.1,26.93c-.69,0-1.25-.56-1.25-1.25v-11.67c0-.45.24-.87.64-1.09.4-.22.88-.21,1.26.03.64.39,1.52.95,2.4,1.5.88.55,1.75,1.1,2.38,1.49.59.36.77,1.13.4,1.72-.36.59-1.13.77-1.72.4-.64-.39-1.52-.95-2.4-1.5-.16-.1-.32-.2-.48-.3v9.42c0,.69-.56,1.25-1.25,1.25Z"/><path d="M48.14,39.35c-.69,0-1.25-.56-1.25-1.25s.56-1.25,1.25-1.25c4.69,0,8.5-4.33,8.5-9.65V4.48c0-.69.56-1.25,1.25-1.25s1.25.56,1.25,1.25v22.72c0,6.69-4.93,12.14-11,12.14Z"/><path d="M57.98,5.6c-2.4,0-4.35-1.95-4.35-4.35,0-.69.56-1.25,1.25-1.25s1.25.56,1.25,1.25c0,1.02.83,1.86,1.86,1.86s1.86-.83,1.86-1.86c0-.69.56-1.25,1.25-1.25s1.25.56,1.25,1.25c0,2.4-1.95,4.35-4.35,4.35Z"/></g></g></svg>