<?xml version="1.0" encoding="UTF-8"?><svg id="Layer_2" xmlns="http://www.w3.org/2000/svg" viewBox="0 0 72 71.9"><g id="Layer_1-2"><g id="Icon_38"><path d="M40.05,27.95c-.79,0-1.42-.64-1.42-1.42v-13.11c0-.79.64-1.42,1.42-1.42s1.42.64,1.42,1.42v13.11c0,.79-.64,1.42-1.42,1.42Z"/><path d="M34.15,36.63c-.36,0-.72-.02-1.07-.06-1.04-.12-3.2-.36-4.98-2.11-1.85-1.83-2.11-4.18-2.13-5.11,0-.01,0-.02,0-.04v-12.96c0-.5.27-.97.7-1.22.43-.26.97-.26,1.41-.02l4.13,2.27c.69.38.94,1.24.56,1.93-.38.69-1.24.94-1.93.56l-2.02-1.11v10.53c.02.59.18,2.05,1.29,3.14,1.07,1.06,2.46,1.22,3.29,1.31.71.08,1.43.05,2.14-.1.77-.16,1.52.34,1.68,1.11.16.77-.34,1.52-1.11,1.68-.65.13-1.3.2-1.95.2Z"/><path d="M40.05,13.53c-3.73,0-6.77-3.04-6.77-6.77s3.04-6.77,6.77-6.77,6.77,3.04,6.77,6.77-3.04,6.77-6.77,6.77ZM40.05,2.85c-2.16,0-3.92,1.76-3.92,3.92s1.76,3.92,3.92,3.92,3.92-1.76,3.92-3.92-1.76-3.92-3.92-3.92Z"/><path d="M67.7,71.9H4.3c-2.37,0-4.3-1.84-4.3-4.09V30.88c0-2.26,1.93-4.09,4.3-4.09h10.35c.98,0,1.78.8,1.78,1.78s-.8,1.78-1.78,1.78H4.3c-.44,0-.74.28-.74.53v36.92c0,.25.3.53.74.53h63.4c.44,0,.74-.28.74-.53V30.88c0-.25-.3-.53-.74-.53h-35.34c-.98,0-1.78-.8-1.78-1.78s.8-1.78,1.78-1.78h35.34c2.37,0,4.3,1.84,4.3,4.09v36.92c0,2.26-1.93,4.09-4.3,4.09Z"/><path d="M36.05,52.98c-1.31,0-2.62-.39-3.74-1.16L2.32,31.1c-.81-.56-1.01-1.67-.45-2.47.56-.81,1.67-1.01,2.47-.45l30,20.72c1.01.7,2.42.7,3.43,0l29.92-20.67c.81-.56,1.92-.36,2.47.45.56.81.36,1.92-.45,2.47l-29.92,20.67c-1.12.77-2.43,1.16-3.74,1.16Z"/><path d="M3.33,71.46c-.5,0-1-.21-1.35-.62-.64-.74-.56-1.87.19-2.51l19.76-17.03c.74-.64,1.87-.56,2.51.19.64.74.56,1.87-.19,2.51l-19.76,17.03c-.34.29-.75.43-1.16.43Z"/><path d="M68.88,70.12c-.4,0-.79-.13-1.12-.4l-19.34-15.77c-.76-.62-.88-1.74-.25-2.5.62-.76,1.74-.87,2.5-.25l19.34,15.77c.76.62.88,1.74.25,2.5-.35.43-.86.65-1.38.65Z"/></g></g></svg>