<?xml version="1.0" encoding="UTF-8"?><svg id="Layer_2" xmlns="http://www.w3.org/2000/svg" viewBox="0 0 72 72"><g id="Layer_1-2"><g id="Icon_64"><path d="M22.36,65.37l-2.53-2.52L68.21,14.35c.13-.13.21-.3.21-.44,0-.04,0-.1-.04-.14l-10.2-10.16c-.08-.08-.36-.07-.59.16L9.21,52.26l-2.53-2.52L55.06,1.25c1.61-1.6,4.14-1.67,5.65-.17l10.2,10.16c.7.7,1.09,1.65,1.09,2.67,0,1.09-.46,2.17-1.26,2.97l-48.38,48.49Z"/><polygon points="59.95 24.36 47.84 12.29 50.36 9.77 62.48 21.83 59.95 24.36"/><path d="M1.81,72c-.47,0-.92-.18-1.27-.52-.47-.47-.64-1.17-.44-1.81l6.21-19.3c.19-.59.68-1.04,1.28-1.19.61-.15,1.24.03,1.68.47l13.17,13.11c.44.44.62,1.08.48,1.68-.15.61-.6,1.09-1.19,1.28l-19.38,6.19c-.18.06-.36.08-.54.08ZM8.83,54.24l-4.26,13.22,13.27-4.24-9.02-8.98Z"/><path d="M17.61,34.55c-.46,0-.92-.17-1.26-.52L.52,18.24c-.34-.33-.52-.79-.52-1.26s.19-.93.52-1.26L15.7.57c.34-.33.79-.52,1.26-.52s.93.19,1.26.52l15.82,15.79c.7.7.7,1.83,0,2.52-.7.7-1.83.7-2.53,0l-14.56-14.53-12.65,12.62,14.56,14.53c.7.7.7,1.83,0,2.52-.35.35-.81.52-1.26.52Z"/><path d="M55.02,71.89c-.47,0-.93-.19-1.26-.52l-16.09-16.06c-.7-.7-.7-1.83,0-2.52.7-.7,1.83-.7,2.53,0l14.82,14.79,12.65-12.62-14.48-14.45c-.7-.7-.7-1.83,0-2.52.7-.7,1.83-.7,2.53,0l15.74,15.71c.34.33.52.79.52,1.26s-.19.93-.52,1.26l-15.18,15.14c-.34.33-.79.52-1.26.52Z"/><path d="M9.54,23.58c-.46,0-.92-.17-1.26-.52-.7-.7-.7-1.83,0-2.52l8.11-8.09c.7-.7,1.83-.7,2.53,0,.7.7.7,1.83,0,2.52l-8.11,8.09c-.35.35-.81.52-1.26.52Z"/><path d="M16.64,30.16c-.46,0-.92-.17-1.26-.52-.7-.7-.7-1.83,0-2.52l5.02-5.01c.7-.7,1.83-.7,2.53,0,.7.7.7,1.83,0,2.52l-5.02,5.01c-.35.35-.81.52-1.26.52Z"/><path d="M43.13,57.11c-.46,0-.92-.17-1.26-.52-.7-.7-.7-1.83,0-2.52l5.65-5.63c.7-.7,1.83-.7,2.53,0,.7.7.7,1.83,0,2.52l-5.65,5.63c-.35.35-.81.52-1.26.52Z"/><path d="M49.93,63.9c-.46,0-.92-.17-1.26-.52-.7-.7-.7-1.83,0-2.52l8.11-8.09c.7-.7,1.83-.7,2.53,0,.7.7.7,1.83,0,2.52l-8.11,8.09c-.35.35-.81.52-1.26.52Z"/></g></g></svg>