<?xml version="1.0" encoding="UTF-8"?><svg id="Layer_2" xmlns="http://www.w3.org/2000/svg" viewBox="0 0 65.93 72"><g id="Layer_1-2"><g id="Icon_23"><path d="M37.63,40.03h-9.77c-1.72,0-3.12-1.4-3.12-3.12v-3.48c0-.12-.06-.24-.17-.33-3.53-2.67-5.56-6.74-5.56-11.16,0-7.59,6.17-13.86,13.76-13.98,7.68-.11,14.06,6.04,14.2,13.72.08,4.7-2.18,9.09-6.04,11.76-.11.07-.17.19-.17.3v3.16c0,1.72-1.4,3.12-3.12,3.12ZM28.31,36.47h8.88v-2.72c0-1.28.64-2.49,1.71-3.23,2.88-1.99,4.57-5.27,4.51-8.77-.1-5.73-4.85-10.32-10.58-10.23-5.65.09-10.25,4.76-10.25,10.42,0,3.3,1.51,6.33,4.15,8.32,1,.75,1.59,1.94,1.59,3.17v3.04Z"/><path d="M37.21,44.2h-8.45c-.69,0-1.25-.56-1.25-1.25s.56-1.25,1.25-1.25h8.45c.69,0,1.25.56,1.25,1.25s-.56,1.25-1.25,1.25Z"/><path d="M36.46,46.1h-6.94c0,1.3,1.05,2.35,2.35,2.35h2.24c1.3,0,2.35-1.05,2.35-2.35h0Z"/><path d="M32.99,6.24c-.98,0-1.78-.8-1.78-1.78V1.78c0-.98.8-1.78,1.78-1.78s1.78.8,1.78,1.78v2.68c0,.98-.8,1.78-1.78,1.78Z"/><path d="M19.97,11.6c-.46,0-.91-.17-1.26-.52l-1.9-1.9c-.7-.7-.7-1.82,0-2.52.7-.7,1.82-.69,2.52,0l1.9,1.9c.7.7.7,1.82,0,2.52-.35.35-.8.52-1.26.52Z"/><path d="M14.55,22.88h-2.68c-.98,0-1.78-.8-1.78-1.78s.8-1.78,1.78-1.78h2.68c.98,0,1.78.8,1.78,1.78s-.8,1.78-1.78,1.78Z"/><path d="M54.02,22.98h-2.68c-.98,0-1.78-.8-1.78-1.78s.8-1.78,1.78-1.78h2.68c.98,0,1.78.8,1.78,1.78s-.8,1.78-1.78,1.78Z"/><path d="M45.99,11.66c-.46,0-.91-.17-1.26-.52-.7-.7-.7-1.82,0-2.52l1.9-1.9c.7-.7,1.82-.7,2.52,0,.7.7.7,1.82,0,2.52l-1.9,1.9c-.35.35-.8.52-1.26.52Z"/></g><path d="M32.97,72c-.38,0-.77-.12-1.08-.37-5.01-3.84-10.65-6.63-16.76-8.27-4.32-1.16-8.8-1.73-13.32-1.68-.47.02-.93-.18-1.27-.51-.34-.33-.53-.79-.53-1.27v-30.77c0-.88.65-1.64,1.53-1.76,3.41-.49,6.85-.44,10.22.15,1.99.35,3.96.9,5.85,1.62.92.35,1.38,1.38,1.02,2.3-.35.92-1.38,1.38-2.3,1.02-1.68-.64-3.42-1.13-5.19-1.44-2.49-.44-5.03-.55-7.57-.32v27.41c4.24.1,8.43.7,12.49,1.79,5.42,1.46,10.5,3.76,15.14,6.84v-9.94c0-.98.8-1.78,1.78-1.78s1.78.8,1.78,1.78v13.4c0,.68-.38,1.3-.99,1.6-.25.12-.52.18-.79.18Z"/><path d="M32.97,72c-.27,0-.54-.06-.79-.18-.61-.3-.99-.92-.99-1.6v-13.4c0-.98.8-1.78,1.78-1.78s1.78.8,1.78,1.78v9.94c4.64-3.08,9.71-5.38,15.14-6.84,4.06-1.09,8.25-1.69,12.49-1.79v-27.41c-2.53-.23-5.07-.12-7.57.32-1.62.29-3.23.72-4.77,1.28-.92.34-1.95-.14-2.28-1.06-.34-.92.14-1.95,1.06-2.28,1.74-.64,3.55-1.12,5.37-1.44,3.37-.6,6.81-.65,10.22-.15.88.13,1.53.88,1.53,1.76v30.77c0,.48-.19.93-.53,1.27-.34.33-.79.53-1.27.51-4.52-.05-9,.51-13.32,1.68-6.11,1.65-11.75,4.43-16.76,8.27-.32.24-.7.37-1.08.37Z"/></g></svg>