<?xml version="1.0" encoding="UTF-8"?><svg id="Layer_2" xmlns="http://www.w3.org/2000/svg" viewBox="0 0 72 72"><g id="Layer_1-2"><g id="Icon_39"><path d="M1.25,56.37c-.69,0-1.25-.56-1.25-1.24V3.27C0,1.47,1.47,0,3.27,0h42.18c.69,0,1.25.56,1.25,1.24s-.56,1.24-1.25,1.24H3.27c-.43,0-.78.35-.78.78v51.86c0,.69-.56,1.24-1.25,1.24Z"/><path d="M32.27,62.33H10.17c-1.9,0-3.45-1.54-3.45-3.44V10c0-1.9,1.55-3.45,3.45-3.45h39.99c1.9,0,3.45,1.55,3.45,3.45v4.01c0,.79-.64,1.42-1.42,1.42s-1.42-.64-1.42-1.42v-4.01c0-.33-.27-.6-.6-.6H10.17c-.33,0-.6.27-.6.6v48.89c0,.33.27.6.6.6h22.1c.79,0,1.42.64,1.42,1.42s-.64,1.42-1.42,1.42Z"/><path d="M20.83,34.78h-5.88c-.87,0-1.58-.67-1.58-1.49v-5.95c0-.82.71-1.49,1.58-1.49h5.88c.87,0,1.58.67,1.58,1.49v5.95c0,.82-.71,1.49-1.58,1.49ZM15.87,32.29h4.04v-3.95h-4.04v3.95Z"/><path d="M35.08,44.68h-5.88c-.87,0-1.58-.67-1.58-1.49v-5.95c0-.82.71-1.49,1.58-1.49h5.88c.87,0,1.58.67,1.58,1.49v5.95c0,.82-.71,1.49-1.58,1.49ZM30.12,42.19h4.04v-3.95h-4.04v3.95Z"/><path d="M29.95,20.42h-5.88c-.87,0-1.58-.67-1.58-1.49v-5.94c0-.82.71-1.49,1.58-1.49h5.88c.87,0,1.58.67,1.58,1.49v5.94c0,.82-.71,1.49-1.58,1.49ZM24.99,17.93h4.04v-3.95h-4.04v3.95Z"/><path d="M45.32,28.97h-5.88c-.87,0-1.58-.67-1.58-1.49v-5.94c0-.82.71-1.49,1.58-1.49h5.88c.87,0,1.58.67,1.58,1.49v5.94c0,.82-.71,1.49-1.58,1.49ZM40.36,26.48h4.04v-3.95h-4.04v3.95Z"/><path d="M21,55.51h-5.88c-.87,0-1.58-.67-1.58-1.49v-5.94c0-.82.71-1.49,1.58-1.49h5.88c.87,0,1.58.67,1.58,1.49v5.94c0,.82-.71,1.49-1.58,1.49ZM16.04,53.02h4.04v-3.95h-4.04v3.95Z"/><path d="M61.96,31.77h-5.88c-.87,0-1.58-.67-1.58-1.49v-5.95c0-.82.71-1.49,1.58-1.49h5.88c.87,0,1.58.67,1.58,1.49v5.95c0,.82-.71,1.49-1.58,1.49ZM57,29.28h4.04v-3.95h-4.04v3.95Z"/><path d="M54.63,60.77c-3.38,0-6.13-2.75-6.13-6.12s2.75-6.12,6.13-6.12,6.13,2.75,6.13,6.12-2.75,6.12-6.13,6.12ZM54.63,51.02c-2,0-3.63,1.63-3.63,3.63s1.63,3.63,3.63,3.63,3.64-1.63,3.64-3.63-1.63-3.63-3.64-3.63Z"/><path d="M57.59,72h-5.93c-.98,0-1.78-.8-1.78-1.78v-3.26c-.21-.08-.41-.17-.62-.26l-1.94,1.94c-.9.89-2.35.89-3.24,0l-3.47-3.47c-.89-.9-.89-2.34,0-3.24l1.95-1.95c-.09-.2-.18-.41-.26-.62h-3.26c-.98,0-1.78-.8-1.78-1.78v-5.92c0-.98.8-1.78,1.78-1.78h3.26c.08-.21.17-.41.26-.62l-2.31-2.3c-.69-.69-.69-1.82,0-2.51l4.19-4.19c.69-.69,1.82-.69,2.52,0l2.31,2.3c.2-.09.41-.17.62-.25v-3.26c0-.98.8-1.78,1.78-1.78h5.93c.98,0,1.78.8,1.78,1.78v3.26c.21.08.41.17.62.26l2.31-2.3c.34-.34.78-.52,1.26-.52s.92.19,1.26.52l4.19,4.19c.69.69.69,1.82,0,2.51l-2.31,2.3c.09.2.18.41.26.62h3.26c.98,0,1.78.8,1.78,1.78v5.92c0,.98-.8,1.78-1.78,1.78h-3.26c-.08.21-.17.41-.26.62l1.94,1.94c.43.43.67,1.01.67,1.62,0,.61-.24,1.19-.68,1.62l-3.82,3.82c-.69.69-1.82.69-2.52,0l-2.31-2.31c-.2.09-.41.18-.62.26v3.26c0,.98-.8,1.78-1.78,1.78ZM52.73,69.15h3.79v-2.95c0-.78.5-1.46,1.25-1.69.55-.17,1.1-.4,1.62-.67.69-.36,1.53-.23,2.08.32l2.09,2.09,2.68-2.68-2.09-2.08c-.55-.55-.68-1.38-.32-2.07.27-.52.5-1.07.67-1.62.24-.74.92-1.24,1.69-1.24h2.95v-3.79h-2.95c-.78,0-1.46-.5-1.69-1.24-.18-.56-.4-1.1-.67-1.62-.36-.69-.23-1.53.32-2.08l2.09-2.09-2.68-2.68-2.09,2.09c-.55.55-1.39.68-2.08.32-.51-.27-1.06-.49-1.62-.67-.74-.24-1.24-.92-1.24-1.69v-2.95h-3.79v2.95c0,.78-.5,1.46-1.24,1.69-.56.18-1.1.4-1.62.67-.69.36-1.53.23-2.08-.32l-2.09-2.09-2.68,2.68,2.09,2.09c.55.55.68,1.38.32,2.08-.27.51-.49,1.06-.67,1.62-.24.74-.92,1.24-1.69,1.24h-2.95v3.79h2.95c.78,0,1.46.5,1.7,1.25.17.55.4,1.09.67,1.61.36.69.23,1.53-.32,2.08l-2.09,2.09,2.68,2.68,2.09-2.09c.55-.55,1.39-.68,2.08-.32.51.27,1.06.49,1.62.67.74.24,1.24.92,1.24,1.69v2.95ZM66.63,63.18s0,0,0,0h0ZM65.86,58.22h0,0Z"/></g></g></svg>