<?xml version="1.0" encoding="UTF-8"?><svg id="Layer_2" xmlns="http://www.w3.org/2000/svg" viewBox="0 0 71.49 72"><defs><style>.cls-1{fill:#241f20;}</style></defs><g id="Layer_1-2"><g id="Icon_74"><path class="cls-1" d="M29.15,40.1c-7.33,0-13.3-6.18-13.3-13.77s5.97-13.77,13.3-13.77,13.3,6.18,13.3,13.77-5.97,13.77-13.3,13.77ZM29.15,16.12c-5.38,0-9.75,4.58-9.75,10.22s4.37,10.22,9.75,10.22,9.75-4.58,9.75-10.22-4.37-10.22-9.75-10.22Z"/><path class="cls-1" d="M56.19,72H1.77c-.98,0-1.77-.79-1.77-1.77,0-14.06,10.91-25.49,24.31-25.49h9.33c13.41,0,24.31,11.44,24.31,25.49,0,.98-.79,1.77-1.77,1.77ZM3.62,68.45h50.73c-.86-11.27-9.81-20.17-20.7-20.17h-9.33c-10.88,0-19.84,8.89-20.7,20.17Z"/><path class="cls-1" d="M66.59,35.37h-12.34c-.98,0-1.77-.79-1.77-1.77s.79-1.77,1.77-1.77h12.34c.75,0,1.35-.61,1.35-1.35V4.9c0-.75-.61-1.35-1.35-1.35h-26.38c-.75,0-1.35.61-1.35,1.35v3.57c0,.98-.79,1.77-1.77,1.77s-1.77-.79-1.77-1.77v-3.57c0-2.7,2.2-4.9,4.9-4.9h26.38c2.7,0,4.9,2.2,4.9,4.9v25.56c0,2.7-2.2,4.9-4.9,4.9Z"/><path class="cls-1" d="M61.8,20.24h-14.79c-.98,0-1.77-.79-1.77-1.77s.79-1.77,1.77-1.77h14.79c.98,0,1.77.79,1.77,1.77s-.79,1.77-1.77,1.77Z"/></g></g></svg>