<?xml version="1.0" encoding="UTF-8"?><svg id="Layer_2" xmlns="http://www.w3.org/2000/svg" viewBox="0 0 64.69 63.2"><g id="Layer_1-2"><path d="M1.75,63.2C.79,63.2,0,62.42,0,61.46c0-.97.78-1.75,1.74-1.76l61.19-.19h0c.96,0,1.75.78,1.75,1.74,0,.97-.78,1.75-1.74,1.76l-61.19.19h0ZM32.37,39.79c-.96,0-1.75-.78-1.75-1.74l-.17-36.29c0-.97.78-1.75,1.74-1.76h0c.96,0,1.75.78,1.75,1.74l.17,36.29c0,.97-.78,1.75-1.74,1.76h0ZM15.35,21.5h0c.92-.86,2.36-.82,3.22.1l13.79,14.7,13.66-14.83c.85-.93,2.29-.98,3.22-.13h0c.92.85.98,2.29.13,3.22l-14.7,15.96c-1.23,1.33-3.33,1.34-4.57.02l-14.84-15.82c-.86-.92-.81-2.36.1-3.22Z"/></g></svg>