<?xml version="1.0" encoding="UTF-8"?><svg id="Layer_2" xmlns="http://www.w3.org/2000/svg" viewBox="0 0 72 72"><g id="Layer_1-2"><g id="Icon_37"><path d="M36.01,67.77c-17.52,0-31.77-14.25-31.77-31.77S18.49,4.22,36.01,4.22s31.77,14.25,31.77,31.77-14.25,31.77-31.77,31.77ZM36.01,7.79c-15.55,0-28.21,12.65-28.21,28.21s12.65,28.21,28.21,28.21,28.21-12.65,28.21-28.21S51.56,7.79,36.01,7.79Z"/><path d="M36.01,14.12c-.99,0-1.78-.8-1.78-1.78V1.78c0-.99.8-1.78,1.78-1.78s1.78.8,1.78,1.78v10.55c0,.99-.8,1.78-1.78,1.78Z"/><path d="M12.34,37.78H1.78c-.99,0-1.78-.8-1.78-1.78s.8-1.78,1.78-1.78h10.55c.99,0,1.78.8,1.78,1.78s-.8,1.78-1.78,1.78Z"/><path d="M35.99,72c-.99,0-1.78-.8-1.78-1.78v-10.55c0-.99.8-1.78,1.78-1.78s1.78.8,1.78,1.78v10.55c0,.99-.8,1.78-1.78,1.78Z"/><path d="M70.22,37.79h-10.55c-.99,0-1.78-.8-1.78-1.78s.8-1.78,1.78-1.78h10.55c.99,0,1.78.8,1.78,1.78s-.8,1.78-1.78,1.78Z"/><path d="M53.67,51.49H19.56c-.64,0-1.23-.34-1.55-.89-.32-.55-.32-1.23,0-1.79l17.05-29.39c.32-.55.91-.89,1.54-.89s1.22.34,1.54.89l17.05,29.39c.32.55.32,1.23,0,1.79-.32.55-.91.89-1.55.89ZM22.66,47.92h27.91l-13.96-24.05-13.96,24.05Z"/><path d="M36.65,41.15c-.99,0-1.78-.8-1.78-1.78v-7.98c0-.99.8-1.78,1.78-1.78s1.78.8,1.78,1.78v7.98c0,.99-.8,1.78-1.78,1.78Z"/><path d="M36.52,45.73c-.76,0-1.47-.49-1.7-1.26-.29-.94.23-1.94,1.17-2.23l.14-.04c.94-.29,1.94.23,2.23,1.17.29.94-.23,1.94-1.17,2.23l-.14.04c-.18.05-.35.08-.53.08Z"/></g></g></svg>