<?xml version="1.0" encoding="UTF-8"?><svg id="Layer_2" xmlns="http://www.w3.org/2000/svg" viewBox="0 0 70.06 72"><defs><style>.cls-1{fill:#241f20;}</style></defs><g id="Layer_1-2"><g id="Icon_75"><path class="cls-1" d="M29.36,27.73c-7.39,0-13.4-6.22-13.4-13.87S21.97,0,29.36,0s13.4,6.22,13.4,13.87-6.01,13.87-13.4,13.87ZM29.36,3.58c-5.42,0-9.82,4.62-9.82,10.29s4.41,10.29,9.82,10.29,9.82-4.62,9.82-10.29-4.41-10.29-9.82-10.29Z"/><path class="cls-1" d="M35.36,59.86H1.79c-.99,0-1.79-.8-1.79-1.79,0-14.16,10.99-25.68,24.49-25.68h5.43c4.56,0,9,1.32,12.86,3.82.81.52,1.59,1.1,2.34,1.72.76.63.86,1.76.23,2.52-.63.76-1.76.86-2.52.23-.64-.53-1.31-1.02-2-1.47-3.28-2.12-7.05-3.24-10.91-3.24h-5.43c-10.96,0-19.98,8.96-20.85,20.31h31.71c.99,0,1.79.8,1.79,1.79s-.8,1.79-1.79,1.79Z"/><path class="cls-1" d="M55.62,72c-7.96,0-14.44-6.48-14.44-14.44s6.48-14.44,14.44-14.44,14.44,6.48,14.44,14.44-6.48,14.44-14.44,14.44ZM55.62,46.7c-5.99,0-10.86,4.87-10.86,10.86s4.87,10.86,10.86,10.86,10.86-4.87,10.86-10.86-4.87-10.86-10.86-10.86Z"/><path class="cls-1" d="M55.83,64.5c-.99,0-1.79-.8-1.79-1.79v-11.61c0-.99.8-1.79,1.79-1.79s1.79.8,1.79,1.79v11.61c0,.99-.8,1.79-1.79,1.79Z"/><path class="cls-1" d="M55.83,65.93c-.45,0-.9-.17-1.25-.51l-4.92-4.83c-.7-.69-.72-1.82-.02-2.53.69-.7,1.82-.72,2.53-.02l3.67,3.6,3.67-3.6c.7-.69,1.84-.68,2.53.02.69.7.68,1.84-.02,2.53l-4.92,4.83c-.35.34-.8.51-1.25.51Z"/></g></g></svg>