<?xml version="1.0" encoding="UTF-8"?><svg id="Layer_2" xmlns="http://www.w3.org/2000/svg" viewBox="0 0 72 72"><g id="Layer_1-2"><g id="Icon_97"><path d="M35.98,43.89c-.3,0-.59-.08-.86-.23l-22.67-13.07c-.54-.31-.87-.88-.87-1.5s.33-1.19.87-1.5l22.64-13.05c.54-.31,1.2-.31,1.73,0l22.23,13.07c.53.31.85.88.85,1.49,0,.61-.33,1.18-.85,1.49l-22.2,13.05c-.27.16-.57.24-.87.24ZM16.77,29.09l19.19,11.07,18.8-11.05-18.82-11.07-19.17,11.05Z"/><path d="M35.98,69.39c-.95,0-1.73-.78-1.73-1.73v-25.5c0-.96.77-1.73,1.73-1.73s1.73.78,1.73,1.73v25.5c0,.96-.77,1.73-1.73,1.73Z"/><path d="M35.62,70.91c-.31,0-.62-.08-.89-.25l-22.33-13.46c-.52-.31-.84-.88-.84-1.48v-26.63c0-.96.77-1.73,1.73-1.73s1.73.78,1.73,1.73v25.65l20.6,12.43,20.82-12.43v-25.65c0-.96.77-1.73,1.73-1.73s1.73.78,1.73,1.73v26.63c0,.61-.32,1.18-.84,1.49l-22.55,13.46c-.27.16-.58.24-.88.24Z"/><path d="M35.67,25.23c-.95,0-1.73-.78-1.73-1.73V1.73c0-.96.77-1.73,1.73-1.73s1.73.78,1.73,1.73v21.77c0,.96-.77,1.73-1.73,1.73Z"/><polygon points="37.08 3.39 35.67 1.98 34.27 3.39 34.27 2.19 35.67 .78 37.08 2.19 37.08 3.39"/><path d="M1.73,72c-.44,0-.88-.17-1.22-.51-.67-.68-.67-1.77,0-2.45l19.08-19.14c.67-.68,1.77-.68,2.44,0,.67.68.67,1.77,0,2.45L2.95,71.49c-.34.34-.78.51-1.22.51Z"/><polygon points="1.9 68.1 1.9 70.09 3.89 70.09 3.04 70.94 1.06 70.94 1.06 68.95 1.9 68.1"/><path d="M70.27,72c-.44,0-.88-.17-1.22-.51l-19.08-19.14c-.67-.68-.67-1.77,0-2.45.67-.68,1.77-.68,2.44,0l19.08,19.14c.67.68.67,1.77,0,2.45-.34.34-.78.51-1.22.51Z"/><polygon points="68.11 70.09 70.1 70.09 70.1 68.1 70.94 68.95 70.94 70.94 68.96 70.94 68.11 70.09"/></g></g></svg>