<?xml version="1.0" encoding="UTF-8"?><svg id="Layer_2" xmlns="http://www.w3.org/2000/svg" viewBox="0 0 75.5 75.81"><g id="Layer_1-2"><path d="M66.55,75.81c-4.93,0-8.95-4.02-8.95-8.95s4.01-8.95,8.95-8.95,8.95,4.01,8.95,8.95-4.02,8.95-8.95,8.95ZM66.55,61.41c-3,0-5.45,2.44-5.45,5.45s2.44,5.45,5.45,5.45,5.45-2.44,5.45-5.45-2.45-5.45-5.45-5.45ZM37.75,75.81c-4.94,0-8.95-4.02-8.95-8.95,0-4.34,3.1-7.96,7.2-8.78V25.43H9.16c-3.06,0-5.55-2.49-5.55-5.55V5.55C3.61,2.49,6.1,0,9.16,0h57.34c3.06,0,5.55,2.49,5.55,5.55v14.33c0,3.06-2.49,5.55-5.55,5.55h-27v32.65c4.1.82,7.2,4.44,7.2,8.78,0,4.94-4.01,8.95-8.95,8.95ZM37.75,61.41c-3.01,0-5.45,2.44-5.45,5.45s2.45,5.45,5.45,5.45,5.45-2.44,5.45-5.45-2.44-5.45-5.45-5.45ZM38.02,21.93h28.48c1.13,0,2.05-.92,2.05-2.05V5.55c0-1.13-.92-2.05-2.05-2.05H9.16c-1.13,0-2.05.92-2.05,2.05v14.33c0,1.13.92,2.05,2.05,2.05h28.32c.17-.03.36-.03.54,0ZM8.95,75.81c-4.94,0-8.95-4.02-8.95-8.95s4.02-8.95,8.95-8.95,8.95,4.01,8.95,8.95-4.01,8.95-8.95,8.95ZM8.95,61.41c-3.01,0-5.45,2.44-5.45,5.45s2.45,5.45,5.45,5.45,5.45-2.44,5.45-5.45-2.44-5.45-5.45-5.45Z"/><path d="M68.37,45.58v13.47c0,.99-.8,1.79-1.78,1.79s-1.78-.8-1.78-1.79v-13.47c0-1.18-.96-2.14-2.14-2.14H12.83c-1.18,0-2.14.96-2.14,2.14v13.47c0,.99-.8,1.79-1.78,1.79s-1.78-.8-1.78-1.79v-13.47c0-3.15,2.56-5.71,5.7-5.71h49.84c3.14,0,5.7,2.56,5.7,5.71Z"/></g></svg>