<?xml version="1.0" encoding="UTF-8"?><svg id="Layer_2" xmlns="http://www.w3.org/2000/svg" viewBox="0 0 72.5 72.5"><defs><style>.cls-1{stroke:#000;stroke-miterlimit:10;stroke-width:.5px;}</style></defs><g id="Layer_1-2"><g id="Icon_43"><g id="YVhj0f"><path class="cls-1" d="M36.26,72.25c-.95,0-1.9-.4-2.89-1.21-1.62-1.32-3.2-2.62-4.77-3.94-1.84.4-3.7.77-5.5,1.13l-.71.14c-2.29.46-3.99-.44-4.92-2.59l-.41-.96c-.69-1.6-1.4-3.26-2.06-4.91,0,0,0,0-.01,0-1.99-.55-3.93-1.12-6.07-1.75-2.17-.64-3.23-2.18-3.16-4.57v-.1c.05-.52.09-1.06.13-1.6.11-1.41.23-2.88.38-4.35.04-.35.03-.36-.15-.51-1.3-1.15-2.55-2.38-3.75-3.57l-.76-.75c-1.56-1.54-1.78-3.5-.59-5.4l.33-.53c1.01-1.61,2.04-3.26,3.09-4.89-.72-2.1-1.41-4.2-2-5.99-.75-2.3-.09-4.07,1.99-5.28,1.78-1.04,3.62-2.11,5.46-3.16.3-2.04.62-4.01.98-6.19.4-2.43,1.91-3.76,4.37-3.85.88-.03,1.77-.07,2.65-.11,1.17-.05,2.35-.1,3.52-.14,1.1-1.5,2.2-2.97,3.3-4.44l.45-.6c1.42-1.9,3.31-2.37,5.46-1.34l1.12.53c1.49.71,3.03,1.44,4.54,2.18,1.45-.71,2.92-1.41,4.34-2.09l1.34-.64c2.14-1.02,4.02-.55,5.46,1.36l.66.88c1.02,1.36,2.06,2.76,3.08,4.15,1.27.04,2.54.09,3.78.15.8.03,1.6.07,2.41.1,2.47.09,3.98,1.43,4.36,3.87.14.88.28,1.77.42,2.65.19,1.17.38,2.35.55,3.52,1.73.97,3.47,1.99,5.15,2.97l.37.22c1.97,1.15,2.66,2.99,1.94,5.18l-.25.76c-.57,1.74-1.16,3.54-1.77,5.3.6.93,1.18,1.85,1.76,2.77.45.72.91,1.44,1.37,2.16,1.59,2.48,1.35,4.4-.78,6.41-.5.48-1.01.96-1.51,1.44-.88.84-1.78,1.71-2.69,2.55,0,.02,0,.04,0,.06.24,2.44.4,4.41.51,6.23.15,2.56-.9,4.02-3.42,4.74-.73.21-1.46.42-2.19.63-1.18.35-2.41.7-3.63,1.04-.63,1.56-1.3,3.13-1.94,4.64l-.44,1.03c-1.03,2.42-2.64,3.27-5.2,2.75l-.76-.15c-1.72-.34-3.5-.7-5.25-1.09-1.64,1.38-3.27,2.71-4.78,3.95-.98.8-1.93,1.2-2.88,1.2ZM28.74,63.49c.74,0,1.42.26,2.04.78,1.59,1.34,3.2,2.66,4.84,4,.45.37.64.41.65.41,0,0,.19-.04.64-.41,1.52-1.24,3.15-2.58,4.79-3.95.88-.74,1.82-.98,2.89-.73,1.75.39,3.55.75,5.28,1.1l.76.15c.65.13.83.07.84.07h0s.15-.12.41-.72l.44-1.04c.65-1.52,1.32-3.08,1.94-4.63.43-1.06,1.17-1.73,2.28-2.03,1.21-.33,2.44-.69,3.62-1.04.73-.21,1.47-.43,2.21-.64.66-.19.8-.33.81-.34h0s.07-.17.04-.75c-.11-1.77-.26-3.7-.5-6.09-.12-1.24.24-2.22,1.09-3.01.9-.83,1.8-1.7,2.68-2.54.51-.49,1.01-.97,1.53-1.46q.89-.84.23-1.88c-.46-.72-.92-1.45-1.38-2.18-.6-.95-1.2-1.91-1.82-2.86-.58-.89-.69-1.85-.35-2.84.62-1.79,1.22-3.63,1.81-5.41l.25-.76c.2-.62.15-.67-.35-.97l-.37-.22c-1.69-.99-3.44-2.01-5.17-2.98-.96-.54-1.53-1.37-1.69-2.46-.18-1.19-.37-2.38-.56-3.57-.14-.89-.29-1.78-.42-2.67-.11-.72-.18-.82-.98-.85-.81-.03-1.62-.06-2.42-.1-1.28-.05-2.61-.11-3.91-.15-1.03-.03-1.88-.48-2.51-1.35-1.03-1.41-2.1-2.84-3.13-4.22l-.66-.88c-.43-.58-.49-.57-1.1-.28l-1.34.64c-1.48.7-3,1.43-4.49,2.16-.92.45-1.83.45-2.77-.02-1.54-.76-3.12-1.51-4.65-2.24l-1.12-.54c-.65-.31-.7-.28-1.1.26l-.45.6c-1.13,1.52-2.27,3.04-3.39,4.56-.61.83-1.41,1.26-2.39,1.29-1.25.04-2.49.09-3.73.15-.89.04-1.78.08-2.67.11-.79.03-.87.09-.99.86-.36,2.21-.68,4.2-.98,6.22-.16,1.09-.73,1.92-1.69,2.47-1.85,1.04-3.7,2.12-5.49,3.17-.61.35-.62.39-.4,1.07.6,1.83,1.31,3.98,2.04,6.1.34.99.23,1.92-.32,2.78-1.07,1.67-2.14,3.38-3.18,5.03l-.33.53c-.32.52-.25.63.07.94l.77.76c1.17,1.16,2.38,2.35,3.61,3.44,1.4,1.24,1.43,2.63,1.33,3.57-.15,1.43-.26,2.87-.37,4.26-.04.53-.08,1.06-.13,1.57-.02.8.09.83.62.99,2.13.63,4.05,1.19,6.01,1.73,1.15.32,1.92.99,2.35,2.06.65,1.63,1.36,3.29,2.05,4.89l.41.96c.27.62.29.64.96.5l.71-.14c1.85-.37,3.75-.75,5.62-1.16.25-.05.49-.08.72-.08Z"/></g><path class="cls-1" d="M29.89,51.07c-.64,0-1.27-.24-1.76-.73l-10.17-10.23c-.97-.98-.97-2.56,0-3.54.97-.98,2.54-.98,3.52,0l8.41,8.46,20.21-20.33c.97-.98,2.54-.98,3.52,0,.97.98.97,2.56,0,3.54l-21.96,22.1c-.49.49-1.12.73-1.76.73Z"/></g></g></svg>