<?xml version="1.0" encoding="UTF-8"?><svg id="Layer_2" xmlns="http://www.w3.org/2000/svg" viewBox="0 0 72.08 72"><g id="Layer_1-2"><g id="Icon_18"><path d="M36,72C16.15,72,0,55.85,0,36S16.15,0,36,0c5.61,0,10.99,1.26,15.99,3.74.97.48,1.94,1.02,2.87,1.59.84.52,1.1,1.61.58,2.45-.52.84-1.61,1.1-2.45.58-.84-.51-1.7-1-2.58-1.43-4.5-2.23-9.35-3.37-14.41-3.37C18.11,3.56,3.56,18.11,3.56,36s14.55,32.44,32.44,32.44,32.44-14.55,32.44-32.44c0-3.74-.63-7.4-1.87-10.88-.51-1.43-1.13-2.84-1.83-4.18-.46-.87-.12-1.94.75-2.4.87-.46,1.94-.12,2.4.75.78,1.49,1.47,3.06,2.03,4.64,1.38,3.87,2.08,7.93,2.08,12.08,0,19.85-16.15,36-36,36Z"/><path d="M36,15.12c-.98,0-1.78-.8-1.78-1.78v-4.63c0-.98.8-1.78,1.78-1.78s1.78.8,1.78,1.78v4.63c0,.98-.8,1.78-1.78,1.78Z"/><path d="M19.98,21.75c-.46,0-.91-.17-1.26-.52l-3.27-3.27c-.69-.69-.69-1.82,0-2.52.69-.69,1.82-.69,2.52,0l3.27,3.27c.69.69.69,1.82,0,2.52-.35.35-.8.52-1.26.52Z"/><path d="M13.34,37.78h-4.63c-.98,0-1.78-.8-1.78-1.78s.8-1.78,1.78-1.78h4.63c.98,0,1.78.8,1.78,1.78s-.8,1.78-1.78,1.78Z"/><path d="M16.7,57.07c-.46,0-.91-.17-1.26-.52-.69-.69-.69-1.82,0-2.52l3.27-3.27c.69-.69,1.82-.69,2.52,0,.69.69.69,1.82,0,2.52l-3.27,3.27c-.35.35-.8.52-1.26.52Z"/><path d="M36,65.07c-.98,0-1.78-.8-1.78-1.78v-4.63c0-.98.8-1.78,1.78-1.78s1.78.8,1.78,1.78v4.63c0,.98-.8,1.78-1.78,1.78Z"/><path d="M55.3,57.07c-.46,0-.91-.17-1.26-.52l-3.27-3.27c-.69-.69-.69-1.82,0-2.52.69-.69,1.82-.69,2.52,0l3.27,3.27c.69.69.69,1.82,0,2.52-.35.35-.8.52-1.26.52Z"/><path d="M63.29,37.78h-4.63c-.98,0-1.78-.8-1.78-1.78s.8-1.78,1.78-1.78h4.63c.98,0,1.78.8,1.78,1.78s-.8,1.78-1.78,1.78Z"/><path d="M71.61,3.77c-.21.23-32.62,42.66-32.79,42.86-1.83,2.47-5.71,2.45-7.53-.02,0,0-11.36-14.97-11.36-14.97-1.11-1.46-.82-3.53.64-4.64,1.28-.97,3.04-.87,4.2.16l14.04,12.49s-7.66.15-7.66.15L68.14.82c2.02-2.02,5.14.61,3.47,2.96h0Z"/></g></g></svg>