<?xml version="1.0" encoding="UTF-8"?><svg id="Layer_2" xmlns="http://www.w3.org/2000/svg" viewBox="0 0 72 72"><g id="Layer_1-2"><g id="Icon_45"><path d="M23.33,32.22h-14.43c-4.91,0-8.9-3.99-8.9-8.9v-14.43C0,3.99,3.99,0,8.9,0h14.43c4.91,0,8.9,3.99,8.9,8.9v14.43c0,4.91-3.99,8.9-8.9,8.9ZM8.9,3.56c-2.94,0-5.34,2.39-5.34,5.34v14.43c0,2.94,2.39,5.34,5.34,5.34h14.43c2.94,0,5.34-2.39,5.34-5.34v-14.43c0-2.94-2.39-5.34-5.34-5.34h-14.43Z"/><path d="M63.1,32.22h-14.43c-4.91,0-8.9-3.99-8.9-8.9v-14.43c0-4.91,3.99-8.9,8.9-8.9h14.43c4.91,0,8.9,3.99,8.9,8.9v14.43c0,4.91-3.99,8.9-8.9,8.9ZM48.67,3.56c-2.94,0-5.34,2.39-5.34,5.34v14.43c0,2.94,2.39,5.34,5.34,5.34h14.43c2.94,0,5.34-2.39,5.34-5.34v-14.43c0-2.94-2.39-5.34-5.34-5.34h-14.43Z"/><path d="M23.33,72h-14.43c-4.91,0-8.9-3.99-8.9-8.9v-14.43c0-4.91,3.99-8.9,8.9-8.9h14.43c4.91,0,8.9,3.99,8.9,8.9v14.43c0,4.91-3.99,8.9-8.9,8.9ZM8.9,43.33c-2.94,0-5.34,2.39-5.34,5.34v14.43c0,2.94,2.39,5.34,5.34,5.34h14.43c2.94,0,5.34-2.39,5.34-5.34v-14.43c0-2.94-2.39-5.34-5.34-5.34h-14.43Z"/><path d="M63.1,72h-14.43c-4.91,0-8.9-3.99-8.9-8.9v-14.43c0-4.91,3.99-8.9,8.9-8.9h14.43c4.91,0,8.9,3.99,8.9,8.9v14.43c0,4.91-3.99,8.9-8.9,8.9ZM48.67,43.33c-2.94,0-5.34,2.39-5.34,5.34v14.43c0,2.94,2.39,5.34,5.34,5.34h14.43c2.94,0,5.34-2.39,5.34-5.34v-14.43c0-2.94-2.39-5.34-5.34-5.34h-14.43Z"/></g></g></svg>