<?xml version="1.0" encoding="UTF-8"?><svg id="Layer_2" xmlns="http://www.w3.org/2000/svg" viewBox="0 0 68.67 72"><defs><style>.cls-1{fill:#241f20;}</style></defs><g id="Layer_1-2"><path class="cls-1" d="M34.3,13.94c-.94,0-1.69-.76-1.69-1.69V1.69c0-.94.76-1.69,1.69-1.69s1.69.76,1.69,1.69v10.55c0,.94-.76,1.69-1.69,1.69Z"/><path class="cls-1" d="M21.34,18.17c-.76.55-1.82.38-2.37-.37l-6.2-8.53c-.55-.76-.38-1.82.37-2.37s1.82-.38,2.37.37l6.2,8.53c.55.76.38,1.82-.37,2.37Z"/><path class="cls-1" d="M13.34,29.22c-.29.89-1.25,1.38-2.14,1.09l-10.03-3.26c-.89-.29-1.38-1.25-1.09-2.14s1.25-1.38,2.14-1.09l10.03,3.26c.89.29,1.38,1.25,1.09,2.14Z"/><path class="cls-1" d="M13.36,42.85c.29.89-.2,1.85-1.09,2.14l-10.03,3.26c-.89.29-1.85-.2-2.14-1.09s.2-1.85,1.09-2.14l10.03-3.26c.89-.29,1.85.2,2.14,1.09Z"/><path class="cls-1" d="M21.4,53.87c.76.55.93,1.61.37,2.37l-6.2,8.53c-.55.76-1.61.93-2.37.37s-.93-1.61-.37-2.37l6.2-8.53c.55-.76,1.61-.93,2.37-.37Z"/><path class="cls-1" d="M34.37,58.06c.94,0,1.69.76,1.69,1.69v10.55c0,.94-.76,1.69-1.69,1.69s-1.69-.76-1.69-1.69v-10.55c0-.94.76-1.69,1.69-1.69Z"/><path class="cls-1" d="M47.33,53.83c.76-.55,1.82-.38,2.37.37l6.2,8.53c.55.76.38,1.82-.37,2.37s-1.82.38-2.37-.37l-6.2-8.53c-.55-.76-.38-1.82.37-2.37Z"/><path class="cls-1" d="M55.33,42.78c.29-.89,1.25-1.38,2.14-1.09l10.03,3.26c.89.29,1.38,1.25,1.09,2.14s-1.25,1.38-2.14,1.09l-10.03-3.26c-.89-.29-1.38-1.25-1.09-2.14Z"/><path class="cls-1" d="M55.3,29.15c-.29-.89.2-1.85,1.09-2.14l10.03-3.26c.89-.29,1.85.2,2.14,1.09s-.2,1.85-1.09,2.14l-10.03,3.26c-.89.29-1.85-.2-2.14-1.09Z"/><path class="cls-1" d="M47.27,18.13c-.76-.55-.93-1.61-.37-2.37l6.2-8.53c.55-.76,1.61-.93,2.37-.37s.93,1.61.37,2.37l-6.2,8.53c-.55.76-1.61.93-2.37.37Z"/><path class="cls-1" d="M34.27,50.4c-3.69,0-7.37-1.4-10.18-4.21-5.61-5.61-5.61-14.75,0-20.36h0c5.61-5.61,14.75-5.61,20.36,0,5.61,5.61,5.61,14.75,0,20.36-2.81,2.81-6.49,4.21-10.18,4.21ZM26.48,28.23c-4.29,4.29-4.29,11.27,0,15.57s11.27,4.29,15.57,0c4.29-4.29,4.29-11.27,0-15.57-4.29-4.29-11.27-4.29-15.57,0h0Z"/></g></svg>