<?xml version="1.0" encoding="UTF-8"?><svg id="Layer_2" xmlns="http://www.w3.org/2000/svg" viewBox="0 0 72.03 72.03"><defs><style>.cls-1{fill:#241f20;}</style></defs><g id="Layer_1-2"><path class="cls-1" d="M36.04,50.45c-7.94,0-14.4-6.46-14.4-14.4s6.46-14.4,14.4-14.4,14.4,6.46,14.4,14.4-6.46,14.4-14.4,14.4ZM36.04,25.05c-6.07,0-11.01,4.94-11.01,11.01s4.94,11.01,11.01,11.01,11.01-4.94,11.01-11.01-4.94-11.01-11.01-11.01Z"/><path class="cls-1" d="M36.04,13.94c-.94,0-1.69-.76-1.69-1.69V1.69c0-.94.76-1.69,1.69-1.69s1.69.76,1.69,1.69v10.55c0,.94-.76,1.69-1.69,1.69Z"/><path class="cls-1" d="M25,16.88c-.81.47-1.85.19-2.32-.62l-5.27-9.14c-.47-.81-.19-1.85.62-2.32s1.85-.19,2.32.62l5.27,9.14c.47.81.19,1.85-.62,2.32Z"/><path class="cls-1" d="M16.91,24.95c-.47.81-1.5,1.09-2.32.62l-9.14-5.27c-.81-.47-1.09-1.5-.62-2.32s1.5-1.09,2.32-.62l9.14,5.27c.81.47,1.09,1.5.62,2.32Z"/><path class="cls-1" d="M13.94,35.98c0,.94-.76,1.69-1.69,1.69H1.69c-.94,0-1.69-.76-1.69-1.69,0-.94.76-1.69,1.69-1.69h10.55c.94,0,1.69.76,1.69,1.69Z"/><path class="cls-1" d="M16.88,47.03c.47.81.19,1.85-.62,2.32l-9.14,5.27c-.81.47-1.85.19-2.32-.62s-.19-1.85.62-2.32l9.14-5.27c.81-.47,1.85-.19,2.32.62Z"/><path class="cls-1" d="M24.95,55.12c.81.47,1.09,1.5.62,2.32l-5.27,9.14c-.47.81-1.5,1.09-2.32.62s-1.09-1.5-.62-2.32l5.27-9.14c.47-.81,1.5-1.09,2.32-.62Z"/><path class="cls-1" d="M35.98,58.09c.94,0,1.69.76,1.69,1.69v10.55c0,.94-.76,1.69-1.69,1.69s-1.69-.76-1.69-1.69v-10.55c0-.94.76-1.69,1.69-1.69Z"/><path class="cls-1" d="M47.03,55.15c.81-.47,1.85-.19,2.32.62l5.27,9.14c.47.81.19,1.85-.62,2.32s-1.85.19-2.32-.62l-5.27-9.14c-.47-.81-.19-1.85.62-2.32Z"/><path class="cls-1" d="M55.12,47.08c.47-.81,1.5-1.09,2.32-.62l9.14,5.27c.81.47,1.09,1.5.62,2.32s-1.5,1.09-2.32.62l-9.14-5.27c-.81-.47-1.09-1.5-.62-2.32Z"/><path class="cls-1" d="M58.09,36.04c0-.94.76-1.69,1.69-1.69h10.55c.94,0,1.69.76,1.69,1.69s-.76,1.69-1.69,1.69h-10.55c-.94,0-1.69-.76-1.69-1.69Z"/><path class="cls-1" d="M55.15,25c-.47-.81-.19-1.85.62-2.32l9.14-5.27c.81-.47,1.85-.19,2.32.62s.19,1.85-.62,2.32l-9.14,5.27c-.81.47-1.85.19-2.32-.62Z"/><path class="cls-1" d="M47.08,16.91c-.81-.47-1.09-1.5-.62-2.32l5.27-9.14c.47-.81,1.5-1.09,2.32-.62s1.09,1.5.62,2.32l-5.27,9.14c-.47.81-1.5,1.09-2.32.62Z"/><path class="cls-1" d="M36.1,50.46c-3.85,0-7.46-1.5-10.18-4.22h0s0,0,0,0c-2.72-2.72-4.22-6.33-4.22-10.18s1.5-7.46,4.22-10.18c2.72-2.72,6.33-4.22,10.18-4.22s7.46,1.5,10.18,4.22c2.72,2.72,4.22,6.33,4.22,10.18s-1.5,7.46-4.22,10.18c-2.72,2.72-6.33,4.22-10.18,4.22ZM36.1,25.06c-2.94,0-5.7,1.14-7.78,3.22-2.08,2.08-3.22,4.84-3.22,7.78s1.14,5.7,3.22,7.78h0c2.08,2.08,4.84,3.22,7.78,3.22s5.7-1.14,7.78-3.22c2.08-2.08,3.22-4.84,3.22-7.78s-1.14-5.7-3.22-7.78c-2.08-2.08-4.84-3.22-7.78-3.22Z"/><path class="cls-1" d="M36.14,50.43c-7.94,0-14.4-6.46-14.4-14.4s6.46-14.4,14.4-14.4,14.4,6.46,14.4,14.4-6.46,14.4-14.4,14.4ZM36.14,25.03c-6.07,0-11.01,4.94-11.01,11.01s4.94,11.01,11.01,11.01,11.01-4.94,11.01-11.01-4.94-11.01-11.01-11.01Z"/><path class="cls-1" d="M36.15,50.37c-3.69,0-7.37-1.4-10.18-4.21-2.72-2.72-4.22-6.33-4.22-10.18s1.5-7.46,4.22-10.18c5.61-5.61,14.75-5.61,20.36,0,2.72,2.72,4.22,6.33,4.22,10.18s-1.5,7.46-4.22,10.18h0c-2.81,2.81-6.49,4.21-10.18,4.21ZM36.15,24.98c-2.82,0-5.64,1.07-7.78,3.22-2.08,2.08-3.22,4.84-3.22,7.78s1.14,5.7,3.22,7.78c4.29,4.29,11.27,4.29,15.57,0,2.08-2.08,3.22-4.84,3.22-7.78s-1.14-5.7-3.22-7.78c-2.15-2.15-4.96-3.22-7.78-3.22ZM45.13,44.97h0,0Z"/><path class="cls-1" d="M36.12,50.34c-7.94,0-14.4-6.46-14.4-14.4s6.46-14.4,14.4-14.4,14.4,6.46,14.4,14.4-6.46,14.4-14.4,14.4ZM36.12,24.94c-6.07,0-11.01,4.94-11.01,11.01s4.94,11.01,11.01,11.01,11.01-4.94,11.01-11.01-4.94-11.01-11.01-11.01Z"/><path class="cls-1" d="M36.07,50.33c-3.85,0-7.46-1.5-10.18-4.22-2.72-2.72-4.22-6.33-4.22-10.18s1.5-7.46,4.22-10.18c2.72-2.72,6.33-4.22,10.18-4.22s7.46,1.5,10.18,4.22h0s0,0,0,0c2.72,2.72,4.22,6.33,4.22,10.18s-1.5,7.46-4.22,10.18c-2.72,2.72-6.33,4.22-10.18,4.22ZM36.07,24.93c-2.94,0-5.7,1.14-7.78,3.22-2.08,2.08-3.22,4.84-3.22,7.78s1.14,5.7,3.22,7.78c2.08,2.08,4.84,3.22,7.78,3.22s5.7-1.14,7.78-3.22c4.29-4.29,4.29-11.27,0-15.57h0c-2.08-2.08-4.84-3.22-7.78-3.22Z"/><path class="cls-1" d="M36.02,50.36c-7.94,0-14.4-6.46-14.4-14.4s6.46-14.4,14.4-14.4,14.4,6.46,14.4,14.4-6.46,14.4-14.4,14.4ZM36.02,24.96c-6.07,0-11.01,4.94-11.01,11.01s4.94,11.01,11.01,11.01,11.01-4.94,11.01-11.01-4.94-11.01-11.01-11.01Z"/><path class="cls-1" d="M36.01,50.4c-3.69,0-7.37-1.4-10.18-4.21-5.61-5.61-5.61-14.75,0-20.36h0c5.61-5.61,14.75-5.61,20.36,0,5.61,5.61,5.61,14.75,0,20.36-2.81,2.81-6.49,4.21-10.18,4.21ZM28.23,28.23c-4.29,4.29-4.29,11.27,0,15.57s11.27,4.29,15.57,0c4.29-4.29,4.29-11.27,0-15.57-4.29-4.29-11.27-4.29-15.57,0h0Z"/></g></svg>